<svg xmlns="http://www.w3.org/2000/svg" width="181" height="39" fill="none" viewBox="0 0 181 39">
    <path fill="#fff" d="M98.482 5.846c-.112-.225-.225-.225-.45-.337-.224-.113-.337-.113-.562-.113-.224 0-.562.113-.787.225-.225.113-.45.337-.562.562l-10.68 26.532c-.112.225-.112.337-.225.562 0 .225 0 .337.113.562.112.225.225.337.337.45.337.225.675.45 1.012.45.225 0 .337 0 .562-.113.225-.112.337-.225.45-.337.112-.113.224-.337.337-.45l10.68-26.42c.112-.224.225-.336.225-.561 0-.225 0-.338-.113-.562-.112-.225-.224-.338-.337-.45zM109.387 12.03c-3.598 0-6.745 2.135-6.745 6.407v3.935c0 4.047 3.035 6.183 6.857 6.183 3.598 0 6.746-2.36 6.746-6.52v-3.71c0-3.935-2.923-6.296-6.858-6.296zm3.935 10.23c0 2.698-1.574 3.934-3.823 3.934-2.585 0-4.047-1.461-4.047-3.822v-4.047c0-2.586 1.686-3.822 3.935-3.822 2.586 0 3.935 1.461 3.935 3.71v4.047zM130.635 14.615c-.787-1.799-2.811-2.698-4.722-2.698-3.148 0-5.958 2.136-5.958 6.295v3.823c0 3.597 2.36 5.846 5.958 5.846 1.911 0 3.71-.787 4.722-2.586v2.586c0 2.585-1.574 4.272-4.16 4.272-.787 0-1.461-.113-2.136-.45-.674-.337-1.124-.9-1.574-1.574l-2.698 1.012c1.012 2.136 3.598 3.26 5.958 3.26 4.947 0 7.195-3.373 7.195-7.082V12.254h-2.81v2.36h.225zm0 6.97c0 2.923-2.024 4.16-3.935 4.047-2.361 0-3.822-1.349-3.822-3.485v-4.16c0-2.585 1.911-3.597 3.71-3.597 2.136 0 4.047 1.35 4.047 3.822v3.373zM156.829 18.212v-.337c0-3.597-2.923-5.621-6.295-5.621-3.71 0-6.633 2.36-6.633 6.52v3.26c0 4.048 2.923 6.184 6.633 6.296 3.485 0 6.183-2.023 6.183-5.62v-.338h-2.698v.337c0 1.8-1.349 3.148-3.485 3.148-2.586 0-3.823-1.574-3.823-3.822v-3.71c0-2.473 1.574-3.935 3.823-3.935 2.248 0 3.597 1.35 3.597 3.148v.45h2.698v.224zM139.966 12.367h-2.811v15.851h2.811V12.367zM139.966 5.621h-2.811V9.22h2.811V5.62zM177.74 19.224c-.113-.225-.338-.45-.563-.562l-10.567-6.296c-.225-.112-.45-.224-.787-.224-.225 0-.337 0-.562.112-.225.112-.338.225-.45.337-.112.113-.225.338-.337.45-.113.225-.113.337-.113.562 0 .225.113.45.225.675.113.224.337.45.562.562l8.544 5.171-8.544 5.172c-.225.112-.449.337-.562.562-.112.225-.225.45-.225.787 0 .224 0 .337.113.562.112.225.112.337.337.45.112.112.337.224.45.337.225.112.337.112.562.112.225 0 .562 0 .787-.225l10.567-6.408c.225-.112.45-.337.563-.562.112-.225.224-.45.224-.787 0-.225-.112-.45-.224-.787zM15.851 14.39c.113-.225.225-.45.225-.787 0-.225 0-.337-.112-.562-.113-.225-.113-.337-.337-.45-.113-.112-.338-.225-.45-.337-.225-.112-.337-.112-.562-.112-.225 0-.562 0-.787.224l-10.68 6.409c-.225.112-.45.337-.562.562-.113.224-.225.45-.225.787 0 .224.112.562.225.787.112.224.337.45.562.562l10.68 6.295c.225.113.45.225.787.225.225 0 .337 0 .562-.112.225-.113.337-.225.45-.337.112-.113.224-.338.337-.45.112-.225.112-.338.112-.562 0-.225-.112-.45-.225-.675-.112-.225-.337-.45-.562-.562l-8.544-5.171 8.544-5.172c.338-.112.45-.337.563-.562zM31.254 12.03c-.9 0-1.912.224-2.699.674-.787.45-1.573 1.124-2.023 2.023h-.113V5.734h-2.81v22.372h2.698v-2.137h.112c.675 1.462 2.474 2.586 4.385 2.586 3.26 0 6.296-1.91 6.296-6.183v-4.497c.112-3.71-2.361-5.846-5.846-5.846zM34.4 22.483c0 2.586-1.91 3.598-3.71 3.71-.562 0-1.124-.112-1.573-.224-.45-.225-.9-.45-1.35-.9-.337-.337-.674-.787-.899-1.349-.225-.45-.337-1.012-.225-1.574v-3.372c0-2.811 2.024-4.272 3.935-4.272 2.248 0 3.822 1.348 3.822 3.372v4.61zM43.957 24.17V5.735h-2.923V24.17c0 1.686.45 4.16 3.71 4.272.9 0 1.799-.113 2.698-.45v-2.136c-.562.113-1.124.113-1.686.113-1.237 0-1.799-.787-1.799-1.8zM75.098 12.03c-3.822 0-6.97 2.473-6.97 6.857v3.26c0 4.272 3.148 6.408 7.082 6.408 2.474 0 4.835-.9 6.184-3.148l-2.136-1.236c-.45.562-1.012 1.124-1.687 1.461-.674.338-1.349.562-2.136.562-2.585 0-4.272-1.461-4.272-3.822v-1.349H81.62v-2.698c-.113-4.272-3.148-6.296-6.52-6.296zM78.696 19H71.05v-.563c0-2.473 1.686-4.047 3.935-4.047 2.36 0 3.71 1.461 3.71 3.822V19zM61.495 21.473c0 2.923-1.799 4.497-4.047 4.497-2.024 0-3.26-1.237-3.26-3.935v-9.668h-2.811v10.567c0 3.26 1.799 5.509 5.284 5.509 1.012 0 2.023-.225 2.81-.787.9-.45 1.574-1.237 2.024-2.024v2.474h2.698v-15.74h-2.81v9.107h.112z"/>
</svg>
