<svg xmlns="http://www.w3.org/2000/svg" width="20" height="15" fill="none" viewBox="0 0 20 15">
    <path fill="#D8D8D8" stroke="#D8D8D8" stroke-width=".1" d="M10.401 9.9l7.424-6.433v9.346c0 .282-.23.512-.512.512H2.688c-.283 0-.513-.23-.513-.512V3.466L9.599 9.9h0c.115.1.258.15.401.15.143 0 .286-.05.401-.15h0zM17.313.95H2.688C1.729.95.95 1.73.95 2.688v10.125c0 .958.78 1.737 1.738 1.737h14.625c.958 0 1.737-.78 1.737-1.738V2.688c0-.959-.78-1.738-1.738-1.738zm0 1.225c.04 0 .078.005.116.014L10 8.627 2.571 2.189c.038-.01.077-.014.116-.014h14.626z"/>
</svg>
