<svg xmlns="http://www.w3.org/2000/svg" width="21" height="14" fill="none" viewBox="0 0 21 14">
    <path fill="#D8D8D8" d="M20.09 6.177C19.912 5.933 15.647.182 10.2.182 4.753.182.488 5.932.31 6.177c-.17.233-.17.548 0 .78.178.245 4.443 5.995 9.89 5.995 5.447 0 9.712-5.75 9.89-5.995.17-.232.17-.547 0-.78zm-9.89 5.454c-4.012 0-7.487-3.817-8.516-5.064 1.027-1.25 4.495-5.064 8.516-5.064 4.012 0 7.487 3.816 8.516 5.065-1.028 1.248-4.495 5.063-8.516 5.063z"/>
    <path fill="#D8D8D8" fill-rule="evenodd" d="M.31 6.177C.487 5.933 4.752.182 10.2.182c5.447 0 9.712 5.75 9.89 5.995.17.233.17.548 0 .78-.178.245-4.443 5.995-9.89 5.995-5.447 0-9.712-5.75-9.89-5.995-.17-.232-.17-.547 0-.78zm19.928-.107c.216.296.216.698 0 .995-.094.128-1.215 1.64-3.001 3.122-1.782 1.479-4.251 2.947-7.037 2.947-2.786 0-5.255-1.469-7.037-2.947-1.786-1.482-2.907-2.994-3-3.123-.217-.296-.217-.698 0-.994.093-.129 1.214-1.64 3-3.122C4.945 1.468 7.414 0 10.2 0c2.786 0 5.255 1.469 7.037 2.948 1.786 1.481 2.907 2.994 3 3.122zM4.932 9.42c1.484 1.1 3.318 2.029 5.268 2.029 1.954 0 3.788-.928 5.272-2.028 1.394-1.032 2.462-2.203 3.007-2.853-.546-.65-1.616-1.821-3.011-2.854-1.485-1.1-3.318-2.029-5.268-2.029-1.954 0-3.788.929-5.272 2.028C3.534 4.746 2.466 5.917 1.92 6.567c.546.649 1.616 1.82 3.01 2.853zM1.684 6.567c1.027-1.25 4.495-5.064 8.516-5.064 4.012 0 7.487 3.816 8.516 5.065-1.028 1.248-4.495 5.063-8.516 5.063-4.012 0-7.487-3.817-8.516-5.064z" clip-rule="evenodd"/>
    <path fill="#D8D8D8" d="M10.2 3.825c-1.507 0-2.732 1.226-2.732 2.732 0 1.506 1.225 2.732 2.732 2.732 1.506 0 2.732-1.226 2.732-2.732 0-1.506-1.226-2.732-2.732-2.732zm0 4.553c-1.004 0-1.821-.817-1.821-1.821s.817-1.821 1.82-1.821c1.005 0 1.822.817 1.822 1.821s-.817 1.821-1.821 1.821z"/>
    <path fill="#D8D8D8" fill-rule="evenodd" d="M7.286 6.557c0-1.607 1.307-2.914 2.914-2.914 1.607 0 2.914 1.307 2.914 2.914 0 1.607-1.307 2.914-2.914 2.914-1.607 0-2.914-1.307-2.914-2.914zm1.275 0c0 .904.735 1.64 1.639 1.64s1.64-.736 1.64-1.64c0-.904-.736-1.64-1.64-1.64-.904 0-1.64.736-1.64 1.64zm-1.093 0c0-1.506 1.225-2.732 2.732-2.732 1.506 0 2.732 1.226 2.732 2.732 0 1.506-1.226 2.732-2.732 2.732-1.507 0-2.732-1.226-2.732-2.732zm.91 0c0 1.004.818 1.821 1.822 1.821s1.821-.817 1.821-1.821-.817-1.821-1.821-1.821-1.821.817-1.821 1.821z" clip-rule="evenodd"/>
</svg>
