<svg xmlns="http://www.w3.org/2000/svg" width="44" height="29" fill="none" viewBox="0 0 44 29">
    <path fill="#fff" stroke="#fff" stroke-width=".5" d="M26.887 5.715h0c3.124.006 5.884 2.027 6.878 5.003.275-.027.551-.04.828-.04v.25-.25c4.784 0 8.657 3.923 8.657 8.757s-3.873 8.758-8.657 8.758H8.671c-4.156-.018-7.595-3.27-7.9-7.458-.298-4.097 2.501-7.75 6.469-8.501-.145-.661-.219-1.337-.22-2.015m19.867-4.504L7.271 10.219m19.616-4.504c-.72 0-1.435.109-2.122.324m2.122-.324l-2.253.63M7.02 10.22h.25m-.25 0s0 0 0 0h.25m-.25 0c-.003-4.44 3.047-8.289 7.338-9.246h0c4.218-.941 8.512 1.163 10.406 5.066m-17.494 4.18c-.003-4.326 2.968-8.07 7.143-9.002 4.173-.931 8.425 1.202 10.22 5.129m.131-.307c-.071.022-.143.046-.214.07l.083.237m.131-.307c.033.067.065.135.096.203l-.227.104M8.672 26.276H8.67c-3.314.014-6.027-2.675-6.077-6.036-.049-3.36 2.583-6.13 5.897-6.216h0c.306-.008.587-.164.758-.418.172-.253.213-.572.112-.86-1.347-3.9.658-8.168 4.49-9.577l-.08-.215.08.215c3.83-1.407 8.071.564 9.51 4.428.092.25.283.45.528.553h0c.245.102.522.097.763-.016h0c.7-.33 1.463-.5 2.235-.501 2.544.005 4.738 1.819 5.248 4.347.103.517.603.857 1.12.751.44-.09.889-.135 1.338-.135 3.729 0 6.756 3.06 6.756 6.84s-3.027 6.84-6.756 6.84H8.672z"/>
</svg>
