<svg width="384" height="717" viewBox="0 0 384 717" fill="none" xmlns="http://www.w3.org/2000/svg">
    <path d="M340.801 13.417c-.001-.107 0-.213.002-.319l-.074-.128c-.107-.38-.247-.618-.398-.677-.15-.058-.303.067-.434.355a19.59 19.59 0 0 1-.776 2.073c.121.096.24.225.355.384a4.305 4.305 0 0 1-.332.75c.377 2.49.468 5.423.252 8.184-.042.284-.087.56-.137.827a18.45 18.45 0 0 0-.61 1.743l.099.816c-.123-.224-.258-.355-.397-.387-.138-.031-.278.039-.41.205l-1.068-.731c-2.374-1.375-2.406-4.286-2.689 2.913l.895.476.588.32.175.09-.001.116v.114h.05c-.096.346-.17.758-.219 1.21-.048.453-.068.935-.06 1.414l-1.607.35c-.649 2.915-1.259 2.785-1.833-.188-.142.118-.29.102-.428-.046s-.263-.423-.361-.798l-.932.416c-.651 2.112-1.287 1.982-1.905-.01l.074-1.732c.109-2.37.293-4.561 1.065-5.246.009-1.555.042-.11.061-1.664l-.052-.255c-1.024-.31-1.742-.154-2.635 1.027l-.194 6.002-.026.854c-.663 4.291-1.197.657-1.786-.251-.44 2.827-1.204 2.543-1.869 3.203-.255-.473-.61-.908-.897-1.368-.287-.46-.453-.844-.468-1.392-.14-4.397-.516-4.297-1.383-2.555-.47.915-1.097.492-1.659.63-.016-.957-.036-1.925-.066-2.881l-.449-.334c-.256-.224-.528-.089-.76.379a4.776 4.776 0 0 0-.283.977c-.075.39-.128.828-.155 1.29l1.448.732.114.001h.104c-.009.207-.022.412-.039.612-.087 1.304-.279 2.495-.552 3.426a20.536 20.536 0 0 0-.52 2.316l-4.371-.696c-1.321.363-2.557 3.442-3.917 2.416-.406-.308-1.017.25-1.08-1.93-.042-1.453.267-3.108.419-4.662-3.029 3.375-5.992 8.973-8.773 2.51.027-1.143.09-2.275.186-3.376.055-.742.157-1.432.299-2.015.141-.583.318-1.044.517-1.345l.017-3.148.019-3.504c-.219-.293-.447-.495-.679-.602-.412 2.725-1.048 3.308-1.745 3.356l-.125-.001c-.009.246-.01.493-.004.74.093 1.822.54 3.825.024 5.275a3.46 3.46 0 0 1-.177.33c-.062.142-.129.261-.198.357a24.061 24.061 0 0 0-.016 2.867c-.854-.004-1.916 1.393-2.523-.101-1.682-4.15-3.664-1.98-5.372-4.703.036-.637.075-1.274.114-1.911.039-.637.063-1.058.098-1.593-.126-.383-.257-.74-.38-1.136a34.627 34.627 0 0 0-.903-2.731c-.988-2.4-1.179-2.746-1.434.707-.055.802-.11 1.732-.177 2.955-5.361-.306-10.507-2.148-15.679-6.2-2.206-1.718-4.46-2.06-6.675-4.976-2.09-2.75-4.645-.405-6.987-.301-.673-3.725-1.69-3.959-2.718-3.683-.229.135-.462.055-.678-.232-.215-.288-.405-.772-.55-1.405-.302-1.686-.451-3.67-.426-5.686-1.228 2.211-1.672 3.076-1.654 4.987a52.23 52.23 0 0 0 .414 4.73c-1.021-.26-2.107.232-3.055-.92-5.714-6.946-11.575-5.84-17.461-3.46-1.77.532-3.547.094-5.269-1.3a41.36 41.36 0 0 0-.001-4.536 3.7 3.7 0 0 0-.14-.885c-.073-.23-.166-.368-.264-.392-.221 0-.36.47-.442 1.145a42.824 42.824 0 0 0-.214 4.51c-3.864 1.167-7.739-.801-11.594 2.2l-4.568-2.137c.002.03.002.06 0 .09a71.327 71.327 0 0 0-.168 3.312c-.221.219-.455.136-.657-.232.048-1.278.034-2.57-.04-3.824a9.088 9.088 0 0 0-.04-.484c-.065-.602-.172-1.131-.311-1.54-.139-.409-.306-.683-.484-.796-.041.866-.077 1.72-.118 2.548-.06 1.274-.117 2.548-.178 3.822-1.155.135-2.283-.1-3.198-3.392-1.476 3.192-2.941 3.733-4.644 3.24-2.755-.803-5.569.662-8.361 1.375-.892.225-1.766.705-2.598-.905l-.325.75-.3-.83c-.718.673-1.44 1.855-2.155 1.928-5.322.586-10.644.943-15.969 1.376-1.225 3.894-2.569 2.447-3.895 1.842-1.894 1.062-3.815 3.308-5.671 2.866-1.856-.442-3.657 3.334-5.66.814-1.374-1.727-3.168.953-4.748 2.271-1.3 1.09-2.567 2.69-3.889 1.256l-.879-.208c-1.744 3.203-3.559 3.041-5.375 2.446-.76 2.953-1.718 2.962-2.669 3.123-1.207 4.301-2.331 5.476-4.198 2.409-1.297-2.135-2.868 1.439-4.23-1.142-3.308-.398-6.624.187-9.915 1.75-.229.62-.506.97-.791 1-.285.031-.564-.26-.797-.83-1.473 2.28-3.074 3.249-4.662 2.82-1.649 5.306-3.667-5.596-5.548-4.19-.506 1.093-1.09 3.27-1.496 2.898-2.593-2.319-5.178 5.749-7.74.792-2.601 1.886-5.196 3.798-7.798 5.646-.427.304-.867.366-1.297.542l-.234.904-.279-.575c-3.025 6.727-6.244 5.705-9.456 4.81-.433 1.96-.843 1.831-1.237-.082l-.24-.001c-1.116 4.812-2.515 2.422-3.743 2.187-2.064-.601-4.134-3.55-5.837.783l-.04.089c-1.723 4.006-3.587 2.34-5.376 2.6-.659 2.214-1.317 3.625-1.968.372-.036.166-.082.3-.134.394-.053.092-.11.14-.17.14-.057 0-.115-.049-.166-.142a1.44 1.44 0 0 1-.13-.395c-.088.382-.18.84-.277.878-1.716.744-3.233 2.993-4.337 8.697h.022c-.06.92-.201 11.75-.403 12.368-.202.617-.454.987-.717 1.054-1.588 7.372-3.595 6.865-5.656 5.377a1.804 1.804 0 0 1-.148.504c-.06.117-.129.175-.197.165-.07-.01-.135-.085-.192-.22a2.169 2.169 0 0 1-.131-.541c-.548.813-1.107 2.352-1.65 2.311-4.363-.263-8.726 3.31-13.089 1.645-.361.51-.749.738-1.135.665-.386-.072-.76-.442-1.1-1.083-.572 1.87-1.081 1.638-1.552-.467-.27.878-.498.75-.681-.398l-2.61-.013c-1.339 6.642-2.013 14.67-1.911 22.765.049 2.842.51 6.018-.167 8.245-.775 2.545-1.654 5.089-2.586 6.232-.932 1.142-2.035.857-3.05.661-1.095-.222-1.54 2.758-2.053 5.648.56 2.246.468 4.59-.084 6.78-.551 2.189-1.219 4.569-2.107 4.832-.62 4.445-2.082 2.896-2.83 6.435-.345 3.605-1.091 3.385-1.84 3.19-.053.861-.174 1.654-.349 2.283-.174.63-.395 1.07-.636 1.268.052 4.155-.21 7.76-1.181 10.075-.088 3.098-.464 6.021-1.068 8.304-.031 1.771-.066 3.543-.097 5.314 1.64 5.908 2.565 12.858 2.06 22.248-.112 2.039.1 4.308.175 6.488 1.082 4.096 1.375 9.959 1.876 15.161.382 4.055.45 9.369-.816 12.651l-.024.408c.567 6.821 1.318 12.75 3.301 14.761.622.653 1.052 3.828 1.58 5.819.426-.132.852.14 1.235.789.383.649.708 1.651.944 2.904l.214-.509.186.613c.885.195 1.782.824 2.653.497 2.242-.856 3.093 4.36 3.51 11.767.594-.074.91 1.125.983 3.432.599 1.558 1.213 3.014 1.783 4.699.191.547.329 1.298.393 2.146.064.849.051 1.752-.037 2.583-.283 2.879-.912 2.813-1.48 2.122-.71-.858-1.361-2.161-2.041-3.273a1.835 1.835 0 0 1-.177.501c-.068.117-.143.178-.219.178-.075-.001-.15-.062-.216-.18a1.834 1.834 0 0 1-.171-.502c-.423 2.1-.948 4.01-1.25 6.366-.418 3.235-1.025 3.104-1.717 2.693l-.801.774h.06l-.107.076c-.425 5.096-.83 10.051-.055 15.293.438 3.009.46 6.731-.448 9.339-.052 2.956-.305 5.478-.957 7.17l.628 6.706c.774.985.78 4.388 1.234 6.378.454 1.991.338 3.494-.141 5.582-.333 1.413-.38 3.949-.516 6.038 1.082 4.096.308 9.422.994 14.676.232.334.429.91.565 1.654.136.744.205 1.621.199 2.517.24.195.454.684.602 1.381.15.698.224 1.562.214 2.446.367.737.701 1.661.993 2.745.39 1.824.6 3.979-.264 5.096.01 2.09.313 3.583.786 2.655 1.287-2.543 1.937.825 2.628 3.836.185.791 1.833 2.44 1.744 2.962-.24 1.384-2.013 2.612-2.422 3.33-.39.597-.963 1.028-1.27.312-.861-2.043-2.053-1.883-2.62-5.875-.12.211-.252.32-.385.32-.133-.001-.263-.112-.38-.323-.085.42-.163.968-.264 1.069-1.854 1.737-3.247 5.452-3.623 13.466h-.065c.886 6.019 2.382 12.548 1.447 18.291-.718 4.406-.222 5.963.414 8.541.906 3.662 1.121 6.785-.595 8.255-.553.469-.861 3.182-.532 5.694.186 1.184.294 2.508.315 3.872a30.835 30.835 0 0 1-.193 4.005l-5.93-1.303c-.245.497-.52.751-.8.737-.278-.015-.55-.299-.784-.821-.398 1.233-.861 2.165-1.361 2.737-.5.572-1.026.773-1.545.588-.757 3.641-2.024 3.291-2.893 6.078l.105.395c-.116 2.23-.228 4.472-.344 6.702.78 3.725.69 4.629-.715 7.758-.118 2.038-.24 4.064-.358 6.09.939 4.159.517 8.795.103 13.216-.475 5.095-1.09 9.807-.122 15.024.348 1.837.172 4.602-.243 6.626-.948 4.634-.738 10.077-.798 15.289 1.329 4.645.132 12.49 1.28 17.504a511.86 511.86 0 0 1 3.031 14.504c.247 1.276.29 3.162.424 4.794 1.175 2.937.804 7.307.541 11.575l-.548-.347-.414-.27c-.228.325-.476.412-.716.252a282.888 282.888 0 0 0-.29 3.286c.105.9.124 1.901.056 2.855l.543 3.393.218 1.364c-.116 2.192-.398 3.529-1.011 3.182a13.92 13.92 0 0 1-.641 2.15c-2.703 4.69 3.245 3.108 4.563 13.017.772 1.38.813 4.336.934 7.128.958 3.828.935 4.745-.225 8.308a130.366 130.366 0 0 0-.165 6.754c.29 9.358.1 18.856-.56 28.034.201.442.364 1.076.47 1.831.106.756.152 1.605.132 2.454a71.366 71.366 0 0 1 1.438 5.627c.514 2.768.301 5.099-.556 6.293-.274 1.296-.444 2.832-.49 4.436a28.861 28.861 0 0 0 .233 4.649c.224.2.425.634.578 1.248.153.613.25 1.378.279 2.197 1.708.811 2.607 4.435 2.522 11.482 1.093 1.407 1.703 4.876 2.28 8.498.962.565 1.962.736 2.678 3.836 5.88 4.094 11.877 3.014 17.813 4.559 1.841-2.63 3.575.017 5.357.93 1.734-.642 3.47-1.258 5.201-1.95.665-.382 1.343-.253 1.987.378.645.632 1.242 1.752 1.75 3.284 1.174-2.811 2.441-2.537 3.715-2.097.21-1.07.435-1.145.677-.252.558-2.062 1.083-1.97 1.575.224l.14-.789.227.281c3.647-2.608 7.213.264 10.799 1.403.082 0 .147.536.216.982 2.639-1.364 5.272-2.524 7.903-.536.694.526 1.389.988 1.91 3.081.045-.2.103-.357.169-.458.066-.101.137-.142.208-.12.071.021.139.106.198.245.058.139.106.33.139.553 1.083-1.957 2.29-3.022 3.4-2.125 3.954 3.18 8.022.727 11.991 3.001 1.458.836 2.977.168 4.467.188 1.589-2.797 3.133-3.528 4.567.99l1.607-.26c.39-1.273-5.133-.176-4.618-.57.514-.395 1.046-.289 1.54.305l.25-.726.24.715c2.326-3.098 4.655-1.609 6.994-1.101 1.617.527 3.243.722 4.869.584 4.569-.806 9.137-.682 13.707-.928.491-2.215.943-1.92 1.368.223.211-.485.459-.718.708-.661.248.056.483.398.67.974.986-1.933 1.967-3.495 2.858.358l1.599.453c.344-.941.692-2.392 1.039-2.429 1.484-.184 2.966.129 4.449.263 1.521-2.898 3.107-2.177 4.69-1.953 1.743.238 3.486.425 5.226.625.496-2.458.963-2.124 1.408.172.355-.67.753-.977 1.15-.887.398.089.778.572 1.099 1.395 1.244-3.219 2.407-2.232 3.535.641 2.566-5.646 5.396-1.618 8.042-4.371 1.531 3.831 3.118 3.841 4.676 3.913 1.952-4.49 4.006-1.014 6.008-1.769 3.94-1.485 8.88 6.471 12.809 3.661 1.469-1.156 2.978-1.373 4.458-.641 1.023.565 2.222 1.552 3.099.014 2.241-3.901 4.428-1.839 6.609-1.242 4.459 1.155 8.888-.276 13.332-2.205.569-.239 1.159.503 1.74.798.259-.414.533-.709.812-.875 1.837-1.852 3.702-.964 5.557-.993.103-.433.207-1.171.311-1.184 3.856-.593 7.672-4.729 11.547-3.436l.265-.802.26.766c.697-.765 1.405-1.396 2.12-1.889 1.326-.682 2.432 1.643 3.634 3.395 1.015 1.47 1.818-5.624 3.151-4.891.542.295 1.129-.428 1.51 1.689 3.498-5.578 7.129-4.77 10.751-4.778 1.866-1.393 3.726-2.914 5.598-4.052.359-.227 1.09.719 1.135 1.599.048 1.477.203 2.879.45 4.067l1.276.006c.278-.559.557-1.271.807-1.844 2.223-5.087 4.675-9.143 7.063-10.98.898-4.176 1.631-1.649 2.361.929.102-.305.223-.916.298-.84.222.279.436.639.637 1.074.155-.47.336-.813.531-1.005 1.126-1.995 2.243-2.92 3.312 1.01.425-2.546.129-10.48.727-9.33 2.299 4.407 5.925 22.016 8.256 25.328.509-2.84 1.116-8.065 2.092-7.461 1.693 1.027 3.421 1.291 5.134 1.783.49-3.247 1.309-4.046 2.153-4.679.718-.545 1.435-1.013 1.883-3.815l.44-.125 1.221-.338c.11-.977.172-2.012.181-3.058.244.003-.519-6.298-.329-6.852.189-.553.32-1.324.368-2.176.088-1.146.151-2.313.187-3.491l14.152-.633c.249 1.345.381 2.927.379 4.551-.008 1.824.918 9.64.778 11.403l1.404.746c.103-.389.226-.701.363-.916.723-1.747 1.575-2.664 2.441-2.626h.018l-.078-.001-.455-8.444.711-3.196c1.906 1.195 3.803 2.733 5.722 3.456 1.192.439 3.298 6.839 4.066 10.845.139-.214.292-.283.44-.201.148.082.286.312.398.664.108-.191.225-.611.317-.534.201.205.395.488.578.844 1.244-.683 1.818 1.652 1.908 6.152 1.711-2.541 1.262-14.439 1.582-20.682.342-6.944.516-14.016.758-20.999.042-1.159.195-2.93.062-3.427-2.13-7.976-.027-16.798-.128-25.158-.087-7.52.072-7.837 1.871-8.772 2.044-1.048 4.102-1.56 6.151-2.303.331-3.133 1.042-3.627 1.72-3.534.958.132 1.905.812 2.853 1.288.036-.212.083-.397.139-.543a.755.755 0 0 1 .187-.306c.067-.056.137-.062.204-.019.068.044.132.136.188.272.761-2.545 1.444-2.542 1.961.927 2.717 2.69 5.413 5.85 8.31 2.895.593-.609 1.132.834 1.526 2.747l1.649-.298c.498-2.839 1.353-1.497 1.985-2.781l.397 1.276.52 1.685.119.383c.327.397.625 1.033.876 1.868.252.835.451 1.85.585 2.981l-.001.09c.233.04.454.359.628.906.173.546.289 1.288.328 2.106 0 .063 0 .076.021.14.873.553 1.753.949 2.639 1.185.439.002 1.016-2.149.761-3.246-1.104-4.746.196-8.41.425-12.449.046-.697.05-1.418.012-2.115l.929-4.431-.011-5.862c-.353-.818-.447-11.939-.187-12.397.66-1.169 1.501-1.356 2.001-3.138 1.866-6.682 2.166-11.765 1.216-18.537a101.348 101.348 0 0 1-.89-7.778c-.073-1.16.297-2.802.495-4.241a6.99 6.99 0 0 1-.117-1.302 7.475 7.475 0 0 1 .109-1.324c-.639-2.042-.881-4.936-.292-7.329 1.433-5.817 1.057-10.343-.306-14.657-1.56-4.939-1.462-13.784-2.772-19.308l-2.887-2.856c-.711-.704-1.327-1.841-1.608-4.799-.546-.691-.553-2.131-.36-4.042.212-2.127.381-4.331.572-6.509l-1.551-4.073c-.524 1.03-1.022 2.544-1.571 3.013-1.6 1.547-1.659 1.266-2.046-7.108l-2.599-1.287a2.11 2.11 0 0 1-.121.443c-.049.116-.103.194-.161.228-.057.035-.116.026-.172-.027a.71.71 0 0 1-.152-.278c-1.726 3.815-3.622 4.061-5.494 4.613-.135-.066-.262-.257-.368-.555a5.141 5.141 0 0 1-.238-1.143c-.02-.536-.006-1.084.041-1.602.048-.519.127-.994.233-1.391.918-1.844 1.87-3.369 2.812-4.995.238-1.643.558-2.725 1.065-2.544.019-.203.051-.389.093-.545.042-.156.092-.277.148-.356.057-.079.117-.113.176-.1.06.013.118.073.17.175.863-3.589 2.024-2.131 3.038-3.184l2.854-6.193.944 2.554.409 1.123.44 1.2c.44-.998.764-2.529.914-4.303.088-.996.133-2.031.134-3.07 2.487-5.634 4.818-12.263 7.446-17.042 1.733-3.14 3.228-8.485 4.828-12.848 1.224-2.734 1.895-5.803 3.011-13.826l.034.204c-.026-4.409.543-9.746-1.178-11.386-.707-.786-1.376-1.935-1.987-3.412a8.749 8.749 0 0 1-.227-1.342 13.409 13.409 0 0 1-.054-1.565c1.439-5.499-1.126-9.143-.305-14.02.498-2.942.54-4.687-.177-6.934-.861-2.718-2.283-3.515-2.25-9.62-.663-9.37-1.446-18.638-1.38-28.642l.098-2.37c.074-1.669.144-3.351.214-5.02a4.438 4.438 0 0 1-.589-.806c-.046-.076-.096-.115-.142-.192-.046-.076-.064-.076-.096-.14l-1.076.568-.91.467c-1.579-1.511-1.579-1.511-1.55-8.138l-.74-3.954c.02-.683.023-1.369.011-2.052-.019-4.932-.896-6.644-1.879-7.948l-.742-.972c-.812-5.765-.771-12.035-.543-18.405-.666-1.839-.18-5.099-.543-7.382.123.048.248-.036.359-.24.033-.084.062-.183.088-.293.161-.727.245-1.63.239-2.548-.429-.641-.829-1.502-1.187-2.554-.383-1.276-.373-2.551.026-4.906.566-3.451 1.081-6.686.986-10.892.684-3.004.834-6.202.048-8.921-.527-1.606-.935-3.648-1.19-5.955a52.803 52.803 0 0 1-.274-7.292c-.581.226-1.171.312-1.749.717-1.076.76-1.273-1.28-1.046-4.86.113-1.088.259-2.131.436-3.108.228.28.47.406.712.374a.146.146 0 0 0 .072 0l.054-.178c.317-3.057.947-3.819 1.679-3.701a12.676 12.676 0 0 0-.157-2.056c-.104-.619-.253-1.125-.431-1.464a5.168 5.168 0 0 0-.212-.562l-1.621.439a583.679 583.679 0 0 1-.235 3.057c-.243-.025-.475-.345-.658-.906-.183-.561-.305-1.331-.348-2.183-1.247-.694-2.331-3.07-2.192-8.383.14-5.314-.946-9.308-.692-14.519-.125-6.615-.88-13.742 1.077-18.665a91.884 91.884 0 0 1 .015-2.625c.129-.11.251-.309.36-.584.189-.484.271-1.172.052-2.205-.227-.768-.508-1.302-.814-1.546-.071-.09-.142-.166-.206-.269-.002.459-.005.905-.036 1.351-.005.943-.049 1.886-.076 2.829l-1.258-.681c.531-4.968-.842-9.563-.038-14.746.308-1.973.804-2.545.422-.597-.265 1.274.255 1.123.412 1.086.077-.159.164-.243.252-.242.088 0 .174.085.249.244l.499-13.493.618.002.34.002c.092-1.083.218-2.13.374-3.12a2.663 2.663 0 0 0-.219-.435 2.805 2.805 0 0 0-.198-.396c.049-.458.073-.93.111-1.388.001-.166.027-.331.042-.51.015-.178.061-.713.085-1.083l.663.258.228.091c.563-.259 1.092-1.149 1.509-2.542.107-.38.199-.808.275-1.273h.032c.118.154.245.22.371.194.127-.026.251-.142.366-.343.115-.201.217-.481.301-.825a8.06 8.06 0 0 0 .189-1.174c.512.551 1.035 1.012 1.539 1.677.503.665.751-.136.974-1.665.331.395.651.891.957 1.483.657 1.212 1.156 3.272 1.398 5.767.034.332.086.574.113.931.064-.462.172-.829.305-1.03.133-.202.281-.224.416-.063l.364-1.119 1.375-4.39c.133 1.084.37 1.96.669 2.475.176.327.363.568.557.717.314.23.638.359.944.641 1.367-5.435 1.367-5.435.01-9.672l-.664-2.043c-.119-3.252.127-6.564.683-9.223.141-.533.226-1.224.238-1.95a9.232 9.232 0 0 0-.17-2.013c-.112-.493-.259-.867-.427-1.086-.345-2.282-.69-4.527-.996-6.848a8.033 8.033 0 0 1-.119-1.052c-.019-.377-.017-.766.007-1.142.025-.376.07-.733.133-1.048.064-.315.145-.581.237-.784.175.035.351-.015.523-.15.279-.032.554-.3.801-.782.247-.481.459-1.163.619-1.99.024-.471.055-.942.09-1.414.187-2.764.442-5.592.132-7.837-.196-1.307-.524-2.299-.918-2.782l-1.868 1.036-.865-2.63-.703-2.17c-.013-.964.001-1.933.041-2.892l1.038-3.614.001-.115c-.004-.587.014-1.175.056-1.746.025-.388.073-.754.142-1.07.074-.292.166-.518.269-.657.103-.14.213-.189.321-.143.041-2.918.241-5.402 1.105-5.87.25-.126.483-.547.661-1.194.232-.852.366-1.982.374-3.16-.929-1.278-1.691-3.83-2.841-3.364-.793.175-1.586-.087-2.352-.776a8.292 8.292 0 0 0-1.068-.68c-.103-4.768.583-9.862-.28-14.314.08.13.167.198.255.199.088 0 .176-.067.257-.196.418-.686.571-3.247 1.028-3.691l1.759.505a47.18 47.18 0 0 0-.116-5.595c-.2-1.938-.644-2.45-1.563-1.753-.391.291-.724 1.628-1.086 2.543l-1.087 2.544-.521 1.183c-.112-.332-.21-.83-.352-.996-2.177-2.661-1.156-9.55-1.846-17.454-.563-.194-3.192-1.176-3.676-.44-1.402 2.16-2.527 1.403-3.403-3.291-.875-4.694-1.832-3.89-3.346-.202-.565 1.386-1.399.974-2.116 1.366-.237-.186-.458-.556-.649-1.083-.19-.527-.345-1.199-.454-1.968-.03-.242-.094-.332-.118-.625-.041-.002-.082-.023-.121-.064-.101-.003-.199-.11-.281-.31a3.16 3.16 0 0 1-.185-.814c-.055 1.605-.11 3.21-.169 4.816-.004.727-.051-1.547-.073-.808-.135-.091-.275-.08-.41.03-.136.112-.264.321-.376.616-.523-.293-1.032-.83-1.514-1.6-.962-1.28-1.927-2.558-2.988.56l.055-.97-.059 2.057a.654.654 0 0 1-.266.241c-.194.167-.396.108-.578-.168-.158-.011-.308-.23-.422-.614a5.636 5.636 0 0 1-.194-.962 9.505 9.505 0 0 1-.066-1.167l-.165.14c.003-.65-.011-1.275-.018-1.976l-.012-1.632a2.372 2.372 0 0 0-.099-.217c-.222-.65-.484-1.105-.766-1.328-.282-.223-.575-.207-.857.046-.312.245-.61.675-.883 1.27-1.428-.338-1.94-2.851-1.826-7.387zm20.745 134.276-.336-.002h-.082l-.956-.285c.032-.434.074-.86.125-1.274.001-.229.045-.471.068-.7.036-.434.08-.859.132-1.274.35-.064.695.273.984.963.289.689.507 1.694.621 2.868l-.556-.296zm.938-14.014h-.093c.028-.114.054-.233.077-.357 0 0 .021.102.028.128v.076c.063.243.209.982.209.982h-.064l-.157-.829z" fill="#9A55FB" fill-opacity=".05"/>
</svg>
