<svg width="28" height="21" viewBox="0 0 28 21" fill="none" xmlns="http://www.w3.org/2000/svg">
    <path opacity=".3" d="M5.646 13.77c1.271-.169 2.34-.221 3.366-.464a37.76 37.76 0 0 1 9.73-.825 46.86 46.86 0 0 1 5.09.548c.62.09 1.242.417 1.864.572a1.723 1.723 0 0 0 1.923-.669 1.741 1.741 0 0 0 .196-1.867c-.373-.815-1.184-1.195-2.175-.965-.864.206-1.712.473-2.57.707a2.05 2.05 0 0 1-.407.078c-3.623.31-7.253.491-10.876.028-.849-.106-1.675-.383-2.52-.53-.908-.155-1.825-.245-2.925-.388a8.28 8.28 0 0 1 .846-.797c1.69-1.189 2.914-2.8 4.108-4.447.621-.859 1.395-1.606 2.085-2.418.308-.365.593-.749.854-1.148a.667.667 0 0 0-.099-.934 1.279 1.279 0 0 0-.932-.24A2.444 2.444 0 0 0 12.14.6a22.013 22.013 0 0 1-3.962 2.776 13.444 13.444 0 0 0-3.04 2.446C3.69 7.377 2.158 8.872.694 10.424c-.988 1.046-.914 1.842.186 2.8 2.729 2.333 5.447 4.66 8.154 6.984.097.091.201.174.311.249a1.009 1.009 0 0 0 1.577-.813 1.013 1.013 0 0 0-.231-.668c-.351-.42-.774-.781-1.162-1.17-1.045-1.046-2.092-2.092-3.13-3.143-.211-.24-.416-.505-.752-.894z" fill="#9A55FB"/>
</svg>
