<svg width="28" height="21" viewBox="0 0 28 21" fill="none" xmlns="http://www.w3.org/2000/svg">
    <path opacity=".49" d="M22.354 13.77c-1.271-.169-2.34-.221-3.366-.464a37.761 37.761 0 0 0-9.73-.825c-1.705.09-3.404.273-5.09.548-.62.09-1.242.417-1.864.572a1.723 1.723 0 0 1-1.923-.669 1.74 1.74 0 0 1-.196-1.867C.558 10.25 1.369 9.87 2.36 10.1c.864.206 1.712.473 2.57.707.133.04.269.066.407.078 3.623.31 7.253.491 10.876.028.849-.106 1.675-.383 2.52-.53.908-.155 1.825-.245 2.925-.388a8.283 8.283 0 0 0-.846-.797c-1.69-1.189-2.915-2.8-4.108-4.447-.621-.859-1.395-1.606-2.085-2.418a11.846 11.846 0 0 1-.854-1.148.667.667 0 0 1 .099-.934c.268-.198.602-.284.932-.24.398.104.764.306 1.063.589 1.215 1.068 2.544 1.999 3.962 2.776a13.442 13.442 0 0 1 3.04 2.446c1.45 1.555 2.982 3.05 4.446 4.602.988 1.046.914 1.842-.186 2.8-2.729 2.333-5.447 4.66-8.154 6.984-.097.091-.201.174-.311.249a1.01 1.01 0 0 1-1.577-.813c-.006-.243.076-.48.231-.668.351-.42.774-.781 1.162-1.17 1.045-1.046 2.092-2.092 3.13-3.143.211-.24.416-.505.752-.894z" fill="#9A55FB"/>
</svg>
