<svg width="123" height="119" fill="none" xmlns="http://www.w3.org/2000/svg">
    <ellipse cx="64.181" cy="58.183" rx="55.783" ry="58.183" fill="#F3F7FF"/>
    <path fill-rule="evenodd" clip-rule="evenodd" d="M33.358 71.822a.804.804 0 0 1-1.413-.395.8.8 0 0 1 .143-.584c1.033-1.338 2.182-1.995 3.43-2.034 1.247-.038 2.442.516 3.7 1.642a.804.804 0 0 1 .26.878.803.803 0 0 1-1.324.32c-.945-.837-1.808-1.265-2.582-1.239-.775.026-1.48.48-2.203 1.412h-.01zm18.345-.979a.801.801 0 0 1-1.035 1.196.802.802 0 0 1-.235-.217c-.723-.933-1.457-1.389-2.203-1.412-.746-.023-1.65.402-2.582 1.24a.803.803 0 0 1-1.33-.649.799.799 0 0 1 .269-.55c1.255-1.113 2.491-1.68 3.7-1.641 1.209.038 2.363.695 3.398 2.033h.018zm-9.828 7.99c1.015 0 2.03-1.109 1.521-1.663-.509-.554-2.536-.554-3.042 0-.506.554.488 1.65 1.503 1.65l.018.013zm-11.69-20.954c.062 2.183.258 9.72.47 18.369l3.571-.343a.804.804 0 0 1 .85.725.8.8 0 0 1-.7.87l-3.682.353.062 2.776 3.568-1.108a.805.805 0 0 1 1.071.84.8.8 0 0 1-.6.69l-4.03 1.235c.29 13.25.494 26.804.133 26.817-.623 0 19.948-1.899 24.883-2.358-.18-7.83-.354-15.938-.53-24.052l-5.363-1.641a.804.804 0 0 1-.56-1.01.801.801 0 0 1 1.032-.521l4.855 1.487-.064-3.054-4.816-.461a.805.805 0 0 1-.744-.876.8.8 0 0 1 .896-.72l4.63.446c-.147-6.874-.297-13.709-.452-20.384-4.286 4.1-8.583 6.062-12.886 6.15-3.917.077-7.788-1.403-11.612-4.238l.018.008z" fill="#67D5FA"/>
    <path fill-rule="evenodd" clip-rule="evenodd" d="M44.602 24.465c-.62 9.693 9.26 15.072 21.542 19.466l.614 66.897 6.283-.822-.232-.155a13.79 13.79 0 0 1-.878-.652l-.21-.17-.196-.17a16.344 16.344 0 0 1-.364-.335l-.175-.175a10.05 10.05 0 0 1-2.993-7.753 12.102 12.102 0 0 1 3.191-7.353c3.388-3.747 9.217-5.97 16.24-3.997H87.547l.013.018a1.054 1.054 0 0 1 .142.886 1.07 1.07 0 0 1-1.32.74 16.133 16.133 0 0 0-6.037-.575c-6.51 2.423-8.455 7.578-8.597 10.116-.147 2.626.713 8.889 13.131 10.616a51.94 51.94 0 0 0 9.994-.698c.135-.028.275-.028.41 0 1.808-1.289 4.28-3.292 5.653-4.418-.644-4.943-1.274-9.954-1.89-15.033l-.028-.22-.029-.24-.057-.458v-.03l-.054-.429-.036-.301-.018-.16-.057-.459v-.113l-.044-.348-.046-.382v-.08l-.057-.458-.023-.194-.031-.257-.057-.462-.057-.456-.033-.275-.021-.189-.057-.461v-.085l-.044-.376-.044-.359v-.105l-.054-.462-.02-.167-.07-.3-.052-.437v-.026l-.057-.461-.028-.258-.026-.214-.057-.464v-.057l-.049-.407-.039-.33-.018-.134-.054-.464-.015-.139-.04-.327-.048-.412v-.052l-.055-.464-.025-.222-.029-.244-.056-.464v-.029l-.052-.435-.036-.304-.021-.163-.054-.466v-.111l-.041-.353-.047-.387v-.08l-.054-.466-.023-.194-.032-.273-.054-.466-.054-.467-.03-.276-.024-.188-.121-.461v-.085l-.044-.382-.044-.358v-.11l-.055-.467-.02-.165-.034-.302-.051-.44v-.01l-.057-.467-.029-.258-.025-.216-.055-.47v-.053l-.046-.413-.039-.33-.018-.136-.054-.47-.016-.136-.038-.33-.05-.412v-.054l-.054-.47-.025-.221-.032-.245-.054-.469v-.028l-.051-.438-.037-.305-.018-.165-.054-.466v-.11l-.044-.36-.044-.383v-.083l-.054-.469-.023-.19-.031-.276-.054-.47c-1.767-15.092-3.53-30.185-5.35-44.244l-7.138 8.98a1.072 1.072 0 0 1-1.072.376l-32.814-7.408c-.483 1.805-1.265 3.266-2.435 4.317l-.03.026-.027.026-.028.026-.026.023-.028.026-.026.02-.029.026-.023.018-.03.023-.022.018-.03.024-.021.015-.031.023-.018.016h-.013l-.031.023h-.031l-.031.023h-.016l-.015.013-.034.023-.02.016-.031.02-.023.016-.032.02-.025.016-.031.02-.026.016-.034.023-.056.034-.032.02-.033.02-.034.019-.03.02-.034.021-.031.015-.034.021-.028.016-.034.02h-.026l-.033.018-.023.013h-.013l-.034.018h-.036l-.036.018h-.036l-.034.018h-.036l-.036.018H45.27l-.037.018H45.2l-.04.018h-.025l-.036.016-.04.015-.035.016-.029.013-.038.015h-.034l-.036.016-.036.015-.039.013h-.039l-.036.013-.134.263z" fill="#BEBEFF"/>
    <path d="M87.378 89.207a1.073 1.073 0 0 1 .744 1.32 1.07 1.07 0 0 1-1.322.742c-6.13-1.722-11.171.165-14.069 3.368a9.945 9.945 0 0 0-2.647 6.042 7.915 7.915 0 0 0 2.236 5.977c3.306 3.497 10.384 5.608 22.552 3.688a1.064 1.064 0 0 1 1.08.496 1.063 1.063 0 0 1-.047 1.185 1.075 1.075 0 0 1-.698.427c-12.988 2.062-20.71-.379-24.446-4.33a10.045 10.045 0 0 1-2.815-7.57 12.102 12.102 0 0 1 3.192-7.353c3.388-3.747 9.216-5.969 16.24-3.997v.005zm-54.02-17.384a.804.804 0 0 1-1.27-.98c1.033-1.337 2.182-1.994 3.43-2.033 1.246-.038 2.442.516 3.7 1.642a.804.804 0 0 1 .26.877.803.803 0 0 1-1.324.321c-.945-.837-1.808-1.265-2.583-1.24-.774.026-1.49.48-2.213 1.413zm18.335-.98a.801.801 0 0 1-1.036 1.197.802.802 0 0 1-.235-.217c-.723-.933-1.456-1.39-2.202-1.412-.747-.023-1.65.402-2.583 1.24a.804.804 0 0 1-1.13-.07.8.8 0 0 1 .069-1.13c1.255-1.112 2.492-1.68 3.7-1.64 1.209.038 2.374.695 3.41 2.033h.007zm-9.828 7.99c1.014 0 2.03-1.108 1.52-1.662-.508-.554-2.535-.554-3.041 0-.507.554.498 1.65 1.513 1.65l.008.012zm5.244-60.427-4.31-.975a23.092 23.092 0 0 0-.857 5.343c1.467-.02 2.582-.438 3.388-1.17s1.39-1.845 1.772-3.206l.007.008zm24.4 11.603a.799.799 0 0 1-.558 1.051.804.804 0 0 1-.99-.662c-.287-1.145-.775-1.858-1.45-2.178-.673-.32-1.67-.291-2.873.098a.805.805 0 0 1-.989-.525.8.8 0 0 1 .498-1c1.598-.516 2.957-.542 4.051-.021 1.095.52 1.901 1.598 2.312 3.237zM20.639 94.746a1.073 1.073 0 0 1 .993 1.143 1.069 1.069 0 0 1-1.146.99 7.32 7.32 0 0 0-6.682 3.498 5.733 5.733 0 0 0-.881 2.982 4.716 4.716 0 0 0 1.033 2.918c1.83 2.34 6.138 4.105 14.123 3.904l-.54-26.904-2.298.703a.804.804 0 0 1-1.065-.839.801.801 0 0 1 .592-.692l2.737-.837-.07-3.454-2.923.281a.804.804 0 0 1-.855-.723.8.8 0 0 1 .703-.872l3.042-.291-.436-21.823a1.063 1.063 0 0 1 .628-.995 1.068 1.068 0 0 1 1.164.191c4.346 4 8.674 6.137 12.981 6.052 4.307-.085 8.682-2.402 13.147-7.307a1.069 1.069 0 0 1 1.861.758c.179 7.474.35 15.273.517 23.123l3.073.294a.803.803 0 0 1 .423 1.408.804.804 0 0 1-.575.188l-2.877-.281.075 3.507 2.554.774a.804.804 0 0 1 .56 1.01.8.8 0 0 1-1.033.52l-2.045-.626c.191 8.93.385 17.851.586 26.485a90.815 90.815 0 0 1 2.368-.07c.795-.015 1.57-.033 2.376-.075-.09-10.402-.183-21.244-.274-32.085-.093-10.92-.186-21.84-.279-32.309-8.106-2.508-14.474-5.881-18.319-10.505-.02-.023-.038-.049-.057-.072-4.005-4.864-5.229-11.02-2.791-18.876a1.07 1.07 0 0 1 1.291-.722l6.262 1.415h.02l.091.02 33.085 7.475 8.281-10.413a1.072 1.072 0 0 1 1.906.58c1.976 15.078 3.827 30.907 5.681 46.735 1.829 15.652 3.66 31.301 5.55 45.801 3.873-.154 6.99-.956 9.361-2.278a10.646 10.646 0 0 0 4.214-4.095 11.47 11.47 0 0 0 1.353-5.787c-.044-3.35-1.221-7.216-3.545-11.363a1.066 1.066 0 0 1 1.231-1.505c.266.07.494.24.638.474 2.5 4.456 3.768 8.67 3.814 12.371a13.553 13.553 0 0 1-1.621 6.848 12.75 12.75 0 0 1-5.038 4.913c-2.841 1.592-6.616 2.507-11.285 2.577a1.073 1.073 0 0 1-1.111-.941c-1.978-15.093-3.832-30.928-5.68-46.788-1.767-15.093-3.53-30.186-5.351-44.245l-7.138 8.98a1.072 1.072 0 0 1-1.072.375L49.194 18.87c-.483 1.804-1.265 3.265-2.435 4.316-1.17 1.052-2.76 1.686-4.77 1.717a15.083 15.083 0 0 0 3.481 8.47l.055.056c3.667 4.415 9.96 7.636 18.035 10.051a1.072 1.072 0 0 1 .774 1.013c.093 10.709.189 21.907.282 33.095.093 11.189.191 22.325.284 33.008a1.069 1.069 0 0 1-.979 1.155c-1.115.093-2.308.116-3.499.142-1.105.023-2.208.046-3.357.141H57a1.067 1.067 0 0 1-1.093-1.031c-.217-9.128-.423-18.713-.63-28.309l-5.363-1.642a.802.802 0 1 1 .472-1.53l4.855 1.487-.065-3.055-4.841-.46a.805.805 0 0 1-.744-.876.802.802 0 0 1 .896-.72l4.63.446c-.147-6.874-.297-13.71-.452-20.384-4.286 4.1-8.584 6.062-12.886 6.15-4.302.087-8.477-1.676-12.632-5.021l.387 19.257 4.669-.448a.804.804 0 0 1 .85.725.8.8 0 0 1-.7.87l-4.785.459.059 3.008 4.7-1.438a.806.806 0 0 1 1.04.519.803.803 0 0 1-.57 1.011l-5.121 1.573.573 28.528v.015a1.066 1.066 0 0 1-.624 1.017 1.07 1.07 0 0 1-.409.097c-9.466.42-14.657-1.768-16.945-4.691a6.814 6.814 0 0 1-1.492-4.224 7.848 7.848 0 0 1 1.19-4.096c1.681-2.762 4.987-4.796 8.669-4.525z" fill="#3E240F"/>
</svg>
