<svg width="22" height="22" fill="none" xmlns="http://www.w3.org/2000/svg">
    <circle cx="10.999" cy="11" r="11" fill="#9A55FB"/>
    <path d="M10.851 15.038a.374.374 0 0 1-.144-.018.309.309 0 0 1-.018-.126v-2.826H8.045c-.072 0-.114-.012-.126-.036a.25.25 0 0 1-.018-.108v-.864c0-.06.006-.096.018-.108.024-.024.066-.036.126-.036h2.646V8.09c0-.06.005-.096.018-.108.024-.024.072-.036.143-.036h.918c.049 0 .079.012.09.036.024.012.037.054.037.126v2.808l2.736.018c.06 0 .095.012.107.036.024.012.036.048.036.108v.882c0 .048-.011.084-.036.108-.012.012-.048.018-.107.018l-2.736-.018v2.844c0 .06-.013.096-.037.108a.309.309 0 0 1-.126.018h-.882z" fill="#fff"/>
</svg>
