<svg width="59" height="44" fill="none" xmlns="http://www.w3.org/2000/svg">
    <path d="M47.102 29.32c-2.678-.351-4.93-.461-7.091-.967a80.41 80.41 0 0 0-20.502-1.719 99.773 99.773 0 0 0-10.725 1.142c-1.31.188-2.62.869-3.929 1.193a3.667 3.667 0 0 1-2.257-.042 3.63 3.63 0 0 1-1.796-1.353 3.596 3.596 0 0 1-.413-3.892c.786-1.698 2.495-2.49 4.584-2.01 1.82.428 3.608.986 5.415 1.473.28.082.567.137.858.162 7.635.648 15.283 1.024 22.918.058 1.787-.22 3.529-.798 5.31-1.102 1.912-.325 3.844-.513 6.162-.811a17.365 17.365 0 0 0-1.781-1.66c-3.562-2.478-6.142-5.838-8.657-9.269-1.31-1.79-2.94-3.347-4.393-5.04a24.653 24.653 0 0 1-1.801-2.393 1.379 1.379 0 0 1 .21-1.945 2.717 2.717 0 0 1 1.964-.5 5.168 5.168 0 0 1 2.24 1.226 46.393 46.393 0 0 0 8.348 5.785 28.274 28.274 0 0 1 6.404 5.098c3.058 3.243 6.286 6.356 9.37 9.593 2.082 2.18 1.925 3.84-.393 5.837-5.75 4.86-11.476 9.712-17.182 14.554-.204.19-.423.364-.655.52a2.144 2.144 0 0 1-2.769-.326 2.097 2.097 0 0 1-.066-2.762c.74-.876 1.63-1.628 2.449-2.439 2.2-2.179 4.407-4.358 6.594-6.55.445-.5.877-1.051 1.584-1.862z" fill="#fff"/>
</svg>
