<svg width="59" height="44" fill="none" xmlns="http://www.w3.org/2000/svg">
    <path d="M11.898 14.923c2.678.35 4.93.46 7.091.966a80.41 80.41 0 0 0 20.502 1.72 99.77 99.77 0 0 0 10.725-1.142c1.31-.188 2.62-.87 3.929-1.194a3.668 3.668 0 0 1 2.257.042 3.63 3.63 0 0 1 1.796 1.353 3.595 3.595 0 0 1 .413 3.892c-.786 1.699-2.495 2.49-4.584 2.01-1.82-.428-3.608-.986-5.415-1.472a4.343 4.343 0 0 0-.858-.162c-7.635-.65-15.283-1.025-22.918-.059-1.787.22-3.529.798-5.31 1.103-1.912.324-3.844.512-6.162.81a17.365 17.365 0 0 0 1.781 1.66c3.562 2.478 6.142 5.838 8.657 9.27 1.31 1.79 2.94 3.346 4.393 5.039.649.76 1.25 1.56 1.801 2.393a1.379 1.379 0 0 1-.21 1.946 2.717 2.717 0 0 1-1.964.5 5.167 5.167 0 0 1-2.24-1.227 46.389 46.389 0 0 0-8.348-5.785 28.276 28.276 0 0 1-6.404-5.098c-3.058-3.243-6.286-6.356-9.37-9.593-2.082-2.179-1.925-3.84.393-5.837 5.75-4.86 11.476-9.711 17.182-14.554.204-.19.423-.364.655-.519a2.144 2.144 0 0 1 2.769.326 2.097 2.097 0 0 1 .066 2.761c-.74.876-1.63 1.628-2.449 2.439-2.2 2.18-4.407 4.358-6.594 6.55-.445.5-.877 1.051-1.584 1.862z" fill="#fff"/>
</svg>
