<svg width="68" height="55" fill="none" xmlns="http://www.w3.org/2000/svg">
    <path d="M28.397 21.996a1.628 1.628 0 1 0-3.17-.75 1.628 1.628 0 1 0 3.17.75zM42.497 21.889a1.629 1.629 0 1 0-3.214-.523 1.629 1.629 0 1 0 3.214.523zM34.029 38.163l5.224-4.168a16.762 16.762 0 0 0-10.446 0l5.222 4.168z" fill="#3E2918"/>
    <path d="M34.029 39.24a1.07 1.07 0 0 1-.667-.234l-5.224-4.17a1.071 1.071 0 0 1 .318-1.85 17.84 17.84 0 0 1 11.138 0 1.06 1.06 0 0 1 .656 1.395c-.07.18-.187.337-.34.455l-5.222 4.17a1.07 1.07 0 0 1-.66.234zm-2.86-4.728 2.86 2.283 2.86-2.281a14.996 14.996 0 0 0-5.72 0v-.002zM24.13 6.7a1.068 1.068 0 0 1-1.038-.806 1.074 1.074 0 0 1 .524-1.206A21.427 21.427 0 0 1 39.424 2.82a21.153 21.153 0 0 1 4.656 1.867 1.073 1.073 0 0 1-1.023 1.885 19.054 19.054 0 0 0-4.187-1.68 19.304 19.304 0 0 0-14.23 1.68 1.07 1.07 0 0 1-.51.127zM24.131 49.014c-2.536 0-5.007-.802-7.062-2.292a12.076 12.076 0 0 1-4.383-6.003 1.075 1.075 0 0 1 1.131-1.403 1.07 1.07 0 0 1 .92.783 9.932 9.932 0 0 0 3.609 4.9 9.9 9.9 0 0 0 5.785 1.87h.089a9.947 9.947 0 0 0 5.276-1.59 9.976 9.976 0 0 0 3.625-4.158 1.074 1.074 0 0 1 1.424-.522 1.073 1.073 0 0 1 .52 1.427 12.131 12.131 0 0 1-4.412 5.057 12.096 12.096 0 0 1-6.421 1.931h-.1z" fill="#3E2918"/>
    <path d="M44.049 49.017c-.237 0-.444 0-.635-.02a11.916 11.916 0 0 1-6.636-2.428 12.16 12.16 0 0 1-3.66-4.54 1.076 1.076 0 0 1 .521-1.427 1.07 1.07 0 0 1 1.424.522 10.002 10.002 0 0 0 3.005 3.735 9.776 9.776 0 0 0 5.463 1.995h.023c.14.01.302.016.491.016a9.871 9.871 0 0 0 5.812-1.88 9.903 9.903 0 0 0 3.6-4.944 1.073 1.073 0 0 1 1.339-.648 1.072 1.072 0 0 1 .696 1.316 12.044 12.044 0 0 1-4.376 6.014 12.005 12.005 0 0 1-7.067 2.289z" fill="#3E2918"/>
    <path d="M33.855 54.736c-2.162 0-4.284-.583-6.144-1.688a12.066 12.066 0 0 1-4.427-4.591 1.074 1.074 0 0 1 .823-1.58 1.067 1.067 0 0 1 1.054.55 9.911 9.911 0 0 0 3.641 3.778 9.885 9.885 0 0 0 13.742-3.793 1.07 1.07 0 0 1 1.878 1.025 12.034 12.034 0 0 1-4.419 4.606 12.004 12.004 0 0 1-6.148 1.693zM8.573 42.3c-2.475 0-4.596-.977-6.175-2.835C.453 37.173-.43 33.653.202 30.707a1.073 1.073 0 0 1 1.27-.825 1.07 1.07 0 0 1 .824 1.272c-.485 2.303.228 5.137 1.736 6.924 1.237 1.463 2.87 2.16 4.868 2.073 2.267-.1 4.137-.937 5.413-2.425 1.618-1.887 2.275-4.71 1.902-8.166-.696-6.43-.054-14.689 3.006-17.62 1.179-1.132 2.563-1.735 3.677-2.218.506-.22 1.186-.514 1.39-.709-.107-1.844-1.592-4.338-4.632-5.542-1.572-.622-3.396-.842-5.424-.656-8.15.751-9.193 8.978-9.262 12.48v.382c-.02 4.811-.028 7.46-.884 10.512a1.072 1.072 0 0 1-1.318.744 1.07 1.07 0 0 1-.743-1.322c.774-2.772.785-5.314.8-9.937v-.429C3.004 6.758 7.185 1.311 14.032.679c2.365-.218 4.52.05 6.404.797 4.012 1.585 5.9 4.932 5.99 7.546.051 1.483-1.337 2.085-2.68 2.668-1.006.437-2.146.931-3.048 1.798-2.065 1.984-3.095 8.942-2.35 15.841.439 4.059-.392 7.44-2.407 9.796-1.67 1.949-4.066 3.045-6.944 3.169-.136.002-.276.005-.423.005z" fill="#3E2918"/>
    <path d="M20.048 2.47a13.764 13.764 0 0 1-5.187 10.057 13.703 13.703 0 0 1-10.96 2.744C4.03 8.704 6.8 2.42 14.133 1.744c2.348-.216 4.316.094 5.914.726z" fill="#E5D3FE"/>
    <path d="M8.573 42.298c-2.475 0-4.596-.976-6.175-2.834C.453 37.17-.43 33.652.202 30.706c.01-.047.023-.093.04-.138l1.79-5c.764-2.757.774-5.3.79-9.9v-.428C3 6.753 7.18 1.306 14.027.674c2.365-.218 4.52.051 6.405.797 4.011 1.585 5.9 4.931 5.99 7.546.05 1.483-1.337 2.085-2.68 2.668-1.007.437-2.147.931-3.049 1.798-2.064 1.984-3.095 8.942-2.349 15.841.438 4.058-.393 7.44-2.408 9.796-1.67 1.948-4.066 3.045-6.944 3.169-.132.005-.272.009-.419.009zM2.281 31.216c-.456 2.282.258 5.09 1.75 6.857 1.238 1.463 2.872 2.16 4.87 2.072 2.266-.099 4.136-.937 5.412-2.425 1.618-1.886 2.275-4.71 1.902-8.166-.696-6.43-.054-14.688 3.006-17.62 1.179-1.131 2.563-1.734 3.677-2.217.506-.22 1.186-.516 1.39-.709-.107-1.844-1.592-4.338-4.632-5.542-1.572-.622-3.396-.842-5.424-.656-8.15.751-9.193 8.977-9.262 12.48v.382c-.02 4.811-.028 7.46-.884 10.511 0 .025-.014.05-.023.073l-1.782 4.96z" fill="#3E2918"/>
    <path d="M65.294 37.604a2.678 2.678 0 0 1-1.442-.177l.707.517c-2.058-1.107-4.132-2.27-5.751-3.955-1.62-1.685-2.747-3.987-2.503-6.315.203-1.949 1.317-3.677 1.713-5.59.64-3.095-.601-6.583.958-9.33.85-1.5 2.362-2.441 3.926-3.22.612 1.987.916 4.058.902 6.139 0 2.017.014 3.638.081 5.055.154 3.295.63 5.492 2.178 9.004.92 2.09.698 5.355-.769 7.872z" fill="#E5D3FE"/>
    <path d="M59.114 42.298c-.136 0-.273 0-.413-.008-4.531-.199-7.809-2.8-8.99-7.14-.472-1.735-.595-3.696-.364-5.825.746-6.909-.284-13.858-2.35-15.842-.9-.866-2.041-1.36-3.047-1.798-1.344-.582-2.731-1.185-2.68-2.667.069-2.007 1.16-4.131 2.917-5.683 1.655-1.46 4.64-3.107 9.477-2.657 5.063.468 8.611 3.417 10.254 8.53.648 2.092.97 4.273.954 6.465 0 1.922.013 3.583.08 5.007.154 3.285.661 5.378 2.088 8.624 1.098 2.494.758 6.13-.824 8.844-1.582 2.714-4.077 4.15-7.101 4.15zM43.413 9.008c.203.194.884.49 1.39.71 1.113.483 2.497 1.085 3.676 2.217 3.052 2.932 3.693 11.19 2.997 17.62-.202 1.864-.101 3.555.3 5.033.934 3.427 3.426 5.402 7.017 5.558 3.046.133 4.713-1.603 5.577-3.082 1.238-2.126 1.538-5.025.707-6.9-1.55-3.521-2.1-5.8-2.268-9.388-.069-1.47-.076-3.153-.083-5.101.017-1.97-.269-3.931-.848-5.814-1.383-4.29-4.215-6.664-8.419-7.052-4.066-.376-6.525.953-7.863 2.135-1.292 1.147-2.106 2.66-2.183 4.065z" fill="#3E2918"/>
</svg>
