<svg width="69" height="59" fill="none" xmlns="http://www.w3.org/2000/svg">
    <path d="M60.01 12.178c-.517 5.168-2.719 10.205-2.719 10.205s.069.203.187.58a14.449 14.449 0 0 1-15.78-8.047 14.462 14.462 0 0 1-1.376-6.154c1.374.285 2.73.649 4.062 1.092l10.397-8.05a3.225 3.225 0 0 1 5.195 2.33c.174 2.67.267 5.721.034 8.044z" fill="#E5D3FE"/>
    <path d="M34.354 58.265h-.093c-.957 0-12.867-.158-19.837-7.681-4.19-4.524-6.236-10.91-5.913-18.467.137-3.28.675-6.531 1.602-9.68-.537-1.32-2.182-5.647-2.633-10.146a1.131 1.131 0 1 1 2.249-.224c.492 4.934 2.6 9.817 2.621 9.866.114.259.126.55.034.818a37.543 37.543 0 0 0-1.632 9.513c-.287 7.018 1.492 12.664 5.315 16.788 6.379 6.885 17.864 6.96 18.22 6.96h.01c.297 0 11.857-.067 18.241-6.958 8.282-8.938 4.662-23.029 3.851-25.762-.1-.337-.166-.528-.17-.539a1.135 1.135 0 0 1 .036-.813c.02-.049 2.131-4.943 2.621-9.866.187-1.904.187-4.547-.035-7.858a2.097 2.097 0 0 0-3.37-1.515L45.075 10.75a1.13 1.13 0 0 1-1.065.171 36.956 36.956 0 0 0-3.916-1.059 28.007 28.007 0 0 0-5.78-.685c-4.662 0-9.65 1.728-9.697 1.746a1.137 1.137 0 0 1-1.064-.173L13.148 2.7a2.095 2.095 0 0 0-3.377 1.51 88.38 88.38 0 0 0-.143 2.984 1.13 1.13 0 1 1-2.256-.068c.028-.96.076-1.992.147-3.062A4.356 4.356 0 0 1 12.379.03a4.354 4.354 0 0 1 2.153.883l9.922 7.681c1.526-.479 5.74-1.678 9.855-1.678 2.103.03 4.198.28 6.249.746 1.602.341 2.897.72 3.606.944L54.088.923a4.353 4.353 0 0 1 7.013 3.15c.224 3.435.235 6.203.032 8.229-.452 4.5-2.098 8.828-2.633 10.145l.061.202a40.404 40.404 0 0 1 1.584 11.39c-.073 6.8-2.074 12.366-5.943 16.545-6.97 7.517-18.88 7.681-19.848 7.681z" fill="#3E2918"/>
    <path d="M27.22 28.162a2.104 2.104 0 1 0-4.095-.967 2.104 2.104 0 0 0 4.095.967zM45.41 28.162a2.104 2.104 0 1 0-4.096-.967 2.104 2.104 0 0 0 4.096.967zM34.273 42.156c-.256 0-.504-.086-.705-.245l-2.685-2.141a1.129 1.129 0 0 1 .334-1.951 9.76 9.76 0 0 1 6.11 0 1.13 1.13 0 0 1 .336 1.95l-2.687 2.142c-.2.16-.448.246-.703.245z" fill="#3E2918"/>
    <path d="M29.28 48.796a6.09 6.09 0 0 1-5.468-3.358 1.13 1.13 0 1 1 2.016-1.018 3.864 3.864 0 0 0 7.315-1.739v-.222a1.131 1.131 0 0 1 1.065-1.19 1.128 1.128 0 0 1 1.19 1.065c0 .114.009.232.009.347a6.131 6.131 0 0 1-6.128 6.115z" fill="#3E2918"/>
    <path d="M39.301 48.798a6.127 6.127 0 0 1-6.121-6.123c0-.116 0-.234.009-.347a1.13 1.13 0 0 1 1.968-.691 1.129 1.129 0 0 1 .286.816v.221a3.866 3.866 0 0 0 5.495 3.506 3.865 3.865 0 0 0 1.82-1.767 1.13 1.13 0 1 1 2.018 1.019 6.095 6.095 0 0 1-5.475 3.366zM24.82 39.587c-.094 0-.188-.012-.28-.034L.827 33.511a1.13 1.13 0 0 1 .56-2.19l23.715 6.042a1.128 1.128 0 0 1-.278 2.224h-.004zM2.527 44.822a1.128 1.128 0 0 1-.08-2.255l17.688-1.306a1.128 1.128 0 1 1 .166 2.251L2.613 44.818l-.086.004zM43.802 39.587a1.128 1.128 0 0 1-.278-2.224l23.713-6.041a1.128 1.128 0 0 1 1.421 1.255 1.13 1.13 0 0 1-.861.935l-23.715 6.041a1.192 1.192 0 0 1-.28.034zM66.09 44.82h-.085l-17.688-1.305a1.128 1.128 0 1 1 .166-2.251l17.688 1.305a1.128 1.128 0 0 1-.082 2.256v-.004z" fill="#3E2918"/>
</svg>
