<svg width="171" height="345" fill="none" xmlns="http://www.w3.org/2000/svg">
    <path d="M52.946 37.118c.806-1.383 2.599-3.413 4.732-5.614 4.319-4.456 11.178-1.4 11.71 4.783v0" stroke="#1D1D1B" stroke-width="2.066" stroke-linecap="round" stroke-linejoin="round"/>
    <path d="M91.544 62.256c-6.215-10.993-7.408-31.227-5.526-42.54 2.748-16.523 13.929-17.84 18.377-17.3 4.49.545 7.932 2.342 10.654 5.96 4.445 5.907 4.398 16.165-.968 21.243-7.083 6.702-17.044 3.169-18.08 2.703" stroke="#1D1D1B" stroke-width="2.066" stroke-linecap="round"/>
    <path d="M110.093 14.516c3.667.713 5.616 2.37 7.587 5.528M106.064 24.303c2.647.24 5.146 2.217 6.094 4.82" stroke="#1D1D1B" stroke-width="2.066" stroke-linecap="round"/>
    <mask id="a" style="mask-type:alpha" maskUnits="userSpaceOnUse" x="0" y="35" width="125" height="267">
        <path d="M36.651 42.696c-8.787 5.473-17.229 11.963-22.855 20.663C6.87 74.07 4.808 87.127 3.14 99.778c-3.41 25.869-3.986 52.338 3.123 77.442 9.813 34.648 28.524 53.393 45.516 78.701 5.383 8.017 30.267 44.049 45.954 45.591 0-4.057 0-44.41.339-53.202.68-17.72-1.264-71.56 8.009-87.012 8.901-14.831 13.228-23.673 16.549-41.423 7.03-37.562-2.715-69.815-33.351-80.102-9.97-3.349-18.724-4.191-26.403-4.45-.28-.01-.566-.014-.855-.014-7.666 0-18.717 3.245-25.37 7.387z" fill="#fff"/>
    </mask>
    <g mask="url(#a)">
        <path fill-rule="evenodd" clip-rule="evenodd" d="M36.651 42.696c-8.787 5.473-17.229 11.963-22.855 20.663C6.87 74.07 4.808 87.127 3.14 99.778c-3.41 25.869-3.986 52.338 3.123 77.442 9.813 34.648 28.524 53.393 45.516 78.701 5.383 8.017 30.267 44.049 45.954 45.591 0-4.057 0-44.41.339-53.202.68-17.72-1.264-71.56 8.009-87.012 8.901-14.831 13.228-23.673 16.549-41.423 7.03-37.562-2.715-69.815-33.351-80.102-9.97-3.349-18.724-4.191-26.403-4.45-.28-.01-.566-.014-.855-.014-7.666 0-18.717 3.245-25.37 7.387z" fill="#FFB703"/>
    </g>
    <path d="M9.888 73.182c1.535-15.059 6.5-18.422 13.388-31.84v0c.433-.842 1.641-.666 2.239.068l.756.928c.05.06.1.114.156.168.657.62 5.15 4.987 9.8 12.565" stroke="#1D1D1B" stroke-width="2.066" stroke-linecap="round"/>
    <path fill-rule="evenodd" clip-rule="evenodd" d="m93.403 75.322 4.138 1.703c.79.325 1.645.655 2.475.454 3.966-.964 1.289-4.93.468-7.406-.616-1.857-1.017-3.215-3.224-2.084-1.485.76-2.536 2.153-3.817 3.181-1.733 1.393-2.459 3.156-.04 4.152z" fill="#1D1D1B"/>
    <path d="M101.063 76.972c4.422 4.49 6.77 15.257-.216 20.737-7.525 5.9-12.413 2.867-13.858 2.12-1.446-.745-2.578-2.344-2.422-4.061M66.795 91.57c-8.22 6.512-16.76 13.425-21.195 23.202M71.944 98.74c-4.972 9.118-8.05 19.352-8.945 29.743M60.613 86.99c-6.513 1.003-13.829 3.089-17.533 4.516M106.144 83.517c2.509.226 5.098-.95 6.583-2.988M112.007 61.014c4.513-5.733 8.512-10.59 14.589-14.619M115.046 68.619l9.556-4.544" stroke="#1D1D1B" stroke-width="2.066" stroke-linecap="round"/>
    <path fill-rule="evenodd" clip-rule="evenodd" d="M100.798 51.894a4.466 4.466 0 0 1-1.737 6.064 4.447 4.447 0 0 1-6.053-1.74 4.465 4.465 0 0 1 1.737-6.064 4.449 4.449 0 0 1 6.053 1.74zM84.868 64.043a4.466 4.466 0 0 1-1.736 6.065 4.447 4.447 0 0 1-6.053-1.74 4.466 4.466 0 0 1 1.736-6.065 4.449 4.449 0 0 1 6.053 1.74z" fill="#1D1D1B"/>
    <path d="M133.49 136.109c2.372-2.728 4.867-5.755 5.029-9.368.089-1.997-.557-3.944-.848-5.922-1.13-7.689 3.885-15.828 11.25-18.261 7.367-2.433 14.71.146 18.365 6.999 1.743 3.27 1.958 7.434 2.083 11.139.115 3.401-2.999 12.443-7.12 17.412-10.181 12.275-24.823 22.296-38.616 30.192-10.403 5.955-77.425 32.643-87.413 26.077M97.097 316.324c-18.29 12.644-41.681-2.623-48.956-20.654-2.563-6.355-3.144-11.969.594-17.71 4.56-6.999 9.043-10.582 17.359-11.266 6.608-.543 14.673-1.321 17.38-7.388 2.434-5.455-1.695-12.073-7.21-14.348-5.516-2.275-11.783-1.349-17.608-.065-8.41 1.853-16.99 4.554-23.309 10.415-7.65 7.096-10.917 18.123-10.113 28.537.803 10.414 2.893 18.299 7.73 27.553 13.271 25.389 42.526 35.777 63.85 29.492" stroke="#1D1D1B" stroke-width="2.066" stroke-linecap="round"/>
    <path d="M133.621 135.993c-23.445 19.137-85.949 35.762-93.635 31.35M148.451 104.499c3.183 1.214 5.002 4.987 4.389 8.284M158.832 102.242c2.767 1.747 2.716 5.652 2.63 7.875" stroke="#1D1D1B" stroke-width="2.066" stroke-linecap="round"/>
</svg>
