<svg width="53" height="56" fill="none" xmlns="http://www.w3.org/2000/svg">
    <path d="M53 27.5c0 14.636-16.364 28-31 28S0 42.136 0 27.5 18.864 0 33.5 0 53 12.864 53 27.5z" fill="#fff" fill-opacity=".2"/>
    <path d="m35.248 21.19.247-.247-.247-.248-.943-.942-.248-.248-.247.248-6.81 6.81-6.81-6.81-.247-.248-.248.248-.942.942-.248.248.248.247 6.81 6.81-6.81 6.81-.248.247.248.248.942.943.248.247.247-.247 6.81-6.81 6.81 6.81.247.247.248-.247.943-.943.247-.248-.247-.247-6.81-6.81 6.81-6.81z" fill="#fff" stroke="#fff" stroke-width=".7"/>
</svg>
