<svg width="15" height="28" fill="none" xmlns="http://www.w3.org/2000/svg">
    <path d="M14.68.582c.18.04.33.168.32.415-.062 1.234-.13 2.473-.438 3.673.04.336-.168.728-.555.678-2.759-.364-3.762 2.12-4.121 4.917 1.312.079 2.613.18 3.88.292a.42.42 0 0 1 .392.364.37.37 0 0 1 .157.213c.225.73.23 1.548.247 2.31.011.6.084 1.279-.32 1.755.05.28-.1.606-.476.617-1.346.017-2.708.04-4.077.05 0 .135 0 .27-.005.393-.095 3.662.061 7.312.022 10.967-.005.286-.235.393-.443.354-.028.016-.056.039-.09.05-.69.219-1.468.185-2.186.207-.712.017-1.413.034-2.12-.09-.173.057-.386 0-.426-.23-.633-3.621-.527-7.445-.51-11.112v-.69a43.248 43.248 0 0 1-3.32-.342c-.167-.028-.252-.14-.263-.269-.403-.269-.308-.975-.314-1.418-.017-.954-.123-2.058.152-2.978a.336.336 0 0 1 .18-.201.34.34 0 0 1 .223-.107 40.013 40.013 0 0 1 3.426-.252c.056-1.055.152-2.109.314-3.14.768-4.923 4.99-7.912 9.975-6.762.208.05.325.185.376.336z" fill="#fff"/>
</svg>
