<svg width="1440" height="333" fill="none" xmlns="http://www.w3.org/2000/svg">
    <path fill="#3C4163" d="M0 13h1442v320H0z"/>
    <mask id="a" style="mask-type:alpha" maskUnits="userSpaceOnUse" x="0" y="0" width="1442" height="71">
        <path fill="#fff" d="M0 0h1442v71H0z"/>
    </mask>
    <g mask="url(#a)" fill="#fff">
        <path d="M297.873 16.499c-2.048.669-3.698 6.16-6.223.98 2.587-.995 3.671-3.366 2.91-6.952a4.644 4.644 0 0 0-.493-1.474 3.238 3.238 0 0 0-.889-1.054 2.183 2.183 0 0 0-1.123-.44 2.048 2.048 0 0 0-1.152.252c-3.529 1.863-6.21-.736-9.088-2.593-3.172-3.11-5.64.17-7.8 2.304-2.856 2.81-5.347 6.497-7.994 9.811-3.593-3.933-6.47-3.05-9.9 1.254-2.474 3.096-6.534 3.15-9.475 6.05-.305.307-1.168-.476-1.766-.753 1.764-5.514-3.672-6.532-3.528-11.039l7.659 5.573c-1.822-4.308-2.662-11.869-7.623-5.44-2.193-.424-3.538 2.53-6.05 2.781.398-5.234-1.514-7.722-5.1-7.906l2.242-5.488a53.068 53.068 0 0 1 .065-4.902c.16-1.49-1.465-4.338 1.041-4.182 1.729.044.909 2.344.794 3.954-.533 6.187 1.715 6.022 4.832 4.057 1.487-.932 2.586-3.736 4.479-2.652 5.026 2.857 6.155-2.228 7.56-6.886l.98.458c.111 3.045.259 6.051 3.253 6.272-1.202-1.593-1.929-3.761-2.034-6.07a9.49 9.49 0 0 1 .858-.24c4.232 3.268 8.357 7.478 13.376 2.402 2.727-2.356 4.854-3.324 7.557 1.138 2.538 4.182 7.199 1.968 8.319-3.143.45-2.047 1.229-2 2.271-1.253.289.26.613.436.952.515.339.08.686.062 1.02-.052a2.31 2.31 0 0 0 .922-.612c.275-.29.504-.653.674-1.07l3.164-2.712c1.758-.047 3.584.407 5.155-1.179 2 .051 1.107 1.523.678 2.732-1.719 4.938-.512 8.168 3.05 10.252 1.932-4.054 2.848-9.38 7.043-10.465.943-.251.815-1.92.643-3.13l.858-.254c1.729.674 3.443 1.806 5.256.424.31.008.621-.076.941-.147.68 1.158 1.304 3.77 2.159.16l3.078.29c.871 5.2-.006 7.59-4.207 5.569-1.429-.68-3.076-.473-4.614-.683.305 3.942 3.541 2.976 4.24 5.537-.863 2.705-3.434 3.177-3.261 6.472 5.112.59 7.761-3.59 9.63-9.298.784-2.392 1.529-4.798 2.294-7.204 5.24 2.324 9.024 6.787 10.766 16.429 1.854-8.042 5.574-8.746 9.539-10.873-1.013 5.546-5.89 4.201-5.894 9.498 9.318-.534 15.482-3.457 21.328-10.06l.271-1.304c2.499.065 4.339-1.973 6.169-3.997l1.024.026c1.851 2.106 2.884-.66 4.248-1.478l.933.47c-2.255 4.243-3.239 11.193-8.975 8.004-.423-.17-.878-.105-1.267.184-.39.288-.684.776-.82 1.362-1.277 4.884-4.005 7.986-7.349 10.798l11.557.703c-1.045 3.002-3.091 2.78-4.901 2.588-5.254-.58-10.465 2.013-15.757.068-1.954-.719-3.496 1.484-4.845 3.324-1.349 1.84-2.393 4.068-4.972 5.117 1.412-3.74 1.649-7.431 3.904-11.032-3.197.928-5.787-.751-7.986 2.13-2.82 3.664-4.21-2.102-6.545-2.371 1.361 7.167.713 7.885-4.882 7.505-2.102-.133-4.282-1.539-6.684 1.782-.958 1.378-5.811 5.292-9.056.567-.461-.654-1.931-3.838-2.976.54-.616 2.606-3.005 2.794-4.527-.116 1.672-2.763 2.297-5.985 2.73-11.061-2.752 4.203-3.713 7.286-2.666 11.233zm33.922-11.82c.077-5.78.077-5.78-2.472-5.558l2.472 5.557zm-64.83 7.316c-.136-.357-.306-.991-.4-.98a3.024 3.024 0 0 0-.891.606c.137.318.288.912.411.902.305-.1.594-.28.852-.529l.028.001zM1190.73 18.047l-7.16-.722c-5.95-5.397-10.6-14.458-19.1-12.736-1.35.267-3.9.123-4.16-2.86-.24-2.629 1.66-3.104 3.27-3.299.57-.064.88-.567.94-.343-2.18-5.445-6.8-3.701-8.66-8.285-.1-.24-1.27.072-1.27.111.07 5.47-2.7 2.343-4.3 3.115-2.55 1.246-2.76.1-2.32-2.682.26-1.877.13-3.82-.38-5.595 3.21-2.972 6.42-8.41 10.01-1.054 2.28 4.74 5.94 5.017 9.19 5.65 3.54.695 7.21-.273 5.71 7.45-.09.478-.04.983.13 1.415.17.433.44.764.77.93 1.82-.19.13-3.197 1.6-3.814 1.57.512.88 5.109 3.31 4.11 1.96-.776 1.33-3.533 1.88-5.393.18-.599.7-.979 1.06-1.468.58 3.87 3.21 7.648 4.93 6.145 4.9-4.267 8.45.335 12.46 1.893 3.43 1.32 5.99 3.484 3.24 9.628 2.55-.682 3.27-3.05 4.38-4.7 3.11-4.613 7.94-5.158 11.26-9.282 5.24 4.894 11.53 1.057 17.01 3.925-.4 1.406.25 3.756-1.43 3.988-2.62.366-9.89 4.073-12.3 6.62l-1.03-.157c-3.92-5.988-3.43-.088-3.57 4.17l-4.1-7.225c-1.19 6.525-5.04 4.617-7.68 5.204-3.16.706-5.06 2.139-5.48 6.638l-2.04.236c-.44-5.137-1.8-5.527-6.17-1.613zM1261.94 14.684l-2.07 1.586c-3.43-1.648-1.97-5.02-.75-8.62l-4.51 1.877c-2.81-.701-5.52.304-8.23 1.1.84-3.663 1.7-7.312 2.55-10.974 2.31.059 2.51-4.84 5.49-4.029 4.25 1.171 8.68 1.901 12.71-1.771.9-.816 2.16-1.112 2.46.797.65 4.173 2.88 3.365 5.02 4.062 4.56 1.612 8.19-2.792 12.41-2.802 2.59.001 5.33.924 7.4-2.34 1 1.743 1.48 5.007 3.71 3.766 3.32-1.855 5.03.759 6.93 3.666.85 1.333 1.31 3.967 2.9 3.444 1.81-.61 1.58-3.303 1.78-5.37l.94.025c1.44 2.108 3.09 1.77 5.05 1.755 2.74-.008 6.49-.528 7.78 4.133 1.98 7.105 2.18 7.411 7.23 2.231-.48-1.468-1.61-1.457-2.47-2.056-.85-.599-2.22-.778-1.54-2.82.11-.33.26-.627.46-.866.19-.239.42-.416.67-.518.25-.102.51-.127.77-.073.26.053.5.185.72.384 3.22 2.417 4.7-.443 6-3.713 2.42 3.995 4.23.554 6.2-1.008 2.21.817 2.94 3.09 2.99 6.003-.32.144-.64.324-.94.54-1.33 1.132-3.96.763-3.61 3.84.39 3.406 2.1.054 3.15.448 1.04.394.84 1.792.68 2.954-.26 1.83-.53 3.658-.79 5.5-.68-1.053-1.36-2.106-2.06-3.134-2.41-3.536-4.3.781-6.49.961-1.76.138-1.82 2.34-.88 4.291-1.95 1.261-2.59-1.718-3.95-2.41-2.25-1.119-4.31-2.155-4.15 4.51-3.09-6.885-6.25-6.454-9.59-3.223-.46.434-1.2 2.015-1.29.623-.33-4.926-2.85-2.473-4.49-3.17-1.87-.796-5.04-2.044-5.09-3.291-.34-8.282-3.61-3.593-5.94-3.063a2.29 2.29 0 0 1-.88.16c-.17-1.027-.54-1.97-1.07-2.725-.52-.754-1.19-1.29-1.92-1.547-1.41-1.226-2.98-2.048-4.62-2.416a9.086 9.086 0 0 0-4.94.27c-1.08 1.795-2.25 1.476-3.59.498-1.34-.979-3.23-1.63-3.76-.097-2.14 6.003-4.8 2.617-7.72.523 1.08 6.859-.51 9.165-4.79 7.062-.93-.443-2.06-1.875-2.81-.688-1.26 2.026.91 2.423 1.19 3.531.62 2.809-1.35 1.683-2.25 2.184zM430.875 36.222c-2.82.138-5.601-2.766-8.698.577-1.43 1.55-6.113-5.965-6.443-10.183 2.329-4.135-.283-4.124-1.983-4.22-2.375-.126-3.751-.503-2.112-4.368.234-.78.315-1.633.235-2.47a5.887 5.887 0 0 0-.689-2.3l2.97-2.245c-1.159-1.852-4.638-4.498-3.164-5.155 6.04-2.73.141-5.674.541-8.233 2.154-.22 4.333-.19 6.352-1.515.662-.338 1.334-.661 1.996-1.011 5.101 4.313 5.174 4.46.086 9.875-1.782 1.894-2.465 4.552-3.174 7.011-.986 3.502-1.585 6.922 3.104 6.137 6.12-1.01 9.958-2.052 14.529-6.012 1.777-1.54 3.238-.454 4.471 1.518.03 1.11.207 2.204.521 3.226.302.61.941-.134.952-.92.104-1.492-.65-1.996-1.52-2.307.987-3.594 1.708-6.997 5.373-7.047 1.936-.03 3.256-2.539 2.969-5.68-.165-1.774-.351-3.365 1.31-3.9.108.383.196.792.285 1.188.105 2.048-.001 5.087 1.432 5.386 2.277.465 1.529-3.357 2.416-5.038 2.728-.324 2.124 7.777 5.98 4.61.208.907.616 1.697 1.165 2.26.55.563 1.213.869 1.894.874-.234 2.079 1.193 7.176-2.602 2.805-1.067 4.692-6.718 4.298-6.146 10.803-.735-.53-1.752-1.75-2.152-1.366-1.082.837-.026 1.953.31 2.827.302.72.431 1.557.37 2.387-.062.83-.311 1.613-.713 2.232-1.076-.277-2.395-.061-2.332 1.592.074 2.257 1.306 1.45 2.245.792l3.093.578.001-.131c.057 3.502-1.631 4.022-3.64 4.587-5.299 1.476-10.589 2.927-16.004 2.421l8.228-9.819-1.054-2.007c-3.198 4.586-8.392 5.173-10.402 12.241zm19.156-20.565c1.564-6.043 1.564-6.043-1.191-8.028.329 2.133.647 4.357 1.191 8.029zm-5.094 8.68c.31-.739.77-1.383.681-1.778a1.706 1.706 0 0 0-.446-.667 1.064 1.064 0 0 0-.622-.279c-.319-.008-.575.851-.853 1.29.351.441.712.844 1.24 1.434zM1017.05 12.737c-3.42.764-6.79-.174-10.18-.733-.99-.157-2.17-.384-2.1-2.349.02-1.468.96-1.837 1.84-2.05 2.14-.548 4.3-1.004 7.83-1.818-3.07-.197-4.75-.476-6.4-.361-4.24.31-7.16-1.495-7.96-8.071-.259-2.105-1.716-4.83-1.785.373-.002.158-.278.452-.306.425C991.165-8.04 985.396 1.2 978.872.81c-3.868-.23-7.783 1.675-10.605-3.733-2.705-1.473-4.982-4.796-8.285-3.727 1.343-3.48 4.605-2.229 6.248-4.953 3.019 6.909 11.89 8.172 14.572 2.157 2.259.36 4.585-1.455 6.796.398 1.558-5.52 6.32-1.15 7.568-3.857 3.084-6.621 4.121 2.36 6.244.907.31-.174.62-.302.95-.382 3.25 1.814 5.65 7.448 9.16 6.607 5.75-1.386 11.34-4.494 16.9-7.026.39-.174.49-1.626.73-2.473l1.03-1.074c.26 3.94 1.69 2.534 3.08 1.39.24 1.842 0 4.47.8 5.409 4.98 5.923.71 7.125-2.38 8.88 1.27 2.498 2.73 2.038 4.23 1.42 1.05-.458 2.11-.6 2.49 1.218a3.201 3.201 0 0 1-.22 2.066c-.15.297-.35.542-.58.716-.23.173-.48.271-.74.286-6.37 1.58-12.07 7.871-19.1 5.082-1.11-.514-.61 1.61-.71 2.617zM870.482 29.754c-1.867 1.69-4.057 2.548-6.28 2.461 2.856-2.85 1.017-5.926.221-8.936-.019-2.137-.42-3.826-2.306-3.285-1.886.542-2.049-1.363-1.84-2.931.362-2.508 1.696-1.805 2.698-.862 2.664 2.481 4.354.44 5.967-2.246 2.86-3.126 5.245-2.999 7.08 1.742-2.296 2.432-1.675 5.923-.549 8.141 1.603 3.149 3.066-.905 4.715-1.295 2.262-.545 4.017-5.403 7.053-1.222.757 1.03.726-2.315.989-3.698 2.839-1.54 6.006-5.877 7.327 2.194-.939-.024-1.929-1.19-2.61.576a.877.877 0 0 0 .007.334.718.718 0 0 0 .126.285c1.216 1.093 1.752-.374 2.431-1.248.797.142 1.606-.057 2.321-.57.715-.513 1.301-1.316 1.682-2.304l4.399-2.286c2.564-.656 4.921 2.997 7.291 1.354 3.964-2.744 8.317-3.72 12.294-6.07-.005.835-.209 1.644-.58 2.299s-.888 1.12-1.469 1.32c-1.264.426-2.47 1.34-2.063 3.303.495 2.347 2.117 1.195 3.034.76 3.582-1.652 3.597-6.345 4.225-10.472 2.777-.44 5.424-3.795 8.352-.704-1.693 1.596-4.257.114-6.297 3.772l6.276-.717c-.012.89-.024 1.769-.101 2.62-.937-.156-2.233-.91-2.828.7-.898 2.6 2.035 1.036 1.94 2.515-6.761 9.004-15.896 9.963-23.841 11.83-7.54 1.76-13.498 6.918-20.338 9.784-2.874 1.391-5.959 1.706-8.947.91-2.331-.675-3.968 4.514-6.847 4.794-.762.072-1.486.854-2.841 1.684 2.208-5.712.339-10.021-.749-14.442-.266-1.213.039-2.922-1.263-3.257-.178-.005-.608.495-.63.796-.1 1.873 1.045 1.942 1.951 2.371zm8.82-1.281c-1.178-.424-1.327.923-1.379 1.97-.202 3.929 2.124 4.224 3.993 5.033 1.718.752 3.317-.06 3.407-2.6.243-7.048-5.29.716-6.02-4.456l-.001.053zm35.443-7.429c.014-1.075-.341-1.91-1.139-1.944-.43-.04-.855.146-1.192.52-.337.375-.561.912-.63 1.505-.155 1.11.324 1.818 1.151 1.8.827-.018 1.697-.402 1.811-1.933l-.001.052zm14.716-5.247c-.488-.707-.742-1.409-1.079-1.483-.338-.074-.795.4-1.192.638.256.505.462 1.231.808 1.424.345.192.793-.334 1.464-.631l-.001.052z"/>
        <path d="m367.053 6.25-11.556-.703c3.344-2.811 6.072-5.914 7.349-10.798.136-.585.43-1.074.819-1.362.39-.288.844-.355 1.268-.184 5.736 3.189 6.72-3.761 8.975-8.004 4.514-3.201-.314-4.741-.659-7.084 4.31-3.337 8.883 1.12 13.24-.866.901 2.947.12 5.916-.003 9.493 3.1-2.071 7.319 2.128 9.302-4.324.481-1.548.058-4.378 2.288-3.193 1.539.84 1.551 2.793 1.102 4.8-.29 1.304-1.029 2.505-.353 3.925l2.835-1.239c.677 4.279 5.643 4.55 4.892 10.182-2.906.935-6.316.913-6.665 6.752a77.901 77.901 0 0 1-10.872-1.302c-1.723-.424-2.811-.583-3.919 1.486-.723 1.384-5.814 1.988-6.887.754-1.703-1.958-2.351 3.69-4.709.823-1.101-1.3-4.225.482-6.447.844zm2.901-6.258c.316-.39.605-.822.863-1.289.001-.105-.312-.559-.477-.851-.336.357-.654.743-.955 1.155.152.35.327.68.523.984l.046.001zM539.511 15.096c-1.485.027-2.644 2.436-4.336 1.055-.808-.65-2.069-.551-2.289.466-1.499 6.845-5.815 3.509-8.691 4.313-2.706.77-6.695 3.972-8.738-2.846-.18-.582-3.936.017-3.414 3.846.36 2.631-.176 4.125-1.777 5.12-.891.554-1.905 1.983-2.764.846-.452-.556-.727-1.338-.767-2.176-.04-.839.159-1.665.553-2.3.732-.935 1.176-2.228 1.24-3.61.064-1.381-.258-2.744-.898-3.802-.955-4.482-1-8.233 3.482-8.276l-2.01 3.528c1.757.045 3.479.509 3.927-2.076.194-1.161-1.187-1.236-1.993-1.362 1.231-1.437 2.479-2.06 4.08-.892.954.688 2.014 1.041 3.088 1.03 1.074-.011 2.129-.387 3.076-1.094 1.903-1.787 3.945-4.226 6.241-3.773 2.812.544 4.024-1.64 5.4-4.084 3.735 1.735 5.706-.22 6.143-5.545l.152-.193c1.018 1.18 2.046 2.347 3.073 3.514.034 3.148.658 6.389 3.01 6.895 3.139.658 3.354-3.559 4.172-6.448l2.093-1.258 1.881-.174c3.503 1.571 1.077 5.967 2.131 8.708l-1.512-.04c-.759-.884-1.603-2.453-2.546-1.454-.734.768.368 1.32.868 1.858 2.485 2.515 4.884 5.081 2.686 10.046l-4-1.623c-1.469 1.745-2.759 1.896-4.493.16a35.114 35.114 0 0 0-6.254-4.527c-2.179-1.433-4.886.032-5.344 2.026-.916 3.91 2.213 1.709 3.364 2.787.408.419.797.871 1.166 1.355zM743.165 20.598c-3.891 2.941-7.505-.888-10.834-2.01-4.06-1.336-6.559-1.348-8.731 3.71-5.091 2.098-10.122 5.234-15.565 1.974a4.68 4.68 0 0 0-.936-.274c-2.779-3.008-3.465 1.97-5.287 2.592l-4.14 1.205c-.87-1.675.594-3.735-1.266-5.854-3.499-4.023-6.544-2.476-9.875-.686-2.618-3.096-2.321-6.419-.572-10.071.802-1.684 2.764-3.666.073-5.531l.019-1.468 5.12-1.337c2.099 15.38 6.337 13.13 13.147 9.712 1.164-1.373 2.3-2.695 3.999-2.599 7.567.444 15.135.808 22.702 1.186 5.641-.943 7.692 7.356 12.146 9.45zm-34.441-.885c-.25-.294-.552-.866-.926-1.033-.532-.236-.943.264-.765 1.055.079.3.202.573.36.803.159.23.35.41.562.532.476.17.839-.28.769-1.357zM1049.04 8.757l-.94.211c-2.49-2.437-1.8-5.5-.82-8.609l3.23-1.228 1.97-.04c1.74.581 2.4 2.355 2.82 4.595.27 1.488 1.23 2.955 2.23 2.05 2.69-2.435 6.38-3.324 7.45-8.528 2.4-1.03 4.92-1.41 7.43-1.12 7.2.657 14.77-2.532 20.67 6.391.44.68 1.63.422 2.46.601l6.23 1.97c.02.476.01.953-.02 1.428-2.66.404-5.15 1.179-6.95 4.712l3.68 1.065-1.05 1.284c-2.43.265-4.78-1.591-7.24-.58a4.74 4.74 0 0 1-.94-.128c-2.02-6.713-5.17-7.528-9.27-3.503-.31.114-.62.202-.94.264-7.61.833-15.26.377-22.79-1.358-2.39-.751-4.88-.57-7.21.523zM934.95 6.367c-2.929-3.052-5.575.263-8.352.703l-3.147 2.79c-4.006 2.402-8.359 3.326-12.294 6.07-2.37 1.644-4.727-2.009-7.292-1.354 2.622-5.006 3.966-11.501 10.082-11.423 2.817.072 5.134-4.628 8.993-3.008 1.953.811.354-1.905.04-3.04l7.297-2.567 1.862 1.228c1.755 5.159 7.276-5.975 8.024 3.602 3.553-1.574 7.85 3.847 11.008-2.641 1.294-2.668 3.714-3.065 5.998-1.721-1.188 3.903-3.304 6.222-6.072 8.091-2.038 1.364-4.721 1.714-5.857 5.252-3.497.867-6.469 4.658-10.308 3.668.012-.891.023-1.77.1-2.62.681-1.018.515-2.018-.082-3.03zM452.993 19.904c-.572-6.505 5.079-6.11 6.146-10.803 3.794 4.371 2.368-.726 2.602-2.805 2.211-.218 4.308-.387 3.053 4.314-.732 2.747-1.144 6.945 1.279 7.034 2.423.088 6.295-.022 7.185-5.545-1.348-1.044-2.802 4.477-3.341-1.004-.239-2.497-1.27-4.844-1.943-7.26l2.038-1.39c2.943.586 6.135 2.215 7.563-3.517l.357.009.347.009c1.953 8.69 7.919.111 10.838 5.313-.526 1.468-1.161 3.261-1.804 5.04l-2.379 1.579c-2.795-1.816-5.462-2.619-7.537 1.59-.619 1.294-1.829 2.575-.639 4.257 1.19 1.683 2.132.055 3.119-.68.28.846.569 1.692.849 2.552.082.238.154.463.226.7-2.685 4.822-7.161 4.432-10.644 7.03-4.696 3.498-8.755 2.07-10.328-6.165-2.397 2.18-2.312 5.015-2.682 7.457-.629 4.232-2.081 2.464-3.549 1.22l-.002.131c.078-1.597-.284-4.072.306-4.646 4.017-3.949 1-3.921-1.06-4.42zM814.936 26.206c-2.848 2.195-6.856 3.338-4.577 10.083.751 2.222-.574 2.24-1.509 2.583-2.126.89-4.234 1.871-6.386 2.616-1.538.537-3.224 2.972-3.726-2.403-.207-2.103-5.039-.47-7.191 1.703-2.771 2.787-4.431.385-6.312-1.578-1.473-1.546-.963-4.666-.058-4.852 6.935-1.54 6.707-9.858 8.371-16.371 5.346 4.975 11.566 1.398 17.344 2.805 3.595.97 3.578 2.281 4.044 5.414zM658.704 26.942c-3.221 1.988-6.487 3.858-9.644 6.02-1.393.947-2.224.571-2.954-1.139 1.188-1.031 1.984-2.204.416-3.765-.361-.377-1.25-.662-1.356-.441-.965 1.915.687 2.77.959 4.22-5.728 6.88-12.316 7.786-19.444 5.388-1.945-.667-4.498-2.332-3.388 3.282.274 1.318-.405 2.914-1.107 2.738-4.476-1.124-9.443 3.573-13.512-2.064.944-.343 1.963-.67 2.945-1.039 4.834-1.777 8.684-7.316 14.527-5.803 2.753.714 2.125-2.96.5-5.126-.209-3.428-1.8-6.012-2.881-8.872l1.072-1.428c1.483.786 3.397 3.85 4.431 1.648 2.552-5.441 4.002-.631 5.875.505l-.295 3.113c-1.265-.23-2.564-1.495-4.075.577 2.951 3.445 2.968 7.195-.148 11.18 3.384-1.578 6.912-1.2 9.459-4.831-1.308-2.656-5.52 1.786-5.053-4.378 2.143-.102 2.143-.102.074-5.623.073-.549.156-1.11.229-1.659l1.874.376c1.118 2.808 2.416 4.848 4.783 2.076.792-.202 1.408-.645 1.313-1.985-.118-3.202-.036-5.849 3.146-3.433a16.145 16.145 0 0 0 4.299 1.71c-.48.735-1.512 1.338-.522 2.53.367.431.834.66 1.314.644.48-.017.939-.278 1.29-.735l.357.01.347.008.037 1.51c1.241 2.745 4.119 1.836 5.132 4.786zm-8.376.348 1.166-.77c-.295-.453-.548-1.168-.922-1.334-.514-.17-1.373-.626-1.456.723-.044.444.702.883 1.212 1.434v-.053zM-12.664 10.492l-1.86-1.425c-1.882-.431-3.655-1.519-5.155-3.16l.02-1.508c.367-1.42.26-2.615-.9-3.039 3.308-1.436 6.566-4.787 9.927-3.888 5.355 1.449 5.29-1.437 3.77-6.708 3.155.186 6.154 2.925 9.445 1.278.033-2.464-3.102-2.701-2.064-5.192 1.038-2.49 2.826-.557 4.192-.142 2.377.717 4.134.67 4.079-3.645 1.374-.227 3.164 1.563 4.024-.945 1.192-3.483-2.629-.868-2.425-3.498.005-.38-.252-.82-.397-1.242l.34-4.476c1.725-.388 2.768 3.94 4.513 1.204.959-1.404 1.455-3.45 3.132-1.663 1.483 1.585 1.05 3.056.521 5.376-.528 2.32-.865 7.189 3.258 4.502.663-.429 1.66.147 2.495.26-.098 1.073-.206 2.133-.305 3.205-3.286 2.682-5.043 8.38-9.29 9.136-2.41-3.995-3.593-3.317-6.568 3.608l-.639-.017c-.51-1.206.312-4.45-2.125-2.677-1.262 1.607-2.883.556-4.282 1.202l-2 2.715c-1.505-4.117-3.647-1.969-4.9-.27C-7.772 2.16-4.75 2.396-4.226 3.969c-.011.865-.098 1.742-.157 2.619-2.662 1.727-7.226-4.159-8.281 3.904zm-1.983-5.715a5.95 5.95 0 0 0-1.125-.881c-.103-.003-.556.85-.51.93.278.437.587.832.924 1.178l.711-1.227zM128.885 18.884c-2.37-1.254-5.472 2.404-7.357-2.129-.371.358-.995.63-1.066 1.087-1.405 8.185-7.332 3.129-7.765 2.423-2.579-3.908-6.404-2.393-9.017-5.148l-.365-.822c3.547-3.2 8.158-3.095 11.429-7.482.708-.939.433 1.414.326 2.355-2.644 3.184-.954 6.138.957 7.275 1.911 1.138 2.464-2.349 3.186-4.376s.233-4.176-.2-6.246c.234-.61.694-1.293.654-1.858-.13-2.245 3.387-.332 2.066-3.447-1.003-2.347-2.436-.509-3.591.104-2.024 1.076-3.9 2.981-6.428 2.313.721-2.722 2.636-1.86 3.437-3.452 2.411-2.56 4.067-9.912 8.121-2.414.275.506 1.616.042 2.436-.212 3.016-.683 6.023-1.445 9.03-2.181l2.249 1.815c-3.839.439-4.976 2.599-2.311 7.151-2.238.835-3.589-2.11-5.603-2.621a7.713 7.713 0 0 0 .682 2.989c.415.894.993 1.616 1.675 2.093 1.35.94 4.075 3.054 3.247-2.54 1.828-1.864 4.081-2.739 6.337-2.459-.373 4.016-2.608 5.348-4.565 7.75-2.569 3.107-8.104 2.506-7.564 10.032zm-4.581-4.575c2.173-.901 2.292-3.56 2.903-6.39-3.463.37-2.449 4.002-2.903 6.39zM864.423 23.28c.749 3.021 2.682 6.1-.222 8.949l-5.738 3.406c-.482-2.635 2.212-6-.321-6.997-2.085-.814-6.3-.371-6.589.92-1.281 5.21-6.599 1.718-7.265 7.325-.105.824-1.244.257-1.579-.67a6.861 6.861 0 0 1-.367-3.118c.119-1.068.479-2.055 1.027-2.817.274-.258.585-.427.911-.496.326-.068.658-.035.974.099 1.421.495 2.964 1.06 3.114-1.756.15-2.815-1.717-2.338-2.99-2.699-.486-.13-.935-.325-1.646-.554 1.604-4.088 4.087-.694 6.405-1.946-1.853-1.962-2.764-4.162-2.178-7.254.274-1.527-.651-2.639-1.842-2.814-.938-.129-2.14.535-1.994 1.588.969 7.026-2.558 3.028-4.207 3.432-1.669.57-3.42.452-5.041-.34l2.179-4.218c.703-2.696 3.633-3.315 3.324-6.955 2.855 1.49 5.629.59 8.297-.849 1.124 5.273 3.174 8.722 7.595 8.324.94-.08 1.558 1.535 1.669 3.098.386 5.634 3.107 6.661 6.484 6.342z"/>
        <path d="M14.606-5.079c4.247-.756 6.004-6.401 9.29-9.136-.191 2.42-3.047 3.855-1.035 7.25 1.747 2.956 2.56-1.717 3.886-.385l3.587-1.324 1.893-1c1.62 2.493.42 3.708-1.09 4.901-1.348 1.08-2.464 2.389-1.409 5.012 7.49-7.32 7.51-7.333 8.366.438 1.308-4.141 2.14-8.545 2.464-13.048l.489.012.487.091 2.951 6.343C42.889 2.53 37.211 2.07 32.848 4.488c.282-.753.583-1.506.829-2.299 0 0-.537-.617-.707-.53-1.154.6-.968 2.113-1.135 3.407-1.198 1.817-3.554 3.068-1.732 7.39-3.524-5.677-5.95 1.63-8.862.152L20.36 8.18c2.172-1.596.265-2.288-.391-3.13-1.68-2.207-2.631.024-3.775 1.28-.318-1.517-.277-3.941-1.573-3.975-1.681-.043-1.083 2.293-1.243 3.758-1.33-1.86-3.114-2.953-4.995-3.065L7.123.314 7.4-1.54l.639.016c4.312 6.483 4.318-2.55 6.567-3.555zm7.413 7.86c.927.916 1.917 2.83 3.262.53-.963-1.769-2.055-1.6-3.3-.583l.038.053zM626.644 29.264c1.625 2.166 2.253 5.84-.5 5.127-5.843-1.461-9.693 4.025-14.527 5.802-.944.37-1.963.697-2.945 1.04-2.682-3.164-6.291-1.657-9.216-3.568.571-2.03-1.605-5.81 2.359-5.773 2.32.059 2.245-2.801 1.008-5.22l1.327-1.604c1.768-.125 3.594.38 5.228-1.02 1.517-.288 3.935.101 4.401-1.001 2.387-5.773 5.964-1.984 8.924-2.773l.508.013.573.014c1.108 2.86 2.671 5.445 2.88 8.872-1.258-.82-2.562-1.665-3.411.725a2.16 2.16 0 0 0-.043 1.363c.067.217.168.41.295.566.128.155.279.268.442.331 1.857.913 2.213-1.15 2.697-2.894zM69.327 21.262c.529-2.373 2.953-2.39 3.32-5.304-.917-1.715-5.868 2.577-3.57-4.326.172-.42.27-.891.287-1.374a4.186 4.186 0 0 0-.187-1.408 3.201 3.201 0 0 0-.62-1.139 2.05 2.05 0 0 0-.923-.627 1.685 1.685 0 0 0-.98.097c-.317.13-.611.353-.862.656-1.562 2.32 2.408 1.936.56 5.259-2.62-5.823-10.339.35-10.89-11.24-2.196 4.007-4.168 6.815-7.397 6.6l.046.068c3.117-4.837 6.113-9.742 4.65-17.017l3.19-2.54c1.74 1.198 3.736 1.668 3.21 5.85-.49 3.75.802 4.06 3.258 2.392 2-1.365 4.665-2.503 6.562 1.125-1.855 5.984-1.405 7.516.087 6.217 4.876-4.267 7.04 1.217 9.91 4.45V8.91c-.032 2.49.557 4.852-1.961 6.269-2.518 1.417-.316 2.614.638 3.648l.247.504c-2.668 2.07-5.708 1.086-8.482 1.946l-.093-.015zM1299.13 7.98c2.33-.53 5.6-5.219 5.93 3.063.05 1.247 3.25 2.496 5.1 3.29 1.64.698 4.16-1.755 4.49 3.17.09 1.393.83-.188 1.28-.622 3.35-3.231 6.51-3.662 9.6 3.223-.17-6.665 1.9-5.629 4.15-4.51 1.36.691 2 3.684 3.95 2.41l2.46.063c.68 2.876.36 4.402-2.24 4.309-3.02-.171-6.04.5-8.87 1.973-2.83 1.474-5.43 3.721-7.64 6.61.09-3.157 1.35-6.967-1.48-6.528-4.31.663-3.47-3.288-3.6-7.264-1.11 7.772-6.36 4.557-9.3 7.628-1.65 1.688-3.6-2.335-2.1-6.085 1.21.516 2.31 3.875 3.03 2.53 1.71-3.248-1.57-4.997-2.41-7.93l-.66 5.228c-2.77.218-5.56.854-8.31-.41.96-1.286 2.08-2.28 2.31-4.267 1.1.579 2.52 3.814 2.94-.869a29.19 29.19 0 0 1 1.37-5.012zM1147.57-15.29c.51 1.774.64 3.717.38 5.594-.43 2.821-.22 3.928 2.32 2.682 1.6-.772 4.38 2.354 4.31-3.115 0 0 1.17-.35 1.27-.111 1.82 4.583 6.47 2.788 8.65 8.285-.05-.224-.36.28-.94.343-1.61.195-3.5.644-3.27 3.299.26 2.983 2.78 3.126 4.17 2.86 8.47-1.723 13.15 7.34 19.1 12.736-1.64 1.48-1.51 1.115-3.82-.452-2.86-1.935-6.04-.01-9.07-.573-.94-.169-2.29.845-2.81-.872-.64-2.43 1.07-1.546 1.8-2.091 1.22-.913.44-1.943-.07-2.808-.7-1.158-1.55-4.222-2.34-2.787-3.02 5.495-5.11-3.2-8.1-.523-1.35 1.277-1.36-1.595-1.18-3.32.24-2.315.49-4.787-1.61-5.968-2.6 2.555.94 6.58-1.28 9.053-3.02-1.86-6.07-3.512-9.32-.96l-.06-.002c-.25-1.318-.5-2.753-.75-4.123v.078c3.94-3.11.05-3.932-.87-5.699-.63-1.537-1.26-3.061-1.9-4.585 2.89-.673 3.9-3.558 4.28-7.154l1.11.212zM1386.53 9.307c-5.07-3.946-9.7 1.284-14.27 2.124-1.69-3.977 4.58-3.816 1.43-7.463-1.61-1.903-3.77-4.698-6.22-1.247l-2.44-.47c.44-7.252 4.65-4.351 7.4-5.356 1.91-1.852 3.8-2.892 6.02-1.012.04 2.715-2.78 4.872-1.03 7.237.79.932 1.78 1.464 2.81 1.512 1.04.048 2.05-.391 2.89-1.248 1.72-1.791 2.92-.698 4.54-.42 2.89.48 6.08-3.49 8.74 1.168.81-1.353 1.9-2.307 3.13-2.722 1.23-.415 2.51-.268 3.67.418l1.08.107c1.51 1.546 3.28 1.592 5.04 1.676-.96 1.536-3.08.485-3.52 2.991.41 3.328 3.66-.942 3.63 2.715-.02 1.81-1.62 2.043-2.53 2.964l-2.1.825c-5.71-2.009-12.24 1.94-17.37-4.38-.12-.12-.6.378-.9.58zM222.142.458c-3.875 1.041-5.994 6.402-9.779 7.786-.358.274-.659.672-.874 1.156a4.294 4.294 0 0 0-.356 1.605c1.41 5.661.148 8.723-4.147 9.557-1.14.232-.751 4.202-2.854 2.667-1.712-1.238.046-3.487-.694-5.04-3.669 3.158-5.689 8.154-6.043 15.067-1.865-1.07-1.752-4.608-3.686-5.444-2.803-1.2-1.631-4.604-.661-5.458 4.381-3.82 1.304-7.007-.145-10.388.781-2.982 1.48-6.085 4.401-5.984.098 3.936-.733 7.848.902 12.82 5.439-9.93 12.703-15.774 18.098-24.447.994 2.294 1.823 4.256 3.534.576.9-1.996 1.629-4.534 3.324-5.5 2.299 3.062-2.696 5.621.199 8.37L222.142.458zM1047.19.36c-.98 3.109-1.62 6.173.83 8.61-6.99-.547-12.94 6.393-20.06 5.332-3.64-.54-7.43.74-10.96-1.592.11-1.007-.4-3.131.76-2.603 7.03 2.803 12.73-3.502 19.1-5.082.26-.015.51-.113.74-.287.23-.173.43-.418.58-.715.15-.296.24-.637.28-.995.04-.359.02-.725-.06-1.07-.38-1.82-1.44-1.677-2.49-1.219-1.5.657-2.96 1.117-4.23-1.42 3.09-1.756 7.36-2.957 2.38-8.88-.8-.938-.56-3.568-.8-5.41 2.65-.194 4.91-1.853 7.15-3.631.53 3.58 1.79 6.877 2.4 10.433.51 2.517-1.01 9.925 4.38 8.53zM1098.35 12.214l-3.68-1.065c1.8-3.468 4.29-4.308 6.95-4.712 1.54-2.15 3.11-4.26 4.61-6.437.82-1.212 1.81-3.231 2.84-1.776 5.8 8.016 6.45-2.64 9.38-4.886l2.01-1.666c-.41 2.9.01 6.36 2.44 5.006 2.97-1.654 7.78-2.554 6.09-10.202 2.05.722 3.18-2.54 5.14-2.372 1.37 1.661-.53 4.235.87 5.818.5 1.809 1.42 3.484.94 5.609l-.29.4c-5.62 3.146-11.01 7.583-17.28 7.632-2.76.034-4.31 1.922-5.57 4.879-1.62.128-3.19.495-4.29 2.446-2.94-1.544-5.51.711-8.22 1.546l-1.94-.22z"/>
        <path d="M197.285 5.982c-2.921-.075-3.619 3.002-4.401 5.984-3.083-2.701-5.035-.024-6.887 2.917-.893 1.407-1.737 3.47-3.279 2.119-1.291-1.135.228-3.062-.118-4.618 1.053-.747 2.161-1.374 3.149-2.253 1.521-1.338 2.868-3.755 2.163-5.805-1.187-3.335-1.888.672-2.898 1.027-1.36.49-2.194-1.053-3.026-2.15-1.689-2.259-3.283-4.673-4.915-7.01l2.144-1.583c-.12-.16-.219-.425-.341-.455-1.097-.185-1.404 1-1.803 2.026l-2.084 1.297c-1.12.141-2.377.043-2.127 2.462L171.6 1.586l-2.12-.29c.127-1.793.254-3.6.372-5.392 1.456.037 1.342-2.038 2.105-2.91 4.426.665 9.666-4.144 13.029 3.757.327.007.645-.148.898-.436 3.919-6.455 9.628-1.208 14.055-4.254-2.644 3.93-1.195 9.462-2.654 13.921zM837.017 13.346l-2.179 4.218c-1.245.387-1.356 3.086-3.237 2.54-3.604-1.05-6.014 2.218-8.367 5.37-.136-1.118-.338-2.172-1.382-2.094a.455.455 0 0 0-.188.166.721.721 0 0 0-.109.272c.14 1.472.996 1.402 1.755 1.566-.288 3.31-1.681 3.497-3.683 2.868-1.619-.5-2.777-3.113-4.671-2.047-.475-3.159-.485-4.483-4.072-5.349-5.778-1.46-11.999 2.17-17.345-2.805l-1.874-.337 3.432-2.337c5.317.713 10.348-1.046 15.212-3.713 1.449.6 2.936 1.085 4.355 1.829 2.985 1.571 3.602-.301 3.086-3.96 1.823 4.256 5.494 2.318 7.907 4.622-1.246 5.423 1.538 3.055 3.042 3.002 3.027-.119 4.845-5.513 8.318-3.811z"/>
        <path d="m169.516 1.271 2.12.29c1.357 1.124 2.781 2.825 3.275-1.135.013-.996.073-1.99.114-2.973l2.046-1.259c1.633 2.337 3.226 4.75 4.916 7.01.831 1.096 1.665 2.665 3.025 2.15 1.01-.355 1.711-4.362 2.898-1.028.734 2.051-.642 4.468-2.163 5.805-.951.88-2.096 1.507-3.148 2.253-.687-1.02-1.52-1.826-2.446-2.365-.926-.539-1.922-.799-2.925-.762.719-3.22 2.875-.7 3.68-3.314-2.801-1.383-5.318-2.838-6.617 3.003-.359 1.63-1.906 2.075-3.125 1.152-1.86-1.438.147-1.819.375-2.77.447-1.81-1.465-2.87-1.572-2.584-1.063 2.962-6.966.962-4.083 8.208 1.282 3.232-2.015 5.376-3.156 4.206-3.457-3.563-6.056-.981-8.632 1.313-1.816 1.618-3.027.84-3.933-1.006-1.464-3 .739-2.603 1.82-3.389 1.631-1.125 1.838-2.575.302-4.332-.602-.67-2.566.053-1.492-2.332.349-.778 1.542-.813 2.347-1.251 1.869.743 3.861 3.56 5.208-.942l1.789-.295c.661.061 1.32-.167 1.884-.653.563-.486 1.004-1.206 1.261-2.058l6.232-.942zM1248.93-.324c-.85 3.662-1.71 7.311-2.55 10.974l.24.412c.76 3.403 2.43 2.305 4.02 1.586-.64 8.243 3.5 1.794 5.08 3.237l-.06-.106c2.16 3.988-.01 5.244-2.14 6.356-3.68 1.964-7.07 6.374-11.46 2.879v.144c3.45-1.432 1.15-4.717 1.2-7.246 1.88-.056 3.29 3.087 5.79 1.46-1.41-3.065-3.61-3.253-5.34-3.822-1.26-.412-.58 1.533-.36 2.535l-3.06 1.232c-1.95-3.354-4.05-.838-6.1-.313-4.08-7.015-3.94-7.968 1.64-10.998.45-.322.84-.778 1.14-1.335.3-.556.51-1.2.61-1.885 1.59-.654 1.73-2.197 1.3-4.096.27-.085.56-.143.84-.202 3.23 3.217 6.13-1.507 9.27-.771l-.06-.041zM1406.86 12.332c.95-.92 2.53-1.155 2.53-2.964.05-3.71-3.22.56-3.63-2.716.44-2.506 2.58-1.454 3.52-2.99-.05-2.401-1.76-4.91.28-7.152l-.07-.002c3.11 4.525 5.28 4.37 7.09-.5.44-1.207.82-2.47 1.23-3.705 2.91 2.487 2.27 6.418 1.35 11.835 2.75-4.558 5.54-5.233 8-6.52 6.03-3.15-.29 6.312 3.09 6.32.25.006.5 1.14.75 1.75-.07.267-.14.542-.19.82-2.09.681-4.15 1.284-5.41 4.267-.73 1.738-2.67 2.869-3.41 1.342-2.49-5.151-3.82.74-5.65.746-1.96-1.912-3.84-2.458-5.92-.073-1.11 1.27-2.53 1.757-3.56-.458zM686.063 4.107l-.02 1.468c-2.271-.216-3.706 3.209-6.048 2.703-2.793-2-6.839-2.968-8.253-6.178-3.995-9.11-6.202.825-9.147 1.169-3.134.365-.566 3.682-.312 5.813.254 2.13-1.103 1.755-2.035 1.875-2.257-2.68-2.993-8.14-7.061-7.471a4.827 4.827 0 0 0 .549-1.983 5.199 5.199 0 0 0-.288-2.088c4.137-3.827 9.616-3.24 13.474-7.98.928.876.273 4.216 2.005 3.29 3.359-1.802 6.664 1.902 9.746-.956.359 3.392-2.859 3.087-2.316 6.759 3.473-.436 7.243-1.335 9.706 3.579zM554.062 4.456l1.512.039c4.777 3.282 10.494 1.475 15.139 5.475-.612.129-1.803.649-1.608.837 1.856 1.779 1.867 7.351 5.513 5.177 2.617 3.135 6.045 1.833 8.996 3.207l-1.036 1.6c-1.299-.276-2.627.064-3.771.964-5.096-1.822-10.179-3.998-15.312-.17-.441.375-.957.543-1.472.48-.514-.062-1.001-.353-1.389-.829-1.562-1.954-2.283-2.143-2.995 1.235-1.004 4.904-2.012 1.56-2.813-.413l.096-.155c2.434-2.206 1.677-4.599.196-7.023 2.18-4.966-.22-7.531-2.686-10.047l1.63-.377zM1231.51 31.365c-3.77 1.214-7.62 3.738-11.12-1.256-1.23-1.762-1.55.865-2.29 1.436-1.95 1.51-3.78 2.158-5.24-1.092l1.38-2.363c.74.19 1.86 1.477 2.11-.025.3-1.92-1.32-1.41-2.12-1.916-3.43-2.278-5.53-.142-7.02 4.094-3.28-1.317-6.91-1.24-9.63-4.731l.47-.486c5.62.708 9.82-6.055 15.34-6.018 3.99 4.036 8.24 6.216 13.11 3.418l1.14 1.747c2.18 1.983 4.32 4.149 7.43 2.223-.87 3.032-2.46 3.634-3.56 4.97zM1261.94 14.681c.9-.501 2.87.625 2.24-2.158-.25-1.108-2.45-1.505-1.19-3.531.73-1.188 1.88.245 2.81.688 4.31 2.09 5.9-.202 4.79-7.062 2.92 2.094 5.56 5.48 7.72-.523.55-1.533 2.55-.787 3.76.097 1.21.883 2.51 1.297 3.59-.498.91 2.41 4.65 3.974 3.16 6.1-1.91 2.65-3.46 8.393-7.59 6.058-1.87-1.083-2.76 1.044-4.04 1.929-5.07-.497-10.2.446-15.25-1.1zM743.165 20.6c-4.454-2.147-6.44-10.392-12.136-9.49 5.738-4.127 11.862.305 17.702-1.525.223.91-.352 2.482 1.019 2.491.012-.891-.07-1.772-.115-2.625 1.387-.463 3.467 4.206 4.204-1.099.354-.74.816-1.368 1.354-1.844.539-.476 1.143-.79 1.774-.92.513 3.16 1.688 5.209 4.233 4.605 1.366-.305 2.443-.002 2.735 2.024.362 2.487-.767 2.603-2.155 2.397-2.025-.301-2.211 2.434-3.124 3.97-3.387.307-6.851 1.516-10.125-.26-2.425-1.346-3.007 4.29-5.366 2.276zM505.713 15.972c-2.11 1.073-4.191 3.602-6.354.177-1.631 2.58-5.191 1.086-6.032 4.985-.711 3.325-.439 4.8-4.035 3.187-2.979-1.387-5.19-4.67-8.304-5.064a19.11 19.11 0 0 0-.226-.7c.461-2.86 1.417-2.691 3.296-1.961a4.22 4.22 0 0 0 2.469-.3c.798-.349 1.532-.935 2.151-1.719 1.569-2.11-1.47-3.184-1.32-5.278 1.986.552 3.835 1.82 5.363 3.677 1.657-.993-.604-5.535 1.528-4.733 6.161 2.309 7.481-4.436 9.967-9.21l1.877.166c-1.125 5.556-5.631 10.947-.38 16.773zM795.078 15.361l-3.432 2.337c-2.516 2.742-6.306 2.264-8.276 6.344-2.41-2.488-4.283-.845-6.136 1.442-.114.154-1.074-.487-1.134-.908a4.496 4.496 0 0 1-.07-1.346c.045-.45.158-.883.33-1.27a42.82 42.82 0 0 1 3.536-3.842c-1.036-1.94-3.412.83-3.725-2.521 1.494-2.138 2.878-4.45 5.347-4.334.316.029.634-.011.941-.12 1.704-1.422 3.683-2.067 5.662-1.847 5.198.526-.687-2.81.676-3.51 3.174.829 6.66.053 9.272 3.62 2.418 5.438-1.7 4.258-2.991 5.955z"/>
        <path d="M1277.23 15.783c1.28-.885 2.14-3.013 4.04-1.928 4.13 2.335 5.68-3.408 7.59-6.06 1.52-2.124-2.29-3.69-3.16-6.099a9.05 9.05 0 0 1 4.93-.27c1.64.369 3.22 1.19 4.63 2.417-.95.749-1.78 1.75-1.12 3.315 1.02 2.399 2.7.882 4.1.957.3.006.6-.049.89-.16a29.102 29.102 0 0 0-1.38 5.09c-.42 4.683-1.84 1.448-2.94.869-.84-.664-1.69-1.355-2.53.145.93 1.335 1.71-.245 2.54-.184-.23 1.987-1.33 3.047-2.31 4.267-6.41 1.147-13.07.976-18.41 7.512-1.41 1.72-3.2 2.645-5.09.302 2.27-4.386 7.14-4.366 8.22-10.173zM1112.89 8.443c1.26-2.957 2.81-4.844 5.57-4.878 6.27-.102 11.65-4.487 17.27-7.633l3.08 2.937c-4.42.896-5.8 5.567-6.73 11.627-.88-3.956.4-9.587-4.92-4.61-3.28 3.13-6.32 6.73-9.06 10.741-1.28 1.816-2.08 4.352-4.63 5.637 1.81-5.237.39-9.495-.58-13.82zM1406.86 12.334c1.03 2.215 2.41 1.726 3.51.483 2.08-2.385 3.96-1.839 5.93.073-.31.55-.53 1.18-.66 1.852a7.49 7.49 0 0 0-.08 2.063c.78 5.409.55 4.301-3.26 4.374-2.82.046-6.84.781-8.9 4.701-.87 1.656-1.65 1.65-2.54 2.413-4.01 3.424-4.31-3.14-6.53-4.1.93-3.661 1.07-9.414 5.36-3.613 1.06 1.456 1.73.477 2.3-.95.91-2.22 1.87-4.384 2.81-6.576l2.06-.72zM781.545 11.33c-2.433-.062-3.853 2.196-5.347 4.334a2.113 2.113 0 0 0-.937-.22c-1.248-1.488-2.644-1.104-4.042-.563l-1.117-2.874c-1.183-1.486-3.152-2.506-1.806-5.54a29.193 29.193 0 0 1 1.845-3.151c3.895 4.557 3.735-2.527 5.603-3.79 1.19 3.072 3.357 2.604 5.3 2.758 2.892.14 5.626.813 7.863 3.611-1.362.7 4.522 4.05-.676 3.51-1.979-.22-3.958.425-5.661 1.847.141-1.49 1.129-2.973.058-4.443a.744.744 0 0 0-.439-.165.733.733 0 0 0-.444.142c-1.071 1.428-.237 3.023-.2 4.545zM291.65 17.518l-3.175 2.764c-3.957-2.724-6.995-1.032-9.444 3.69-1.449-4.1-4.351-5.591-6.965-7.599 2.292-4.95 4.3-10.457 9.578-9.561 2.127 3.293 4.954 8.374 7.42 7.27 4.14-1.886 2.108 1.89 2.557 3.475l.029-.039zM660.229 10.943c.941-.107 2.296.413 2.035-1.862-.261-2.275-2.822-5.448.311-5.813 2.946-.344 5.153-10.278 9.148-1.168 1.414 3.21 5.432 4.178 8.252 6.177.496 1.6 1.734 3.152.311 4.951-.957 1.287-1.849 1.264-3.024-.077-1.508-1.783-3.139.758-4.769.402-2.091-5.993-3.522-6.502-7.103-2.136-.929.942-2.039 1.475-3.186 1.53l-2.123-1.496.148-.508z"/>
        <path d="M1404.77 13.157c-.97 2.19-1.94 4.355-2.81 6.575-.58 1.428-1.25 2.407-2.31.95-4.24-5.799-4.42-.113-5.35 3.613-2.89-2.933-5.52 3.005-8.7.21 3.52-4.657 2.81-9.88.93-15.199.3-.202.78-.701.87-.594 5.16 6.386 11.62 2.435 17.37 4.445zM945.158 8.346c1.099-3.538 3.809-3.835 5.857-5.251 2.768-1.87 4.884-4.162 6.073-8.091l2.896-1.604c3.302-1.07 5.607 2.255 8.284 3.726-4.012 1.418-5.325 8.438-9.796 9.019-4.47.58-8.879 1.45-13.314 2.201zM1049.05 8.757c2.28-1.102 4.73-1.32 7.1-.63a68.14 68.14 0 0 0 22.79 1.358c-9.19 6.32-18.93 6.568-28.87 5.198-.42-2.003 2.55-5.165-1.02-5.926zM662.203 12.963c1.148-.055 2.257-.588 3.186-1.53 3.581-4.366 5.011-3.805 7.103 2.135.178 2.89-1.228 4.82-2.252 6.918a4.061 4.061 0 0 1-.874 1.244c-.348.329-.74.557-1.152.67-5.914.307-5.913.242-9.513 4.594-1.012-3.002-3.89-2.093-5.086-4.706l5.181-2.49c1.667-1.66 2.871-4.075 3.407-6.835zM505.714 15.97c-5.25-5.824-.745-11.215.371-16.76l1.14-.193c1.633 1.537 4.792 2.103 5.041.982 1.298-5.814 3.911-3.033 5.395-1.527 2.688 2.757-2.764 2.984-1.079 6.253 1.433.351 3.372.086 4.669 2.23-.947.708-2.003 1.084-3.077 1.095-1.074.011-2.133-.342-3.088-1.03-1.6-1.168-2.811-.544-4.08.892l.077-.077c-4.483.056-4.438 3.82-3.482 8.289l-1.887-.153zM539.51 15.096a14.814 14.814 0 0 0-1.147-1.34c-1.151-1.079-4.282 1.2-3.365-2.788.459-1.994 3.165-3.458 5.345-2.026a35.182 35.182 0 0 1 6.254 4.527c1.734 1.736 3.023 1.585 4.493-.16-1.535 5.284 4.018 4.495 3.804 8.646l-.096.155c-4.94 3.413-10.151 1.024-15.288-7.014zM1365.03 2.25l2.44.47c-1.09 1.44-2.94 1.419-3.58 3.684-2.43.606-4.98.645-7.11 2.74l-2.01 1.575c-1.18-2.141-4.44-.114-4.53-4.417.01-.957.98-2.597-.59-2.52-.71.048-1.38 1.276-2.07 1.928-.34-1.451-.66-2.889-1-4.327 1.88-.109 3.75.228 5.39-1.304.82.389 1.63.737 2.31-.452 3.78-6.668 4.13-6.685 7.91-.373-1.44-.13-2.82-.073-2.75 2.695-.01.525.55 1.483.85 1.478 2.02-.04 1.44-2.586 1.93-4.146l2.81 2.97zM1351.83 26.94c-1.69.848-2.35 2.286-2.3 4.031.05 1.746 2.08 5.102-.07 5.243-2.73.1-4.96 5.117-7.93 1.501-.58-.71-1.8-.689-1.5-2.307.25-1.304 1.19-1.28 2.05-1.507 5.32-1.555 5.93-3.781 2.67-9.11 3.37-.792 6.93-4.555 9.93 1.016.76 1.422 3.66.894 2.19 4.29-.76 1.777-1.73 4.336-3.33 3.94-2.08-.512-1.16-3.373-1.21-5.367a7.54 7.54 0 0 0-.5-1.73zM399.897 3.723c.349-5.839 3.759-5.817 6.666-6.752 1.624.79 3.451-1.642 4.98.613-.4 2.612 5.499 5.504-.54 8.233-1.446.658 2.004 3.303 3.164 5.155l-2.971 2.245c-2.192-1.879-5.124-1.823-5.207-7.686-.047-3.554-3.703-2.756-6.092-1.808zM128.885 18.887c-.54-7.526 4.995-6.925 7.526-10.033 1.911-2.39 4.192-3.72 4.565-7.75l2.006 1.756a58.37 58.37 0 0 1-.084 2.856 53.233 53.233 0 0 0-1.89 5.052c-2.696 9.935-2.952 10.138-10.599 7.91a3.937 3.937 0 0 0-1.524.21zM20.323 8.178l.881 4.428c-3.213 1.386-5.116 7.473-9.377 5.004.08-2.437 1.535-5.205-.374-7.22-1.76-1.92-3.135.43-4.629 1.192-2.553-.197-3.997-3.302-6.13-4.603 2.24-2.564 5.886.27 7.671-3.972 1.882.112 3.664 1.206 4.995 3.065l1.017.616c1.234 6.824 3.53 4.496 5.946 1.49zM1231.51 31.365c1.13-1.282 2.72-1.936 3.58-4.97-3.11 1.927-5.25-.239-7.43-2.222.89-4.828 5.54-.553 6.5-5.222 2.04-.524 4.14-3.04 6.09.314l1.8 5.867.01-.144c-1.37 1.987-3.01 3.574-4.82 4.669-1.81 1.094-3.75 1.675-5.73 1.708zM96.383 15.68c-2.92 1.236-6.358 1.266-7.197 7.144.672-10.314-3.853-4.937-6.36-5.014l-.341-.507c-.053-1.654-.454-2.634 1.202-4.23 4.338-4.098 9.739-.406 13.826-4.667l.935.325 3.101 1.391c-1.283 2.535-3.083 4.472-5.166 5.558zM686.55 21.18c3.35-1.789 6.376-3.285 9.875.686 1.851 2.12.396 4.18 1.266 5.854-1.186 2.356-2.63 2.856-4.394 1.198-1.763-1.657-3.221-1.538-4.547.723-.722 1.292-1.4 2.14-2.549.905-1.148-1.236-1.214-2.654-.086-4.12 1.128-1.465.89-3.386.435-5.246zM1444.64-7.126c-5.23-.462-.08 6.33-2.77 8.032-.36.213 2.76 4.66.72 5.538-2.5 1.05-5.05 4.08-8.06 2.127-1.2-.778-2.48-1.375-3.73-2.036.04-.277.1-.548.18-.808l4.19-3.263c-.18 1.556-.14 3.118 1.39 2.659 1.53-.46 1.28-1.777.48-3.109.08-1.309.16-2.54.24-3.809 1.9-1.446 2.8-2.93.06-4.548l4.42-4.135 2.94.6c.01.945-.03 1.848-.06 2.752z"/>
        <path d="M1347.58 5.682c.69-.677 1.36-1.88 2.07-1.927 1.57-.078.58 1.562.59 2.52.09 4.329 3.36 2.275 4.53 4.416-3.67 3.014-7.76 4.495-11.75 6.372-.02-.402-.01-.804.01-1.205.26-1.843.53-3.671.79-5.5.16-1.163.39-2.612-.69-2.955-1.07-.342-2.75 2.958-3.14-.447-.35-3.104 2.28-2.735 3.61-3.841.3-.214.62-.394.94-.54.82 1.411 1.59 2.886 3.04 3.107zM222.143.46l1.2-2.683c1.164-2.763 2.813-5.251 5.126-4.667 2.566.642.457 4.522 1.548 6.595.3.827.498 1.718.585 2.637l-1.4 4.252c-2.064 1.258-3.544 5.153-6.521.802-1.945-2.868.977-4.97-.538-6.936zM411.176 13.257a5.92 5.92 0 0 1 .689 2.3 6.516 6.516 0 0 1-.236 2.47c-1.592 3.893-.262 4.242 2.113 4.368 1.7.044 4.311.111 1.983 4.22-1.806-.557-4.333 6.537-5.689-.998-.062-.303-4.014 4.434-4.398-.637-.329-4.27 1.652-8.493 4.838-10.653.312-.189.479-.709.7-1.07zM708.036 24.273c5.444 3.26 10.474.124 15.566-1.974.87 5.267-4.313 5.763-4.338 10.509-.01.747-1.356.214-1.733-.386-2.505-3.892-5.148-2.177-8.739.825 1.25-4.308-.358-6.342-.756-8.974zM1145.01 1.874c.26 1.317.5 2.74.76 4.123-1.65 6.75-6.14 4.287-9.47 5.539-.73.283-1.09-.959-.99-2.018.22-2.42.58-4.89 2.51-5.666 1.93-.776 3.98-1.209 5.98-1.695l1.21-.283zM758.667 18.543c.96-1.535 1.1-4.272 3.125-3.971 1.388.22 2.517.065 2.155-2.396-.293-2.027-1.369-2.33-2.736-2.024-2.544.603-3.739-1.407-4.232-4.606l2.103.054c3.204 2.849 7.408 3.206 9.932 7.754-.012.944-.128 1.872-.196 2.801-3.15 3.04-6.81 1.28-10.151 2.388zM8.385 3.086C6.6 7.328 2.955 4.52.713 7.06l-1.067-.29c-.501-1.927-.89-3.851.336-5.59C1.142.147.957-1.51.978-3.083c1.398-.58 3.02.471 4.281-1.2.98 1.244.374 3.72 1.82 4.57l1.306 2.8zM1100.38 12.411c2.71-.835 5.27-3.09 8.21-1.546-1.08 3.906-5.71.745-6.34 6.21-.12 1.058-1.91 1.734-.31 3.374.75.767 2.13 1.366 1.02 3.094-.96 1.418-2.15.942-3.25.009-2.01-1.69-2.22-4.541-2.49-7.367l-.06.09c1.16-1.242 3.51-.369 3.22-3.864zM278.926 29.75c4.588.524 6.849-4.256 9.503-8.161 3.116-.418 3.067 2.53 1.256 3.782-5.527 3.792-9.325 11.102-15.217 14.032l-.001.078c1.267-3.468 4.112-5.492 4.459-9.732zM1356.76 9.147c2.13-2.095 4.73-2.133 7.11-2.74-.78 3.349.23 5.931 1.93 8.217-5.38 2.51-5.38 2.51-9.04-5.477z"/>
        <path d="M1343.06 15.86c-.02.4-.03.803-.01 1.205-2.22 1.609-4.62.787-6.93.963l-2.46-.063c-.92-1.95-.89-4.153.88-4.29 2.18-.18 4.08-4.498 6.49-.962.64 1.04 1.35 2.093 2.03 3.147zM6.842 11.662c1.495-.788 2.86-3.139 4.63-1.192 1.907 2.08.453 4.784.374 7.22-5.063 3.502-6.315.822-5.004-6.028zM1190.73 18.044c4.38-3.912 5.69-3.551 6.13 1.613-1.15 3.13-2.76 5.003-5.46 3.898-.49.048-.98.18-1.45.396-.7.48-1.31 1.815-2.13.496-.14-.292-.23-.62-.28-.963-.04-.343-.04-.696.02-1.037.32-1.801 1.34-.713 2.07-.786 1.54-.144 3.82 1.291 4.05-2.086.13-2.015-2.16-.134-2.95-1.53zM430.876 36.222c1.973-7.069 7.205-7.681 10.403-12.293l1.054 2.007-8.228 9.819c-.996.714-2.148.881-3.229.467z"/>
        <path d="M1191.4 23.572c2.7 1.105 4.31-.768 5.46-3.898l2.03-.237c2.39 2.684.23 3.94-.87 5.603l-.47.486c-2.07 1.77-3.99 4.04-6.58 4.21-.98-2.503 1.16-4.1.43-6.164zM1145.01 1.873l-1.18.284c-1.65-1.157-3.75-1.119-5.01-3.314l-3.09-2.938.29-.399c2.31-.478 2.7-7.063 6.19-3.774-1.02 1.94.11 2.979.88 4.152-2.87 4.083 2.5 3.342 1.8 6.13l.12-.141zM158.378 5.272c-1.346 4.502-3.376 1.684-5.208.942-.757-1.698-1.428-4.233-3.159-3.385-5.134 2.49-1.394-2.567-1.873-3.982l.221-.427 10.019 6.852z"/>
        <path d="M142.937 5.729c.013-.957.026-1.914.085-2.856.717-6.63-2.345-5.305-5.086-4.733 1.257-2 2.223-5.463 4.734-2.75 3.834 4.176 1.956-1.562 2.649-2.83l1.05.12a8.658 8.658 0 0 0 .484 3.24c.361 1.003.904 1.856 1.574 2.476l-.222.427c-2.377 1.408-3.279 5.003-5.268 6.906zM502.185 24.902c-2.325 4.556-4.539 2.9-6.592 1.142a2.013 2.013 0 0 1-.425-.681 2.689 2.689 0 0 1-.172-.87 2.773 2.773 0 0 1 .112-.89c.085-.28.213-.532.376-.734 2.645-3.184 4.178.96 6.701 2.034zM1145.82 6.025c3.26-2.538 6.3-.9 9.33.96-3.44 5.865-6.45 3.572-9.33-.96zM1079.87 9.222c4.1-4.025 7.25-3.21 9.27 3.503-1.87-.639-5.06 3.973-5.52-2.764-.02-.407-2.44-.496-3.75-.739zM96.383 15.677c2.095-1.047 3.914-2.952 5.221-5.464.925 1.112.112 3.582 1.712 4.121l.365.822-5.7 4.692-2.151-1.366c.219-.952.39-1.878.553-2.805zM-.02 1.181c-1.225 1.739-.837 3.663-.336 5.59-1.755-.189-1.688-2.43-2.392-3.903-1.38-2.893-1.022.564-1.525.984-.524-1.574-3.584-1.81-1.632-4.487 1.253-1.698 3.395-3.846 4.9.27l.985 1.546zM825.721 35.62c-.658-8.525 4.461-4.106 6.562-6.7-1.138 4.349-5.513 2.008-6.562 6.7zM587.7 25.642c-1.683.835-3.616-.749-5.208 1.02-1.87-.704-.646-5.904-3.694-4.868 1.144-.9 2.471-1.24 3.77-.965 1.974.977 3.739 2.632 5.132 4.813zM257.206 23.857c-.031 2.36-1.678 2.58-2.787 3.324a.785.785 0 0 1-.493.184.781.781 0 0 1-.492-.185 1.263 1.263 0 0 1-.361-.503 1.82 1.82 0 0 1-.132-.687c.029-2.19 1.255-3.298 2.459-4.08 1.014-.67 1.486.55 1.806 1.947zM1090.09 12.856c2.47-1.012 4.81.844 7.25.58l-.18 2.84.06-.09c-3.09 1.86-5.24-.188-7.13-3.33zM1254.61 9.526l4.51-1.877c-1.22 3.6-2.68 6.972.75 8.62-1.62 2.975-2.81-1.002-4.26-.515l.06.106c-.03-1.98.31-4.083-.86-5.725l-.2-.609z"/>
        <path d="m95.877 18.457 2.152 1.367c-1.907 2.075-3.098 5.48-6.218 6.304.325-3.99 3.137-4.928 4.066-7.67zM771.192 14.883c1.398-.54 2.831-.924 4.042.563-.825 1.29-.655 4.126-2.268 3.875-1.472-.274-1.221-2.89-1.774-4.438zM268.987 20.398c-1.113-4.644.546-5.1 3.173-4.088-1.015 1.43-.712 4.833-3.173 4.088zM701.831 26.58c1.821-.622 2.545-5.599 5.286-2.592-1.768.846-2.777 4.702-5.286 2.592zM209.312 23.73c.337-.66.517-1.47.857-1.618.861-.397 1.169.476 1.005 1.468-.082.562-.52 1.01-.8 1.514l-1.062-1.365zM274.478 39.364l-3.749 4.296c.644-3.917 2.169-4.179 3.814-4.215l-.065-.08zM69.288 21.184c-.954 1.103-1.303 3.402-3.099 2.74.319-2.785 1.855-2.418 3.136-2.673l-.037-.067zM82.825 17.806l-5.017 1.431-.247-.491c1.236-3.207 3.292-.951 4.923-1.447l.341.507zM229.202 6.553c.47-1.417.93-2.834 1.39-4.251l1.878.127-2.243 5.488-1.025-1.364zM395.383 7.53a3.961 3.961 0 0 1-.766.399s-.238-.439-.199-.543c.164-.325.351-.627.556-.903l.409 1.046zM260.227 20.642c.144.329.268.674.371 1.032 0 0-.286.373-.361.319a3.909 3.909 0 0 1-.677-.66l.667-.691zM31.836 4.999c.14-1.308-.019-2.807 1.135-3.406.17-.088.717.49.707.53-.245.793-.546 1.545-.829 2.299l-1.013.577zM1382.63 16.98l1.28 1.476c-.41.602-.83 1.17-1.29 1.698-.06.077-.67-.49-.64-.633.17-.866.39-1.714.65-2.54zM48.064 8.391c-.215 1.306-.4 2.612-1.506 3.069-.094-.003-.354-.232-.343-.337.124-1.57 1.042-2.084 1.914-2.665l-.065-.067zM773.495 25.481c.203.28.547.552.571.854.004.216-.027.43-.091.626a1.451 1.451 0 0 1-.281.505c-.739.453-.765-.426-.72-1.028.024-.34.338-.634.521-.957zM279.107 23.884a2.897 2.897 0 0 1 .005 1.986 2.097 2.097 0 0 1-.482.771 1.33 1.33 0 0 1-.682.373c-.634-1.786.035-2.648 1.159-3.13z"/>
        <path d="m768.816 16.211.206-2.8 1.079-1.375 1.118 2.873-2.403 1.302zM361.274-8.504c-5.846 6.602-12.011 9.525-21.328 10.059.003-5.244 4.89-3.952 5.894-9.499-3.993 2.127-7.714 2.831-9.539 10.874-1.753-9.603-5.526-14.105-10.767-16.43l-3.095-1.783c.737-1.017 1.646-2.318 2.626-1.795 3.816 2.039 7.824-.52 11.734 1.481 3.014 1.533 5.37-.386 5.401-5.59l2.091-1.153c-.894 3.714.646 6.572 1.835 9.762.092-2.724.175-5.436.258-8.161 3.762-.323.093 5.09 1.522 5.69 3.143.382 3.01-4.551 5.46-4.344 1.5 3.828-2.878 4.489-1.988 8.275 2.879-.32 6.339-3.365 8.425 2.274.146.358.974.235 1.471.34zM232.46 2.428l-1.878-.127a10.245 10.245 0 0 0-.576-2.637c-1.091-2.02 1.018-5.9-1.548-6.595-2.313-.584-3.961 1.904-5.125 4.667-2.896-2.697 2.099-5.309-.2-8.37-1.694.966-2.423 3.504-3.323 5.5-1.674 3.68-2.541 1.718-3.535-.576l1.09-1.375c.758-.452 1.4-1.214 1.84-2.186.441-.972.659-2.108.627-3.257-.147-2.364-2.105-1.366-3.293-1.763 2.858-2.982 5.018-11.462 9.329-2.134.11.252.939.024 1.394-.213 2.899-1.145 4.518.745 5.287 4.423.257 1.213.435 2.633 1.545 1.849 3.223-2.16 7.2-.222 10.148-3.673l1.984 1.297c.51.906 1.15 1.653 1.879 2.193.729.54 1.531.862 2.355.944.291.007.593-.103.895-.174-.007.538-.061 1.06-.097 1.597-1.404 4.658-2.533 9.743-7.56 6.886-1.864-1.083-2.991 1.72-4.479 2.652-3.116 1.952-5.364 2.117-4.832-4.058.144-1.595.934-3.83-.793-3.953-2.507-.156-.881 2.691-1.042 4.182a53.05 53.05 0 0 0-.092 4.9zm6.992-4.436c.15-2.172-.343-2.526-.826-2.237-.42.35-.74.893-.903 1.537-.206.637-.134 1.596.525 1.47.441-.115.854-.379 1.204-.77zm5.499-3.792-.894.83c.242.426.529.8.85 1.11.121.094.456-.382.694-.612l-.65-1.328zM271.889-12.306c1.972.05 3.977-1.602 5.908.152 3.611 3.305 5.62 1.245 6.627-3.881l-.001.091 4.984 6.094c-.17.417-.399.781-.673 1.07-.275.29-.588.498-.922.612a1.835 1.835 0 0 1-1.021.052 2.16 2.16 0 0 1-.951-.515c-1.043-.748-1.822-.794-2.272 1.253-1.119 5.111-5.734 7.326-8.319 3.143-2.703-4.462-4.83-3.493-7.557-1.138l-1.031-1.6 5.228-5.333z"/>
        <path d="m321.423-13.866.958-1.418 3.096 1.784c-.765 2.406-1.511 4.813-2.294 7.205-1.869 5.708-4.518 9.888-9.63 9.298-.173-3.27 2.398-3.741 3.261-6.472-.699-2.562-3.935-1.596-4.24-5.537 1.538.21 3.185.003 4.614.682 4.229 2.05 5.115-.34 4.235-5.542zM1135.08-10.103c-1.41-1.583.5-4.156-.86-5.817-1.96-.155-3.1 3.093-5.14 2.372l-8.53 5.196-2 1.666c-1.61-2.86-2.8-6.627-4.46.45-.52 2.215-10.59-1.4-12.87-4.343-1 3.987-.98 2.519-3.89 2.195-4.29-.464-8.07-5.255-12.83-2.178-3.18 2.055-10.19-2.176-9.57-4.913 1-4.537-.9-3.144-2.11-2.48-1.57.944-3.04 2.162-4.38 3.624-2.17 2.2-4.33 1.108-3.98-1.977.86-7.53-3.04-6.056-5.77-7.031-1.8-.65-3.63-1.247-5.43-1.857 1.91-2.062 5.19.487 6.31-3.903.91 2.265 2.21 3.06 4.15 3.293 3.95.455 7.2-2.175 10.64-3.936 1.27-.636 3.15-.863 2.98.535-.85 6.652 2.3 2.84 3.48 2.568 6.81-1.57 9.1-.003 11.01 8.91.6 2.821 1.51 3.185 3.3 2.838 5.6-1.168 11.22-2.754 16.79.234.47.26 1 .32 1.5.17s.96-.504 1.33-1.015c5.27-7.731 13.49-2.106 19.09-8.242a.44.44 0 0 1 .25-.078c.09.003.17.034.25.09 6.44 5.319 11.3-6.92 17.64-3.152.19.11.71-.939 1.1-1.388.62-.818 1.38-1.409 2.2-1.72a3.791 3.791 0 0 1 2.53-.068c.83.268 1.6.818 2.25 1.602.64.785 1.13 1.778 1.44 2.893.9 2.646 2.1 5.233 3.87 4.99 6.88-.924 2.87 3.745 1.67 6.861 4.66 3.502 10.25-.038 14.3 4.917-.01.472-.02.956-.02 1.428-.37.49-.89.87-1.07 1.468-.55 1.86.08 4.617-1.87 5.393-2.48.998-1.75-3.598-3.31-4.11-1.47.617.22 3.624-1.6 3.813-.33-.165-.61-.496-.78-.929a2.814 2.814 0 0 1-.13-1.415c1.5-7.723-2.16-6.755-5.71-7.45-3.25-.633-6.9-.91-9.19-5.65-3.58-7.421-6.79-1.984-10.01 1.054l-1.08-.146c-1.67-.554-2.75 2.132-4.72 1.269-2.87-1.359-5.17.51-6.77 3.97z"/>
        <path d="M1181.29-7.395c0-.472.01-.957.02-1.43 1.43-2.506 2.61-.98 3.88.402 1.06 1.155 2.28 2.786 3.66 1.405 5.01-5.115 10-.713 15.03-.19.4.01.84-.477 1.17-.679.37-2.534-2.27-2.68-2.12-4.932 3.32-.465 5.98 1.295 9.1 2.738-.36-7.876 1.67-8.099 4.92-3.387 3.24 4.711 6.98 3.968 10.88 2.691 3.61-1.218 7.03-.947 10.06 2.448 1.85 1.844-.18 5.778 2 7.486-.08.417-.16.848-.22 1.305-.28.058-.57.117-.84.202l-2.24-.28-2.01-.144c-5.49-2.868-11.78 1.009-17.02-3.925-3.31 4.124-8.14 4.669-11.25 9.283-1.12 1.65-1.83 4.017-4.39 4.699 2.76-6.144.2-8.308-3.24-9.628-4.01-1.559-7.55-6.16-12.46-1.893-1.74 1.476-4.36-2.302-4.93-6.171z"/>
        <path d="m1234.56.212 2.01.143.95 4.378c-.1.684-.31 1.328-.62 1.885-.3.557-.69 1.012-1.13 1.334-5.59 3.056-5.69 3.984-1.64 10.998-.96 4.67-5.64.393-6.5 5.222l-1.14-1.747c-4.17-2.598-8.08-7.327-13.11-3.418-5.52-.036-9.68 6.727-15.34 6.018 1.1-1.624 3.26-2.932.87-5.602.42-4.5 2.32-5.933 5.48-6.638 2.65-.588 6.49 1.373 7.68-5.205l4.19 7.253c.14-4.257-.35-10.157 3.56-4.17-.49 1.155-1.41 2.259-.45 3.7.1.19.23.347.38.463.15.115.31.185.48.206.17.02.34-.01.5-.088.16-.078.3-.203.42-.365 1.02-1.285.04-2.543-.29-3.758 2.4-2.56 9.66-6.307 12.3-6.62 1.64-.233 1-2.583 1.4-3.989zM1403.17 1.828c-1.16-.687-2.45-.834-3.68-.419-1.22.415-2.32 1.37-3.13 2.722-2.66-4.657-5.85-.688-8.74-1.168-1.62-.278-2.8-1.383-4.54.42-.83.857-1.85 1.297-2.88 1.249-1.04-.048-2.03-.581-2.82-1.513-1.71-2.364 1.11-4.52 1.03-7.237-2.18-1.878-4.12-.84-6.01 1.026-2.62-.303-1.54-6.136-2.75-5.446-3.47 1.982-7.82-1.656-8.99-.69-5.7 4.731-4.9-2.407-6.01-5.792-3.81 3.835-5.22 4.455-10.1 4.107-1.55-.105-3.23-.28-4.19 1.793-1.07 2.307.24 3.94 1.18 5.668-1.97 1.563-3.83 4.976-6.2 1.008-7.09-6.108-15.32-4.707-23.02-6.766-.88-.232-1.92-2.055-2.35.385-.26 1.528.53 2.636 1.67 3.059.88.35 2.14-.614 2.63 1.444-.9 1.72-2.95 1.235-3.6 3.448l-.94-.025c-1.98-2.882-5.43-2.564-7.01-6.29 3.77-.663 4.04-7.068 7.45-8.737-3.82-.727-7.11-2.91-10.61-4.022-5.37-1.698-10.36 1.793-15.55 2.616-2.83.44-4.77 1.019-5.46 5.826 1.01-9.362-3.44-8.794-7.33-9.17 6.88-9.38 15.74-5.876 23.88-7.096 4.5 4.56 11.58-1.683 15.17 6.945.21.49 1.28.348 1.95.404 2.74.202 5.41.283 7.56-2.834.43-.603.99-.987 1.59-1.088.61-.1 1.22.086 1.74.53.63.476 1.24 1.606.54 2.191-2.85 2.366.07 5.023-1.21 8.268 2.84-1.959 4.19-3.996 4.87-6.837 1.31-5.538 3.21-4.664 5.36-.977.56.959.99 3.527 2 1.848 2.88-4.79 8.01-1.63 11.12-7.254 1.34-2.404.98-3.357.89-5.221 3.43 2.828 7.4 5.028 7.56 11.863-.02 1.31.46 1.323 1.16 1.708 5.79 2.876 12.09 1.031 17.91 3.96 1.65.816 4.36 1.817 4.92-3.033.16-1.307 1.82-1.815 2.69-1.045 5.57 4.994 10.87-.285 16.28-.736 2.41-.2 4.45-1.197 2.74-5.922-.91-2.383.08-5.832 2.18-4.507 6.94 4.44 4.96-2.927 5.38-7.256l4.2-2.593 4.06 1.677c-.01.485-.01.957-.02 1.429-5.59.538-5.79.743-5.31 5.423-1.22 3.626-2.78 7.179-1.37 11.41-.78.19-1.74-.136-2.04 1.364 0 .144.15.502.26.532 1.11.316 1.38-.922 1.76-1.935 1.82-.491 3.66-.876 5.46-1.525 1.47-.54 3.01-1.234 3.11-3.945.12-3.118-1.52-2.832-3.04-3.29a18.982 18.982 0 0 1-4.14-2.611c1.3-2.59 3.43-2.902 5.3-3.955.19 1.316.29 2.826 1.48 3.185.13.058.26.065.39.02a.693.693 0 0 0 .34-.279c.09-.135.15-.305.18-.487.02-.183.01-.371-.05-.543-.3-1.647-1.39-1.675-2.35-1.935l.02-1.403c1.03-.821 1.98-1.795 2.86-2.903 3.84-5.946 9.07-7.254 13.78-3.265-.68 2.762-4.17 1.69-3.98 5.838 1.75.988 2.91-2.312 4.71-1.046 0 .104.31.519.28.898-.28 3.808-6.42 3.362-3.66 9.884.25.61-2.47 5.063-4.71 5.687-2.23.625-2.86 3.1-3.76 5.266-3.6-2.479-15.1-.06-15.8 4.63-.52 3.487-7.76 4.887-2.01 10.24-.16.966-.22 1.895-.28 2.825z"/>
        <path d="M1271.2-20.625c3.89.375 8.34-.192 7.34 9.17.68-4.808 2.66-5.386 5.45-5.826 5.18-.824 10.18-4.315 15.55-2.617 3.5 1.113 6.79 3.295 10.61 4.023-3.41 1.669-3.65 8.074-7.45 8.737l-2.05-1.6c0-.472.01-.944.01-1.415l1.89-.712c-.12-.305-.22-.61-.33-.914l-1.56 1.626c-2.58-.001-3.18-5.326-6.51-4.927l2.37 6.131-2.11 2.569c-2.07 3.263-4.81 2.34-7.4 2.34-4.22.01-7.85 4.414-12.41 2.802-2.14-.75-4.37.058-5.02-4.062-.3-1.91-1.56-1.614-2.46-.798-4.03 3.673-8.5 2.942-12.71 1.772-2.98-.811-3.18 4.074-5.49 4.028-1.69-4.514-5.33-4.726-9.05-.52-2.19-1.709-.11-5.641-2.01-7.486 1.4-5.209 5.27-6.42 8.17-2.714.61.776 1.71.922 1.7.2-.08-4.551 5.95-6.088 2.73-11.572 3.08-1.127 4.52 13.096 8.44 1.108 3.25 2.155.76 6.575 1.54 10.188 2.29-2.288.98-9.756 5.72-6.304.01-.695-.07-1.313-.1-2.074 1.76.209 3.52-.187 5.14-1.153zm28.73 4.527c-.13-.109-.36-.35-.38-.312-.17.29-.33.597-.48.919.14.108.37.35.39.311.18-.289.33-.596.47-.918zm-12.33 9.477.56-.93c-.22-.202-.51-.629-.68-.568-.17.062-.38.58-.57.903l.69.595zM1310.7-.903c.65-2.238 2.7-1.726 3.6-3.447-.49-2.058-1.75-1.094-2.63-1.444-1.14-.449-1.93-1.531-1.67-3.059.43-2.44 1.47-.618 2.35-.385 7.7 2.06 15.96.659 23.02 6.766-1.35 3.27-2.78 6.13-6 3.714a1.58 1.58 0 0 0-.72-.385 1.306 1.306 0 0 0-.77.074c-.25.102-.48.279-.67.518-.2.239-.36.535-.46.866-.68 2.041.72 2.235 1.54 2.82.82.584 1.99.588 2.47 2.056-5.05 5.18-5.25 4.874-7.23-2.231-1.29-4.635-5.04-4.063-7.78-4.133-1.97.067-3.61.405-5.05-1.73zM1341.57-3.45c-.92-1.689-2.25-3.362-1.18-5.668.97-2.073 2.64-1.899 4.19-1.793 4.88.348 6.33-.218 10.1-4.107 1.11 3.385.29 10.496 6.01 5.792 1.17-.967 5.51 2.672 8.99.69 1.22-.69.14 5.143 2.75 5.446-2.76.99-6.97-1.91-7.41 5.342l-2.78-2.995c-3.78-6.311-4.14-6.294-7.92.374-.67 1.189-1.48.84-2.31.452l-1.08-1.43c.18-.953 1.06-2.11-.06-2.756-.78-.452-1.43.54-1.9 1.446l-2.18 1.111c.1-.823.45-1.784-.38-2.2-.11-.002-.73.94-.68 1.295.25 1.277.54 2.532.89 3.76.34 1.437.67 2.875 1.01 4.325-1.45-.22-2.22-1.696-3.03-3.132-.1-2.86-.84-5.174-3.03-5.952z"/>
        <path d="m1294.42-6.355 2.11-2.568c1.37.27 2.67 3.228 4.12.21l2.05 1.6c1.59 3.725 5.03 3.407 7.01 6.29-.2 2.066.03 4.76-1.78 5.37-1.59.535-2.05-2.125-2.9-3.445-1.9-2.907-3.61-5.52-6.93-3.665-2.2 1.28-2.69-2.05-3.68-3.792zM1298.25 8.113c-1.41-.036-3.09 1.442-4.11-.958-.66-1.564.19-2.617 1.12-3.314.73.257 1.4.792 1.92 1.547.53.754.9 1.697 1.07 2.725zM1246.38 10.651c2.71-.822 5.41-1.827 8.23-1.1l.21.609-4.22 2.514c-1.17-1.164-2.6-1.725-4.03-1.585l-.19-.438zM507.224-.98l-1.139.193-1.877-.166c-.654-.918-1.493-1.535-2.405-1.769-.912-.234-1.853-.075-2.698.458-2.224 1.188-4.971 1.498-6.693-1.208-2.412-3.772-4.404-2.276-6.576-.064-1.08-2.112-2.19-4.2-3.252-6.324-1.061-2.125-2.224-3.034-3.663-.737-2.639 4.194-4.887 2.235-6.561-1.191-1.318-2.656-2.657-3.752-5.155-3.122a30.781 30.781 0 0 1 1.665 4.829c.27 1.659-.756 2.498-1.758 2.97-.615.299-.998.158-1.549-.84-1.725-3.125-3.197-2.638-5.279 1.32l-1.081 1.48c-2.58-.262-4.8.664-6.401 3.77-1.289.176-2.601.654-3.847-.348-.089-.396-.177-.805-.285-1.188.534-1.505 1.422-2.709 2.516-3.41.779-.648 1.469-1.732.761-2.89-.478-.787-1.735-1.671-2.171-1.368-5.268 4.087-12.255 3.134-16.389 10.278-1.807 3.088-2.618 1.913-4.327-.294-2.43-3.13-4.837-7.991-9.057-4.31l-1.996 1.024c-.585-2.638-1.04-5.18-3.692-4.999-.297 0-.591-.085-.864-.25a2.339 2.339 0 0 1-.718-.714 3.383 3.383 0 0 1-.453-1.056 4.147 4.147 0 0 1-.112-1.22c.236-2.184 1.896-1.263 2.916-1.67.879-.397 2.264.058 1.854-2.352-1.257-7.322-5.127-5.887-8.792-5.116l-.919-1.597c-.552-2.321 1.487-5.206-.845-7.154 2.179.056 3.81 1.75 5.507 3.432 1.15 1.144 2.673 3.203 3.983.758.963-1.745 1.435-3.346 3.064-1.495 1.351 1.543 2.457 3.197 2.336 5.974-.027 2.031-1.924 3.398-1.018 5.94 2.363-1.75 5.116-3.921 7.323-2.435 5.783 3.885 10.82-1.886 16.333-1.757 2.752.07 6.622.878 9.172-2.256 4.708-5.792 10.398-4.794 15.687-5.458 1.075 2.492-2.178 4.835-.088 6.632 2.09 1.797 4.257-.035 6.168-1.743.751-.675.963-1.785 1.492-2.715 1.842-3.597 10.962-6.274 12.39-3.392 3.935 7.968 11.01 6.523 16.003 11.149.057.001.266-.23.4-.357-.171-4.16-3.164-3.058-5.329-4.857 2.491-1.536 5.633-4.68 6.161-3.395 3.395 8.32 7.972 3.928 12.092 2.815 2.555-.695 4.015.457 4.926 3.351.911 2.895 2.483 4.771 4.786 3.952 3.776-1.346 7.398-3.14 11.093-4.737 3.449 2.029 6.653 2.059 9.322-2.252l3.022.222c-.311 1.5-1.595 2.7-.764 4.517.091.199.684.162.939.024 1.347-1.001.976-2.794.998-4.42l4.084-1.206c3.256 6.037 6.656 7.54 10.326.646l2.029.052c4.729 7.595 8.064 9.07 11.209 4.968 3.142 4.67-.234 7.77-1.4 11.397-2.594 2.189-5.717 6.068-4.8-2.942.049-.223.064-.457.044-.689a2.157 2.157 0 0 0-.162-.654 1.56 1.56 0 0 0-.337-.507 1.053 1.053 0 0 0-.456-.27c-6.828-2.366-13.738-6.306-19.948 2.227-.304-1.87-.618-4.421-2.328-3.73-1.709.69-.141 2.16.249 3.244-4.173-1.3-7.637 2.007-11.394 3.379l-.153.193c-1.332 1.998-3.286 1.987-4.916 3.007-1.817-4.701-4.503-4.796-7.601-2.817-2.027 1.259-3.966 2.18-6.234.377-4.745-3.544-10.129-1.374-13.368 4.862zm-55.279-11.634c1.182-1.28 1.856-2.496 1.306-5-1.397 1.222-2.117 2.357-1.287 5h-.019zm24.632-.482.471-.853a3.722 3.722 0 0 0-.652-.423s-.268.347-.241.44c.128.285.276.552.441.797l-.019.04z"/>
        <path d="M419.89-4.94c4.22-3.63 6.627 1.179 9.057 4.31 1.709 2.206 2.52 3.381 4.327.294 4.181-7.143 11.121-6.192 16.39-10.278.436-.33 1.693.555 2.171 1.367.708 1.159-.03 2.24-.762 2.89-1.094.701-1.982 1.905-2.516 3.41-1.66.47-1.474 2.06-1.31 3.9.287 3.128-1.014 5.652-2.969 5.68-3.665.05-4.433 3.452-5.373 7.047-1.233-1.972-2.694-3.059-4.471-1.518-4.571 3.96-8.409 5.029-14.529 6.012-4.708.784-4.127-2.636-3.104-6.137.709-2.46 1.392-5.116 3.174-7.011 5.09-5.507 5.016-5.654-.085-9.967zM452.699-1.452c1.6-3.04 3.81-3.967 6.401-3.77-.548 2.386.549 2.545 1.77 2.55l.062 1.72c-.005.38-.085.745-.137 1.11-.846.779-.659 3.012-2.115 2.936-3.829 3.232-3.252-4.87-5.981-4.546zM452.992 19.903c2.059.551 5.076.472 1.126 4.33-.59.575-.228 3.049-.305 4.646l-3.093-.577.088-2.384c.401-.62.65-1.401.712-2.232a5.24 5.24 0 0 0-.37-2.388c-.354-.874-1.392-1.989-.31-2.827.399-.317 1.416.902 2.152 1.432zM450.03 15.658c-.544-3.672-.863-5.856-1.191-8.028 2.755 1.985 2.755 1.985 1.191 8.028z"/>
        <path d="M448.843-1.785c1.246 1.002 2.558.524 3.847.348-.886 1.681-.138 5.503-2.415 5.038-1.433-.299-1.328-3.338-1.432-5.386zM458.652 3.16c1.456.038 1.269-2.157 2.115-2.935 1.113 1.786 1 3.96.954 6.069-.684-.003-1.349-.307-1.9-.87-.551-.563-.961-1.356-1.169-2.264zM444.937 24.335c-.528-.59-.926-.994-1.24-1.408.278-.465.533-1.297.853-1.29.221.018.435.114.622.28.187.165.34.394.446.666.089.37-.389 1.013-.681 1.752zM959.981-6.599l-2.896 1.604c-2.283-1.37-4.685-.946-5.998 1.72-3.157 6.475-7.456 1.12-11.008 2.642-.748-9.577-6.269 1.557-8.023-3.602-.108-1.104.038-2.896-.353-3.155-1.127-.764-1.15.967-1.463 1.929l-7.297 2.566.038-2.884c.411-1.943.813-3.912 1.214-5.83l2.019.053c3.189 2.586 4.527.116 5.302-3.798 2.375.9 4.579 2.596 7.205 2.244 2.174-.299 3.557-1.128 3.012-4.656 6.58-.238 11.931-5.633 17.834-8.72 1.77 3.27 5.042 5.938 1.734 10.992-.757 1.135.39 2.488 1.583 2.545 1.192.057 2.643-1.65 3.587.813l-.26.505c-1.625 2.803-4.887 1.553-6.23 5.032zM876.033 15.713c-1.816-4.74-4.248-4.869-7.08-1.742-2.146-1.851-7.161-1.298-3.388-8.124.539-.97.206-2.8-.596-3.949.11-.362.206-.731.287-1.107 6.317 3.335 9.283-5.006 13.835-8.928.288 3.102-4.04 4.302-.427 6.729-.036 2.739 4.522 3.341 1.782 7.361-1.365 2.365-.928 4.801-.18 7.272-1.292.348-2.566.774-3.331 2.537a3.465 3.465 0 0 0-.902-.05z"/>
        <path d="M864.968 1.883c.802 1.161 1.135 2.992.597 3.948-3.773 6.826 1.242 6.273 3.388 8.124-1.614 2.686-3.304 4.728-5.968 2.247-1.002-.944-2.336-1.647-2.698.861-.218 1.542-.046 3.474 1.84 2.932 1.886-.542 2.287 1.147 2.306 3.285-3.377.306-6.098-.72-6.494-6.33-.11-1.563-.691-3.177-1.669-3.097-4.421.398-6.47-3.077-7.594-8.324 1.558-1.337 3.437.088 4.829-.676 3.708-1.963 8.28 2.586 11.463-2.97zM899.457 16.861c-.38.988-.967 1.791-1.681 2.305-.715.512-1.524.711-2.321.569l-.001.092c-1.322-8.071-4.536-3.736-7.328-2.194L880.455 7.26c1.951-.474 3.595-3.316 5.958-.122 1.579 2.151 4.873-.426 6.625 2.792.796-6.915 4.051-2.269 6.243-2.462 1.712-.205 2.72-1.818 3.847-3.244l1.021-1.167c2.225 5.13-1.706 6.092-3.2 8.283-1.17 1.792-2.741 2.67-1.492 5.52z"/>
        <path d="M899.459 16.863c-1.212-2.85.321-3.729 1.538-5.52 1.495-2.19 5.425-3.152 3.2-8.283-.319-1.437-.489-3.526.906-3.176 3.362.873 5.423-1.565 7.417-4.542.632-.941 1.687-1.806 2.22-.966 2.882 4.492 5.539.339 8.27-.155l-.038 2.884c.342 1.136 1.941 3.852-.04 3.04-3.859-1.62-6.194 3.054-8.993 3.008-6.115-.078-7.459 6.364-10.081 11.423l-4.399 2.287zM880.503 7.262l7.67 10.372c-.243 1.383-.212 4.727-.988 3.698-3.036-4.182-4.791.677-7.053 1.221-1.603.392-3.065 4.445-4.715 1.296-1.126-2.219-1.747-5.71.549-8.142l.939.024c1.384 1.23 2.987 2.949 4.427 1.268 1.155-1.36-.341-2.631-1.096-3.765-.747-2.47-1.185-4.908.18-7.272.041.447.036.853.087 1.3zM879.304 28.42c.73 5.172 6.263-2.593 6.02 4.403-.089 2.541-1.688 3.352-3.407 2.6-1.868-.808-4.194-1.091-3.992-5.032.051-1.048.2-2.394 1.379-1.97zM923.473 9.862l3.146-2.791c-.627 4.127-.642 8.82-4.225 10.472-.945.435-2.539 1.587-3.034-.76-.406-1.963.799-2.876 2.064-3.303.58-.2 1.097-.665 1.468-1.32s.575-1.463.581-2.298zM895.454 19.735c-.679.914-1.215 2.382-2.431 1.249a.717.717 0 0 1-.126-.285.877.877 0 0 1-.007-.335c.681-1.765 1.709-.611 2.61-.575l-.046-.054zM369.909-.008a6.852 6.852 0 0 1-.559-1.024c.3-.413.619-.799.954-1.156.166.293.517.748.478.852-.26.48-.552.925-.873 1.328zM1403.34-.96c-5.7-5.392 1.53-6.753 2.01-10.242.7-4.688 12.2-7.107 15.8-4.629l1.04 1.561c-3.1.065-3.46 3.713-4.43 6.573-.41 1.235-.78 2.497-1.23 3.705-1.8 4.87-3.97 5.025-7.08.5.27-.99 1.15-1.91.36-3.046a.92.92 0 0 0-.62-.093c-.21.043-.4.16-.57.338-.54 1.297.22 2.064.9 2.75-2.04 2.243-.33 4.751-.28 7.152-1.75-.045-3.52-.09-5.03-1.676 1.93-2.31.91-2.835-.87-2.894z"/>
        <path d="M1417.81-7.695c.98-2.86 1.33-6.522 4.43-6.573 2.99.732 5.9 2.262 9 1.922l.41.299c-.96 1.287-4.41 1.775-1.94 4.487 2.15 2.389 4.05 6.66 7.62 5.807-.08 1.309-.16 2.54-.24 3.81l-1.88.41-4.18 3.262c-.25-.623-.5-1.77-.75-1.763-3.38-.008 2.95-9.47-3.09-6.32-2.46 1.248-5.25 1.963-8 6.52.89-5.444 1.53-9.374-1.38-11.861zm5.28-1.57a5.67 5.67 0 0 0-1.45-.98.832.832 0 0 0-.44.199 1.16 1.16 0 0 0-.31.463c-.25.82.15 1.315.69 1.21.53-.209 1.04-.508 1.51-.891zM570.714 10.008c-4.644-4.052-10.362-2.193-15.139-5.475-1.054-2.741 1.372-7.137-2.131-8.708l2.344-2.484-.001.066c3.768-.69 7.432.689 11.226.117 2.523-.38 6.487 2.58 6.517 4.586-.009 9.178 3.474 10.854 8.859 10.717.441.01-.844 1.29-1.452 1.785-.831.32-2.661.168-.968 2.165.925 1.125 2.57 1.062 3.83 1.724.867.455 2.406-.057 2.399 1.884-.007 1.94-1.154 2.736-2.49 2.833-2.941-1.386-6.369-.071-8.986-3.207-1.402-1.99-2.7-4.002-4.008-6.003zM507.225-.978c3.201-6.238 8.623-8.406 13.086-4.909 2.269 1.802 4.207.921 6.234-.377 3.099-1.992 5.775-1.898 7.592 2.817l-1.218 2.59c-1.375 2.443-2.579 4.628-5.399 4.084-2.296-.452-4.301 1.987-6.242 3.773-1.325-2.08-3.263-1.88-4.668-2.23-1.686-3.27 3.804-3.496 1.078-6.253-1.483-1.507-4.096-4.288-5.394 1.526-.277 1.081-3.436.515-5.069-1.021zM542.286-3.124c2.378.704 4.858-2.117 7.182.408-.818 2.929-1.033 7.145-4.172 6.448-2.352-.467-2.985-3.708-3.01-6.856z"/>
        <path d="m532.927-.9 1.218-2.59c1.639-1.02 3.593-1.01 4.925-3.008-.447 5.443-2.408 7.333-6.143 5.598zM511.034 7.913c.806.151 2.186.226 1.993 1.362-.448 2.61-2.171 2.134-3.927 2.076l2.01-3.528-.076.09zM554.062 4.456l-1.677.402c-.501-.484-1.602-1.09-.868-1.857.943-.999 1.787.57 2.545 1.455zM759.081 5.655l-2.104-.054c-.631.13-1.235.444-1.774.92-.538.476-1 1.104-1.354 1.845-1.446-.038-2.997-.68-4.204 1.098a2.404 2.404 0 0 0-.942.16c-5.841 1.895-11.964-2.602-17.702 1.525-7.568-.378-15.136-.743-22.702-1.186-1.7-.044-2.835 1.238-3.999 2.598l-3.023-3.067c.75-1.292 2.718-.874 2.733-3.47-2.095.667-2.095.668-2.685 3.445-1.995.906-2.251-1.054-2.507-2.975-.932-7.012-3.257-8.12-7.666-3.645l-5.119 1.337C683.57-.728 679.8.171 676.309.606c-.515-3.671 2.675-3.366 2.316-6.758-3.082 2.858-6.387-.846-9.746.956-1.732.926-1.115-2.415-2.005-3.29.564-2.201 1.485-3.633 3.346-3.677 9.398-.23 18.772 1.386 27.963 2.658 6.827.936 13.235 1.651 19.844-.802 2.247-.847 4.976-.436 5.941 2.63 2.002 6.32 5.047 6.988 9.325 5.34 1.331-.516 3.106.29 4.485 1.112 2.088 1.247 3.557.288 5.647-.694 4.32-2.052 4.246-9.279 8.051-11.41 5.605 2.465 11.451-2.682 17.008 1.25.438.313 1.311-.373 1.89-.79 1.062-.721 2.059-2.242 3.121-2.294 3.309-.177-.364 2.705.73 3.769.789.78 1.863 1.214 2.326.308 4.093-8.994 7.875.557 10.499 1.83 5.265 2.535 6.175 4.092 9.654-2.532l3.946 4.297c-.129 1.203.773 4.085-1.463 1.916-.928-.902-1.69-1.498-2.735-.634-1.481 6.177-5.474 8.238-8.34 4.716-4.992-6.16-8.333-.03-12.369 1.099-.06-1.838.379-3.82-.646-5.144-3.073 3.632-6.349 6.97-10.249 7.761-2.336.412-4.205 1.112-5.767 3.432z"/>
        <path d="M691.182 2.769c4.409-4.476 6.734-3.367 7.666 3.645.256 1.92.511 3.946 2.506 2.975l3.023 3.067c-6.857 3.442-11.096 5.694-13.195-9.687zM1053.24-25.2c1.8.61 3.63 1.208 5.43 1.858 2.73.974 6.59-.5 5.77 7.031-.35 3.085 1.83 4.177 3.98 1.977 1.34-1.462 2.81-2.68 4.38-3.624 1.2-.664 3.14-2.057 2.11 2.48-.62 2.737 6.39 6.968 9.57 4.913 4.74-3.078 8.54 1.714 12.83 2.178 2.94.324 2.87 1.791 3.89-2.195 2.28 2.943 12.35 6.558 12.87 4.343 1.66-7.038 2.86-3.31 4.46-.45-2.94 2.246-3.58 12.85-9.39 4.886-1.06-1.456-2.05.563-2.84 1.776-1.49 2.203-3.06 4.313-4.6 6.437.03-.47.03-.944.02-1.415.37-2.416.74-4.832 1.16-7.457-3.43-.18-5.3 2.932-7.4 5.474-.83-.179-2.02.08-2.46-.6-5.89-8.923-13.47-5.735-20.67-6.392-2.5-.29-5.02.09-7.43 1.12.09-6.238-2.57-4.733-5.12-3.553l-2.04 1.56c-1.97.705-3.79 2.03-5.34 3.875l-1.97.041c-1.47-5.793 4.49-1.85 4.03-6.753-6.14.367-4.06-7.408-5.67-11.854l.27-.177c4.22 2.377 2.45-4.146 4.18-5.491l-.02.012zm3.01 11.629c.03-.229.02-.462-.02-.687a2.081 2.081 0 0 0-.21-.621c-.1-.186-.22-.342-.37-.46-.14-.117-.3-.194-.46-.226-.24-.099-.5-.121-.74-.065-.25.056-.49.189-.69.388-.21.2-.38.462-.51.766-.12.304-.19.643-.21.993-.09 1.073.63 1.55 1.33 1.594.41.093.82-.027 1.17-.338.35-.31.6-.789.71-1.344z"/>
        <path d="M1048.79-19.543c1.6 4.447-.47 12.221 5.67 11.854.46 4.903-5.5.96-4.04 6.754l-3.23 1.228c-5.39 1.396-3.88-6.012-4.33-8.528-.65-3.557-1.87-6.853-2.4-10.433 1.94-.422 3.86-1.33 5.7.815 1.51 1.822 1.86-.83 2.63-1.69zM1052.4-.976c1.54-1.845 3.37-3.17 5.34-3.875.25 1.75.4 4.534 2.05 3.645 2.07-1.1.16-3.418-.01-5.245 2.54-1.246 5.21-2.685 5.12 3.554-1.08 5.217-4.78 6.092-7.45 8.527-.95.907-1.96-.561-2.23-2.05-.42-2.2-1.08-3.974-2.82-4.556zM1095.46 3.039c2.09-2.569 3.96-5.654 7.39-5.474-.41 2.611-.78 5.04-1.16 7.456l-6.23-1.982zM485.77-3.537c2.209-2.212 4.202-3.708 6.576.064 1.722 2.666 4.469 2.396 6.692 1.207.845-.532 1.787-.691 2.699-.457.912.234 1.751.851 2.404 1.768-2.486 4.774-3.806 11.52-9.967 9.21-2.132-.801.129 3.74-1.528 4.734-1.528-1.857-3.377-3.125-5.363-3.678.643-1.78 1.277-3.572 1.804-5.04-2.919-5.202-8.885 3.377-10.838-5.313 1.896-1.263 3.734-1.727 5.761-.089 2.026 1.639 1.601-.994 1.76-2.406z"/>
        <path d="M485.77-3.538c-.159 1.412.388 4.1-1.723 2.407-2.11-1.693-3.846-1.108-5.76.088l-.348-.009-.356-.009c-2.065.55-3.583-1.167-4.953-2.75-2.101-2.4-3.764.442-5.59.723-1.526.236-.195 2.617.031 4.026-2.132-.055-3.369-5.987-6.139-1.823l-.062-1.706c-.237-1.317-.463-2.7-.689-4.043 2.081-3.959 3.553-4.445 5.279-1.32.55.998.924 1.138 1.548.84 1.002-.473 2.027-1.26 1.759-2.97a30.786 30.786 0 0 0-1.666-4.829c2.499-.63 3.837.492 5.155 3.122 1.712 3.426 3.96 5.346 6.561 1.19 1.44-2.296 2.611-1.374 3.664.737 1.052 2.112 2.209 4.213 3.289 6.326z"/>
        <path d="M460.932-.885c2.77-4.164 4.007 1.794 6.139 1.822l-.056-.001c-.3 1.382-.298 2.614.966 2.948.673 2.417 1.704 4.764 1.943 7.261.539 5.482 1.993-.04 3.341 1.004-.89 5.523-4.771 5.62-7.185 5.545-2.414-.075-2.01-4.286-1.279-7.034 1.255-4.701-.88-4.533-3.053-4.313.028-2.137.16-4.284-.953-6.07.052-.417.094-.783.137-1.162z"/>
        <path d="M467.07.938c-.225-1.422-1.557-3.79-.031-4.026 1.807-.281 3.489-3.122 5.59-.722 1.37 1.57 2.888 3.287 4.953 2.75-1.429 5.732-4.621 4.103-7.563 3.516-.633-1.904-1.73-2.063-3.005-1.559l.056.041zM487.359 9.262c-.15 2.133 2.889 3.208 1.321 5.278-.619.784-1.353 1.37-2.151 1.719a4.224 4.224 0 0 1-2.47.3c-1.869-.73-2.806-.898-3.295 1.96-.28-.859-.57-1.705-.85-2.552-.339-5.594 3.647-2.935 5.066-5.114l2.379-1.591z"/>
        <path d="M484.98 10.838c-1.42 2.232-5.407-.427-5.066 5.115-.95.775-1.994 2.27-3.119.68-1.125-1.589.04-3.014.639-4.258 2.084-4.155 4.779-3.351 7.546-1.537zM467.016.885c1.275-.505 2.372-.345 3.004 1.559l-2.038 1.39c-1.263-.374-1.266-1.567-.966-2.949zM653.13 3.487c4.067-.67 4.803 4.79 7.06 7.47l-.147.508c-1.03 1.849-1.338 4.542-3.219 5.411l-3.283 3.85-.347-.01-.291-.007-2.082-2.44a16.145 16.145 0 0 1-4.299-1.71c-3.182-2.415-3.264.231-3.146 3.433-1.96-.194-3.842-1.151-5.432-2.761-2.255-2.077-2.432-.063-2.567 2.32-.073.549-.156 1.11-.229 1.66-1.864-1.137-3.322-5.947-5.874-.505-1.035 2.202-2.949-.863-4.432-1.648.31-1.421-.078-4.08 1.514-3.672 4.233 1.066 7.543-2.035 11.138-3.949 1.591-.221 4.008 1.742 4.643-.825 1.43-5.85 4.767-5.266 7.892-5.71l2.047 1.56c.112 4.303 2.432 5.071 4.877 5.632-2.023-1.232-.837-7.757-4.934-5.568.012-.97.091-1.925.132-2.894.328-.018.655-.067.979-.145z"/>
        <path d="M637.497 11.357c-3.596 1.914-6.907 5.067-11.139 3.95-1.592-.409-1.204 2.25-1.514 3.67l-1.062 1.429-.516-.014-.507-.012c-.131-2.246 1.439-4.421-.047-7.187-2.873 4.188-4.469 1.93-6.178-2.44 5.144-1.034 5.461-4.409 2.743-9.186 2.163.554 4.315 1.2 6.489 1.635 1.396.272 2.137 3.228 4.038 1.586 4.429-3.833 7.484-1.159 7.693 6.57zM635.094 26.794c-.467 6.164 3.734 1.787 5.053 4.378-2.575 3.631-6.103 3.252-9.459 4.831 3.087-3.985 3.072-7.788.148-11.18 1.511-2.072 2.829-.806 4.075-.59.027.866.072 1.706.183 2.561zM635.35 19.509c.134-2.318.312-4.398 2.568-2.32 1.59 1.61 3.472 2.566 5.431 2.761.096 1.314-.521 1.783-1.313 1.986l-4.783-2.103-1.903-.324zM653.579 20.777l3.283-3.85 1.934 2.961-5.182 2.49-.035-1.601z"/>
        <path d="M635.093 26.793c-.082-.854-.156-1.695-.237-2.628l.294-3.1c2.087 5.626 2.087 5.626-.057 5.728zM637.252 19.833l4.783 2.076c-2.339 2.825-3.665.785-4.783-2.076zM650.794 18.255l2.082 2.44c-.351.456-.81.717-1.29.734-.479.017-.947-.212-1.314-.644-.989-1.192.043-1.795.522-2.53zM14.608-5.077C12.358-4.073 12.38 4.96 8.04-1.47c2.976-6.925 4.159-7.576 6.568-3.607zM7.122.353c-1.473-.85-.895-3.327-1.818-4.57C7.74-5.95 6.918-2.707 7.429-1.54L7.122.353zM-.018 1.18l-.985-1.546 2-2.69C.975-1.507 1.141.149-.019 1.18zM134.739-5.3c-3.007.735-6.014 1.497-9.03 2.18-.82.202-2.161.718-2.436.213-4.054-7.486-5.71-.147-8.121 2.413-3.981-1.636-8.632 1.221-12.167-3.537.161-2.277 2.791-2.931 1.963-6.387-4.133 2.778-7.381-.964-10.938-2.72 1.269-2.183 2.76-2.709 4.862-2.497 3.961.324 8.003.14 11.747-2.321l4.064 1.704c1.316 2.092 2.795 1.829 4.58 1.088 1.937-.803 4.383-1.068 5.844.687 2.951 3.55 4.668 2.27 6.402-1.658.397-.894 1.286-2.051 1.858-1.971 1.378.206.912 2.03 1.036 3.37.172 1.36.399 2.705.679 4.03-.37.792-.594 1.7-.654 2.642-.06.943.047 1.892.311 2.763z"/>
        <path d="M103.012-4.013c3.507 4.757 8.158 1.9 12.167 3.537-.801 1.592-2.715.73-3.437 3.452 2.528.668 4.403-1.198 6.429-2.313 1.154-.613 2.588-2.45 3.59-.104 1.321 3.115-2.196 1.254-2.065 3.447.039.591-.421 1.3-.654 1.858-1.549.59-1.748 4.269-3.943 3.347.106-.941.381-3.294-.326-2.355-3.271 4.387-7.883 4.282-11.43 7.482-1.599-.54-.806-3.01-1.712-4.122-1.82-4.491 1.945-5.01 2.92-7.66l-3.611-4.027c-.324-2.512.906-2.467 2.072-2.542z"/>
        <path d="M115.072 9.208c2.195.922 2.394-2.757 3.943-3.347.433 2.07.96 4.116.199 6.246-.761 2.131-1.154 5.596-3.186 4.376-2.032-1.219-3.601-4.091-.956-7.275zM136.987-3.499l.918 1.623c2.743-.624 5.803-1.896 5.087 4.733L140.985 1.1c-2.256-.28-4.508.594-6.336 2.46-2.638-4.448-1.501-6.608 2.338-7.06zM134.641 3.64c.866 5.542-1.924 3.425-3.247 2.539-.682-.477-1.26-1.2-1.675-2.093a7.713 7.713 0 0 1-.682-2.99c2.051.512 3.403 3.458 5.603 2.623l.001-.08zM124.306 14.31c.455-2.374-.559-6.019 2.903-6.389-.61 2.83-.73 5.488-2.903 6.39zM864.968 1.882c-3.183 5.556-7.755 1.007-11.502 2.983-1.391.724-3.27-.661-4.829.676-2.706 1.438-5.442 2.338-8.297.849-2.668-.738-3.879-8.662-6.894-4.491-2.382 3.269-5.97 1.066-7.584 5.142-.358-1.32-.436-3.945-1.981-2.24-1.907 2.114-3.352.595-5.018.106-.137-1.747 2.058-2.163 1.311-4.004-.455-1.126-1.506-.485-2.309-.164.165-3.195.84-5.945 3.242-7.155 6.911-1.133 7.545-2.166 15.833 3.462a2.58 2.58 0 0 0 1.512.039c8.595-.593 17.246 2.422 25.791-.794-.192 1.7-.61 3.512.965 4.483-.067.375-.147.745-.24 1.108z"/>
        <path d="M825.957 7.042c1.567-4.076 5.155-1.873 7.584-5.141 3.015-4.17 4.226 3.753 6.894 4.49.309 3.64-2.621 4.26-3.324 6.956-3.473-1.702-5.291 3.692-8.337 3.798-1.504.053-4.288 2.42-3.042-3.002 2.547-2.177.748-4.688.225-7.1zM34.595-18.12c2.613.63 4.367 3.01 5.967 5.686-.324 4.503-1.156 8.907-2.465 13.048-.837-7.77-.837-7.757-8.365-.438-1.055-2.649.052-3.932 1.41-5.011C32.65-6.03 33.85-7.244 32.23-9.737c1.644-2.134 3.672-1.322 5.694-.772.1-4.061-3.61-4.052-3.329-7.611zM16.195 6.33l-1.8.44-1.016-.617c.16-1.464-.438-3.853 1.243-3.757 1.295.06 1.255 2.418 1.573 3.934zM21.984 2.727c1.245-1.069 2.337-1.25 3.262.53-1.346 2.352-2.316.439-3.262-.53zM619.268 1.513c2.756 4.778 2.402 8.151-2.742 9.186 1.709 4.37 3.342 6.642 6.178 2.44 1.486 2.765-.065 4.941.046 7.186-2.96.79-6.537-3-8.924 2.774-.466 1.142-2.884.712-4.401 1.001-1.767.086-3.817-2.655-5.228 1.02-2.326-.99-5.82-.373-5.821-5.276-.001-4.904-1.709-7.177-5.128-7.999 1.894-1.079 3.498-1.601 5.076-2.321.35-.148.151-.783-.346-.822a3.3 3.3 0 0 0-.507-.013l-.901-2.92c1.694-3.104 3.939-3.046 6.274-1.977a3.973 3.973 0 0 0 3.317-.033c4.227-1.412 8.5-4.095 13.107-2.246zm-19.091 12.123a4.49 4.49 0 0 0-.349.856c-.002.118.209.478.238.465.23-.161.452-.344.665-.546l-.554-.775z"/>
        <path d="M597.451 8.794a3.3 3.3 0 0 1 .507.013c.498.013.696.673.346.822-1.578.72-3.201 1.229-5.076 2.321 3.419.77 5.111 2.898 5.128 7.998.017 5.101 3.495 4.286 5.821 5.276l-1.327 1.605c-4.977-2.304-10.144.487-15.149-1.084-1.392-2.178-3.153-3.833-5.123-4.812l1.036-1.6c1.326-.096 2.473-.919 2.48-2.833.006-1.914-1.532-1.43-2.399-1.884-1.26-.662-2.896-.599-3.83-1.724-1.665-1.996.165-1.845.968-2.165 2.197 2.26 4.562 1.743 6.724.251 3.206-2.277 6.497-2.507 9.894-2.184zM626.642 29.266c-.483 1.744-.839 3.806-2.708 2.998a1.078 1.078 0 0 1-.441-.331 1.656 1.656 0 0 1-.295-.566 2.132 2.132 0 0 1 .043-1.363c.849-2.39 2.153-1.544 3.41-.725l-.009-.013zM604.197 25.12c1.41-3.674 3.46-.934 5.228-1.02-1.635 1.401-3.46.895-5.228 1.02zM82.486 17.299c-1.632.495-3.688-1.76-4.924 1.447-.925-1.02-3.117-2.283-.637-3.662 2.48-1.378 1.985-3.777 1.962-6.269 2.222 1.027 2.824-.426 3.211-4.86l-3.175 4.953c-2.87-3.234-5.034-8.717-9.91-4.45-1.492 1.273-1.942-.234-.087-6.217 4.264-2.002 9.407-.873 12.603-6.73 3.1-.655 5.724.566 5.859 5.316.143 5.51 2.433 7.155 5.591 8.456A25.085 25.085 0 0 1 97.485 8.4c-4.086 4.261-9.487.57-13.825 4.667-1.627 1.57-1.227 2.577-1.174 4.23zM78.545 3.39a8.83 8.83 0 0 0 1.097-1.283c.384-.645.271-1.304-.389-1.137-.386.095-.733.741-.956 1.286-.144.167.122.672.248 1.134zM1144.97 1.953c.65-2.79-4.67-2.047-1.8-6.13l1 .432c.89 1.714 4.74 2.626.8 5.698zM1403.34-.962c1.78.046 2.81.583.9 2.894l-1.08-.106c.07-.93.13-1.859.18-2.788zM146.303-7.321l1.126-4.101c.478.257.908.665 1.254 1.193.347.527.602 1.16.744 1.847-.638 1.374-1.25 2.866-.053 4.063.844.822 1.441-.29 1.941-1.182l1.134-4.075.106-.128c4.965-6.1 10.603-3.963 16.194-2.587 1.273.308 1.998.916 1.063 2.728-.935 1.812-.414 3.608.041 5.403-.117 1.793-.244 3.6-.371 5.392l-6.206 1.034c-1.31.307-4.061-2.635-3.145 2.712l-1.789.295-10.02-6.813c-.67-.632-1.209-1.499-1.564-2.514a8.688 8.688 0 0 1-.455-3.267zM174.951.387l-2.013-.51c-.25-2.419.97-2.322 2.127-2.463-.088.981-.101 1.977-.114 2.973zM795.077 15.365c1.291-1.698 5.363-.544 3.084-5.887 1.424-.383 2.638-1.243 2.649-3.524.046-3.486 1.82-4.044 3.65-4.626 2.14 3.752 3.253-2.264 5.135-1.062-.481 3.712-2.486 7.567.579 10.91l.116.476c-4.901 2.6-9.895 4.426-15.213 3.713zM825.956 7.044c.569 2.414 2.368 4.925-.272 7.1-2.413-2.305-6.084-.367-7.907-4.622l-.237-.491 1.15-3.904.266-.23c1.666.49 3.15 2.009 5.019-.106 1.498-1.745 1.576.918 1.981 2.253z"/>
        <path d="M817.73 9.52c.516 3.659-.073 5.532-3.087 3.96-1.418-.745-2.905-1.229-4.354-1.83l-.116-.461c1.644-2.082-.195-5.132 1.308-7.938.583 1.58 1.437 2.934 2.486 3.942 1.049 1.008 2.26 1.639 3.526 1.837l.237.49zM160.167 4.964c-.916-5.346 1.835-2.404 3.145-2.712-.256.853-.698 1.573-1.261 2.059-.564.486-1.223.714-1.884.653zM1239.88-.856c3.72-4.205 7.36-3.993 9.05.521-3.14-.736-6.04 3.988-9.28.771.07-.444.15-.874.23-1.292zM1250.6 12.62l4.22-2.514c1.16 1.642.83 3.745.87 5.725-1.59-1.417-5.74 5.032-5.09-3.211zM1237.5 4.732l-.95-4.378 2.24.281c.46 1.873.32 3.443-1.29 4.097z"/>
        <path d="M1246.62 11.065c1.43-.14 2.85.42 4.02 1.585-1.59.72-3.26 1.87-4.02-1.585zM619.268 1.514c-4.626-1.85-8.88.834-13.183 2.284a3.973 3.973 0 0 1-3.317.033c-2.335-1.07-4.58-1.127-6.274 1.976-3.97-.364-8.095 1.103-11.804-1.85.042-3.238 2.812-3.783 3.488-6.624-1.863-1.188-3.379-1.673-5.14-.617-2.217 1.36-4.062 1.627-2.683-3.176l-1.96-.326c1.166-3.628 4.542-6.727 1.391-11.397 3.291-.951 7.407.466 9.585-3.687 1.84-3.506 3.248-2.644 5.531-1.917 3.574 1.128 7.463 4.034 10.532-2.168 1.1-2.2 3.229-1.228 4.693.356 1.583 1.785.616 3.871.054 5.863-.443 1.588-2.16 3.524-.355 4.842 1.545 1.127 2.366-1.25 2.858-3.008 1.514-5.048 4.019-6.243 7.819-5.122 3.8 1.12 7.151 5.611 11.621 3.641 1.485-.63 3.055-.779 4.587-.433 1.533.346 2.989 1.178 4.256 2.43 4.298 3.9 8.188-1.1 12.304-1.179.123.004.239-.308.364-.475 4.66-6.436 10.549-2.037 15.462-1.964 5.232.135 5.209 2.573 7.572-4.21l1.079-1.363c1.506 2.661 4.502 3.499 5.38 1.764 2.411-4.763 5.121-2.228 7.806-2.08 1.174.03 2.373-.372 3.526-.172 2.24.372 4.655-4.601 6.243-1.06 1.697 3.807-3.578 3.41-3.571 7.894 3.847-1.068 7.531-1.118 10.538-5.473 1.715-2.486 3.527-5.22 6.241-5.844l.882 4.362-.019 1.429c.524 2.308 1.689 2.285 3.023 1.625.074 3.646.455 6.764 3.98 4.546l3.126-1.23c8.1 4.14 16.144 9.015 25.093 5.101 1.89-.816 2.19-.035 1.417 2.253-3.786 2.131-3.731 9.357-8.052 11.41-2.051.983-3.52 1.941-5.646.694-1.38-.822-3.154-1.629-4.486-1.112-4.24 1.648-7.285.98-9.325-5.34-.964-3.066-3.712-3.478-5.94-2.63-6.609 2.452-13.017 1.724-19.844.802-9.238-1.273-18.593-2.89-27.963-2.659-1.88.044-2.782 1.476-3.346 3.677-3.821 4.74-9.338 4.14-13.475 7.98-1.758-.674-3.488-1.938-5.367-.584l-1.874-.362c-.566-.907-1.311-1.562-2.142-1.884a3.223 3.223 0 0 0-2.532.072c-3.776 1.385-5.016-2.174-5.769-5.641-1.48-6.777-1.465-7.197-4.879-3.377-2.107 2.371-3.79 2.42-5.843.702-1.103 4.548-2.493 8.747-6.077 10.53.082.89.215 1.77.397 2.632l.018.066zm-3.312-5.33c.285-.189.756-.282.825-.555.229-.951-.314-1.11-.786-.99-.254.059-.457.512-.677.782l.638.764z"/>
        <path d="M648.063-1.167c1.897-1.354 3.609-.09 5.366.584.235.644.335 1.368.289 2.087a4.858 4.858 0 0 1-.549 1.984 5.298 5.298 0 0 1-1.016.065c-1.083-1.994-2.483-3.61-4.09-4.72zM749.646 9.412c1.207-1.778 2.758-1.082 4.205-1.098-.737 5.318-2.818.636-4.205 1.098z"/>
        <path d="M748.73 9.586c.307-.117.624-.17.942-.16.044.88.08 1.76.115 2.626-1.409-.023-.834-1.595-1.057-2.466zM804.424 1.326c-1.831.583-3.623 1.14-3.65 4.627-.03 2.267-1.226 3.141-2.649 3.524-2.612-3.568-6.099-2.779-9.273-3.62-2.246-2.799-4.971-3.472-7.863-3.611-1.944-.05-4.111.366-5.3-2.759 4.036-1.129 7.377-7.258 12.369-1.098 2.866 3.522 6.858 1.487 8.34-4.716.17 2.745 1.308 4.059 3.202 4.409 1.838.218 3.556 1.373 4.824 3.244zM781.545 11.332c-.036-1.522-.898-3.117.135-4.533a.73.73 0 0 1 .444-.142c.154.004.305.06.439.165 1.071 1.47.083 2.952-.058 4.443a2.199 2.199 0 0 1-.96.067zM1294.82 13.873c-.83-.021-1.62 1.571-2.54.184.84-1.513 1.69-.81 2.53-.145l.01-.039z"/>
        <path d="M759.082 5.653c1.562-2.359 3.431-3.019 5.758-3.497 3.9-.791 7.176-4.13 10.249-7.76 1.025 1.337.586 3.305.646 5.142-1.895 1.263-1.707 8.36-5.602 3.79a29.364 29.364 0 0 0-1.846 3.152c-1.336 3.033.633 4.054 1.806 5.54l-1.079 1.375c-2.524-4.536-6.729-4.893-9.932-7.742zM658.796 19.836l-1.934-2.96c1.891-.87 2.189-3.563 3.219-5.411l2.122 1.496c-.53 2.774-1.734 5.204-3.407 6.875zM1362.21-.746c-.48 1.548.1 4.106-1.93 4.146-.29-.008-.84-.952-.85-1.477-.07-2.755 1.31-2.825 2.75-2.696l.03.027zM1350.88-1.377l1.09 1.431c-1.66 1.531-3.55 1.22-5.39 1.304.01-.957.11-1.911.16-2.867l2.17-1.111 1.97 1.243zM81.556-8.487c-.301-1.397-.593-2.807-.884-4.205 3.154-4.036 8.132 3.198 10.492-3.336 2.006-.394-.427 5.968 2.883 2.906 3.557 1.756 6.805 5.498 10.938 2.72.828 3.456-1.802 4.11-1.963 6.387-1.166.075-2.397.03-2.12 2.568-2.711 2.552-2.546 6.398-2.418 10.243l-.935-.326a25.085 25.085 0 0 0-4.506-3.118c-3.159-1.3-5.449-2.945-5.592-8.456-.171-4.816-2.795-6.037-5.895-5.383z"/>
        <path d="M98.476 8.73c-.128-3.845-.293-7.717 2.418-10.243l3.611 4.026c-.973 2.597-4.74 3.17-2.919 7.66l-3.11-1.443zM1050.47-35.417c2.53 3.487 4.92 7.364 9.08 6.317-1.12 4.39-4.45 1.84-6.31 3.902-2.16.365-3.43-4.021-5.44-2.604-1.35.883-2.85 1.21-4.32.939-1.48-.27-2.87-1.125-4.01-2.464-3.7-4.422-6.98-3.378-10.71-1.586-.73 1.292-1.71 2.014-2.63.81-2.66-3.542-5.69-2.322-8.69-1.534-1.72 1.163-3.02 4.014-5.44 1.828-4.3-3.874-8.73-.985-13.152-.115-1.72.034-3.399-1.608-5.164-.303-.776.267-1.563.466-2.356.595-1.265-5.959-4.167-1.785-6.333-2.155-2.165-.37-3.344 1.434-4.676 3.354-.881 1.288-2.739 2.552-2.809-.675-.033-3.934-1.312-2.433-2.861-2.486-5.204-.134-9.417 7.336-15.006 3.627-5.535-1.31-10.588 1.406-15.682 3.714-2.392 1.08-3.209 3.222-2.266 6.497-1.679-1.057-3.545-1.397-5.363-.977-1.818.42-3.506 1.581-4.852 3.337-2.309-.203-3.784 1.949-5.302 3.798l-2.02-.052c-.289-1.594-.294-3.364-1.502-4.326-1.85 4.882-6.113 1.154-8.145 4.222-1.668 2.475-2.552 2.557-3.977.226-.61-1.023-1.438-1.747-2.364-2.066-.925-.319-1.9-.215-2.78.295-2.382 1.04-.985 3.423-.898 5.353.088 1.93-1.368 4.016-1.8 2.576-1.459-4.784-5.7-4.513-7.122-8.496-1.685-4.737-3.474-5.923-6.113-1.677-.961 1.574-1.739 3.587-2.989.749-1.933-4.403-5.635-5.127-8.227-8.078l-1.069-.106a78.337 78.337 0 0 1 4.354-6.05c1.231-1.424 2.497-4.12 4.312-2.774 1.814 1.344 1.601 3.974.855 6.354-.902 2.861.326 4.506 2.039 4.3 5.485-.62 10.892-3.05 16.487-1.333.235.006.579-.444.846-.739 4.824-5.278 10.96-6.051 16.35-9.387 2.149-1.256 3.392-.018 3.94 2.553 1.4 6.447 2.024 6.83 5.601 2.766 1.65-1.872 3.447-6.35 4.139 1.05.148 1.59 2.084.814 3.048-.341 1.404-1.695 2.752-3.47 4.128-5.218 2.082 3.804 4.217 5.078 6.257.017.604-1.485 1.599-2.583 2.774-3.06 1.175-.476 2.437-.294 3.517.507 8.381 5.63 13.789-4.76 20.667-6.93 2.433.063 4.931.809 7.238-1.007l4.15-1.204 2.056.131 5.135.302 7.225-.994c-.73 1.397-1.45 2.781-2.407 4.71.387-.58.287-.766-.258-.386-.541.38-.817.647-1.225.978l.468.838a5.67 5.67 0 0 0 1.015-1.43c4.467 3.432 8.477-1.447 12.597-1.223l2.03.052c5.24-.64 10.77 1.39 15.55-3.337l1.03.026c.68.034 1.35.307 1.95.794.59.487 1.09 1.172 1.44 1.994 2.36 6.839 6.28 7.097 10.76 5.245 0 .485-.01.957-.02 1.442.91 2.816 1.97 2.87 3.07.184.59-1.008 1.17-1.793 2.18-1.269zm-36.89-.947-.7-.568c-.08.167-.15.34-.21.519.22.215.45.413.69.594.07-.247.13-.403.22-.597v.052zM1346.73-1.575c-.01.957-.1 1.911-.16 2.867a41.943 41.943 0 0 1-.89-3.76c-.05-.368.56-1.296.67-1.293.83.401.48 1.362.38 2.186zM578.404-6.72l1.959.326c-1.378 4.803.467 4.535 2.683 3.176 1.762-1.056 3.287-.57 5.141.617-.677 2.841-3.437 3.387-3.489 6.624 3.719 2.967 7.835 1.512 11.804 1.85l.902 2.92c-3.397-.323-6.689-.092-9.865 2.081-2.162 1.492-4.527 2.008-6.724-.251.608-.509 1.903-1.787 1.452-1.785-5.385.124-8.868-1.539-8.859-10.717.026-2.005-3.956-4.965-6.517-4.585-3.765.572-7.505-.81-11.225-.118l-3.052-2.963c6.21-8.533 13.12-4.593 19.947-2.228.164.045.319.137.456.271s.252.307.338.507c.086.2.141.422.161.654.02.231.005.466-.043.69-.796 9 2.337 5.12 4.931 2.931z"/>
        <path d="M878.306-22.883c2.591 3.004 6.293 3.728 8.227 8.078 1.25 2.838 2.019.826 2.989-.749 2.639-4.246 4.427-3.06 6.113 1.678 1.422 3.97 5.663 3.711 7.122 8.495.432 1.44 1.942-.527 1.8-2.576-.142-2.049-1.484-4.312.898-5.353.88-.51 1.855-.614 2.78-.295.926.319 1.754 1.043 2.364 2.066 1.425 2.37 2.309 2.25 3.977-.225 2.031-3.003 6.295.66 8.145-4.223 1.209.962 1.213 2.732 1.502 4.326-.401 1.943-.803 3.913-1.213 5.83-2.731.493-5.389 4.647-8.27.155-.534-.84-1.588.024-2.221.965-1.993 2.978-4.055 5.416-7.416 4.543-1.395-.35-1.226 1.739-.906 3.176l-1.021 1.167c-2.463-4.901-9.782 1.519-10.111-8.428.003-.262-.61-.763-.827-.677-4.432 1.906-9.854-3.74-13.575 3.454-3.613-2.427.715-3.627.427-6.728-4.553 3.96-7.518 12.262-13.835 8.927-1.575-.971-1.156-2.783-.965-4.482-.133-2.01.05-3.814 1.802-4.15 3.014-.552 3.626-3.473 3.635-7.013l2.158-1.255 2.114-1.362c5.142 4.026 4.402-1.159 4.307-5.344z"/>
        <path d="M878.683-1.421c3.721-7.195 9.143-1.549 13.574-3.454.218-.086.822.414.828.677.329 9.946 7.648 3.526 10.111 8.428-1.128 1.426-2.136 3.039-3.848 3.244-2.193.258-5.448-4.388-6.243 2.462-1.751-3.283-5.045-.706-6.624-2.792-2.363-3.194-4.008-.352-5.959.122.006-.445.012-.878-.048-1.312 2.712-4.034-1.827-4.636-1.791-7.375zM880.274 13.212c.756 1.081 2.252 2.404 1.097 3.764-1.441 1.681-3.043-.078-4.427-1.267.764-1.724 2.038-2.15 3.33-2.497zM768.404-29.598c1.223-.847 2.474-1.628 3.669-2.528 2.43-1.839 4.417-4.37 7.613-.932 1.492 1.599 4.743.908 6.971.087 4.305-1.594 4.479-5.51 1.623-9.83 1.958-1.734 3.508-.999 4.424.782 2.419 4.69 5.574 4.81 9.394 5.105 4.618.38 9.986.138 13.301 6.622.193.372.598.946.75.871 7.225-3.604 13.739 6.174 21.209 1.856 3.512-2.034 8.225-6.043 10.84 2.992.449 1.545 2.896 1.975 4.527 2.988 1.395-3.256-.106-9.116 3.598-9.283 3.168-.141 4.215 3.858 4.593 7.985.031.49.149.962.344 1.373.194.41.459.747.771.979.311.231.659.351 1.011.348.353-.002.7-.128 1.009-.364 1.395-1.014 3.76-.14 4.066-3.384.231-2.537-.599-4.433-2.319-5.828-1.32-1.07-4.639.523-3.574-4.025.993-4.013 2.242-8.281 5.412-9.944 2.091-1.113 2.887 1.215 2.63 3.581-.608 5.478 1.382 4.18 3.422 2.71 2.579-1.795 4.945-2.403 7.725-.155 3.904 3.181 6.974-.896 8.749-4.47 5.791-11.65 13.693-10.294 21.829-8.119.925.218 1.875.078 2.748-.403.872-.481 1.634-1.286 2.202-2.328 2.882-4.816 6.21-4.272 9.722-2.7 3.849 1.711 7.377 1.998 10.37-2.645 1.544-2.412 2.891-1.945 4.106.67 2.339 5.042 5.883 7.742 9.832 9.666 3.146 1.536 5.954 2.329 7.634-3.266.885-2.953 2.203-1.792 3.63-.208.688.726 1.49 1.214 2.339 1.423.85.208 1.723.131 2.548-.224.824-.355 1.576-.98 2.193-1.82.618-.842 1.083-1.876 1.358-3.017.296-1.146.311-2.26 1.238-2.748 4.731-2.5 11.177.287 13.065 6.72 1.097 3.766 2.054 3.108 4.065 2.413 8.635-2.965 17.139-6.247 24.189-14.379 1.55-1.73 3.44-2.756 5.43-2.94 1.98-.183 3.95.484 5.66 1.914 4.6 3.763 10.34 3.543 14.32 9.152 1.72 2.43 3.8.439 5.65-.996 4.52-3.555 6.81 1.263 9.33 5 2.51 3.735 1.16 6.191-1.19 8.74-2.6 2.83.08 3.057 1.18 3.964l-3.17 2.672c-1-.524-1.59.274-2.1 1.257l-3.07-.184c.01-.485.01-.956.02-1.441 1.49-1.562 2.86-3.192 2.65-7.026-4.32 4.085-7.71 1.048-10.93-2.444-2.45-2.685-4.28-1.984-5.87 1.436l-1.03-.026c-3.88-2.971-8.15-2.674-12.35-2.94-3.49-.22-4 2.35-3.2 6.29l-2.03-.052c-.12-2.625-1.07-4.118-2.91-3.169-2.53 1.247-4.87.308-7.28-.318l-7.227.995c-1.591-4.08-3.345-2.879-5.136-.302l-2.055-.132c-1.663-1.485-2.919-.245-4.15 1.205-2.554-1.56-4.915-.625-7.239 1.007-2.932-1.308-5.914-1.07-8.956-1.213-3.756-.175-6.53 3.608-10.322 3.301-5.228-.423-9.873 2.749-13.937 7.378-1.375 1.748-2.724 3.522-4.127 5.217-.955 1.155-2.9 1.932-3.049.341-.691-7.399-2.488-2.922-4.139-1.05-3.624 4.129-4.249 3.746-5.6-2.766-.549-2.57-1.828-3.875-3.941-2.553-5.39 3.336-11.526 4.11-16.349 9.388-.267.294-.612.81-.846.738-5.615-1.717-11.002.714-16.488 1.334-1.712.205-2.941-1.387-2.038-4.3.765-2.433.866-5.091-.856-6.355-1.721-1.264-3.081 1.35-4.311 2.774a78.079 78.079 0 0 0-4.355 6.05c-.483.198-.927.548-1.298 1.023a4.972 4.972 0 0 0-.843 1.715c-.772.152-1.492.628-2.066 1.365-.573.737-.973 1.7-1.145 2.761l-2.158 1.256c-1.636.063-2.978.684-3.798 2.97-.693 2.028-2.391 3.19-3.298 1.437-1.914-3.694-2.536-.708-3.767.69-2.146 2.475-4.953 5.117-6.53.003-1.576-5.115-2.709-8.264-6.784-4.187-.602.447-1.306.542-1.958.265-5.317-2.169-10.599-2.79-15.97-.135-3.036 1.495-5.173 5.387-8.534 5.943-1.419.75-2.818-.072-4.413.503-4.626 1.678-9.425 2.236-14.091-.178l-3.946-4.297c-3.479 6.624-4.388 5.066-9.654 2.532-2.623-1.274-6.434-10.825-10.498-1.83-.416.907-1.538.472-2.326-.309-1.095-1.063 2.579-3.945-.73-3.768-1.063.051-2.06 1.573-3.122 2.293-.607.417-1.48 1.102-1.889.79-5.586-3.932-11.422 1.215-17.008-1.25.772-2.287.445-3.069-1.417-2.251-8.949 3.913-16.993-.922-25.093-5.102.934-3.91 2.028-5.6 5.7-4.784 4.141.906 7.373 4.464 11.344 5.352 1.265.282 2.426 2.043 3.754.372 3.761-4.545 8.785-2.213 13.147-4.527 3.215-1.57 6.87-1.58 9.576-5.169zm98.86-3.742c.003-.21.099-.404.139-.613a5.976 5.976 0 0 0-.794-.296 3.722 3.722 0 0 0-.13.574l.785.335z"/>
        <path d="M800.63-7.559c4.666 2.415 9.484 1.857 14.091.179 1.557-.55 2.994.247 4.413-.503l2 1.467c-2.402 1.25-3.077 3.96-3.241 7.154-1.379.542-2.948-.22-4.197 1.204-.511-4.694-2.537-2.137-4.121-1.68-1.864-1.201-2.995 4.814-5.135 1.062-1.274-1.852-2.99-2.988-4.824-3.192-1.875-.35-3.032-1.664-3.202-4.409 1.044-.865 1.807-.268 2.735.634 2.254 2.156 1.352-.713 1.481-1.916zM701.353 9.392c.591-2.778.591-2.778 2.686-3.445-.035 2.621-1.982 2.112-2.733 3.47l.047-.025zM619.335 1.542a22.672 22.672 0 0 1-.398-2.632c3.584-1.783 4.974-5.982 6.077-10.53 2.072 1.718 3.736 1.67 5.844-.702 3.414-3.846 3.398-3.4 4.878 3.377.753 3.467 2.003 7.026 5.77 5.641a3.22 3.22 0 0 1 2.531-.072c.831.322 1.576.977 2.142 1.884.267 3.324 2.537 4.274 3.863 6.353-3.154.444-6.462-.166-7.893 5.71-.635 2.607-3.052.604-4.642.825-.208-7.727-3.264-10.402-7.683-6.595-1.901 1.642-2.642-1.314-4.038-1.585-2.183-.476-4.335-1.121-6.451-1.674zM652.02 6.447c4.116-2.189 2.912 4.336 4.934 5.568-2.444-.561-4.764-1.329-4.877-5.632l-.057.064z"/>
        <path d="M650.029 4.822c-1.325-2.08-3.596-3.03-3.862-6.353l1.874.363c1.608 1.109 3.008 2.725 4.091 4.72-.013.97-.091 1.925-.132 2.894l.056.001-2.027-1.625zM813.717 1.944c1.25-1.423 2.827-.662 4.197-1.204.803-.32 1.892-.96 2.309.165.746 1.841-1.448 2.257-1.312 4.004l-.266.23c-1.679-.948-4.463 1.432-4.928-3.195zM600.176 13.638l.554.774a5.856 5.856 0 0 1-.665.547s-.268-.348-.238-.465c.09-.305.207-.592.349-.856zM78.95 8.909l3.175-4.953c-.387 4.435-1.017 5.887-3.212 4.86l.037.093zM78.543 3.394c-.126-.462-.373-.967-.286-1.122.26-.518.607-1.164.956-1.286.66-.167.774.491.39 1.137a8.94 8.94 0 0 1-1.06 1.27z"/>
        <path d="M813.716 1.943c.465 4.628 3.249 2.247 4.928 3.195l-1.151 3.904c-1.265-.198-2.477-.829-3.525-1.837-1.049-1.008-1.903-2.362-2.487-3.942-1.502 2.806.336 5.856-1.307 7.938-3.066-3.357-1.061-7.212-.579-10.924 1.584-.47 3.61-3.027 4.121 1.666z"/>
    </g>
</svg>
