<svg width="28" height="27" fill="none" xmlns="http://www.w3.org/2000/svg">
    <g opacity=".9" fill="#fff">
        <path d="M.368 11.894c-.064.159.064.382.255.413 2.163.319 4.455.16 6.619.128 2.26-.032 4.55-.096 6.81-.16 4.423-.127 8.878-.254 13.302-.413.668-.032.89-.955.318-1.273-1.432-.764-2.482-1.941-3.914-2.673-.032 0-.032 0-.064-.032.223-2.323.032-4.678.255-7.033.032-.286-.223-.636-.541-.636-1.369 0-2.705 0-4.074.032-.381 0-.668.286-.604.668.159.923.254 1.846.35 2.769-1.75-1.21-3.564-2.355-5.346-3.565a.67.67 0 0 0-.764 0c-2.355 1.878-4.678 3.692-6.874 5.633C4.06 7.534 1.704 9.316.05 11.48c-.16.223.095.541.318.414zM6.796 6.61a259.47 259.47 0 0 1 6.556-5.155c1.94 1.305 3.85 2.673 5.823 3.914.637.382 1.337-.35.923-.86.064-1.017-.032-2.036-.159-3.054h2.769c-.223 2.164-.478 4.487-.096 6.62.032.158.096.254.191.317a.658.658 0 0 0 .318.732c.732.414 1.4.955 2.069 1.464-3.883.127-7.733.255-11.616.35-2.227.064-4.455.16-6.682.255-2.037.095-4.201.095-6.206.509C2.85 10.239 4.76 8.266 6.796 6.61zM21.563 14.598c-2.386 1.336-4.71 2.768-7.064 4.2-.255.16 0 .542.286.383 2.387-1.369 4.774-2.674 7.128-4.106.287-.19-.031-.668-.35-.477z"/>
        <path d="M26.018 20.644c-.095.064-.19.127-.254.159-.191-1.75-.51-3.5-1.114-5.092a.508.508 0 0 0-.414-.382c-.063-.19-.223-.381-.477-.286-2.546 1.114-5.315 2.705-7.479 4.487-1.4 0-2.8-.095-4.2-.286a.607.607 0 0 0-.414.063c1.4-.732 2.705-1.718 4.042-2.577 1.273-.828 2.577-1.655 3.85-2.514 1.814-.128 3.596-.287 5.378-.541.764-.096.7-1.273-.095-1.21-7.16.573-14.257.891-21.417.414-.668-.032-.923.891-.286 1.146 0 0 .127 1.718.127 2.036a56.283 56.283 0 0 1 0 3.278c0 .987-.096 1.973-.032 2.96.032.636.223 1.209.286 1.845 0 .128.191.096.223 0 .096-.731.35-1.4.446-2.1 4.328-2.227 8.496-4.996 12.602-7.606.032 0 .032-.031.063-.031.446-.032.891-.032 1.305-.064l-2.578 1.814c-1.463 1.018-3.055 1.941-4.36 3.15a.29.29 0 0 0-.318 0c-2.354 1.337-4.773 2.705-6.937 4.296-.286.223-.032.605.286.446 2.419-1.21 4.774-2.705 7.033-4.2l.032-.032v.095c-.032.35-.032.732-.032 1.082-2.1 1.114-4.105 2.482-6.078 3.819-.19.127-.159.318-.032.445-.509.064-1.018.128-1.495.223-.35.064-.414.7 0 .7 2.895.032 5.76-.159 8.655.032.255.032.541-.318.51-.573-.287-1.687-.382-3.373-.287-5.06 1.178.16 2.355.255 3.564.255a43.108 43.108 0 0 0-.477 4.073c-.032.51.541.732.955.605 0 .127.095.254.254.286 2.705.573 5.824.191 8.56.16.383 0 .669-.383.637-.733a69.325 69.325 0 0 0-.19-3.532c.19-.095.35-.223.54-.318.382-.287.032-.987-.382-.732zM4.538 15.71c.35-.095.668-.286.986-.445a27.649 27.649 0 0 0 1.687-.828c.064-.031.095-.095.127-.159.318 0 .669.032.987.032-1.369.668-2.737 1.496-3.85 2.45.063-.318.063-.668.063-1.05zm.764-1.018-.764.382a9.259 9.259 0 0 0-.127-.987 33.55 33.55 0 0 1 1.782.128c-.319.159-.605.318-.891.477zm-.828 3.023v-.223c1.082-.477 2.069-1.209 3.055-1.782.828-.477 1.655-.89 2.482-1.336.7.032 1.4.032 2.1.032a62.814 62.814 0 0 0-7.7 4.678c.031-.446.031-.892.063-1.369zm-.19 3.628.095-1.56c3.118-1.75 6.269-3.532 9.356-5.377.54 0 1.05 0 1.59-.032-3.723 2.227-7.541 4.455-11.042 6.969zm7.35 3.755a59.775 59.775 0 0 0-2.386-.064c.318-.19.604-.413.89-.572.414-.255.86-.541 1.274-.828.063.446.127.955.222 1.464zm-.19-5.696c.063-.032.158-.064.222-.127-.064.031-.127.095-.19.159-.033.031-.033 0-.033-.032zm-.16 2.45c0 .318.032.605.032.923-.54.35-1.05.7-1.591 1.05-.51.35-1.178.668-1.464 1.21-.827 0-1.655.031-2.482.127 1.877-1.05 3.755-2.132 5.505-3.31zm9.038 2.8c-1.146.064-2.291.192-3.373.446 0-.032.032-.064.032-.095.031-.16.031-.287.063-.446.923-.51 1.814-1.177 2.705-1.718 1.273-.796 2.578-1.496 3.883-2.196.445-.223.063-.891-.382-.668-1.973 1.05-4.392 2.227-6.11 3.85.063-.445.095-.859.159-1.305 2.164-1.24 4.296-2.482 6.46-3.723.159.987.35 1.973.509 2.992a406.028 406.028 0 0 1-3.85 2.482c-.16.063-.16.254-.096.382zm3.023-8.528c.096.668.191 1.305.287 1.941-2.1 1.241-4.201 2.482-6.27 3.724.064-.573.096-1.114.128-1.687a.602.602 0 0 0-.287-.51c.987-.572 1.942-1.209 2.928-1.781 1.05-.573 2.132-1.082 3.214-1.687zm1.241 8.465c-1.209.032-2.45 0-3.691.064 1.145-.7 2.323-1.4 3.468-2.1.096.668.16 1.336.223 2.036z"/>
    </g>
</svg>
