<svg width="1293" height="475" fill="none" xmlns="http://www.w3.org/2000/svg">
    <path d="M1141.35 29.936c0-.066 0-.133.01-.198l-.25-.084c-.36-.242-.83-.398-1.34-.442a3.202 3.202 0 0 0-1.45.198c-.81.465-1.68.883-2.59 1.252.41.066.81.152 1.19.257-.34.18-.71.33-1.11.45 1.29 1.572 1.62 3.404.92 5.113-.14.175-.29.345-.46.509-.72.315-1.39.668-2.03 1.054l.34.514a4.857 4.857 0 0 0-1.33-.262 5.11 5.11 0 0 0-1.38.107l-3.59-.512c-7.97-.98-8.08-.927-8.97 3.545l3.01.343 1.97.231.59.065v.143l.16.003c-.31.21-.56.463-.72.743-.16.28-.22.578-.19.878l-5.39.134c-2.15 1.783-4.2 1.67-6.15-.212-.47.066-.97.048-1.43-.051-.47-.1-.89-.278-1.22-.517l-3.12.21c-2.17 1.283-4.3 1.169-6.39-.104l.23-1.076c.35-1.471.94-2.827 3.53-3.214.02-.968.12-1.935.17-2.903l-.18-.162c-3.44-.247-5.82 1.683-8.81 2.373l-.6 3.73-.08.53c-2.19 2.64-4.01.348-5.99-.249-1.46 1.74-4.02 1.522-6.25 1.899-.85-.308-2.05-.598-3.02-.9-.96-.301-1.52-.549-1.58-.89-.5-2.749-1.76-2.706-4.66-1.665-1.57.545-3.67.249-5.56.305-.06-.596-.13-1.2-.24-1.798l-1.51-.231a5.066 5.066 0 0 0-2.55.196c-.37.153-.69.355-.94.594-.25.24-.42.51-.51.796l4.86.532.39.006.34.006a1.77 1.77 0 0 1-.12.38c-.28.807-.91 1.54-1.82 2.105-.67.418-1.25.894-1.73 1.417l-14.67-.662c-4.43.158-8.55 2.012-13.12 1.302-1.36-.213-3.41.103-3.64-1.26-.15-.907.87-1.922 1.37-2.883-10.13 1.946-20.07 2.164-29.45-2.008.08-.711.28-1.413.6-2.094.17-.46.51-.885.98-1.24.47-.357 1.06-.634 1.73-.812l.03-1.96c.01-.651.02-1.453.03-2.183-.73-.195-1.5-.332-2.28-.411-1.36 1.677-3.49 2.007-5.828 2l-.419-.006a1.512 1.512 0 0 0-.008.46c.329 1.14 1.845 2.412.126 3.29a8.2 8.2 0 0 1-.591.196c-.21.085-.432.156-.663.211a2.835 2.835 0 0 0-.029 1.786c-2.866-.047-6.418.769-8.465-.194-5.678-2.674-12.308-1.425-18.06-3.21.115-.396.241-.79.367-1.185.127-.395.203-.656.316-.988-.427-.245-.867-.475-1.283-.728a30.158 30.158 0 0 0-3.054-1.749c-3.333-1.547-3.977-1.772-4.804.366a31.613 31.613 0 0 0-.57 1.833c-17.984-.47-35.287-3.755-52.669-6.55-7.418-1.186-14.981-1.516-22.434-3.449-7.035-1.822-15.585-.494-23.441-.551-2.288-2.357-5.703-2.556-9.148-2.437a6.606 6.606 0 0 1-2.276-.18c-.725-.19-1.365-.502-1.856-.904-1.028-1.067-1.543-2.31-1.477-3.566-4.1 1.314-5.584 1.83-5.507 3.022.253 1.029.734 2.03 1.426 2.97-3.427-.216-7.065.034-10.255-.733-19.224-4.627-38.878-4.243-58.604-3.066a87.17 87.17 0 0 1-17.687-1.084 4.898 4.898 0 0 0-.037-2.827c-.064-.215-.232-.411-.479-.559a1.98 1.98 0 0 0-.887-.258c-.744-.012-1.204.274-1.475.69-.486.896-.717 1.845-.682 2.8-12.951.526-25.966-.902-38.875.768l-15.34-1.57a.088.088 0 0 1-.001.056 8.947 8.947 0 0 0-.537 2.055 4.495 4.495 0 0 1-2.204-.179c.149-.793.093-1.6-.165-2.385a1.51 1.51 0 0 0-.139-.304c-.223-.378-.586-.713-1.056-.975a4.629 4.629 0 0 0-1.63-.522c-.129.538-.246 1.068-.374 1.582-.193.791-.374 1.582-.567 2.373-3.875.024-7.662-.181-10.758-2.28-4.925 1.911-9.835 2.172-15.55 1.777-9.25-.644-18.678.122-28.039.421-2.988.094-5.919.347-8.721-.699l-1.087.45-1.01-.532c-2.406.381-4.816 1.08-7.215 1.088-17.85.089-35.697.034-53.557.027-4.081 2.363-8.599 1.391-13.054.945-6.343.563-12.769 1.863-19 1.49-6.232-.372-12.242 1.888-18.98.213-4.623-1.148-10.622.43-15.912 1.168-4.352.612-8.589 1.543-13.036.58l-2.948-.175c-5.824 1.905-11.914 1.71-18.012 1.245-2.525 1.8-5.739 1.756-8.93 1.806-4.013 2.618-7.749 5.162-14.038 3.153-4.367-1.398-9.608.747-14.198-.932a301.32 301.32 0 0 0-33.247.574c-.763.375-1.689.579-2.645.583-.957.004-1.895-.192-2.681-.56-4.923 1.345-10.286 1.865-15.618 1.515-5.487 3.221-12.265 2.554-18.563 3.332-1.69.655-3.631 1.981-4.994 1.729-8.718-1.58-17.327 3.312-25.958.09-8.714 1.04-17.403 2.096-26.116 3.112-1.43.168-2.906.183-4.347.27l-.776.552-.942-.373c-10.094 4.035-20.9 3.23-31.683 2.505-1.435 1.2-2.813 1.097-4.148-.116l-.804-.013c-3.707 2.941-8.419 1.379-12.542 1.168-6.929-.481-13.856.689-19.533 3.3l-.133.054c-5.749 2.407-12.016 1.271-18.014 1.34-2.193 1.346-4.39 2.19-6.6.13a1.274 1.274 0 0 1-.448.238 1.805 1.805 0 0 1-.564.079 1.806 1.806 0 0 1-.562-.098 1.27 1.27 0 0 1-.44-.252c-.292.233-.596.514-.92.532-5.752.375-10.824 1.697-14.479 5.194l.072.001c-.192.57-.66 1.08-1.332 1.455-.673.374-1.514.592-2.397.62-5.268 4.511-12.002 4.09-18.93 3.056-.118.13-.288.236-.491.306s-.432.103-.662.093a1.76 1.76 0 0 1-.645-.147 1.075 1.075 0 0 1-.443-.344c-1.831.478-3.694 1.408-5.516 1.354-14.639-.39-29.246 1.609-43.895.344-1.21.3-2.507.42-3.802.355a12.696 12.696 0 0 1-3.7-.732c-1.902 1.136-3.615.965-5.212-.372-.896.534-1.663.442-2.286-.283l-8.754-.144c-4.44 4.07-6.636 9.037-6.229 14.087.187 1.774 1.761 3.777-.492 5.13-2.58 1.545-5.508 3.085-8.626 3.749-3.117.663-6.82.428-10.223.253-3.68-.195-5.149 1.639-6.845 3.413 1.895 1.429 1.608 2.885-.226 4.22-1.833 1.336-4.052 2.785-7.028 2.903-2.048 2.737-6.96 1.696-9.443 3.862-1.128 2.229-3.633 2.053-6.149 1.893-.17.533-.568 1.02-1.15 1.404-.58.384-1.318.646-2.124.757.21 2.592-.643 4.825-3.88 6.217-.271 1.927-1.508 3.728-3.515 5.12-.09 1.102-.192 2.204-.282 3.306 5.552 3.768 8.706 8.147 7.088 13.973-.357 1.264.375 2.69.64 4.052 3.664 2.609 4.696 6.278 6.417 9.546 1.314 2.547 1.583 5.862-2.635 7.841l-.077.253c1.957 4.281 4.523 8.015 11.194 9.371 2.092.439 3.558 2.441 5.349 3.709 1.427-.06 2.858.131 4.147.556 1.289.424 2.39 1.066 3.19 1.859l.712-.306.63.391c2.972.168 5.987.607 8.905.448 7.515-.416 10.412 2.879 11.871 7.516 1.991-.015 3.058.749 3.323 2.191 2.022 1.001 4.094 1.941 6.02 3.02.646.351 1.113.826 1.335 1.358a1.796 1.796 0 0 1-.1 1.608c-.93 1.78-3.04 1.705-4.951 1.245-2.39-.571-4.583-1.417-6.874-2.145-.158.129-.359.233-.588.302a2.39 2.39 0 0 1-.732.1 2.364 2.364 0 0 1-.728-.124 1.724 1.724 0 0 1-.578-.321c-1.4 1.287-3.147 2.449-4.142 3.902-1.376 1.994-3.414 1.881-5.736 1.589l-2.682.44.204.004-.36.041c-1.384 3.154-2.706 6.221-.061 9.528 1.492 1.898 1.598 4.219-1.427 5.797-.15 1.84-.979 3.398-3.155 4.418l2.162 4.212c2.604.655 2.653 2.775 4.192 4.039 1.539 1.264 1.163 2.195-.429 3.471-1.105.863-1.24 2.442-1.68 3.736 3.663 2.609 5.9 5.894 8.245 9.204.78.22 1.444.589 1.906 1.06.463.471.704 1.021.69 1.579.809.134 1.527.449 2.032.892.504.443.764.985.734 1.535a15.724 15.724 0 0 1 3.354 1.762c1.324 1.158 2.046 2.511-.844 3.163.051 1.303 1.079 2.249 2.66 1.695 4.294-1.518 6.502.615 8.846 2.527.628.503 1.377 1.611 1.084 1.932-.793.85-1.94 1.528-3.307 1.954-1.3.352-3.224.591-4.26.129-2.905-1.318-6.9-1.281-8.838-3.798-.4.125-.84.186-1.286.179a4.117 4.117 0 0 1-1.28-.221c-.28.258-.538.595-.874.653-6.206.986-10.849 3.228-12.046 8.203l-.216-.004c3.02 3.798 3.3 7.939.208 11.47-2.371 2.708-.697 3.704 1.46 5.344 3.068 2.329 3.816 4.287-1.931 5.114-1.852.263-2.863 1.938-1.738 3.52.635.748 1.008 1.578 1.09 2.43.08.851-.13 1.701-.618 2.485l-19.905-1.121a7.33 7.33 0 0 1-2.674.418 7.268 7.268 0 0 1-2.638-.552c-1.324.747-2.872 1.304-4.545 1.635a18.96 18.96 0 0 1-5.178.285c-2.508 2.23-6.761 1.946-9.656 3.638l.356.251c-.37 1.384-.73 2.775-1.1 4.159 2.648 2.362 2.351 2.921-2.334 4.797-.38 1.265-.773 2.521-1.153 3.777 3.183 2.641 1.805 5.508.452 8.241-1.55 3.151-3.577 6.056-.285 9.357 1.18 1.163.612 2.877-.763 4.117-3.142 2.839-2.394 6.241-2.555 9.486 4.497 2.964.544 7.791 4.438 10.975 3.55 2.941 6.99 6.054 10.284 9.197.839.808 1 1.986 1.462 3.01 3.964 1.891 2.756 4.595 1.909 7.241l-1.843-.245-1.389-.189a6.38 6.38 0 0 1-2.4.119c-.335.67-.646 1.347-.946 2.033.358.567.431 1.191.211 1.782l1.848 2.143.742.862c-.37 1.359-1.308 2.178-3.367 1.93a9.248 9.248 0 0 1-2.132 1.306c-9.03 2.782-9.202 3.026-4.698 9.269 2.6.9 2.761 2.745 3.189 4.491 3.246 2.435 3.177 3.006-.685 5.166a15.378 15.378 0 0 0-.5 4.2c1.046 5.847.486 11.757-1.654 17.442.68.286 1.232.689 1.594 1.166.362.476.522 1.007.46 1.536a38.64 38.64 0 0 1 4.871 3.581c1.747 1.752 1.052 3.193-1.815 3.893-.91.793-1.464 1.742-1.604 2.739-.139.997.143 2.005.816 2.909.754.137 1.432.418 1.95.808.516.39.848.872.953 1.384 5.736.594 8.78 2.899 8.552 7.287 3.68.933 5.755 3.127 7.72 5.414 3.232.403 6.588.561 9.015 2.531 19.756 2.857 39.865 2.496 59.792 3.768 6.154-1.543 11.991.197 17.978.859 5.81-.31 11.633-.603 17.432-.945a23.598 23.598 0 0 1 6.67.339c2.167.428 4.178 1.157 5.896 2.138 3.914-1.69 8.168-1.454 12.445-1.114.694-.655 1.45-.69 2.269-.121 1.855-1.256 3.617-1.172 5.286.221l.463-.484.765.187c12.21-1.435 24.197.54 36.237 1.436.275.005.498.342.733.624 8.84-.713 17.666-1.298 26.507.077 2.333.364 4.667.688 6.432 2.02a1.53 1.53 0 0 1 .563-.277c.22-.059.46-.081.698-.064.237.017.466.073.664.163.198.09.36.211.471.352 3.618-1.163 7.658-1.764 11.39-1.147 13.291 2.187 26.914.87 40.25 2.495 4.896.596 9.987.259 14.988.349 5.305-1.66 10.481-2.036 15.327.855l5.387-.079c1.299-.772 2.893-1.296 4.615-1.515a14.582 14.582 0 0 1 5.169.271l.835-.439.808.458c7.778-1.81 15.606-.761 23.455-.322 5.428.412 10.884.618 16.339.617 15.322-.264 30.646.051 45.974.135 1.629-1.354 3.149-1.147 4.59.211.704-.292 1.536-.424 2.369-.376.834.048 1.626.274 2.257.642 3.293-1.153 6.571-2.075 9.59.372l5.367.366c1.149-.569 2.303-1.455 3.467-1.46 4.978-.037 9.952.235 14.927.396 5.078-1.727 10.407-1.195 15.717-.973 5.849.239 11.699.447 17.537.661 1.644-1.505 3.212-1.273 4.723.181 1.186-.399 2.52-.569 3.853-.493 1.334.077 2.614.398 3.697.927 4.146-1.941 8.057-1.266 11.865.584 8.56-3.386 18.088-.728 26.942-2.306 5.166 2.467 10.458.093 15.686.218 6.509-2.696 13.429-.423 20.14-.789 13.206-.72 26.437.704 39.597-.843a63.48 63.48 0 0 1 14.948-.168c3.436.406 7.467 1.084 10.397.171 7.486-2.315 14.84-.916 22.161-.43 14.966.952 29.814.29 44.704-.68 1.909-.12 3.892.373 5.844.588a15.387 15.387 0 0 1 2.719-.503c6.146-1.059 12.409-.408 18.633-.33.34-.264.684-.719 1.031-.721 12.934-.169 25.699-2.548 38.709-1.541l.883-.485.88.49c2.332-.44 4.7-.796 7.095-1.066 4.443-.356 8.173 1.15 12.22 2.305 3.415.969 6.054-3.411 10.531-2.885 1.82.213 3.782-.207 5.079 1.132 11.689-3.294 23.877-2.602 36.024-2.418 6.25-.771 12.478-1.622 18.749-2.234 1.201-.123 3.662.505 3.821 1.056.173.923.705 1.804 1.541 2.558l4.281.07c.929-.334 1.86-.763 2.693-1.107 7.415-3.054 15.643-2.991 23.636-4.011 2.981-2.556 5.461-.943 7.929.702.339-.185.741-.56.992-.508a15.07 15.07 0 0 1 2.147.702 5.602 5.602 0 0 1 1.773-.598c3.762-1.185 7.501-1.703 11.118.802 1.405-1.565 3.752-2.734 5.766-1.986 7.75 2.867 16.54 1.542 24.385 3.727 1.683-1.743 3.711-2.504 6.991-2.077 5.685.729 11.487.983 17.238 1.379 1.616-1.998 4.358-2.453 7.182-2.804 2.408-.302 4.808-.556 6.288-2.279l1.48-.055 4.09-.147c.36-.603.56-1.245.58-1.897.82.015 1.61-.16 2.24-.496.64-.335 1.07-.808 1.22-1.336.29-.71.49-1.434.6-2.166l47.47.342c.85.851 1.3 1.844 1.31 2.856a8.982 8.982 0 0 1-.7 3.355l4.71.538c.34-.237.76-.424 1.21-.552 2.41-1.05 5.27-1.577 8.17-1.509l.06.001-.26-.004 1.81-1.495 2.36-1.955c6.4.844 12.78 1.901 19.22 2.452 4 .335 7.72.642 10.32 3.178.47-.125.98-.16 1.48-.102.5.059.96.21 1.34.435.36-.114.75-.369 1.06-.316.68.138 1.33.324 1.94.555 4.17-.36 6.12 1.125 6.45 3.934 5.73-1.495 7.52-5.141 8.55-9.015 1.09-4.31 1.62-8.708 2.37-13.047.13-.721.63-1.816.18-2.133-7.21-5.081-.22-10.469-.63-15.685-.36-4.69.18-4.88 6.21-5.369 6.84-.547 13.74-.759 20.61-1.115 1.09-1.935 3.47-2.206 5.74-2.113 3.22.132 6.4.605 9.58.951.12-.13.28-.243.46-.331.19-.088.4-.149.63-.181.22-.031.46-.031.68-.001.23.031.45.092.64.18 2.53-1.547 4.82-1.509 6.58.679 9.14 1.818 18.21 3.928 27.9 2.237 1.99-.349 3.81.579 5.14 1.792l5.53-.1c1.65-1.744 4.53-.863 6.64-1.63l1.34.816 1.76 1.077.4.245c1.1.264 2.11.676 2.96 1.21.85.533 1.52 1.176 1.98 1.888v.056c.78.037 1.53.247 2.11.597.59.35.98.818 1.12 1.329 0 .04 0 .048.07.089 2.93.39 5.89.682 8.86.876 1.48.024 3.4-1.286 2.53-1.984-3.74-3.015.59-5.23 1.33-7.735.14-.433.15-.881.02-1.318l3.08-2.713-.08-3.654c-1.2-.528-1.52-1.232-.65-1.503 2.2-.694 5.02-.767 6.69-1.852 6.2-4.066 7.17-7.219 3.93-11.488-1.31-1.549-2.33-3.192-3.05-4.894-.26-.727.97-1.731 1.62-2.617-.25-.241-.39-.526-.4-.818-.01-.291.12-.577.36-.819-2.16-1.306-3-3.122-1.04-4.583 4.76-3.55 3.46-6.39-1.15-9.15-5.27-3.159-5.01-8.666-9.45-12.177l-9.71-1.93c-2.39-.476-4.47-1.217-5.43-3.075-1.84-.459-1.88-1.356-1.25-2.537.7-1.315 1.25-2.679 1.87-4.027l-5.23-2.619c-1.75.615-3.41 1.532-5.25 1.796-5.35.881-5.55.703-6.92-4.536l-8.73-.938c-.1.109-.24.201-.4.27-.16.07-.35.116-.54.134-.19.019-.39.01-.58-.026a1.747 1.747 0 0 1-.51-.181c-5.76 2.288-12.12 2.342-18.39 2.589a3.394 3.394 0 0 1-1.24-.365c-.36-.191-.64-.441-.81-.725-.07-.335-.03-.676.13-.996.15-.321.41-.613.76-.855 3.07-1.101 6.25-2.002 9.4-2.967.78-1.011 1.85-1.668 3.55-1.529.06-.126.17-.24.31-.335.14-.095.31-.168.49-.214a2.005 2.005 0 0 1 1.16.065c2.87-2.192 6.78-1.223 10.17-1.827l9.52-3.71 3.19 1.64 1.38.722 1.49.771c1.46-.6 2.54-1.537 3.03-2.635.29-.616.43-1.259.42-1.906 8.3-3.382 16.07-7.391 24.84-10.233 5.79-1.866 10.76-5.119 16.1-7.755 4.08-1.64 6.3-3.518 9.98-8.46l.12.129c-.12-2.749 1.74-6.045-4.04-7.157-2.38-.526-4.64-1.277-6.7-2.23-.34-.245-.6-.534-.77-.848a1.696 1.696 0 0 1-.19-.978c4.78-3.352-3.85-5.756-1.14-8.753 1.65-1.807 1.77-2.893-.65-4.33-2.91-1.739-7.69-2.31-7.62-6.112-2.31-5.874-5.01-11.691-4.87-17.922l.31-1.472c.24-1.036.46-2.081.68-3.117-.68-.144-1.34-.322-1.98-.533-.16-.05-.33-.077-.48-.127-.16-.05-.22-.051-.32-.093l-3.61.299-3.05.243c-5.31-1.024-5.31-1.024-5.26-5.152l-2.52-2.503c.06-.424.07-.852.02-1.278-.1-3.075-3.06-4.187-6.37-5.051l-2.49-.645c-2.77-3.634-2.68-7.539-1.97-11.498-2.25-1.18-.65-3.187-1.88-4.628.41.036.83-.01 1.2-.131.11-.051.21-.111.29-.178.54-.445.81-1.003.78-1.575-1.44-.423-2.79-.98-4-1.654-1.29-.816-1.27-1.609.05-3.056 1.87-2.122 3.57-4.111 3.22-6.737 2.27-1.836 2.75-3.821.09-5.556-1.78-1.029-3.17-2.323-4.04-3.774-.88-1.45-1.21-3.014-.98-4.559-1.95.111-3.93.134-5.86.357-3.61.417-4.28-.865-3.55-3.084a9.04 9.04 0 0 1 1.43-1.914c.77.186 1.58.278 2.4.27.08.005.16.006.24.004l.18-.109c1.04-1.888 3.15-2.33 5.6-2.218 0-.453-.19-.898-.54-1.29-.35-.391-.86-.714-1.46-.935a5.757 5.757 0 0 0-.71-.361l-5.44.189c-.24.633-.5 1.264-.76 1.893-.82-.028-1.6-.239-2.22-.599-.61-.359-1.03-.845-1.18-1.378-4.19-.498-7.85-2.035-7.42-5.339.42-3.304-3.25-5.85-2.44-9.084-.48-4.129-3.07-8.61 3.46-11.576-.03-.545-.02-1.091.03-1.635.43-.062.84-.179 1.2-.345.63-.292.9-.716.16-1.372-.77-.49-1.72-.837-2.75-1.005-.23-.06-.47-.111-.69-.178 0 .285-.01.563-.11.839-.01.588-.15 1.173-.23 1.759l-4.23-.49c1.74-3.068-2.9-6.003-.24-9.191 1.01-1.214 2.67-1.544 1.41-.35-.88.78.86.713 1.39.698.26-.095.55-.143.84-.138.3.005.59.062.84.165.52-2.797 1.05-5.591 1.56-8.383l2.08.034 1.14.019c.3-.67.71-1.316 1.23-1.925a5.278 5.278 0 0 0-.74-.282 5.632 5.632 0 0 0-.67-.257c.16-.284.24-.576.36-.86 0-.103.09-.205.14-.315.05-.111.2-.442.28-.671l2.22.196.77.068c1.89-.132 3.65-.659 5.04-1.506.35-.231.66-.493.91-.779l.11.002c.4.102.82.15 1.25.14.42-.009.84-.075 1.22-.194a3.21 3.21 0 0 0 1-.499c.28-.209.5-.455.63-.721 1.72.369 3.48.684 5.17 1.125 1.7.44 2.52-.046 3.26-.987 1.11.263 2.19.589 3.22.974 2.21.789 3.91 2.099 4.74 3.667.11.208.29.362.38.586.21-.285.57-.508 1.02-.627.44-.118.94-.124 1.39-.017l1.21-.679 4.58-2.664c.46.683 1.26 1.241 2.27 1.578.59.213 1.22.372 1.87.475 1.06.16 2.15.258 3.17.449 4.54-3.316 4.54-3.316-.04-6.027l-2.25-1.308c-.42-2.033.38-4.084 2.22-5.712.47-.324.75-.751.78-1.203.04-.452-.17-.9-.58-1.263-.38-.313-.88-.554-1.44-.699-1.18-1.44-2.36-2.857-3.4-4.32-.2-.2-.34-.425-.41-.661-.07-.236-.06-.478.02-.712.08-.233.22-.453.43-.646.22-.193.48-.355.79-.476.59.031 1.18.009 1.76-.067a8.4 8.4 0 0 0 2.68-.445c.82-.287 1.53-.701 2.06-1.208.07-.292.17-.584.29-.876.6-1.713 1.43-3.462.38-4.877-.67-.825-1.78-1.46-3.1-1.782l-6.26.548-2.93-1.684-2.37-1.388a6.058 6.058 0 0 1 .11-1.801l3.46-2.198v-.072c-.02-.366.04-.731.17-1.085.08-.24.24-.466.47-.66.24-.178.55-.314.89-.395.35-.082.72-.106 1.08-.072.12-1.816.77-3.354 3.66-3.6.84-.066 1.62-.316 2.21-.71.77-.52 1.21-1.216 1.23-1.95-3.13-.845-5.71-2.475-9.56-2.245-2.66.069-5.32-.136-7.9-.606a90.16 90.16 0 0 0-3.59-.48c-.38-2.975 1.88-6.115-1.05-8.934.27.085.56.132.86.137.29.005.59-.032.86-.109 1.39-.406 1.89-1.993 3.42-2.246l5.9.406c.23-1.168.08-2.358-.43-3.492-.69-1.219-2.18-1.56-5.26-1.175-1.31.161-2.42.977-3.62 1.529l-3.63 1.529-1.74.71c-.38-.213-.71-.528-1.19-.64-7.32-1.771-10.63-6.113-13.01-11.075-1.89-.15-4.04-.797-5.65-.363-4.69 1.273-8.47.742-11.45-2.229-2.97-2.97-6.2-4.39-11.25-2.17-1.88.835-4.68.535-7.09.742a7.151 7.151 0 0 1-2.18-.709c-.64-.338-1.17-.765-1.54-1.25-.1-.153-.32-.212-.4-.396a2.241 2.241 0 0 1-.41-.046 2.359 2.359 0 0 1-.94-.208c-.28-.128-.5-.308-.63-.517-.17.998-.34 1.996-.53 2.993-.01.453-.16.903-.22 1.362a5.062 5.062 0 0 0-1.38-.002 4.42 4.42 0 0 0-1.26.364c-1.75-.21-3.47-.572-5.09-1.076-3.24-.847-6.48-1.695-10.02.193l.18-.6-.21-.592c-.28.072-.58.118-.89.137-.64.093-1.33.046-1.94-.136-.53-.015-1.03-.159-1.42-.404-.28-.171-.5-.379-.66-.61a1.34 1.34 0 0 1-.23-.73l-.55.078c.01-.405-.05-.795-.08-1.232l-.05-1.018a5.123 5.123 0 0 0-.33-.14c-.75-.417-1.64-.714-2.58-.868a9.389 9.389 0 0 0-2.88-.016c-1.04.137-2.04.389-2.95.746-4.79-.285-6.53-1.878-6.19-4.699zm70.71 86.63-1.13-.018-.27-.005-3.22-.227c.11-.269.25-.532.41-.788.01-.142.15-.291.23-.433a4.6 4.6 0 0 1 .43-.787c1.17-.021 2.33.207 3.31.652.97.444 1.71 1.082 2.11 1.819l-1.87-.213zm3.03-8.684-.31-.006c.09-.069.18-.142.25-.218l.1.081v.048c.21.154.71.623.71.623l-.22-.004-.53-.524z" fill="#9A55FB" fill-opacity=".05"/>
</svg>
