<svg width="21" height="28" fill="none" xmlns="http://www.w3.org/2000/svg">
    <path d="M2.393 12.6C1.328 10.05.991 7.337 2.838 5.064c1.494-1.839 3.808-2.9 6.016-3.61C10.414.951 12.06.567 13.696.406c.753-.074 1.532.685.443.792-4.008.394-10.376 2.112-11.006 6.85-.566 4.247 3.07 8.831 6.025 11.46 1.256 1.117 2.657 2.164 4.152 3.003l-1.521-2.646c-.41-.714.82-1.672 1.301-.834l2.791 4.857c.258.449-.253 1.192-.744 1.184l-5.6-.094c-.967-.016-.64-1.548.186-1.534l3.147.053C8.323 21.272 4.314 17.203 2.393 12.6z" fill="#9A55FB"/>
</svg>
