<svg width="26" height="26" fill="none" xmlns="http://www.w3.org/2000/svg">
    <path d="M20.503.103C17.146.075 13.781-.056 10.417.027 6.521.124 3.481.36 1.181 3.474.579 4.96.276 6.694.13 8.504.102 8.98.074 9.47.04 9.975c-.125 3.074.083 6.245.014 8.76.324 1.651.96 3.136 2.148 4.27 3.938 3.75 11.952 2.583 17.202 2.376 2.521-.92 4.621-1.679 5.747-4.56.892-2.266.746-5.153.809-7.585.117-5.002.338-11.903-5.458-13.133z" fill="#fff"/>
    <path d="M18.962 1.886c6.708.863 4.74 10.584 4.553 15.295-.104 2.59-.567 4.594-3.24 5.492-3.517 1.181-8.698.788-12.283.263-2.398-.346-4.277-1.064-4.94-3.551-1.05-3.931-.753-9.25-.297-13.257a.427.427 0 0 1 .07-.18c.061-5.996 12.648-4.511 16.137-4.062z" fill="#3C4163"/>
    <path d="M21.747 5.54c.014-1.651-2.045-2.176-3.15-1.16-.298.276-.436.697-.456 1.153.11.587.463 1.167.918 1.5 1.071.752 2.674-.25 2.688-1.493zM18.686 8.752c-2.362-3.578-7.696-3.93-10.563-.76-1.955 2.163-2.093 5.762-.621 8.318a.491.491 0 0 1 .228.159c2.39 2.666 6.507 3.634 9.464 1.216 2.639-2.162 3.413-6.024 1.492-8.933z" fill="#fff"/>
    <path d="M9.27 13.657c.836 2.349 3.807 4.214 6.176 2.764 4.787-2.93-.836-10.888-4.78-7.358-1.396.822-1.942 3.053-1.396 4.594z" fill="#3C4163"/>
</svg>
