<svg width="28" height="28" fill="none" xmlns="http://www.w3.org/2000/svg">
    <path d="M23.884 10.349c3.862 3.403 3.256 11.366 2.937 15.905a.622.622 0 0 1-.173.394c-.027.168-.13.33-.308.38-1.607.438-3.684.091-5.307-.2-.168-.028-.233-.158-.228-.288-.01-.021-.01-.048-.016-.07a.52.52 0 0 1-.146-.449c.168-1.812.26-3.624.216-5.448a30.577 30.577 0 0 0-.162-2.726c-.227-2.029-2.25-4.22-4.149-2.57-2.672 2.316-1.466 8.348-1.26 11.442.016.21-.125.324-.282.351a.48.48 0 0 1-.281.26c-.87.314-1.91.298-2.83.314-.822.022-1.725.092-2.46-.32-.022-.01-.033-.032-.05-.053a.509.509 0 0 1-.308-.46c-.151-5.626-.703-11.81.438-17.344a.257.257 0 0 1 .147-.195.468.468 0 0 1 .124-.07c1.287-.362 3.019.07 4.333.216.417.044.828.054 1.05.455.08.151.119.346.13.552 2.06-2.078 6.518-1.894 8.585-.076zM6.62 9.78c.07.104.114.223.103.352A107.397 107.397 0 0 0 6.44 27.18c.022.368-.313.627-.643.649-1.634.092-3.262.124-4.901.092a.652.652 0 0 1-.644-.644c-.195-5.67-.687-12.037.633-17.598a.346.346 0 0 1 .249-.27.218.218 0 0 1 .027-.05.273.273 0 0 1 .124-.297c.579-.373 1.407-.173 2.077-.178.963-.011 1.932-.038 2.89.016.513.033.632.595.367.882zM4.007 7.281c-.2.017-.39 0-.568-.032C.972 7.655.02 3.895 1.107 2.002 1.735.909 2.985.005 4.283 0 5.619 0 6.7 1.168 7.128 2.348c.844 2.315-.605 4.766-3.121 4.933z" fill="#fff"/>
</svg>
