<svg width="96" height="95" viewBox="0 0 96 95" fill="none" xmlns="http://www.w3.org/2000/svg">
<path d="M80.5562 64.6613L80.5466 64.6589C77.7769 60.0842 72.1317 58.1453 67.1357 60.0525L45.7602 24.9434C50.3096 20.8394 50.6707 13.8242 46.5664 9.27481C42.4624 4.72522 35.4474 4.3644 30.8978 8.46841C29.1885 10.0104 28.0012 12.046 27.5006 14.2927C24.5865 13.4934 21.4716 13.9322 18.8915 15.5053C13.5863 18.5704 11.7704 25.3559 14.8354 30.6612C17.6005 35.4472 23.467 37.4677 28.5928 35.3995L49.9586 70.5062C45.4093 74.6103 45.0482 81.6255 49.1525 86.1749C53.2565 90.7242 60.2717 91.0853 64.8211 86.981C66.5304 85.439 67.7177 83.4034 68.2183 81.1567C74.1372 82.7403 80.2193 79.2262 81.803 73.3071C82.5874 70.3762 82.1367 67.2515 80.5562 64.6613Z" fill="#ECDFFE"/>
</svg>
