<svg width="50" height="60" fill="none" xmlns="http://www.w3.org/2000/svg">
    <path d="m44.771 40.94-.005-.002c-1.731-2.266-4.837-3.659-7.379-3.31l-13.35-17.4c2.179-1.352 1.969-4.38-.47-6.764-2.437-2.384-6.18-3.22-8.358-1.868-.818.508-1.332 1.282-1.469 2.215-1.591-.631-3.219-.741-4.498-.304-2.639.825-3.213 3.613-1.284 6.226 1.741 2.358 4.97 3.808 7.57 3.4l13.345 17.399c-2.178 1.352-1.968 4.38.47 6.764 2.438 2.384 6.18 3.22 8.358 1.868.819-.508 1.332-1.282 1.47-2.215 3.23 1.265 6.255.319 6.757-2.113.248-1.204-.17-2.612-1.157-3.896z" fill="#ECDFFE"/>
</svg>
