<svg width="585" height="210" fill="none" xmlns="http://www.w3.org/2000/svg">
    <path d="M0 49C0 21.938 21.938 0 49 0h487c27.062 0 49 21.938 49 49v161H0V49z" fill="#FFB703"/>
    <g opacity=".14">
        <mask id="a" style="mask-type:alpha" maskUnits="userSpaceOnUse" x="0" y="0" width="585" height="210">
            <path d="M0 49C0 21.938 21.938 0 49 0h487c27.062 0 49 21.938 49 49v161H0V49z" fill="#9a55fb"/>
        </mask>
        <g mask="url(#a)">
            <path d="M208.213 165.069c.247-1.7.841-3.33 1.744-4.79 4.807-7.721 14.914-7.532 20.178-.562a12.942 12.942 0 0 1 2.624 6.44c.241 2.418-.394 5.024-1.894 6.629-1.501 1.604-3.89 1.999-5.544.634a7.474 7.474 0 0 1-1.769-2.142c-.45-.833-.896-1.702-1.824-2.093a2.93 2.93 0 0 0-1.263-.195 3.515 3.515 0 0 0-3.091 1.933c-.509.987-1.047 2.093-2.121 2.574a3.562 3.562 0 0 1-2.317.105c-4.026-1.015-5.261-4.801-4.723-8.533zM213.79 145.316c-3.388 1.259-4.096 6.22-.482 7.675a4.09 4.09 0 0 0 4.545-1.019 4.081 4.081 0 0 0 .636-4.615c-.82-1.605-2.938-2.694-4.699-2.041zM224.559 145.316c-3.387 1.259-4.096 6.22-.481 7.675a4.09 4.09 0 0 0 4.545-1.019 4.09 4.09 0 0 0 .635-4.615c-.816-1.605-2.937-2.694-4.699-2.041zM233.483 152.296c-2.833.628-3.674 4.417-1.577 6.367 1.559 1.452 4.354 1.235 5.669-.439 2.376-3.021-.659-6.685-4.092-5.928zM205.215 152.296c-2.837.628-3.677 4.417-1.581 6.367 1.56 1.452 4.354 1.235 5.669-.439 2.376-3.021-.659-6.685-4.088-5.928zM13.696 130.82a12.56 12.56 0 0 1 .391-5.066c2.554-8.721 12.34-11.268 19.286-5.972a12.94 12.94 0 0 1 4.256 5.498c.882 2.264.973 4.943-.039 6.901-1.011 1.957-3.206 2.968-5.166 2.093a7.536 7.536 0 0 1-2.282-1.588c-.656-.697-1.322-1.395-2.316-1.521a3.008 3.008 0 0 0-1.274.15 3.517 3.517 0 0 0-2.442 2.694c-.223 1.088-.436 2.309-1.35 3.052-.634.48-1.41.734-2.205.722-4.162.102-6.37-3.213-6.859-6.963zM13.738 110.31c-2.923 2.121-2.267 7.092 1.605 7.528a4.191 4.191 0 0 0 4.103-2.205 4.185 4.185 0 0 0-.628-4.615c-1.207-1.336-3.545-1.828-5.08-.708zM24.128 107.41c-2.924 2.121-2.271 7.093 1.605 7.532a4.186 4.186 0 0 0 4.102-2.208 4.186 4.186 0 0 0-.628-4.616c-1.224-1.336-3.558-1.81-5.079-.708zM34.6 111.73c-2.56 1.368-2.352 5.233.195 6.559 1.891.977 4.536 0 5.341-1.95 1.473-3.548-2.435-6.262-5.536-4.609zM7.371 119.34c-2.56 1.367-2.351 5.233.196 6.555 1.89.98 4.535 0 5.34-1.947 1.473-3.548-2.434-6.262-5.536-4.608zM89.296 217.747a12.63 12.63 0 0 1 2.955-4.148c6.71-6.14 16.397-3.245 19.589 4.884a12.935 12.935 0 0 1 .792 6.908c-.418 2.393-1.744 4.734-3.611 5.882-1.866 1.147-4.28.879-5.508-.88a7.479 7.479 0 0 1-1.127-2.539c-.206-.925-.408-1.881-1.197-2.502a2.887 2.887 0 0 0-1.165-.53 3.5 3.5 0 0 0-3.489 1.029c-.757.817-1.573 1.745-2.738 1.912a3.573 3.573 0 0 1-2.26-.523c-3.587-2.066-3.758-6.043-2.24-9.493zM99.985 200.224c-3.6.3-5.62 4.884-2.533 7.274a4.197 4.197 0 0 0 2.29.825 4.194 4.194 0 0 0 2.361-.588 4.185 4.185 0 0 0 1.856-4.27c-.353-1.776-2.104-3.395-3.974-3.241zM110.376 203.124c-3.6.3-5.617 4.884-2.533 7.27a4.188 4.188 0 0 0 4.654.241 4.187 4.187 0 0 0 1.856-4.27c-.373-1.779-2.121-3.398-3.977-3.241zM89.848 204.641c-2.9-.161-4.73 3.262-3.234 5.707 1.113 1.818 3.862 2.359 5.582 1.099 3.094-2.268 1.162-6.614-2.348-6.806zM455.908 139.95a12.56 12.56 0 0 1 1.744-4.79c4.808-7.721 14.914-7.532 20.179-.562a12.957 12.957 0 0 1 2.623 6.44c.241 2.418-.394 5.024-1.894 6.629-1.5 1.605-3.89 1.999-5.544.635a7.467 7.467 0 0 1-1.768-2.142c-.45-.834-.897-1.703-1.825-2.093a2.944 2.944 0 0 0-1.266-.196 3.51 3.51 0 0 0-3.088 1.933c-.509.987-1.046 2.093-2.121 2.575a3.559 3.559 0 0 1-2.316.104c-4.026-1.015-5.261-4.8-4.724-8.533zM461.487 120.197c-3.388 1.26-4.096 6.221-.482 7.675a4.085 4.085 0 0 0 5.181-5.634c-.82-1.605-2.937-2.693-4.699-2.041zM472.256 120.197c-3.387 1.26-4.095 6.221-.481 7.675a4.082 4.082 0 0 0 5.585-3.227 4.08 4.08 0 0 0-.404-2.407c-.817-1.605-2.938-2.693-4.7-2.041zM481.18 127.178c-2.833.628-3.674 4.417-1.577 6.367 1.56 1.451 4.354 1.235 5.669-.44 2.376-3.021-.659-6.684-4.092-5.927zM452.912 127.178c-2.836.628-3.677 4.417-1.58 6.367 1.559 1.451 4.353 1.235 5.669-.44 2.375-3.021-.66-6.684-4.089-5.927zM303.372 122.663a12.565 12.565 0 0 1 3.415-3.764c7.39-5.303 16.662-1.273 18.867 7.18a12.966 12.966 0 0 1-.031 6.953c-.698 2.327-2.285 4.493-4.284 5.411-1.999.917-4.358.349-5.369-1.528a7.518 7.518 0 0 1-.817-2.655c-.094-.942-.178-1.916-.886-2.627a2.999 2.999 0 0 0-1.095-.667 3.515 3.515 0 0 0-3.594.611c-.847.719-1.768 1.549-2.944 1.57a3.59 3.59 0 0 1-2.18-.789c-3.304-2.48-3.001-6.447-1.082-9.695zM316.064 106.536c-3.608-.13-6.158 4.186-3.377 6.921a4.083 4.083 0 0 0 6.395-.852 4.09 4.09 0 0 0 .547-2.378c-.143-1.808-1.678-3.622-3.565-3.691zM326.021 110.648c-3.611-.132-6.157 4.187-3.377 6.919a4.08 4.08 0 0 0 4.591.792 4.089 4.089 0 0 0 2.348-4.023c-.139-1.804-1.685-3.621-3.562-3.688zM331.606 120.504c-2.84-.499-5.083 2.68-3.886 5.286.886 1.936 3.551 2.791 5.407 1.744 3.346-1.873 1.943-6.419-1.521-7.03zM305.475 109.717c-2.861-.502-5.083 2.676-3.89 5.282.89 1.936 3.552 2.791 5.408 1.744 3.349-1.873 1.943-6.419-1.518-7.026zM385.981 225.51a12.55 12.55 0 0 1-.238-5.086c1.49-8.973 10.899-12.671 18.431-8.244a12.968 12.968 0 0 1 4.884 4.943c1.148 2.146 1.556 4.794.789 6.856-.768 2.062-2.826 3.335-4.884 2.71a7.555 7.555 0 0 1-2.443-1.301c-.732-.603-1.479-1.228-2.483-1.231a2.89 2.89 0 0 0-1.242.3 3.505 3.505 0 0 0-2.115 2.969c-.094 1.105-.157 2.347-.976 3.192a3.58 3.58 0 0 1-2.094.98c-4.106.586-6.694-2.435-7.629-6.088zM383.578 205.13c-2.648 2.442-1.396 7.326 2.498 7.284a4.085 4.085 0 0 0 3.806-2.684 4.089 4.089 0 0 0-1.176-4.506c-1.374-1.183-3.75-1.375-5.128-.094zM393.527 201.005c-2.648 2.442-1.395 7.326 2.498 7.284a4.085 4.085 0 0 0 3.806-2.684 4.088 4.088 0 0 0-1.176-4.506c-1.374-1.179-3.75-1.374-5.128-.094zM404.447 204.037c-2.379 1.664-1.709 5.484.977 6.486 1.996.743 4.493-.527 5.069-2.579 1.04-3.698-3.168-5.923-6.046-3.907zM202.633 53.665a12.538 12.538 0 0 1 .059-5.094c2.006-8.871 11.614-12.018 18.874-7.162a12.97 12.97 0 0 1 4.594 5.233c1.022 2.208 1.277 4.884.391 6.89-.886 2.006-3.014 3.168-5.027 2.425a7.543 7.543 0 0 1-2.376-1.444c-.698-.642-1.395-1.312-2.407-1.371a2.958 2.958 0 0 0-1.26.226 3.513 3.513 0 0 0-2.281 2.84c-.157 1.102-.293 2.334-1.158 3.14a3.566 3.566 0 0 1-2.156.855c-4.124.328-6.531-2.84-7.253-6.538zM201.43 33.175c-2.791 2.299-1.824 7.218 2.069 7.417a4.09 4.09 0 0 0 3.046-7.027c-1.322-1.255-3.684-1.587-5.115-.39zM211.585 29.648c-2.791 2.303-1.825 7.222 2.068 7.417a4.087 4.087 0 0 0 4.218-4.882 4.08 4.08 0 0 0-1.172-2.14c-1.315-1.27-3.667-1.602-5.114-.395zM222.309 33.297c-2.473 1.521-2.023 5.376.6 6.53 1.95.859 4.518-.264 5.209-2.277 1.252-3.632-2.819-6.098-5.809-4.253zM195.606 42.584c-2.473 1.525-2.023 5.376.6 6.53 1.95.86 4.518-.26 5.209-2.277 1.252-3.632-2.819-6.095-5.809-4.253zM89.275 72.8a12.503 12.503 0 0 1 3.008-4.11c6.782-6.056 16.431-3.035 19.536 5.135.86 2.198 1.101 4.59.698 6.915-.457 2.39-1.793 4.727-3.687 5.837-1.895 1.109-4.295.823-5.502-.95a7.55 7.55 0 0 1-1.096-2.553c-.191-.928-.38-1.884-1.161-2.516a2.905 2.905 0 0 0-1.162-.544 3.488 3.488 0 0 0-3.489.984c-.767.806-1.594 1.744-2.763 1.877a3.573 3.573 0 0 1-2.264-.548c-3.562-2.117-3.694-6.094-2.118-9.527zM100.181 55.412c-3.604.255-5.68 4.818-2.624 7.243a4.186 4.186 0 0 0 4.651.297 4.182 4.182 0 0 0 1.908-4.25c-.331-1.779-2.062-3.419-3.935-3.29zM110.517 58.443c-3.604.251-5.68 4.815-2.624 7.24a4.186 4.186 0 0 0 4.647.296 4.189 4.189 0 0 0 1.912-4.236c-.331-1.793-2.062-3.433-3.935-3.3zM117.122 67.65c-2.899-.195-4.773 3.203-3.307 5.666 1.088 1.832 3.837 2.407 5.582 1.172 3.112-2.229 1.231-6.6-2.275-6.837zM89.99 59.7c-2.9-.196-4.77 3.202-3.308 5.665 1.089 1.832 3.838 2.41 5.582 1.172 3.109-2.229 1.232-6.6-2.274-6.838zM553.985 72.021a12.574 12.574 0 0 1 3.984-3.167c8.146-4.044 16.651 1.423 17.471 10.117a12.935 12.935 0 0 1-1.151 6.855c-1.047 2.184-2.972 4.072-5.093 4.654-2.122.583-4.361-.349-5.055-2.369a7.563 7.563 0 0 1-.381-2.752c.06-.95.133-1.923-.453-2.735a2.915 2.915 0 0 0-.974-.834 3.512 3.512 0 0 0-3.642.024c-.952.572-1.995 1.246-3.161 1.078a3.564 3.564 0 0 1-2.023-1.13c-2.861-2.976-1.94-6.845.478-9.74zM569.103 58.144c-3.541-.698-6.751 3.14-4.445 6.28a4.084 4.084 0 0 0 6.449.185c.53-.642.851-1.432.919-2.261.154-1.797-1.078-3.838-2.923-4.204zM578.271 63.798c-3.544-.697-6.75 3.14-4.444 6.28a4.08 4.08 0 0 0 4.403 1.52 4.085 4.085 0 0 0 2.965-3.592c.153-1.8-1.082-3.82-2.924-4.208zM582.198 74.426c-2.738-.956-5.446 1.828-4.685 4.591.565 2.051 3.056 3.335 5.055 2.603 3.607-1.326 2.965-6.036-.37-7.194zM558.142 59.581c-2.742-.956-5.446 1.825-4.686 4.588.562 2.055 3.056 3.335 5.055 2.603 3.604-1.323 2.952-6.036-.369-7.19zM382.996 76.456c.248-1.699.841-3.33 1.744-4.79 4.808-7.72 14.914-7.532 20.179-.561a12.952 12.952 0 0 1 2.623 6.44c.241 2.417-.394 5.023-1.894 6.628-1.5 1.605-3.89 2-5.544.635a7.464 7.464 0 0 1-1.768-2.142c-.451-.834-.897-1.702-1.825-2.093a2.945 2.945 0 0 0-1.266-.195 3.511 3.511 0 0 0-3.088 1.932c-.509.988-1.047 2.093-2.121 2.575a3.563 3.563 0 0 1-2.317.105c-4.025-1.016-5.26-4.8-4.723-8.534zM388.573 56.703c-3.388 1.259-4.096 6.22-.482 7.675a4.085 4.085 0 0 0 5.181-5.635c-.82-1.604-2.937-2.693-4.699-2.04zM399.342 56.703c-3.387 1.259-4.095 6.22-.481 7.675a4.084 4.084 0 0 0 5.181-5.635c-.817-1.604-2.938-2.693-4.7-2.04zM408.266 63.683c-2.833.628-3.674 4.417-1.577 6.367 1.56 1.451 4.354 1.235 5.669-.44 2.376-3.02-.659-6.684-4.092-5.927zM379.998 63.683c-2.836.628-3.677 4.417-1.581 6.367 1.56 1.451 4.354 1.235 5.67-.44 2.375-3.02-.66-6.684-4.089-5.927z" fill="#fff"/>
            <path d="M155.121 121.194c-1.909 1.661-2.568 4.292-1.804 6.978a4.65 4.65 0 0 0 5.341 3.555c3.747-.049 5.446-3.489 7.326-6.489 1.424-2.463 3.622-4.214 6.144-5.467 3.255-1.619 6.559-3.087 9.89-4.567 1.459-.648 2.955-1.224 4.389-1.901 2.7-1.27 5.582-2.442 8.624-2.4 3.171.059 6.147 2.554 9.137.537 4.347-2.934 2.093-9.374-2.763-9.5" stroke="#fff" stroke-width="3.5" stroke-linecap="round" stroke-linejoin="round"/>
            <path d="M200.264 103.032a6.911 6.911 0 0 0 2.159-3.653c.398-3.946-2.347-6.492-5.843-7.092-3.946-.402-5.233 3.942-7.145 6.939-1.047 1.657-2.585 3.488-4.399 4.284l-3.44 1.528-9.821 4.361-6.325 2.791c-.836.427-1.72.753-2.634.969-2.264.437-4.315.028-6.482-.61-1.88-.555-3.781-.865-5.48.349-4.284 3.091-1.724 9.562 3.272 9.384" stroke="#fff" stroke-width="3.5" stroke-linecap="round" stroke-linejoin="round"/>
            <path d="m353.331 38.68-1.542.858-2.01.32-2.09-.32-1.493-1.166-1.053-1.409-.44-1.538.108-1.79.771-1.807 1.786-1.64 2.488-1.277 1.957-1.294 1.406-1.504 1.357-2.02 1.148-2.292 6.363-15.158 1.008-2.941.475-2.976-.223-3.105-.583-2.986-.258-2.153.258-2.533 1.462-2.379 1.706-1.493 2.662-.475 2.449 1.35 1.748 1.585.875 1.629.3 1.19 1.486-1.05 1.748-.465 1.957.258 2.212 1.228 1.476 2.348-.255 3.388-2.445 2.302L377.514.79l-2.351 1.699-1.671 2.096-1.431 3.322-7.183 16.878-1.203 3.415.041 3.039.726 3.426.628 3.032-.185 2.55-1.73 2.187-2.107.925-2.408.234-1.95-.409-1.845-1.455-1.12-1.849-.394-1.2z" fill="#fff"/>
            <path d="M494.301 15.522c-2.522.153-4.65 1.832-5.693 4.43a4.647 4.647 0 0 0 2.068 6.07c2.997 2.251 6.444.56 9.769-.655 2.63-1.085 5.439-1.127 8.198-.583 3.569.698 7.086 1.556 10.627 2.418 1.549.377 3.087.834 4.636 1.176 2.91.642 5.931 1.462 8.296 3.36 2.474 1.984 3.311 5.773 6.908 6 5.233.331 7.382-6.144 3.611-9.21" stroke="#fff" stroke-width="3.5" stroke-linecap="round" stroke-linejoin="round"/>
            <path d="M541.145 28.685a6.89 6.89 0 0 0 3.942-1.574c2.725-2.881 2.093-6.576-.297-9.186-2.881-2.724-6.562-.076-9.897 1.138-1.846.673-4.186 1.175-6.098.698l-3.66-.89-10.445-2.54-6.723-1.636a11.879 11.879 0 0 1-2.679-.837c-2.062-1.047-3.436-2.613-4.762-4.441-1.151-1.588-2.467-2.994-4.56-3.06-5.282-.164-7.204 6.524-3.14 9.42" stroke="#fff" stroke-width="3.5" stroke-linecap="round" stroke-linejoin="round"/>
            <path d="m201.573 101.825 1.713.426 1.688 1.137 1.308 1.661.297 1.87-.192 1.751-.726 1.423-1.301 1.235-1.793.799-2.428-.024-2.686-.761-2.317-.39-2.055.139-2.369.555-2.403.893-14.991 6.74-2.746 1.465-2.376 1.853-1.953 2.421-1.612 2.585-1.28 1.748-1.916 1.675-2.693.743-2.264-.07-2.271-1.469-.869-2.658-.199-2.352.471-1.789.59-1.071-1.8-.248-1.598-.851-1.253-1.525-.778-2.407.52-2.721 2.498-2.306 3.36-.014 2.895.75 2.879.363 2.651-.395 3.307-1.451 16.77-7.445 3.21-1.674 2.041-2.25 1.807-3 1.605-2.645 1.877-1.737 2.759-.423 2.17.76 1.919 1.473 1.151 1.63.353 2.323-.44 2.117-.53 1.141z" fill="#fff"/>
            <path d="M155.121 22.463c-1.909 1.661-2.568 4.292-1.804 6.978a4.65 4.65 0 0 0 5.341 3.555c3.747-.049 5.446-3.489 7.326-6.49 1.424-2.462 3.622-4.213 6.144-5.466 3.255-1.619 6.559-3.087 9.89-4.566 1.459-.65 2.955-1.225 4.389-1.902 2.7-1.27 5.582-2.442 8.624-2.4 3.171.06 6.147 2.554 9.137.537 4.347-2.934 2.093-9.374-2.763-9.5" stroke="#fff" stroke-width="3.5" stroke-linecap="round" stroke-linejoin="round"/>
            <path d="M200.264 4.301A6.912 6.912 0 0 0 202.423.65c.398-3.946-2.347-6.493-5.843-7.093-3.946-.401-5.233 3.942-7.145 6.94-1.047 1.656-2.585 3.488-4.399 4.283l-3.44 1.528-9.821 4.361-6.325 2.809c-.836.427-1.72.752-2.634.97-2.264.436-4.315.027-6.482-.611-1.88-.555-3.781-.865-5.48.349-4.284 3.09-1.724 9.562 3.272 9.384" stroke="#fff" stroke-width="3.5" stroke-linecap="round" stroke-linejoin="round"/>
            <path d="m201.573 3.095 1.713.426 1.688 1.137 1.308 1.66.297 1.87-.192 1.752-.726 1.423-1.301 1.235-1.793.8-2.428-.022-2.686-.764-2.317-.39-2.055.14-2.369.554-2.403.893-14.991 6.74-2.746 1.465-2.376 1.853-1.953 2.421-1.612 2.585-1.28 1.748-1.916 1.674-2.693.744-2.264-.07-2.271-1.469-.869-2.658-.199-2.352.471-1.79.59-1.07-1.8-.248-1.598-.851-1.253-1.525-.778-2.407.52-2.721 2.498-2.306 3.36-.014 2.895.753 2.879.36 2.651-.394 3.307-1.452 16.77-7.445 3.21-1.674 2.041-2.25 1.807-3 1.605-2.645 1.877-1.737 2.759-.423 2.17.76 1.919 1.473 1.151 1.63.353 2.323-.44 2.114-.53 1.144z" fill="#fff"/>
            <path d="M65.061.31c-2.25-1.148-4.936-.782-7.152.931a4.654 4.654 0 0 0-1.297 6.28c1.433 3.457 5.271 3.75 8.76 4.392 2.819.405 5.26 1.79 7.364 3.66 2.715 2.418 5.314 4.933 7.93 7.473 1.144 1.113 2.236 2.285 3.398 3.363 2.184 2.03 4.368 4.267 5.446 7.106 1.13 2.966-.073 6.653 2.913 8.677 4.343 2.937 9.475-1.553 7.78-6.11" stroke="#fff" stroke-width="3.5" stroke-linecap="round" stroke-linejoin="round"/>
            <path d="M98.758 35.417a6.884 6.884 0 0 0 4.187.638c3.809-1.099 5.149-4.598 4.403-8.066-1.099-3.81-5.617-3.394-9.106-4.04-1.93-.348-4.186-1.102-5.617-2.48l-2.693-2.637-7.713-7.487-4.965-4.821A11.863 11.863 0 0 1 75.37 4.43c-1.249-1.94-1.636-3.994-1.849-6.244-.188-1.95-.61-3.838-2.383-4.947-4.465-2.823-9.517 1.967-7.486 6.537" stroke="#fff" stroke-width="3.5" stroke-linecap="round" stroke-linejoin="round"/>
            <path d="m100.362 36.178.248 1.75-.426 1.99-1.053 1.834-1.622.97-1.696.478-1.594-.143-1.63-.746-1.409-1.368-.886-2.26-.297-2.778-.502-2.292-.893-1.856-1.399-1.988-1.723-1.898-11.852-11.394-2.382-2-2.606-1.513-2.976-.907-2.997-.534-2.1-.534-2.271-1.155-1.692-2.218-.782-2.128.517-2.655 2.142-1.8 2.107-1.061 1.835-.23 1.217.15-.446-1.766.195-1.8.946-1.73 1.943-1.619 2.721-.534 3.067 1.459 1.27 3.108.383 2.969.736 2.805 1.357 2.313 2.582 2.526 13.163 12.779 2.752 2.355 2.85 1.053 3.455.558 3.056.503 2.313 1.092 1.419 2.403.105 2.296-.649 2.33-1.081 1.675-2.027 1.197-2.125.38-1.263-.066z" fill="#fff"/>
            <path d="M63.665 145.789c-2.25-1.148-4.937-.782-7.152.931a4.655 4.655 0 0 0-1.298 6.28c1.434 3.457 5.272 3.75 8.76 4.392 2.82.405 5.261 1.79 7.365 3.66 2.714 2.418 5.313 4.933 7.93 7.473 1.144 1.113 2.236 2.285 3.398 3.363 2.184 2.03 4.367 4.266 5.445 7.106 1.13 2.966-.073 6.653 2.914 8.677 4.343 2.937 9.475-1.553 7.78-6.109" stroke="#fff" stroke-width="3.5" stroke-linecap="round" stroke-linejoin="round"/>
            <path d="M97.362 180.896a6.881 6.881 0 0 0 4.186.638c3.81-1.099 5.15-4.598 4.403-8.066-1.099-3.809-5.617-3.394-9.105-4.039-1.93-.349-4.187-1.103-5.617-2.481l-2.694-2.637-7.713-7.487-4.964-4.821a11.886 11.886 0 0 1-1.884-2.094c-1.25-1.939-1.636-3.994-1.85-6.244-.188-1.951-.61-3.838-2.382-4.947-4.466-2.823-9.517 1.967-7.487 6.537" stroke="#fff" stroke-width="3.5" stroke-linecap="round" stroke-linejoin="round"/>
            <path d="m98.968 181.656.248 1.751-.426 1.989-1.054 1.835-1.622.97-1.696.478-1.594-.143-1.629-.747-1.41-1.367-.886-2.258-.296-2.78-.502-2.292-.894-1.856-1.398-1.989-1.724-1.898-11.851-11.394-2.383-1.999-2.606-1.514-2.976-.907-2.997-.534-2.1-.533-2.27-1.155-1.693-2.219-.781-2.128.516-2.651 2.142-1.804 2.107-1.061 1.835-.23 1.218.15-.447-1.765.196-1.8.945-1.731 1.943-1.622 2.722-.53 3.066 1.458 1.27 3.109.384 2.968.736 2.805 1.357 2.313 2.581 2.526 13.163 12.779 2.753 2.355 2.85 1.054 3.454.558 3.056.502 2.313 1.092 1.42 2.404.105 2.295-.649 2.331-1.082 1.674-2.027 1.197-2.124.38-1.263-.066z" fill="#fff"/>
            <path d="M202.379 222.223c1.996-1.552 2.791-4.141 2.195-6.873a4.655 4.655 0 0 0-5.136-3.837c-3.743-.164-5.634 3.182-7.696 6.067-1.559 2.379-3.837 4.001-6.44 5.111-3.339 1.433-6.723 2.717-10.117 4.008-1.493.565-3.018 1.047-4.49 1.65-2.763 1.117-5.718 2.142-8.743 1.916-3.164-.238-5.993-2.896-9.091-1.047-4.508 2.686-2.62 9.241 2.222 9.639M256.516 175.381c-1.427-2.093-3.963-3.046-6.73-2.599a4.645 4.645 0 0 0-4.138 4.884c-.383 3.726 2.84 5.812 5.6 8.045 2.281 1.695 3.764 4.082 4.716 6.73 1.235 3.418 2.313 6.872 3.398 10.35.478 1.525.876 3.077 1.396 4.581.949 2.826 1.797 5.833 1.395 8.844-.425 3.14-3.248 5.809-1.587 9.011 2.411 4.658 9.071 3.164 9.768-1.646" stroke="#fff" stroke-width="3.5" stroke-linecap="round" stroke-linejoin="round"/>
            <path d="M269.349 222.318a6.91 6.91 0 0 0 3.381 2.564c3.872.855 6.719-1.58 7.72-4.982.851-3.876-3.314-5.665-6.07-7.898-1.528-1.235-3.161-2.972-3.751-4.863l-1.119-3.597a3878.037 3878.037 0 0 1-3.193-10.274 818.063 818.063 0 0 1-2.058-6.608 11.83 11.83 0 0 1-.663-2.725c-.171-2.302.471-4.294 1.357-6.37.768-1.804 1.295-3.656.272-5.484-2.578-4.612-9.3-2.819-9.702 2.163" stroke="#fff" stroke-width="3.5" stroke-linecap="round" stroke-linejoin="round"/>
            <path d="m270.397 223.751-.618 1.657-1.325 1.542-1.801 1.109-1.89.077-1.717-.391-1.333-.886-1.074-1.434-.586-1.873.3-2.407 1.067-2.585.656-2.254.098-2.055-.276-2.418-.61-2.491-4.968-15.671-1.137-2.892-1.567-2.578-2.18-2.219-2.383-1.898-1.587-1.472-1.445-2.097-.425-2.759.331-2.243 1.72-2.083 2.742-.562 2.359.077 1.719.673.998.712.454-1.762 1.029-1.486 1.657-1.071 2.484-.495 2.644.83 1.999 2.746-.369 3.338-1.082 2.791-.691 2.816.084 2.679 1.061 3.457 5.463 17.513 1.291 3.384 2.002 2.285 2.77 2.142 2.442 1.902 1.511 2.062.098 2.787-1.005 2.069-1.682 1.737-1.751.956-2.351.084-2.048-.684-1.078-.659z" fill="#fff"/>
            <path d="M548.607 175.213c-1.577-1.978-4.187-2.752-6.897-2.093a4.653 4.653 0 0 0-3.782 5.181c-.115 3.746 3.251 5.582 6.161 7.622 2.397 1.532 4.047 3.807 5.187 6.378 1.476 3.324 2.791 6.691 4.131 10.082.583 1.486 1.092 3.007 1.706 4.469 1.148 2.753 2.208 5.69 2.016 8.722-.198 3.164-2.818 6.028-.934 9.102 2.738 4.472 9.269 2.508 9.607-2.341" stroke="#fff" stroke-width="3.5" stroke-linecap="round" stroke-linejoin="round"/>
            <path d="M564.762 221.11a6.92 6.92 0 0 0 3.555 2.32c3.925.572 6.59-2.058 7.326-5.522.576-3.925-3.708-5.415-6.628-7.445-1.612-1.124-3.364-2.739-4.086-4.584l-1.395-3.489-3.925-10.009c-.84-2.149-1.681-4.297-2.526-6.444a11.733 11.733 0 0 1-.854-2.669c-.349-2.285.163-4.315.896-6.45.639-1.856 1.047-3.74-.118-5.491-2.903-4.417-9.479-2.146-9.525 2.853" stroke="#fff" stroke-width="3.5" stroke-linecap="round" stroke-linejoin="round"/>
            <path d="m565.909 222.467-.499 1.695-1.211 1.637-1.716 1.235-1.88.212-1.741-.268-1.392-.789-1.176-1.353-.715-1.828.126-2.422.879-2.654.492-2.296-.049-2.055-.447-2.393-.788-2.439-6.078-15.277-1.339-2.805-1.748-2.456-2.334-2.058-2.508-1.723-1.689-1.354-1.591-1.988-.624-2.725.171-2.261 1.566-2.201 2.693-.754 2.359-.094 1.765.548 1.047.638.324-1.789.925-1.556 1.573-1.183 2.439-.673 2.7.638 2.191 2.596-.133 3.356-.879 2.86-.488 2.861.279 2.666 1.305 3.37 6.698 17.08 1.531 3.28 2.16 2.138 2.916 1.936 2.575 1.724 1.654 1.95.296 2.773-.851 2.136-1.556 1.852-1.678 1.078-2.337.251-2.097-.534-1.12-.582z" fill="#fff"/>
            <path d="M355.662 144.283c-2.383-.852-4.999-.14-6.977 1.845a4.651 4.651 0 0 0-.478 6.395c1.873 3.241 5.711 3.038 9.252 3.227 2.846.038 5.446 1.099 7.773 2.683 3.003 2.047 5.902 4.207 8.822 6.387 1.281.956 2.516 1.978 3.807 2.899 2.442 1.745 4.884 3.671 6.314 6.346 1.5 2.791.782 6.608 4.002 8.23 4.688 2.355 9.199-2.759 6.932-7.057" stroke="#fff" stroke-width="3.5" stroke-linecap="round" stroke-linejoin="round"/>
            <path d="M393.591 174.777a6.871 6.871 0 0 0 4.242.094c3.639-1.581 4.518-5.233 3.328-8.565-1.58-3.635-6.004-2.644-9.545-2.833-1.964-.104-4.305-.554-5.892-1.744l-3.015-2.25-8.613-6.433-5.558-4.155a11.904 11.904 0 0 1-2.135-1.821c-1.489-1.762-2.135-3.754-2.637-5.956-.44-1.911-1.099-3.719-3-4.601-4.794-2.223-9.183 3.178-6.584 7.448" stroke="#fff" stroke-width="3.5" stroke-linecap="round" stroke-linejoin="round"/>
            <path d="m395.282 175.31.471 1.703-.168 2.026-.806 1.958-1.486 1.172-1.619.687-1.598.066-1.713-.53-1.576-1.176-1.166-2.128-.652-2.714-.792-2.212-1.127-1.723-1.643-1.793-1.954-1.661-13.218-9.775-2.62-1.675-2.781-1.165-3.066-.52-3.042-.139-2.149-.262-2.401-.851-1.964-1.985-1.05-2.01.171-2.697 1.894-2.061 1.954-1.323 1.79-.464 1.224-.01-.67-1.692-.034-1.807.711-1.839 1.72-1.859 2.631-.876 3.23 1.047 1.657 2.923.761 2.892 1.095 2.687 1.64 2.121 2.889 2.173 14.694 10.979 3.035 1.982 2.959.676 3.499.109 3.094.108 2.435.785 1.717 2.198.401 2.264-.346 2.396-.858 1.797-1.852 1.448-2.062.652-1.259.098z" fill="#fff"/>
            <path d="M492.833 75.329c1.842-1.745 2.403-4.386 1.538-7.047a4.65 4.65 0 0 0-5.474-3.343c-3.743.192-5.309 3.698-7.092 6.765-1.329 2.515-3.457 4.347-5.931 5.693-3.188 1.745-6.436 3.34-9.709 4.944-1.434.698-2.906 1.336-4.315 2.065-2.648 1.371-5.488 2.669-8.523 2.728-3.175.06-6.241-2.32-9.151-.188-4.235 3.094-1.744 9.444 3.119 9.385" stroke="#fff" stroke-width="3.5" stroke-linecap="round" stroke-linejoin="round"/>
            <path d="M448.428 95.196a6.913 6.913 0 0 0-2.02 3.733c-.251 3.956 2.592 6.398 6.109 6.866 3.956.251 5.09-4.141 6.872-7.208.991-1.695 2.443-3.576 4.236-4.448l3.38-1.657 9.65-4.734 6.213-3.046c.82-.458 1.691-.818 2.596-1.07 2.247-.524 4.312-.193 6.499.366 1.902.481 3.813.718 5.464-.573 4.162-3.251 1.36-9.621-3.625-9.255" stroke="#fff" stroke-width="3.5" stroke-linecap="round" stroke-linejoin="round"/>
            <path d="m447.156 96.449-1.731-.36-1.727-1.07-1.374-1.612-.363-1.856.122-1.755.673-1.451 1.249-1.284 1.766-.865 2.424-.074 2.718.66 2.327.303 2.048-.216 2.344-.645 2.369-.984 14.726-7.309 2.686-1.566 2.306-1.944 1.856-2.494 1.514-2.641 1.211-1.797 1.852-1.748 2.662-.844 2.268-.014 2.323 1.378.97 2.627.29 2.341-.405 1.804-.548 1.095 1.811.178 1.625.792 1.309 1.472.872 2.376-.419 2.742-2.407 2.397-3.353.143-2.923-.642-2.892-.251-2.634.495-3.252 1.577-16.47 8.077-3.146 1.796-1.954 2.327-1.692 3.063-1.504 2.707-1.807 1.808-2.742.526-2.198-.676-1.974-1.399-1.211-1.584-.443-2.31.363-2.131.485-1.162z" fill="#fff"/>
            <path d="M374.074-6.823c.258-2.512-1.046-4.884-3.447-6.336a4.657 4.657 0 0 0-6.328 1.047c-2.704 2.592-1.594 6.28-.938 9.768.641 2.77.23 5.55-.758 8.185-1.276 3.405-2.686 6.736-4.113 10.089-.624 1.472-1.322 2.913-1.911 4.385-1.106 2.77-2.404 5.61-4.661 7.64-2.362 2.122-6.235 2.33-7.044 5.844-1.176 5.11 4.863 8.282 8.498 5.059" stroke="#fff" stroke-width="3.5" stroke-linecap="round" stroke-linejoin="round"/>
            <path d="M353.477 37.263a6.892 6.892 0 0 0 .914 4.145c2.4 3.157 6.147 3.14 9.112 1.197 3.14-2.4 1.141-6.462.485-9.947-.349-1.933-.485-4.312.29-6.136l1.472-3.465 4.186-9.893 2.708-6.37c.319-.883.742-1.724 1.259-2.506 1.361-1.866 3.14-2.965 5.156-3.977 1.745-.879 3.353-1.95 3.758-4.005 1.022-5.184-5.265-8.167-8.795-4.63" stroke="#fff" stroke-width="3.5" stroke-linecap="round" stroke-linejoin="round"/>
            <path d="m353.344 39.035-1.542.858-2.01.321-2.089-.317-1.493-1.169-1.054-1.406-.443-1.538.108-1.79.768-1.807 1.789-1.64 2.484-1.28 1.957-1.294 1.406-1.504 1.354-2.02 1.148-2.296 6.356-15.158 1.005-2.944.474-2.976-.227-3.102-.582-2.99-.262-2.152.258-2.533 1.462-2.38 1.703-1.492 2.661-.478 2.453 1.35 1.748 1.584.876 1.625.3 1.19 1.486-1.05 1.748-.467 1.957.258 2.212 1.228 1.475 2.344-.251 3.391-2.445 2.303-2.627 1.427-2.352 1.699-1.671 2.1-1.427 3.317-7.173 16.886-1.203 3.415.045 3.039.726 3.426.631 3.028-.185 2.55-1.73 2.19-2.104.929-2.407.234-1.95-.409-1.846-1.454-1.123-1.85-.394-1.196zM269.14 79.194l-.617 1.653-1.322 1.55-1.797 1.112-1.891.08-1.716-.387-1.333-.886-1.082-1.43-.586-1.874.297-2.41 1.06-2.582.653-2.257.094-2.055-.283-2.418-.614-2.487-4.995-15.664-1.145-2.892-1.573-2.572-2.184-2.215-2.383-1.894-1.591-1.469L244.685 36l-.433-2.76.328-2.242 1.716-2.087 2.742-.565 2.359.073 1.723.67.998.709.447-1.762 1.029-1.49 1.657-1.071 2.48-.502 2.645.826 2.006 2.743-.367 3.338-1.074 2.791-.687 2.82.09 2.678 1.068 3.454 5.494 17.503 1.298 3.38 2.006 2.285 2.774 2.136 2.445 1.897 1.514 2.059.105 2.79-.998 2.07-1.681 1.74-1.752.956-2.347.088-2.052-.677-1.078-.656z" fill="#fff"/>
            <path d="M255.384 31.116c-1.437-2.094-3.973-3.035-6.737-2.582a4.645 4.645 0 0 0-4.127 4.905c-.376 3.73 2.854 5.805 5.617 8.024 2.289 1.692 3.775 4.075 4.738 6.72 1.238 3.418 2.327 6.868 3.422 10.343.478 1.525.883 3.077 1.396 4.577.956 2.826 1.81 5.83 1.395 8.84-.415 3.14-3.23 5.816-1.563 9.016 2.421 4.653 9.071 3.14 9.748-1.672" stroke="#fff" stroke-width="3.5" stroke-linecap="round" stroke-linejoin="round"/>
            <path d="M268.331 78.021a6.894 6.894 0 0 0 3.384 2.557c3.876.845 6.719-1.597 7.71-5.002.844-3.876-3.325-5.659-6.088-7.885-1.532-1.231-3.168-2.962-3.761-4.853l-1.13-3.593-3.224-10.253c-.698-2.2-1.39-4.4-2.076-6.6a11.673 11.673 0 0 1-.666-2.725c-.178-2.303.461-4.295 1.34-6.374.764-1.807 1.284-3.66.258-5.485-2.589-4.608-9.308-2.79-9.695 2.188" stroke="#fff" stroke-width="3.5" stroke-linecap="round" stroke-linejoin="round"/>
            <path d="m542.917 28.527 1.102 1.385.642 1.93.025 2.114-.911 1.66-1.217 1.27-1.445.687-1.782.185-1.912-.464-1.908-1.5-1.665-2.243-1.594-1.724-1.713-1.14-2.212-1.009-2.449-.76-15.992-3.81-3.07-.512-3.014.017-3.025.726-2.854 1.064-2.079.603-2.54.157-2.588-1.053-1.751-1.441-.901-2.547.932-2.64 1.28-1.982 1.462-1.13 1.123-.49-1.276-1.294-.744-1.65-.062-1.97.851-2.384 2.076-1.835 3.384-.303 2.669 2.037 1.835 2.362 2.058 2.044 2.344 1.305 3.506.869 17.828 4.336 3.565.635 2.99-.537 3.262-1.273 2.885-1.117 2.547-.23 2.442 1.35 1.256 1.926.624 2.337-.087 1.992-1.134 2.059-1.643 1.406-1.12.582zM490.436 214.512l1.713.422 1.688 1.138 1.309 1.66.296 1.87-.192 1.752-.725 1.423-1.302 1.235-1.793.799-2.428-.025-2.69-.76-2.313-.391-2.054.14-2.369.554-2.404.894-14.991 6.74-2.745 1.465-2.376 1.852-1.954 2.422-1.612 2.585-1.28 1.748-1.915 1.674-2.694.743-2.264-.07-2.271-1.468-.869-2.659-.198-2.351.471-1.79.589-1.071-1.8-.247-1.598-.852-1.252-1.524-.778-2.407.52-2.722 2.497-2.306 3.36-.014 2.896.754 2.878.359 2.651-.394 3.308-1.451 16.77-7.445 3.209-1.675 2.041-2.25 1.807-3 1.605-2.645 1.877-1.737 2.76-.422 2.169.76 1.919 1.473 1.152 1.629.352 2.323-.44 2.115-.53 1.147z" fill="#fff"/>
            <path d="M489.127 215.716a6.88 6.88 0 0 0 2.156-3.652c.401-3.946-2.344-6.493-5.84-7.093-3.946-.401-5.233 3.942-7.145 6.939-1.046 1.657-2.585 3.489-4.399 4.284l-3.44 1.528-9.82 4.361-6.325 2.791c-.836.427-1.721.753-2.634.97-2.264.436-4.316.028-6.482-.61-1.881-.555-3.782-.866-5.481.348-4.284 3.091-1.723 9.563 3.272 9.385" stroke="#fff" stroke-width="3.5" stroke-linecap="round" stroke-linejoin="round"/>
            <path d="M30.235 205.61c-5.645 2.093-6.824 10.365-.802 12.807a6.978 6.978 0 0 0 7.574-1.699 6.977 6.977 0 0 0 1.046-7.675c-1.35-2.707-4.88-4.522-7.818-3.433zM109.428 115.951c-5.644 2.093-6.823 10.365-.802 12.807a6.987 6.987 0 0 0 4.045.301 6.985 6.985 0 0 0 3.529-2 6.977 6.977 0 0 0 1.047-7.675c-1.351-2.708-4.881-4.522-7.819-3.433zM180.249 177.003c-5.645 2.093-6.824 10.365-.803 12.807a6.812 6.812 0 0 0 8.635-9.388c-1.364-2.694-4.895-4.508-7.832-3.419zM241.354 209.618c-3.367 1.249-4.071 6.186-.478 7.644a4.063 4.063 0 0 0 5.557-3.208 4.057 4.057 0 0 0-.401-2.395c-.816-1.608-2.923-2.693-4.678-2.041zM265.721 108.276c-5.644 2.093-6.823 10.364-.802 12.807a6.811 6.811 0 0 0 8.635-9.389c-1.365-2.693-4.895-4.507-7.833-3.418zM234.363 113.439c-2.365.875-2.857 4.34-.349 5.362a2.857 2.857 0 0 0 3.171-.713 2.859 2.859 0 0 0 .447-3.219c-.562-1.127-2.041-1.887-3.269-1.43zM27.147 158.683c-3.367 1.249-4.071 6.185-.478 7.644a4.19 4.19 0 0 0 4.535-1.016 4.185 4.185 0 0 0 .635-4.587c-.83-1.608-2.937-2.693-4.692-2.041zM2.016 152.861c-2.366.876-2.858 4.34-.35 5.362a2.926 2.926 0 0 0 3.172-.698 2.925 2.925 0 0 0 .446-3.22c-.561-1.141-2.04-1.901-3.268-1.444zM322.936 205.61c-5.644 2.093-6.824 10.365-.802 12.807a6.812 6.812 0 0 0 9.305-5.378 6.807 6.807 0 0 0-.671-4.01c-1.364-2.693-4.894-4.507-7.832-3.419zM402.13 115.951c-5.645 2.093-6.824 10.365-.803 12.807a6.812 6.812 0 0 0 8.635-9.388c-1.364-2.693-4.895-4.508-7.832-3.419zM465.807 175.321c-5.644 2.093-6.824 10.365-.802 12.807a6.812 6.812 0 0 0 9.305-5.378 6.807 6.807 0 0 0-.671-4.01c-1.364-2.693-4.894-4.507-7.832-3.419zM520.868 118.193c-3.367 1.249-4.072 6.185-.478 7.643a4.063 4.063 0 0 0 5.156-5.602c-.816-1.609-2.924-2.694-4.678-2.041zM534.055 209.618c-3.366 1.249-4.071 6.186-.478 7.644a4.065 4.065 0 0 0 5.157-5.603c-.817-1.608-2.924-2.693-4.679-2.041zM558.423 108.276c-5.645 2.093-6.824 10.364-.803 12.807a6.811 6.811 0 0 0 8.635-9.389c-1.364-2.693-4.895-4.507-7.832-3.418zM569.973 185.305c-2.366.876-2.858 4.34-.349 5.362.538.218 1.13.267 1.696.139a2.854 2.854 0 0 0 1.922-4.07c-.562-1.127-2.041-1.888-3.269-1.431zM294.717 152.861c-2.366.876-2.857 4.34-.349 5.362a2.854 2.854 0 0 0 3.618-3.932c-.562-1.126-2.041-1.887-3.269-1.43zM30.235 60.83c-5.645 2.093-6.824 10.365-.802 12.807a6.977 6.977 0 0 0 7.574-1.7 6.977 6.977 0 0 0 1.046-7.674c-1.35-2.708-4.88-4.522-7.818-3.433zM172.225 61.875c-5.644 2.093-6.824 10.365-.802 12.807a6.81 6.81 0 0 0 8.634-9.388c-1.364-2.693-4.894-4.507-7.832-3.419zM105.295-1.448c-3.366 1.249-4.071 6.185-.478 7.644a4.189 4.189 0 0 0 4.536-1.015 4.19 4.19 0 0 0 .635-4.588c-.831-1.608-2.938-2.693-4.693-2.041zM241.354 64.838c-3.367 1.25-4.071 6.186-.478 7.644a4.063 4.063 0 0 0 5.156-5.603c-.816-1.608-2.923-2.693-4.678-2.04zM130.748 42.27c-2.365.875-2.857 4.34-.349 5.362a2.855 2.855 0 0 0 3.628-3.932c-.572-1.127-2.051-1.887-3.279-1.43zM2.016 8.08c-2.366.876-2.858 4.34-.35 5.362a2.927 2.927 0 0 0 3.172-.697 2.927 2.927 0 0 0 .446-3.22c-.561-1.141-2.04-1.902-3.268-1.445zM322.936 60.83c-5.644 2.093-6.824 10.365-.802 12.807a6.81 6.81 0 0 0 8.634-9.388c-1.364-2.694-4.894-4.508-7.832-3.42zM472.95 32.222c-5.645 2.094-6.824 10.365-.802 12.807a6.807 6.807 0 0 0 7.571-1.7 6.81 6.81 0 0 0 1.063-7.688c-1.364-2.693-4.895-4.507-7.832-3.419zM319.848 13.903c-3.366 1.249-4.071 6.185-.478 7.643a4.066 4.066 0 0 0 5.558-3.208 4.064 4.064 0 0 0-.402-2.395c-.816-1.608-2.923-2.693-4.678-2.04z" fill="#fff"/>
        </g>
    </g>
</svg>
