<svg width="51" height="49" fill="none" xmlns="http://www.w3.org/2000/svg">
    <g opacity=".4" fill="#fff">
        <path d="M29.379 28.643c-1.765-9.088-10.091-13.219-18.588-11.61.974-5.099 5.748-9.268 8.85-13.144.44-.55.667-1.516 0-2.034C18.006.585 16.48.189 15.073.389c-.097-.267-.355-.466-.69-.36C9.391 1.6 6.16 6.93 3.996 11.349 1.144 17.181-.287 23.931.048 30.412c.529 10.216 9.65 19.957 20.51 17.12 7.93-2.07 10.18-11.885 8.82-18.888zM9.057 36.818c0-.004.003-.006.004-.009.05-.191.092-.385.137-.578.147.19.28.4.398.63-.186.024-.367.04-.54.043-.002-.03.002-.057 0-.086zM6.76 12.844c.13.056.27.091.414.105-.424.85-.815 1.716-1.168 2.601a1.546 1.546 0 0 0-.43-.063c.358-.895.76-1.774 1.184-2.643zM5.67 38.775c.341.353.708.691 1.089 1.017a1.379 1.379 0 0 0-.146.236 11.3 11.3 0 0 1-.943-1.253zm9.796-.035a5.893 5.893 0 0 1-.976-1.89.402.402 0 0 0-.049-.153 5.478 5.478 0 0 1-.147-.732c.718.976 1.295 2.062 1.83 3.16a3.882 3.882 0 0 1-.658-.385z"/>
        <path d="M31.034 15.39c.96-3.879 3.58-6.557 5.483-10.056.31-.569.188-1.454-.46-1.755-1.184-.55-2.249-1.16-3.433-1.614-.359-.764-1.441-1.266-2.27-.52-1.465 1.321-3.065 3.015-4.343 4.907-1.695 2.079-2.912 4.602-3.316 7.03-.048.287.002.579.114.844-.06.106-.122.21-.184.317-.309.536-.133 1.257.411 1.567 6.452 3.679 9.12 9.668 8.93 15.979-.326.92-.41 1.915-.285 2.914-.522 3.176-1.718 6.356-3.484 9.293-.396.66-.248 1.277.139 1.696.101.33.368.61.847.718 10.285 2.323 20.632-2.6 21.748-13.82 1.038-10.442-9.839-19.242-19.897-17.5zm3.913 29.017c.036-.034.068-.071.104-.106.944-.074 1.807-.339 2.54-.766.009.037.014.07.023.107.024.1.075.177.116.263-.907.231-1.838.402-2.783.502zm7.295-19.631c-.098.179-.183.358-.27.538-.007-.05-.008-.102-.015-.152a5.34 5.34 0 0 1 .18-1.145c.01.008.022.014.033.021.052.216.094.435.127.658-.017.028-.04.05-.055.08zm4.913 11.26c.004-.245 0-.492-.008-.74.16-.274.31-.555.436-.846a11.37 11.37 0 0 1-.428 1.586z"/>
    </g>
</svg>
