<svg width="51" height="49" fill="none" xmlns="http://www.w3.org/2000/svg">
    <g opacity=".4" fill="#fff">
        <path d="M29.379 28.749c-1.765-9.089-10.091-13.22-18.588-11.61.974-5.1 5.748-9.269 8.85-13.145.44-.55.667-1.516 0-2.034C18.006.69 16.48.294 15.073.495c-.097-.267-.355-.466-.69-.36-4.991 1.57-8.223 6.902-10.386 11.32C1.144 17.286-.287 24.037.048 30.517c.529 10.215 9.65 19.956 20.51 17.12 7.93-2.07 10.18-11.885 8.82-18.888zM9.057 36.923c0-.003.003-.005.004-.009.05-.191.092-.385.137-.578.147.19.28.4.398.63-.186.024-.367.04-.54.043-.002-.03.002-.057 0-.086zM6.76 12.95c.13.056.27.092.414.105-.424.851-.815 1.717-1.168 2.602a1.542 1.542 0 0 0-.43-.063c.358-.896.76-1.774 1.184-2.643zM5.67 38.882c.341.352.708.69 1.089 1.016a1.376 1.376 0 0 0-.146.236 11.29 11.29 0 0 1-.943-1.252zm9.796-.035a5.893 5.893 0 0 1-.976-1.891.401.401 0 0 0-.049-.152 5.481 5.481 0 0 1-.147-.732c.718.975 1.295 2.062 1.83 3.16a3.888 3.888 0 0 1-.658-.385z"/>
        <path d="M31.034 15.496c.96-3.88 3.58-6.558 5.483-10.057.31-.568.188-1.453-.46-1.754-1.184-.55-2.249-1.161-3.433-1.614-.359-.765-1.441-1.267-2.27-.52-1.465 1.32-3.065 3.014-4.343 4.906-1.695 2.08-2.912 4.603-3.316 7.03-.048.287.002.579.114.845-.06.106-.122.21-.184.317-.309.536-.133 1.256.411 1.567 6.452 3.678 9.12 9.668 8.93 15.978-.326.92-.41 1.915-.285 2.915-.522 3.175-1.718 6.355-3.484 9.292-.396.66-.248 1.277.139 1.696.101.33.368.61.847.718 10.285 2.323 20.632-2.599 21.748-13.82 1.038-10.442-9.839-19.242-19.897-17.499zm3.913 29.017c.036-.035.068-.072.104-.107.944-.073 1.807-.338 2.54-.765.009.036.014.07.023.107.024.1.075.177.116.263-.907.23-1.838.402-2.783.502zm7.295-19.632c-.098.18-.183.359-.27.539-.007-.05-.008-.102-.015-.153a5.34 5.34 0 0 1 .18-1.144l.033.02c.052.216.094.435.127.659-.017.027-.04.05-.055.08zm4.913 11.26c.004-.245 0-.492-.008-.74.16-.274.31-.555.436-.846a11.365 11.365 0 0 1-.428 1.587z"/>
    </g>
</svg>
