<svg width="414" height="926" fill="none" xmlns="http://www.w3.org/2000/svg">
    <mask id="a" style="mask-type:alpha" maskUnits="userSpaceOnUse" x="-1" y="0" width="416" height="926">
        <path fill="#C4C4C4" d="M-1 0h416v926H-1z"/>
    </mask>
    <g mask="url(#a)">
        <path d="M160.776 1.407C99.461-3.61 27.639 5.99-.608 11.417v87.02H415V1.407c-18.944 12.546-52.204 14.949-84.163 16.95-31.959 2.003-93.418-10.677-170.061-16.95z" fill="#9A55FB"/>
        <path d="M-.608 91.52H415V924H-.608V91.52z" fill="#9A55FB"/>
        <path d="M419.673 149.883h-.007a7.627 7.627 0 0 0-9.732-.9l-20.037-20.03a7.647 7.647 0 1 0-13.965-4.157 7.558 7.558 0 0 0-5.568 2.215 7.646 7.646 0 0 0 9.739 11.743l20.03 20.03a7.647 7.647 0 1 0 13.965 4.157 7.647 7.647 0 0 0 5.575-13.058z" fill="#ECDFFE" fill-opacity=".11"/>
        <path d="M51.178 464.672c-.83.186-1.653.461-2.448.818a32.65 32.65 0 0 1-6.107 1.669c-1.844.315-3.92.567-5.288 1.893-1.544 1.498-1.4 3.574-1.024 5.25a11.439 11.439 0 0 0 2.363 5.373c1.331 1.462 3.54 2.364 5.92 1.871a12.09 12.09 0 0 0 3.914-1.792 14.703 14.703 0 0 0 3.836-3.287c.72-.979 1.228-2.04 1.492-3.114a18.98 18.98 0 0 0 .443-5.132c-.02-1.831-.499-3.977-3.101-3.549zM31.561 452.364c-1.311 2.302-2.068 4.73-2.212 7.102-.131.936.07 1.823.575 2.536.391.376.906.636 1.498.756a4.272 4.272 0 0 0 1.887-.07 12.729 12.729 0 0 0 3.693-1.648c2.763-1.625 5.465-3.595 7.168-6.093.738-1.079 1.209-2.246 1.375-3.406.604-4.053-2.441-7.531-7.964-5.005-2.626 1.229-4.674 3.477-6.02 5.828zM26.319 441.601c-2.703-4.087-8.299-2.039-11.193 1.741-.83 1.074-1.398 2.256-1.662 3.451-.607 2.785.115 5.42 1.153 7.79a6.455 6.455 0 0 0 1.846 2.698c.43.362.98.599 1.6.691.62.092 1.291.036 1.95-.165a6.792 6.792 0 0 0 2.644-2.039c1.872-2.141 3.254-4.537 4.042-7.007.792-2.515.92-5.204-.38-7.16zM3.86 463.485a15.941 15.941 0 0 0 5.406-1.757 5.648 5.648 0 0 0 2.305-1.795c.156-.253.274-.517.35-.785.049-.168.085-.337.11-.505.352-2.148-.649-3.949-1.346-5.759-.749-1.935-.13-4.605-3.344-4.286a8.963 8.963 0 0 0-3.025.964 14.59 14.59 0 0 0-3.76 2.542 12.862 12.862 0 0 0-2.65 3.456c-.626 1.263-.857 2.585-.665 3.807a4.946 4.946 0 0 0 1.746 3.076c1.303.894 3.031 1.264 4.872 1.042zM31.328 494.672a12.571 12.571 0 0 0 3.345-3.075c.887-1.19 1.493-2.488 1.774-3.796.041-.251.074-.499.094-.729.134-2.138-.82-4.018-1.995-5.67-1.176-1.652-2.522-3.198-3.298-5.068-1.12-2.696-.98-6.12-3.827-7.745a10.3 10.3 0 0 0-2.403-.971 12.752 12.752 0 0 0-2.743-.299c-3.711.01-6.774 2.706-10.138 4.295-2.291 1.093-4.817 1.698-7.242 2.465-2.425.767-4.915 1.792-6.827 3.512-.219.199-.428.407-.627.621-1 1.131-1.737 2.397-2.157 3.702-.42 1.306-.513 2.616-.27 3.833.597 2.671 2.32 4.856 4.862 6.165 3.078 1.663 6.946 2.204 10.967 1.533.224-.049.447-.072.665-.068.173.093.326.209.456.343 2.479 2.276 5.965 3.55 9.882 3.612 3.182.094 6.545-.849 9.482-2.66zM383.719 843.333c-.325.396-.588.84-.783 1.322a12.989 12.989 0 0 1-2.198 3.086c-.788.823-1.743 1.69-1.609 2.93.152 1.399 1.596 2.542 2.901 3.376a15.627 15.627 0 0 0 4.81 2.269c1.681.378 3.467.128 4.426-.984a4.808 4.808 0 0 0 .934-2.392c.217-1.023.185-2.124-.092-3.227a7.22 7.22 0 0 0-1.243-2.311 22.15 22.15 0 0 0-3.137-3.107c-1.215-1.046-2.886-2.114-4.009-.962zM368.156 845.69c.805 1.778 1.993 3.437 3.475 4.851a4.645 4.645 0 0 0 1.977 1.258c.458.08.906.05 1.304-.087s.733-.376.973-.696a5.04 5.04 0 0 0 .908-2.232c.423-1.895.586-3.966-.138-5.994a7.1 7.1 0 0 0-1.497-2.436c-2.338-2.54-6.267-3.481-7.586-.108-.609 1.619-.235 3.624.584 5.444zM359.591 844.668c-3.967-1.329-5.583 1.64-4.712 4.656a6.683 6.683 0 0 0 1.305 2.429c1.433 1.717 3.462 2.912 5.487 3.858.849.443 1.75.735 2.651.857.45.054.885.002 1.264-.154.38-.155.692-.409.908-.736.256-.594.288-1.289.091-1.986-.373-1.785-1.161-3.547-2.302-5.153-1.168-1.631-2.79-3.137-4.692-3.771zM360.963 866.798a6.216 6.216 0 0 0 1.741-2.839c.237-.536.261-1.169.067-1.8a2.58 2.58 0 0 0-.32-.561 4.082 4.082 0 0 0-.268-.322c-1.2-1.33-2.895-2.002-4.435-2.783-1.648-.834-3.043-2.55-4.548-1.271-.463.426-.8.965-.986 1.578a6.215 6.215 0 0 0-.359 2.718 7.85 7.85 0 0 0 .822 2.853 6.707 6.707 0 0 0 2.105 2.372c.891.623 1.904 1.017 2.916 1.135 1.27.058 2.429-.325 3.265-1.08zM391.978 871.686c.162-.943.086-1.953-.221-2.954a8.222 8.222 0 0 0-1.553-2.822c-.144-.16-.291-.315-.432-.456-1.344-1.286-3.107-2.042-4.84-2.589-1.733-.547-3.488-.972-5.148-1.784-2.394-1.172-4.587-3.206-7.209-3.152a8.242 8.242 0 0 0-1.947.278 7.17 7.17 0 0 0-1.687.787c-2.007 1.305-1.883 3.94-2.655 6.039-.52 1.436-1.489 2.671-2.297 3.965-.808 1.293-1.479 2.76-1.377 4.426.013.192.037.386.07.58a7.841 7.841 0 0 0 1.283 2.902 9.043 9.043 0 0 0 2.394 2.317c2.093 1.34 4.477 2.003 6.723 1.873 2.772-.113 5.23-1.154 6.968-2.95a1.27 1.27 0 0 1 .315-.273c.156-.006.315.007.475.04 2.853.452 5.589-.03 7.756-1.365 1.789-1.059 2.989-2.783 3.382-4.862z" fill="#fff" fill-opacity=".1"/>
        <mask id="b" style="mask-type:alpha" maskUnits="userSpaceOnUse" x="-152" y="889" width="752" height="37">
            <path transform="matrix(1 0 0 -1 -152 926)" fill="#fff" d="M0 0h751.465v37H0z"/>
        </mask>
        <g mask="url(#b)" fill="#fff">
            <path d="M3.27 917.643c-1.067-.324-1.908-3.076-3.246-.456 1.348.485 1.905 1.672 1.494 3.48-.047.27-.137.524-.263.745a1.688 1.688 0 0 1-.468.535c-.182.132-.382.21-.587.228a1.085 1.085 0 0 1-.6-.12c-1.837-.916-3.246.408-4.756 1.359-1.668 1.583-2.944-.052-4.064-1.113-1.481-1.397-2.768-3.236-4.138-4.888-1.89 2-3.39 1.573-5.165-.571-1.28-1.543-3.4-1.546-4.925-2.987-.158-.153-.611.246-.924.389.9 2.763-1.942 3.308-1.883 5.574l4.02-2.849c-.968 2.178-1.434 5.986-4 2.782-1.147.226-1.839-1.252-3.15-1.363.19 2.63-.818 3.893-2.692 4.007l1.151 2.747a25.8 25.8 0 0 0 .016 2.466c.079.749-.78 2.191.529 2.097.902-.032.483-1.184.428-1.993-.255-3.11.918-3.04 2.538-2.07.773.46 1.337 1.864 2.33 1.307 2.634-1.467 3.205 1.084 3.921 3.419l.514-.236c.069-1.532.157-3.046 1.721-3.175-.633.809-1.02 1.904-1.084 3.066.148.047.295.082.447.116 2.222-1.67 4.391-3.812 6.993-1.288 1.415 1.169 2.522 1.643 3.95-.617 1.34-2.119 3.766-1.033 4.332 1.531.227 1.027.634.999 1.181.617.152-.133.322-.223.5-.265a.993.993 0 0 1 .532.02c.174.056.337.158.479.302.142.144.26.326.348.535l1.642 1.345c.917.013 1.873-.226 2.687.562 1.045-.037.584-.772.364-1.378-.88-2.473-.237-4.105 1.63-5.175.994 2.028 1.453 4.701 3.64 5.222.49.121.418.961.323 1.571l.448.122c.905-.349 1.804-.929 2.745-.244.162-.006.324.035.491.068.36-.586.695-1.904 1.128-.093l1.608-.164c.474-2.621.025-3.818-2.176-2.776-.748.35-1.608.256-2.411.37.173-1.984 1.859-1.517 2.233-2.81-.44-1.356-1.78-1.577-1.679-3.236 2.672-.327 4.04 1.759 4.995 4.619.4 1.199.78 2.405 1.171 3.611 2.745-1.2 4.737-3.468 5.682-8.328.938 4.034 2.878 4.366 4.94 5.412-.508-2.783-3.06-2.078-3.042-4.742 4.863.213 8.07 1.646 11.1 4.933l.136.654c1.304-.047 2.258.967 3.206 1.974l.535-.019c.974-1.07 1.503.315 2.212.718l.49-.242c-1.162-2.12-1.65-5.611-4.657-3.972a.686.686 0 0 1-.662-.085c-.202-.143-.354-.387-.423-.681-.648-2.449-2.061-3.993-3.797-5.388l6.036-.422c-.534-1.504-1.603-1.38-2.549-1.273-2.745.323-5.457-.95-8.227.06-1.023.373-1.82-.726-2.517-1.643-.698-.918-1.235-2.033-2.577-2.545.723 1.873.833 3.729 1.997 5.526-1.666-.447-3.024.413-4.162-1.023-1.459-1.827-2.205 1.082-3.426 1.231.737-3.613.402-3.97-2.521-3.746-1.098.079-2.242.8-3.484-.857-.495-.687-3.014-2.627-4.726-.231-.243.332-1.022 1.942-1.552-.254-.312-1.307-1.559-1.388-2.364.085.863 1.38 1.177 2.997 1.385 5.548-1.422-2.098-1.912-3.643-1.351-5.635zm17.669 5.745c.018 2.907.018 2.907-1.312 2.81l1.312-2.81zm-33.823-3.295c-.073.181-.164.5-.213.495a1.536 1.536 0 0 1-.463-.299c.072-.161.154-.461.218-.457.159.049.31.137.443.261h.015zM72.6 907.296c-1.478-.053-2.946 1.456-4.557-.244-.743-.787-3.225 3.104-3.414 5.273 1.205 2.112-.164 2.122-1.054 2.182-1.246.079-1.968.281-1.124 2.257.12.4.16.838.115 1.269a3.042 3.042 0 0 1-.37 1.187l1.548 1.135c-.614.959-2.447 2.34-1.677 2.669 3.155 1.367.053 2.916.253 4.229 1.128.1 2.27.072 3.323.74.346.17.697.332 1.042.508 2.69-2.248 2.728-2.324.082-5.077-.927-.963-1.275-2.324-1.638-3.584-.503-1.794-.805-3.549 1.65-3.174 3.203.482 5.21.995 7.591 3.003.926.781 1.695.214 2.349-.807.02-.572.116-1.135.285-1.662.16-.315.493.063.495.467.05.767-.348 1.03-.805 1.195.504 1.842.87 3.587 2.79 3.59 1.014.003 1.697 1.285 1.535 2.902-.093.913-.196 1.732.672 1.996.058-.197.106-.408.154-.612.062-1.053.018-2.615.77-2.777 1.195-.253.789 1.716 1.247 2.575 1.429.15 1.142-4.01 3.151-2.406.112-.467.33-.876.62-1.169.29-.292.638-.453.995-.46-.115-1.067.651-3.696-1.353-1.426-.542-2.406-3.505-2.169-3.181-5.516-.387.277-.925.91-1.133.715-.564-.424-.006-1.003.173-1.455.16-.372.232-.803.203-1.229a2.39 2.39 0 0 0-.365-1.143c-.566.149-1.256.046-1.217-.804.047-1.161.69-.753 1.18-.421l1.622-.315v.067c.043-1.801-.84-2.058-1.89-2.336-2.772-.727-5.538-1.441-8.378-1.148l4.276 4.997-.56 1.038c-1.659-2.337-4.379-2.608-5.406-6.229zm9.962 10.455c.797 3.097.797 3.097-.654 4.134.18-1.098.355-2.243.653-4.134zm-2.638-4.431c.16.378.398.706.35.91a.897.897 0 0 1-.236.346.574.574 0 0 1-.327.147c-.167.006-.298-.434-.442-.658.186-.229.376-.438.655-.745zM378.089 919.476c-1.784-.366-3.548.129-5.318.432-.52.086-1.137.208-1.107 1.202.005.744.497.925.954 1.028 1.116.264 2.242.482 4.085.874-1.604.118-2.482.269-3.346.221-2.215-.132-3.746.8-4.191 4.135-.14 1.067-.912 2.456-.928-.179-.001-.08-.144-.227-.159-.213-3.588 3.177-6.567-1.468-9.977-1.231-2.022.14-4.06-.802-5.554 1.954-1.419.762-2.62 2.458-4.342 1.937.689 1.754 2.398 1.101 3.246 2.471 1.602-3.517 6.241-4.21 7.62-1.18 1.182-.195 2.39.71 3.553-.242.793 2.786 3.297.544 3.939 1.908 1.587 3.335 2.161-1.22 3.266-.497.158.087.323.15.492.188 1.707-.938 2.98-3.805 4.813-3.401 2.999.668 5.904 2.209 8.803 3.458.202.085.251.82.372 1.247l.533.539c.15-1.997.89-1.294 1.615-.723.132-.934.016-2.264.435-2.744 2.626-3.029.399-3.612-1.207-4.483.669-1.272 1.432-1.048 2.214-.744.546.225 1.101.292 1.307-.632.042-.176.054-.361.034-.542a1.427 1.427 0 0 0-.146-.503 1.03 1.03 0 0 0-.297-.359.712.712 0 0 0-.387-.14c-3.323-.762-6.278-3.914-9.96-2.46-.582.267-.309-.812-.362-1.321zM301.599 910.71c-.969-.851-2.112-1.276-3.275-1.219 1.483 1.439.51 3.021.083 4.563-.018 1.091-.234 1.956-1.218 1.691-.985-.265-1.077.709-.974 1.508.18 1.279.881.912 1.408.424 1.403-1.283 2.279-.251 3.113 1.111 1.484 1.579 2.732 1.5 3.71-.932-1.192-1.228-.855-3.015-.258-4.154.85-1.618 1.6.443 2.462.633 1.181.264 2.081 2.735 3.684.581.4-.53.371 1.178.503 1.883 1.48.769 3.12 2.965 3.841-1.165-.491.018-1.013.62-1.363-.278a.429.429 0 0 1 .072-.317c.64-.566.915.181 1.267.623.417-.077.84.019 1.212.277.371.257.675.664.871 1.166l2.292 1.141c1.339.32 2.585-1.56 3.819-.735 2.063 1.377 4.336 1.85 6.407 3.026a2.351 2.351 0 0 0-.295-1.171c-.191-.332-.46-.566-.763-.665-.66-.21-1.287-.669-1.067-1.674.268-1.202 1.112-.623 1.59-.407 1.867.822 1.858 3.219 2.171 5.323 1.451.208 2.823 1.905 4.366.309-.88-.805-2.227-.033-3.28-1.888l3.28.328a17.215 17.215 0 0 0-.043-1.337c-.491.085-1.171.478-1.476-.341-.461-1.322 1.067-.541 1.023-1.296-3.503-4.557-8.277-4.992-12.426-5.898-3.937-.854-7.034-3.451-10.601-4.874-1.498-.693-3.111-.835-4.676-.411-1.222.359-2.059-2.281-3.564-2.407-.398-.032-.774-.427-1.479-.843 1.134 2.904.14 5.116-.445 7.38-.144.621.009 1.492-.673 1.671-.093.003-.316-.25-.327-.403-.045-.956.554-.998 1.029-1.223zm4.609.602c-.618.223-.691-.464-.714-.998-.091-2.005 1.127-2.17 2.107-2.594.901-.395 1.735.01 1.772 1.307.102 3.598-2.764-.334-3.165 2.312v-.027zm18.51 3.58c.004.549-.185.978-.603 1-.225.023-.446-.07-.621-.259a1.35 1.35 0 0 1-.324-.764c-.077-.567.176-.931.609-.926.432.004.885.195.94.976l-.001-.027zm7.678 2.591c-.258.365-.393.724-.57.764-.177.04-.414-.199-.621-.318.136-.26.246-.632.428-.732.181-.101.413.165.763.313v-.027z"/>
            <path d="m39.307 922.971-6.049.429c1.74 1.418 3.155 2.988 3.805 5.477.069.298.221.546.424.691.202.145.44.176.662.087 3.013-1.665 3.502 1.882 4.666 4.037 2.35 1.61-.181 2.426-.37 3.626 2.242 1.681 4.65-.626 6.923.363.482-1.512.084-3.025.033-4.853 1.614 1.04 3.837-1.132 4.851 2.155.246.788.014 2.238 1.185 1.618.808-.438.822-1.437.594-2.461-.147-.664-.529-1.274-.17-2.004l1.479.616c.37-2.191 2.969-2.36 2.597-5.235-1.517-.46-3.301-.429-3.463-3.412a42.164 42.164 0 0 0-5.692.731c-.903.228-1.473.316-2.045-.736-.373-.703-3.034-.981-3.6-.344-.898 1.012-1.216-1.872-2.46-.392-.581.671-2.21-.221-3.37-.393zm1.494 3.182c.164.198.314.417.447.654 0 .054-.165.288-.253.438a5.994 5.994 0 0 1-.495-.585c.08-.179.173-.349.277-.506l.024-.001zM129.19 918.117c-.777-.005-1.375-1.234-2.266-.515-.426.338-1.086.295-1.198-.225-.76-3.504-3.032-1.766-4.535-2.161-1.415-.379-3.492-1.998-4.587 1.513-.096.3-2.062.015-1.774-1.953.198-1.353-.077-2.116-.912-2.617-.464-.279-.99-1.006-1.444-.418-.239.288-.386.691-.41 1.122-.024.431.077.854.281 1.177.38.475.608 1.136.636 1.845.029.709-.145 1.41-.484 1.957-.517 2.306-.554 4.231 1.793 4.226l-1.039-1.799c.919-.033 1.823-.282 2.048 1.042.097.595-.626.642-1.048.711.639.73 1.29 1.043 2.133.433.502-.358 1.059-.546 1.621-.547a2.721 2.721 0 0 1 1.607.543c.99.906 2.051 2.145 3.255 1.899 1.474-.296 2.101.817 2.813 2.063 1.962-.913 2.987.079 3.196 2.809l.079.098c.538-.612 1.08-1.217 1.623-1.822.029-1.616.368-3.283 1.601-3.557 1.647-.356 1.744 1.806 2.162 3.284l1.091.633.985.078c1.84-.828.586-3.069 1.148-4.482l-.792.029c-.401.459-.849 1.269-1.339.762-.381-.389.197-.68.461-.958 1.311-1.306 2.577-2.638 1.444-5.172l-2.1.857c-.764-.887-1.438-.956-2.353-.055a18.907 18.907 0 0 1-3.292 2.361c-1.147.748-2.559.013-2.791-1.008-.466-2.001 1.165-.89 1.772-1.451a7.76 7.76 0 0 0 .615-.702zM235.344 915.155c-2.023-1.47-3.925.496-5.669 1.085-2.127.703-3.433.724-4.549-1.831-2.653-1.035-5.27-2.597-8.127-.909a2.511 2.511 0 0 1-.49.144c-1.464 1.544-1.804-.979-2.753-1.284l-2.16-.587c-.461.856.297 1.893-.683 2.98-1.843 2.064-3.429 1.296-5.163.408-1.379 1.587-1.236 3.273-.336 5.117.413.85 1.431 1.845.018 2.808l.005.745 2.67.649c1.154-7.823 3.36-6.705 6.906-5.011.604.69 1.192 1.355 2.081 1.296 3.956-.271 7.912-.501 11.868-.739 2.944.446 4.047-3.781 6.382-4.871zm-18.002.655c-.131.152-.291.444-.487.531-.279.123-.492-.129-.397-.532.043-.152.108-.292.192-.409a.931.931 0 0 1 .295-.274c.25-.089.438.137.397.684zM394.675 921.664l-.491-.101c-1.312 1.241-.963 2.779-.463 4.338l1.682.599 1.03.009c.911-.304 1.264-1.2 1.492-2.33.147-.751.653-1.495 1.171-1.045 1.396 1.209 3.317 1.635 3.859 4.248a7.76 7.76 0 0 0 3.874.519c3.761-.373 7.705 1.186 10.816-3.34.234-.345.853-.222 1.289-.317l3.261-1.028c.011-.24.009-.48-.005-.719-1.389-.187-2.687-.563-3.611-2.33l1.925-.558-.544-.64c-1.272-.119-2.502.829-3.786.334a2.645 2.645 0 0 0-.49.071c-1.077 3.39-2.728 3.82-4.85 1.818a3.293 3.293 0 0 0-.492-.127 37.019 37.019 0 0 0-11.907.819 5.265 5.265 0 0 1-3.76-.22zM335.239 922.67c-1.542 1.569-2.913-.1-4.363-.307l-1.634-1.399c-2.085-1.197-4.357-1.64-6.403-3.011-1.233-.822-2.478 1.049-3.816.731 1.352 2.529 2.03 5.822 5.227 5.746 1.473-.054 2.666 2.321 4.689 1.474 1.024-.423.178.967.01 1.546l3.804 1.26.978-.635c.936-2.632 3.78 2.993 4.206-1.879 1.852.779 4.118-2.002 5.744 1.277.667 1.348 1.93 1.535 3.129.838-.607-1.976-1.705-3.142-3.144-4.076-1.06-.68-2.461-.843-3.042-2.633-1.825-.42-3.364-2.329-5.374-1.803.003.453.006.899.043 1.331.352.513.262 1.023-.054 1.54zM84.03 915.771c-.325 3.35 2.64 3.113 3.181 5.521 2.006-2.272 1.24.359 1.354 1.428 1.159.099 2.258.173 1.617-2.238-.374-1.41-.574-3.567.696-3.628 1.271-.06 3.3-.026 3.747 2.81-.71.546-1.453-2.287-1.755.537-.135 1.286-.684 2.5-1.046 3.748l1.064.703c1.545-.32 3.224-1.178 3.952 1.763l.187-.007.182-.006c1.056-4.484 4.152-.106 5.702-2.8-.271-.752-.597-1.671-.928-2.583l-1.241-.797c-1.472.951-2.873 1.38-3.946-.772-.32-.663-.949-1.314-.319-2.187.63-.873 1.118-.041 1.633.331.15-.437.305-.875.455-1.319.043-.123.082-.239.12-.362-1.39-2.464-3.738-2.236-5.554-3.552-2.45-1.772-4.582-1.012-5.438 3.235-1.248-1.108-1.193-2.567-1.378-3.821-.314-2.174-1.082-1.256-1.856-.607v-.067c.034.822-.165 2.097.142 2.389 2.092 2.007.51 2.012-.572 2.281zM272.714 912.221c-1.484-1.11-3.58-1.673-2.361-5.153.402-1.147-.293-1.148-.781-1.319-1.111-.444-2.211-.936-3.336-1.305-.804-.267-1.679-1.508-1.962 1.257-.116 1.082-2.642.272-3.761-.832-1.442-1.415-2.32-.17-3.313.849-.778.804-.522 2.404-.048 2.494 3.628.75 3.477 5.025 4.325 8.362 2.82-2.589 6.065-.788 9.098-1.546 1.887-.521 1.883-1.194 2.139-2.807zM191.309 911.781c-1.677-.997-3.379-1.934-5.023-3.02-.726-.476-1.162-.279-1.55.6.618.52 1.03 1.115.204 1.923-.19.194-.656.345-.711.233-.498-.973.369-1.421.517-2.163-2.971-3.484-6.415-3.908-10.153-2.638-1.02.352-2.362 1.219-1.76-1.658.148-.676-.202-1.488-.57-1.394-2.346.602-4.927-1.77-7.076 1.137.492.17 1.024.331 1.537.514 2.522.879 4.516 3.688 7.578 2.879 1.443-.381 1.101 1.502.243 2.619-.122 1.754-.964 3.085-1.54 4.554l.556.723c.779-.41 1.791-1.989 2.324-.869 1.315 2.767 2.091.299 3.076-.293l-.143-1.59c-.663.124-1.347.779-2.13-.271 1.557-1.78 1.579-3.697-.036-5.716 1.765.787 3.612.571 4.931 2.413-.695 1.366-2.881-.879-2.66 2.269 1.121.04 1.121.04.018 2.875.036.28.077.567.113.847l.982-.203c.596-1.443 1.282-2.494 2.51-1.091.414.099.735.322.68 1.008-.073 1.638-.04 2.99 1.633 1.736a8.72 8.72 0 0 1 2.256-.9c-.248-.373-.786-.675-.264-1.291.194-.223.439-.343.69-.337.251.006.49.136.672.368l.187-.007.182-.007.024-.771c.66-1.412 2.162-.964 2.703-2.479zm-4.381-.128.608.387c-.156.234-.292.6-.488.688-.27.09-.72.328-.759-.361-.021-.227.371-.456.639-.74v.026zM298.532 913.793c.405-1.562 1.43-3.16-.083-4.611l-2.998-1.721c-.263 1.361 1.138 3.079-.195 3.608-1.097.432-3.307.23-3.454-.434-.653-2.678-3.457-.846-3.786-3.732-.052-.424-.652-.125-.831.355a3.493 3.493 0 0 0-.204 1.61c.058.549.244 1.056.529 1.445a.98.98 0 0 0 .475.25.87.87 0 0 0 .512-.056c.748-.264 1.56-.564 1.628.886.068 1.45-.91 1.216-1.579 1.409-.256.07-.492.174-.866.295.827 2.098 2.142.334 3.354.965-.98 1.022-1.466 2.162-1.17 3.752.138.785-.351 1.364-.977 1.462-.492.072-1.121-.263-1.04-.807.534-3.627-1.332-1.545-2.196-1.743-.873-.284-1.793-.213-2.646.205l1.128 2.161c.358 1.386 1.894 1.687 1.718 3.565 1.504-.785 2.957-.338 4.352.388.609-2.725 1.697-4.515 4.016-4.337.493.036.823-.8.887-1.607.224-2.906 1.655-3.452 3.426-3.308z"/>
            <path d="M174.591 910.662c.859-1.122 1.202-3.012-.243-2.629-3.066.785-5.062-2.009-7.588-2.892-.493-.184-1.025-.346-1.538-.516-1.417 1.641-3.302.889-4.841 1.887.292 1.04-.863 2.993 1.214 2.951 1.215-.045 1.166 1.424.509 2.673l.689.816c.926.054 1.884-.217 2.735.492.793.14 2.061-.075 2.301.488 1.229 2.95 3.117.983 4.665 1.37l.265-.01.301-.011c.591-1.475 1.419-2.811 1.541-4.572-.662.428-1.348.87-1.784-.352a1.076 1.076 0 0 1-.017-.7.87.87 0 0 1 .156-.292.597.597 0 0 1 .233-.173c.976-.48 1.155.577 1.402 1.47zM393.786 925.738c-.503-1.597-.829-3.173.465-4.444-3.672.324-6.768-3.219-10.508-2.629-1.917.3-3.899-.336-5.76.888.052.518-.222 1.617.388 1.337 3.7-1.487 6.669 1.729 10.009 2.505a.703.703 0 0 1 .388.143c.119.089.221.214.298.366.078.152.128.327.148.511.019.185.007.374-.035.553-.206.94-.764.873-1.313.643-.786-.329-1.552-.558-2.225.758 1.614.887 3.852 1.48 1.212 4.565-.421.488-.304 1.843-.436 2.794 1.387.084 2.571.926 3.74 1.829.29-1.849.965-3.557 1.299-5.394.273-1.301-.496-5.112 2.33-4.425zM284.205 918.835l-1.123-2.129c-.65-.189-.698-1.558-1.683-1.269-1.887.554-3.134-1.091-4.352-2.677-.075.569-.185 1.105-.73 1.072a.236.236 0 0 1-.098-.084.335.335 0 0 1-.055-.137c.078-.748.525-.718.922-.805-.138-1.679-.865-1.765-1.914-1.435-.847.264-1.463 1.597-2.448 1.068-.26 1.606-.27 2.279-2.148 2.739-3.024.776-6.262-1.029-9.074 1.528l-.981.182 1.785 1.167c2.782-.394 5.404.468 7.936 1.793.759-.313 1.538-.568 2.282-.954 1.566-.816 1.882.131 1.599 1.991.968-2.171 2.879-1.209 4.148-2.393-.631-2.746.815-1.561 1.601-1.543 1.581.043 2.512 2.77 4.333 1.886zM205.571 923.787l-.005-.751c-1.189.124-1.928-1.619-3.155-1.346-1.468 1.039-3.589 1.559-4.341 3.21-2.123 4.684-3.242-.385-4.782-.543-1.638-.168-.282-1.88-.141-2.972.141-1.091-.571-.891-1.058-.947-1.191 1.385-1.596 4.182-3.722 3.865.161.292.258.643.28 1.011.021.368-.034.738-.159 1.069 2.151 1.933 5.02 1.6 7.021 4.001.489-.454.159-2.158 1.061-1.695 1.751.902 3.494-1.013 5.096.43.201-1.737-1.484-1.561-1.187-3.443 1.816.202 3.785.64 5.092-1.889zM136.666 923.669l.792-.029c2.512-1.71 5.498-.819 7.944-2.897-.32-.062-.941-.321-.839-.419.978-.922 1.005-3.777 2.905-2.685 1.382-1.622 3.171-.975 4.72-1.697l-.536-.813c-.681.149-1.374-.017-1.97-.472-2.674.964-5.343 2.11-8.015.18a.994.994 0 0 0-.769-.238c-.27.036-.525.187-.73.434-.825 1.01-1.203 1.111-1.563-.615-.508-2.506-1.048-.787-1.474.229l.049.079c1.267 1.115.861 2.345.077 3.596 1.123 2.531-.143 3.86-1.443 5.163l.852.184zM235.303 915.379c-2.336 1.12-3.405 5.331-6.379 4.905 2.985 2.067 6.203-.226 9.249.671.12-.465-.175-1.262.542-1.275.003.454-.043.903-.07 1.337.723.228 1.828-2.162 2.194.535.182.374.421.692.701.931.28.239.595.395.924.458.279-1.612.902-2.663 2.23-2.371.713.147 1.277-.013 1.437-1.047.199-1.269-.391-1.321-1.118-1.208-1.06.166-1.147-1.226-1.618-2.003-1.77-.136-3.576-.731-5.294.193-1.273.7-1.557-2.166-2.798-1.126zM111.602 917.625c-1.103-.54-2.186-1.832-3.334-.053-.847-1.32-2.721-.528-3.147-2.533-.361-1.71-.213-2.472-2.107-1.619-1.568.734-2.741 2.439-4.377 2.662-.039.123-.078.239-.121.362.231 1.472.733 1.379 1.722.991a2.236 2.236 0 0 1 1.295.14c.418.174.801.472 1.123.873.816 1.078-.783 1.65-.713 2.729 1.045-.297 2.02-.962 2.829-1.929.866.502-.337 2.858.785 2.431 3.242-1.227 3.91 2.242 5.197 4.688l.986-.097c-.57-2.858-2.915-5.61-.138-8.645z"/>
            <path d="m262.36 917.947-1.79-1.182c-1.31-1.395-3.298-1.126-4.316-3.213-1.273 1.294-2.249.46-3.212-.705-.06-.078-.565.257-.598.474a2.27 2.27 0 0 0-.042.693c.022.232.079.454.168.651a21.583 21.583 0 0 0 1.84 1.955c-.55 1.005-1.786-.406-1.962 1.32.775 1.091 1.492 2.272 2.787 2.197.166-.017.333.002.493.056.889.721 1.924 1.041 2.962.916 2.728-.302-.37 1.45.341 1.802 1.668-.446 3.493-.068 4.876-1.919 1.288-2.812-.876-2.18-1.547-3.045z"/>
            <path d="M255.305 920.112c-1.275.047-2.01-1.103-2.784-2.19a1.156 1.156 0 0 1-.492.119c-.659.77-1.389.582-2.119.313l-.596 1.48c-.625.769-1.66 1.305-.966 2.853.29.565.609 1.102.955 1.605 2.057-2.361 1.947 1.273 2.92 1.91.635-1.583 1.768-1.356 2.786-1.447 1.515-.089 2.949-.451 4.131-1.9-.711-.35 2.383-2.104-.341-1.795-1.037.124-2.071-.195-2.958-.914.069.764.58 1.518.014 2.279a.381.381 0 0 1-.462.017c-.556-.726-.113-1.549-.088-2.33zM.027 916.827l-1.655-1.402c-2.084 1.425-3.671.573-4.938-1.841-.775 2.118-2.302 2.902-3.68 3.951 1.184 2.532 2.216 5.353 4.987 4.86 1.127-1.707 2.628-4.337 3.917-3.785 2.164.946 1.112-.984 1.354-1.802l.015.019zM192.053 920.399c.493.049 1.205-.226 1.06.943-.146 1.169-1.499 2.813.141 2.982 1.542.159 2.661 5.244 4.788.544.752-1.656 2.861-2.177 4.345-3.22.266-.824.92-1.629.181-2.543-.496-.655-.963-.638-1.584.058-.797.924-1.641-.371-2.497-.178-1.117 3.089-1.869 3.359-3.728 1.139-.483-.478-1.063-.745-1.664-.766l-1.117.781.075.26zM340.547 921.786c.562 1.806 1.98 1.942 3.047 2.656 1.443.941 2.542 2.103 3.15 4.109l1.51.805c1.725.528 2.944-1.189 4.351-1.96-2.095-.702-2.757-4.292-5.095-4.562-2.339-.271-4.644-.69-6.963-1.048zM394.663 921.461a5.299 5.299 0 0 0 3.704.273 37.245 37.245 0 0 1 11.903-.814c-4.773-3.104-9.859-3.17-15.052-2.427-.225 1.004 1.316 2.566-.555 2.968z"/>
            <path d="M193.072 919.222c.602.022 1.182.289 1.666.769 1.863 2.228 2.615 1.93 3.735-1.143.104-1.49-.627-2.476-1.156-3.55a2.039 2.039 0 0 0-.454-.636 1.415 1.415 0 0 0-.602-.338c-3.102-.123-3.102-.089-4.975-2.309-.542 1.553-2.049 1.102-2.686 2.455l2.709 1.251c.869.846 1.492 2.083 1.763 3.501zM111.552 917.77c-2.779 3.036-.433 5.789.133 8.641l.597.093c.864-.802 2.525-1.114 2.652-.537.66 2.991 2.042 1.541 2.827.755 1.421-1.438-1.441-1.522-.544-3.218.754-.19 1.771-.065 2.46-1.179-.494-.359-1.047-.547-1.611-.546-.564.001-1.122.19-1.626.55-.844.612-1.478.298-2.139-.435l.04.039c-2.354-.002-2.316-1.943-1.798-4.254l-.991.091zM129.136 918.159c-.192.248-.394.48-.606.695-.606.56-2.238-.591-1.772 1.45.233 1.021 1.645 1.756 2.792 1.008a18.854 18.854 0 0 0 3.292-2.361c.915-.901 1.59-.832 2.353.055-.784-2.702 2.122-2.331 2.025-4.459l-.05-.079c-2.575-1.722-5.313-.465-8.034 3.691zM56.364 924.098c.162 3.011 1.953 2.979 3.476 3.444.856-.417 1.807.826 2.619-.347-.2-1.345 2.909-2.873-.254-4.245-.757-.331 1.066-1.717 1.682-2.68l-1.552-1.14c-1.159.983-2.699.972-2.764 3.998-.038 1.834-1.955 1.445-3.207.97zM205.748 914.968c1.751.901 3.333 1.653 5.183-.413.979-1.103.223-2.155.686-3.022-.614-1.206-1.37-1.455-2.301-.591-.931.865-1.695.812-2.383-.344-.373-.662-.726-1.094-1.333-.451s-.647 1.374-.061 2.122c.586.748.455 1.738.209 2.699zM62.246 919.059a3.06 3.06 0 0 0 .372-1.193 3.295 3.295 0 0 0-.115-1.276c-.824-2.003-.123-2.191 1.128-2.271.895-.033 2.27-.084 1.06-2.194-.953.299-2.257-3.353-2.999.551-.033.157-2.096-2.268-2.317.356-.189 2.209.839 4.381 2.507 5.478.164.096.25.363.364.549zM216.944 913.37c2.863-1.706 5.486-.127 8.145.918.475-2.707-2.238-2.93-2.233-5.365-.003-.383-.71-.102-.909.208-1.326 2.013-2.705 1.148-4.574-.37.639 2.203-.211 3.256-.429 4.609zM243.369 916.399c.499.786.562 2.196 1.626 2.028.729-.121 1.322-.048 1.122 1.223-.161 1.046-.727 1.209-1.443 1.06-1.334-.296-1.969.748-2.239 2.4l1.104-.041c1.693-1.488 3.901-1.697 5.243-4.058-.003-.486-.06-.964-.093-1.443-1.642-1.548-3.57-.619-5.32-1.169zM72.54 907.19c1.01 3.635 3.756 3.919 5.419 6.279l.56-1.042-4.284-5.015c-.521-.363-1.126-.442-1.694-.222zM109.714 913.002c-1.201-2.327-2.368-1.462-3.451-.547-.093.094-.17.215-.225.353a1.394 1.394 0 0 0-.038.905c.043.144.11.272.194.375 1.375 1.621 2.194-.518 3.52-1.086zM410.736 921.215c2.129 2.04 3.785 1.603 4.866-1.853-.982.339-2.636-2.007-2.9 1.451-.013.209-1.283.269-1.966.402zM278.306 907.477c-.377 4.398 2.327 2.089 3.42 3.414-.581-2.235-2.887-1.002-3.42-3.414zM154.285 912.629c-.878-.418-1.896.405-2.723-.491-.982.371-.36 3.027-1.952 2.515.595.454 1.289.62 1.97.471 1.037-.512 1.967-1.37 2.705-2.495zM249.873 918.246c.733.271 1.484.46 2.126-.315-.429-.661-.329-2.127-1.178-1.988-.774.151-.652 1.5-.948 2.303zM213.741 912.175c.952.308 1.312 2.863 2.76 1.3-.924-.424-1.438-2.4-2.76-1.3zM54.047 922.074a2.016 2.016 0 0 0-.4-.203s-.127.229-.107.282c.085.168.182.324.289.465l.218-.544zM251.084 912.718c.108-.147.29-.29.304-.447a.967.967 0 0 0-.046-.324.707.707 0 0 0-.146-.26c-.387-.231-.404.225-.382.537.011.177.175.327.27.494z"/>
            <path d="m248.65 917.565.099 1.449.563.706.6-1.495-1.262-.66zM36.32 930.325c-3.037-3.347-6.252-4.807-11.128-5.025-.017 2.687 2.546 1.995 3.05 4.831-2.082-1.066-4.027-1.404-4.952-5.513-.953 4.93-2.945 7.259-5.697 8.481l-1.627.933c.382.516.854 1.177 1.368.903 2.005-1.067 4.094.22 6.148-.829 1.583-.804 2.81.165 2.806 2.832l1.09.577c-.454-1.897.363-3.37.997-5.012.038 1.395.072 2.784.105 4.18 1.968.142.067-2.608.818-2.925 1.646-.214 1.559 2.314 2.842 2.193.799-1.97-1.49-2.282-1.01-4.227 1.505.146 3.305 1.685 4.418-1.216.078-.185.511-.127.771-.183z"/>
            <path d="m15.487 933.179.5.727 1.635-.941c-.393-1.239-.777-2.479-1.18-3.711-.963-2.939-2.341-5.084-5.035-4.748-.103 1.691 1.249 1.919 1.693 3.326-.378 1.329-2.077.849-2.252 2.888.81-.118 1.676-.021 2.43-.38 2.234-1.086 2.692.145 2.21 2.839zM439.558 931.31c-.74.796.244 2.067-.471 2.902-1.025.088-1.604-1.523-2.675-1.151l-4.43-2.537-1.04-.818c-.849 1.433-1.484 3.316-2.325-.198-.263-1.1-5.531.76-6.733 2.239-.503-1.98-.498-1.249-2.022-1.07-2.24.256-4.229 2.664-6.701 1.16-1.654-1.005-5.327 1.144-5.014 2.503.505 2.254-.481 1.571-1.11 1.248a10.103 10.103 0 0 1-2.272-1.779c-1.125-1.083-2.254-.526-2.083 1.008.422 3.744-1.608 3.034-3.036 3.535-.945.334-1.899.643-2.843.957.987 1.016 2.71-.273 3.278 1.906.483-1.133 1.167-1.536 2.181-1.664 2.063-.25 3.748 1.041 5.538 1.897.659.309 1.641.411 1.553-.284-.419-3.307 1.212-1.427 1.825-1.299 3.55.741 4.752-.053 5.782-4.502.324-1.409.799-1.595 1.731-1.433 2.916.548 5.844 1.305 8.761-.216.251-.132.525-.165.787-.093.262.072.501.245.687.497 2.727 3.819 7.033.969 9.936 3.992a.22.22 0 0 0 .13.037.247.247 0 0 0 .13-.046c3.38-2.687 5.871 3.379 9.193 1.465.098-.055.366.464.569.685.321.403.714.693 1.143.844.43.15.882.157 1.318.018.435-.138.84-.417 1.179-.811a3.9 3.9 0 0 0 .764-1.449c.481-1.323 1.115-2.618 2.038-2.508 3.587.42 1.513-1.882.899-3.426 2.441-1.772 5.345-.041 7.477-2.533a168.52 168.52 0 0 1-.005-.711c-.188-.241-.459-.428-.549-.725-.281-.923.059-2.299-.959-2.674-1.288-.483-.925 1.802-1.742 2.066-.767-.299.126-1.806-.821-1.889a.874.874 0 0 0-.409.467 1.299 1.299 0 0 0-.074.705c.756 3.837-1.155 3.377-3.006 3.744-1.699.335-3.606.494-4.816 2.868-1.898 3.717-3.553 1.028-5.221-.466l-.568.079c-.871.286-1.424-1.045-2.455-.604-1.501.694-2.699-.223-3.519-1.936zM112.381 926.768l-.594-.089-.98.093c-.345.457-.784.766-1.261.887a1.842 1.842 0 0 1-1.406-.21c-1.156-.573-2.588-.71-3.496.636-1.272 1.876-2.306 1.149-3.431.07-.571 1.049-1.158 2.085-1.72 3.14-.561 1.056-1.171 1.511-1.914.386-1.361-2.055-2.541-1.075-3.427.626-.697 1.319-1.4 1.868-2.7 1.571.357-.756.654-1.558.886-2.393.146-.82-.386-1.228-.907-1.456-.32-.144-.52-.072-.81.424-.912 1.553-1.678 1.321-2.75-.621l-.559-.724c-1.347.145-2.502-.299-3.325-1.822-.672-.08-1.355-.308-2.009.194-.048.196-.095.398-.153.588.273.739.732 1.328 1.3 1.668.404.315.76.846.387 1.422-.252.391-.911.835-1.138.688-2.733-1.986-6.382-1.475-8.513-4.977-.931-1.513-1.359-.928-2.258.171-1.28 1.559-2.553 3.972-4.741 2.18l-1.038-.493c-.315 1.305-.561 2.562-1.944 2.488a.918.918 0 0 0-.451.129 1.222 1.222 0 0 0-.378.357 1.66 1.66 0 0 0-.24.524 1.935 1.935 0 0 0-.063.603c.115 1.076.985.612 1.515.806.457.191 1.181-.042.959 1.15-.682 3.621-2.697 2.936-4.606 2.577l-.485.793c-.296 1.15.757 2.561-.467 3.536 1.137-.04 1.994-.886 2.886-1.726.604-.571 1.406-1.596 2.08-.397.496.855.737 1.643 1.594.719.71-.769 1.293-1.592 1.24-2.961-.007-1.003-.991-1.667-.51-2.926 1.227.849 2.655 1.905 3.812 1.159 3.032-1.952 5.638.867 8.515.771 1.436-.051 3.458-.472 4.777 1.059 2.435 2.831 5.407 2.305 8.164 2.602.57-1.237-1.119-2.373-.021-3.273 1.097-.899 2.22-.008 3.21.824.39.329.497.875.77 1.331.947 1.765 5.696 3.033 6.451 1.602 2.082-3.956 5.768-3.284 8.39-5.597.029-.001.138.112.207.174-.104 2.055-1.662 1.528-2.798 2.429 1.294.743 2.922 2.276 3.202 1.639 1.801-4.127 4.173-1.986 6.319-1.46 1.331.328 2.096-.249 2.582-1.683.486-1.435 1.313-2.37 2.512-1.979 1.965.642 3.848 1.507 5.769 2.273 1.808-1.022 3.479-1.055 4.855 1.057l1.578-.128c-.157-.738-.822-1.323-.382-2.224.048-.099.357-.084.49-.018.699.486.499 1.373.504 2.175l2.127.572c1.72-2.999 3.5-3.76 5.389-.379l1.059-.038c2.495-3.776 4.24-4.524 5.866-2.518 1.656-2.323-.094-3.833-.689-5.617-1.345-1.065-2.96-2.961-2.515 1.48a1.047 1.047 0 0 1-.066.664.806.806 0 0 1-.178.252.569.569 0 0 1-.239.137c-3.571 1.207-7.19 3.192-10.399-.983-.165.925-.338 2.186-1.228 1.855-.889-.331-.066-1.065.142-1.603-2.182.666-3.977-.945-5.932-1.6l-.079-.095c-.688-.978-1.708-.961-2.554-1.455-.965 2.331-2.367 2.394-3.976 1.435-1.053-.609-2.061-1.052-3.251-.15-2.488 1.777-5.289.738-6.956-2.321zm-28.882 6.066c.611.626.959 1.221.663 2.461-.725-.595-1.096-1.151-.654-2.461h-.01zm12.848.094.243.418c-.109.084-.223.155-.342.213 0 0-.138-.17-.124-.216.068-.142.146-.274.233-.396l-.01-.019z"/>
            <path d="M66.742 928.6c2.198 1.84 3.478-.647 4.763-2.271.904-1.145 1.333-1.754 2.269-.178 2.165 3.648 5.805 3.116 8.551 5.186.228.167.89-.296 1.143-.716.376-.6-.007-1.152-.388-1.482-.57-.354-1.032-.967-1.306-1.738-.868-.231-.765-1.05-.672-1.997.162-1.61-.511-2.9-1.535-2.902-1.92-.004-2.311-1.749-2.79-3.591-.654 1.021-1.423 1.589-2.35.807-2.38-2.008-4.388-2.534-7.592-3.003-2.464-.375-2.172 1.38-1.649 3.174.362 1.26.71 2.622 1.637 3.586 2.648 2.801 2.609 2.876-.08 5.125zM83.895 926.779c.829 1.558 1.987 2.022 3.348 1.905-.28-1.227.298-1.316.94-1.326l.038-.887c-.001-.196-.042-.383-.068-.572-.441-.396-.335-1.549-1.1-1.5-1.999-1.644-1.726 2.53-3.158 2.38zM84.052 915.616c1.09-.298 2.681-.275.61-2.249-.308-.294-.108-1.577-.143-2.404l-1.635.318.038 1.234c.21.318.338.722.368 1.151.029.43-.043.864-.204 1.239-.19.455-.743 1.039-.175 1.466.21.162.751-.476 1.141-.755zM82.54 917.846c-.304 1.911-.483 3.048-.666 4.178 1.478-1.048 1.478-1.048.666-4.178z"/>
            <path d="M81.884 926.93c.66-.526 1.348-.287 2.025-.203-.46-.864-.052-2.845-1.251-2.591-.755.163-.711 1.734-.774 2.794zM87.005 924.362c.769-.028.662 1.11 1.106 1.508.594-.932.543-2.057.526-3.15-.36.005-.713.167-1.006.462-.294.295-.513.708-.626 1.18zM79.874 913.32c-.279.309-.49.52-.657.737.145.239.276.668.444.662a.579.579 0 0 0 .328-.148.913.913 0 0 0 .237-.348c.048-.192-.201-.522-.352-.903zM348.331 929.411l-1.51-.803c-1.2.715-2.455.513-3.132-.845-1.629-3.294-3.898-.528-5.751-1.285-.427 4.906-3.275-.759-4.212 1.892-.061.565.009 1.482-.197 1.617-.592.397-.598-.488-.758-.979l-3.809-1.269.01 1.476c.207.992.41 1.997.613 2.976l1.057-.039c1.678-1.343 2.37-.087 2.761 1.912 1.246-.475 2.405-1.356 3.778-1.192 1.137.14 1.857.556 1.559 2.365 3.442.082 6.223 2.811 9.301 4.355.938-1.684 2.66-3.069.948-5.636-.392-.576.213-1.276.837-1.312.624-.036 1.377.828 1.881-.438l-.135-.257c-.84-1.425-2.552-.765-3.241-2.538zM304.586 917.844c-.973 2.461-2.253 2.542-3.732.943-1.136.97-3.773.715-1.813 4.22.28.498.098 1.447-.328 2.045.056.186.105.377.147.57 3.336-1.762 4.866 2.532 7.247 4.531.163-1.605-2.11-2.199-.2-3.475-.009-1.416 2.392-1.755.965-3.816-.709-1.214-.47-2.476-.068-3.758-.678-.172-1.347-.384-1.743-1.291a1.836 1.836 0 0 1-.475.031z"/>
            <path d="M298.744 924.922c.425-.603.607-1.549.327-2.039-1.955-3.495.676-3.241 1.809-4.208-.837-1.374-1.717-2.416-3.124-1.121-.53.492-1.233.862-1.414-.428-.108-.794-.011-1.79.977-1.523.988.268 1.205-.605 1.223-1.707-1.772-.137-3.204.409-3.432 3.302-.064.807-.375 1.642-.888 1.607-2.32-.178-3.408 1.625-4.018 4.337.813.679 1.805-.067 2.533.319 1.939.989 4.356-1.383 6.007 1.461zM316.77 917.219c-.196-.504-.5-.913-.872-1.171a1.59 1.59 0 0 0-1.214-.278v-.047c-.722 4.146-2.389 1.942-3.845 1.169l-4.055 5.364c1.02.232 1.871 1.679 3.12.027.834-1.113 2.549.189 3.479-1.472.391 3.542 2.113 1.139 3.259 1.225.897.095 1.418.916 2.003 1.641l.53.592c1.184-2.645-.87-3.114-1.645-4.228-.606-.912-1.425-1.353-.76-2.822z"/>
            <path d="M316.734 917.356c-.646 1.475.155 1.918.786 2.833.776 1.119 2.834 1.59 1.648 4.245-.173.742-.269 1.819.464 1.63 1.766-.47 2.838.773 3.873 2.294.328.481.878.919 1.161.484 1.528-2.331 2.907-.208 4.337.03l-.009-1.485c.184-.587 1.032-1.995-.01-1.565-2.03.857-3.237-1.535-4.706-1.494-3.208.077-3.889-3.232-5.245-5.821l-2.299-1.151zM306.819 922.185l4.075-5.407c-.123-.714-.095-2.443-.507-1.906-1.613 2.18-2.518-.32-3.706-.588-.842-.193-1.597-2.279-2.476-.641-.601 1.153-.941 2.961.258 4.204l.495-.018c.732-.643 1.582-1.542 2.334-.682.602.696-.189 1.362-.591 1.953-.402 1.282-.642 2.544.068 3.758.023-.232.022-.442.05-.673zM306.208 911.182c.402-2.668 3.277 1.297 3.175-2.304-.038-1.308-.873-1.716-1.778-1.318-.983.427-2.205.587-2.113 2.616.023.539.096 1.231.716 1.006zM329.24 920.848l1.647 1.424c-.315-2.131-.305-4.559-2.187-5.391-.496-.219-1.332-.806-1.601.411-.222 1.018.41 1.483 1.075 1.696.305.1.575.337.768.674.193.337.298.754.298 1.186zM314.646 915.703c-.352-.466-.628-1.218-1.269-.628a.382.382 0 0 0-.067.147.453.453 0 0 0-.004.172c.35.905.892.305 1.364.281l-.024.028zM40.772 926.008a3.638 3.638 0 0 0-.298.534c.157.212.323.41.498.593.088-.153.274-.391.254-.444a4.521 4.521 0 0 0-.454-.683zM145.432 920.808c-2.448 2.109-5.437 1.189-7.951 2.904-.562 1.414.692 3.656-1.148 4.485l1.218 1.261v-.034c1.971.332 3.896-.398 5.881-.128 1.32.18 3.408-1.364 3.431-2.394.029-4.714 1.86-5.596 4.68-5.558.231-.008-.437-.657-.754-.908-.434-.159-1.393-.07-.499-1.106.489-.583 1.35-.561 2.013-.908.456-.239 1.26.014 1.263-.982.004-.997-.594-1.399-1.293-1.441-1.546.73-3.337.076-4.72 1.702-.742 1.03-1.429 2.072-2.121 3.107zM112.301 926.584c1.651 3.166 4.479 4.241 6.827 2.428 1.193-.934 2.203-.495 3.259.156 1.613.998 3.013.934 3.981-1.485l-.628-1.316c-.71-1.239-1.331-2.347-2.809-2.052-1.202.244-2.242-.989-3.25-1.89-.701 1.07-1.714.98-2.45 1.168-.894 1.679 1.977 1.761.541 3.186-.781.779-2.158 2.215-2.816-.747-.141-.55-1.795-.242-2.655.552zM130.576 927.632c1.25-.377 2.542 1.062 3.772-.253-.419-1.505-.516-3.678-2.167-3.299-1.236.255-1.581 1.93-1.605 3.552z"/>
            <path d="m125.721 926.501.629 1.328c.857.516 1.883.499 2.575 1.521-.215-2.803-1.237-3.766-3.204-2.849zM114.307 921.866c.423-.083 1.147-.13 1.05-.714-.225-1.342-1.13-1.086-2.051-1.045l1.041 1.805-.04-.046zM136.743 923.673l-.877-.197c-.264.252-.843.57-.462.961.491.508.938-.304 1.339-.764zM243.622 922.073l-1.099.04a2.034 2.034 0 0 1-.922-.447 2.833 2.833 0 0 1-.7-.91c-.754.027-1.566.356-2.19-.521a1.285 1.285 0 0 1-.49-.074c-3.041-.908-6.253 1.365-9.233-.654-3.95.233-7.9.459-11.851.724-.887.032-1.474-.599-2.077-1.268l-1.588 1.543c.386.638 1.414.418 1.413 1.709-1.091-.32-1.091-.32-1.389-1.697-1.037-.439-1.178.537-1.319 1.494-.512 3.492-1.729 4.057-4.013 1.857l-2.667-.634c-1.303 2.458-3.267 2.033-5.087 1.837-.283 1.829 1.383 1.658 1.184 3.347-1.598-1.403-3.337.458-5.083-.418-.9-.45-.59 1.207-1.058 1.648.287 1.091.762 1.797 1.733 1.808 4.903.059 9.801-.8 14.601-1.487 3.567-.505 6.913-.899 10.353.282 1.169.408 2.595.187 3.11-1.343 1.068-3.154 2.659-3.504 4.885-2.71.693.249 1.622-.162 2.345-.579 1.094-.633 1.857-.165 2.944.311 2.247.995 2.182 4.589 4.16 5.626 2.934-1.259 5.966 1.266 8.88-.722.229-.158.683.178.983.382.551.352 1.066 1.103 1.62 1.122 1.727.068-.18-1.343.395-1.878.414-.393.977-.615 1.215-.167 2.103 4.447 4.112-.323 5.485-.972 2.757-1.291 3.238-2.071 5.029 1.202l2.075-2.16c-.063-.597.418-2.035-.757-.944-.487.454-.887.755-1.429.331-.751-3.062-2.826-4.063-4.335-2.295-2.627 3.092-4.349.064-6.451-.473-.038.913.184 1.896-.356 2.561-1.59-1.788-3.287-3.428-5.32-3.799-1.217-.191-2.19-.527-2.996-1.672z"/>
            <path d="M208.15 924.571c2.298 2.282 3.523 1.696 4.039-1.926.141-.992.283-2.039 1.327-1.55l1.599-1.6c-3.588-1.734-5.806-2.869-6.965 5.076zM396.768 939.107c.945-.321 1.901-.635 2.847-.976 1.43-.512 3.438.215 3.041-3.608-.172-1.566.969-2.133 2.085-1.028a10.133 10.133 0 0 0 2.276 1.815c.625.33 1.631 1.027 1.111-1.273-.313-1.387 3.366-3.579 5.022-2.554 2.465 1.536 4.468-.922 6.71-1.183 1.541-.183 1.507-.928 2.025 1.092 1.204-1.51 6.48-3.407 6.743-2.284.843 3.566 1.484 1.664 2.329.201-1.525-1.123-1.824-6.508-4.887-2.426-.56.746-1.072-.274-1.479-.886-.773-1.111-1.585-2.173-2.382-3.243.014.239.015.479.004.719.19 1.225.374 2.451.579 3.782-1.791.112-2.759-1.458-3.842-2.737-.437.095-1.056-.029-1.29.32-3.114 4.569-7.062 2.995-10.826 3.371a7.703 7.703 0 0 1-3.878-.524c.02 3.17-1.364 2.421-2.689 1.836l-1.06-.781c-1.027-.346-1.977-1.009-2.777-1.937l-1.032-.009c-.786 2.953 2.344.914 2.084 3.408-3.207-.15-2.151 3.789-3.006 6.058l.138.088c2.217-1.233 1.266 2.092 2.164 2.766l-.01-.007zm1.617-5.927a1.2 1.2 0 0 1-.014.349c-.022.114-.06.222-.112.317a.81.81 0 0 1-.193.236.56.56 0 0 1-.244.118.664.664 0 0 1-.388.037.75.75 0 0 1-.359-.193 1.108 1.108 0 0 1-.26-.386 1.518 1.518 0 0 1-.11-.503c-.042-.545.339-.792.702-.819a.687.687 0 0 1 .612.165c.18.156.311.397.366.679z"/>
            <path d="M394.521 936.134c.861-2.308-.203-6.315 3.027-6.162.261-2.537-2.89-.463-2.098-3.467l-1.695-.615c-2.833-.689-2.062 3.132-2.311 4.435-.355 1.842-1.011 3.554-1.302 5.408 1.02.206 2.027.664 3.004-.456.8-.951.977.418 1.375.857zM396.407 926.547c.804.941 1.758 1.614 2.79 1.965.137-.904.227-2.34 1.093-1.892 1.079.555.07 1.762-.028 2.705 1.331.627 2.727 1.353 2.702-1.864-.544-2.683-2.486-3.112-3.88-4.352-.496-.462-1.029.302-1.177 1.071-.23 1.137-.585 2.056-1.5 2.367zM101.109 927.818c1.148 1.122 2.186 1.877 3.444-.072.911-1.379 2.349-1.256 3.509-.66.44.268.933.344 1.411.218.478-.125.92-.447 1.266-.922-1.285-2.434-1.951-5.887-5.186-4.665-1.119.424.081-1.92-.783-2.42-.807.963-1.779 1.624-2.822 1.92.33.909.656 1.825.926 2.575-1.547 2.687-4.64-1.679-5.695 2.792.988.636 1.95.863 3.017.01s.834.501.913 1.224z"/>
            <path d="M101.189 927.8c-.078-.722.218-2.102-.892-1.222-1.111.879-2.018.59-3.015-.011l-.182.007-.186.007c-1.08-.269-1.88.619-2.603 1.437-1.108 1.241-1.968-.203-2.923-.336-.797-.111-.092-1.338.032-2.061-1.116.041-1.786 3.085-3.22.97l-.039.874c-.128.676-.252 1.384-.375 2.073 1.075 2.014 1.843 2.254 2.757.644.292-.514.488-.588.814-.439.523.236 1.056.632.91 1.51-.233.866-.531 1.697-.89 2.481 1.305.308 2.01-.275 2.71-1.629.908-1.764 2.091-2.76 3.437-.649.745 1.167 1.362.688 1.92-.399.559-1.087 1.172-2.17 1.745-3.257z"/>
            <path d="M88.138 926.466c1.444 2.138 2.118-.952 3.241-.98l-.03.001c-.152-.713-.146-1.351.52-1.531.364-1.255.916-2.475 1.052-3.769.304-2.839 1.05.009 1.764-.539-.449-2.852-2.494-2.879-3.766-2.825-1.272.053-1.075 2.23-.7 3.647.644 2.424-.48 2.35-1.624 2.25.007 1.105.068 2.215-.525 3.145.026.216.047.405.068.601zM91.398 925.556c-.124.73-.83 1.952-.032 2.064.946.133 1.816 1.58 2.925.336.723-.813 1.524-1.702 2.603-1.439-.727-2.931-2.404-2.076-3.947-1.758-.338.981-.913 1.069-1.579.818l.03-.021zM101.97 921.129c-.071-1.098 1.529-1.67.713-2.727a2.88 2.88 0 0 0-1.123-.872 2.236 2.236 0 0 0-1.295-.14c-.984.387-1.477.48-1.722-.99-.15.444-.306.882-.456 1.32-.199 2.884 1.903 1.49 2.64 2.604l1.243.805z"/>
            <path d="M100.742 920.31c-.736-1.14-2.837.253-2.638-2.602-.496-.393-1.038-1.156-1.634-.331-.596.825.01 1.551.32 2.188 1.077 2.126 2.494 1.696 3.952.745zM91.364 925.539c.667.253 1.243.164 1.582-.822l-1.064-.704c-.664.2-.67.815-.518 1.526zM188.35 924.023c2.125.317 2.53-2.475 3.72-3.856l-.075-.258c-.532-.937-.683-2.31-1.663-2.742l-1.703-1.945-.182.007-.152.005-1.098 1.258a8.743 8.743 0 0 0-2.255.898c-1.672 1.252-1.705-.098-1.632-1.733-1.026.111-2.013.611-2.851 1.442-1.187 1.074-1.272.047-1.334-1.169-.036-.279-.077-.565-.114-.845-.979.591-1.759 3.055-3.074.293-.533-1.118-1.545.458-2.324.868.157.723-.055 2.082.779 1.864 2.217-.569 3.937.994 5.81 1.949.832.103 2.103-.913 2.426.393.726 2.977 2.473 2.659 4.106 2.867l1.076-.809c.075-2.197 1.291-2.602 2.571-2.903-1.062.64-.466 3.964-2.601 2.871.003.495.041.982.059 1.476.171.007.342.03.511.069z"/>
            <path d="M180.252 920.02c-1.878-.962-3.602-2.565-5.826-1.964-.836.22-.623-1.15-.78-1.879l-.551-.729-.271.01-.266.01c-.077 1.156.738 2.266-.051 3.697-1.491-2.137-2.337-.966-3.249 1.293 2.694.501 2.847 2.235 1.404 4.709 1.137-.298 2.268-.643 3.409-.88.733-.148 1.133-1.674 2.123-.84 2.308 1.945 3.921.55 4.058-3.427zM178.952 912.026c-.222-3.181 1.971-.946 2.675-2.292-1.341-1.86-3.199-1.643-4.958-2.438 1.609 2.04 1.587 4.004.036 5.774.787 1.06 1.485.398 2.142.28.017-.448.044-.882.105-1.324zM179.09 915.862c.061 1.187.147 2.251 1.336 1.173.838-.834 1.827-1.336 2.854-1.447.055-.674-.267-.91-.681-1.009l-2.512 1.106-.997.177zM188.592 915.194l1.708 1.965 1.026-1.538-2.71-1.253-.024.826z"/>
            <path d="M178.967 912.046c-.047.444-.089.882-.136 1.367l.145 1.607c1.13-2.934 1.13-2.934-.009-2.974zM180.077 915.664l2.512-1.094c-1.214-1.434-1.916-.38-2.512 1.094zM187.138 916.481l1.101-1.271c-.182-.234-.422-.366-.674-.372-.251-.005-.497.116-.691.341-.524.621.015.926.264 1.302zM298.788 924.909c-1.642-2.776-4.045-.46-5.994-1.432-.724-.356-1.71.352-2.519-.311-1.408-.707-2.833-1.144-4.33-.378-1.396.387-2.057 4.381-3.616 2.301-1.232-1.631-3.113-.501-3.941-2.542-.192.667-.242 1.987-1.042 1.139-.988-1.052-1.749-.28-2.62-.024-.078.88 1.066 1.076.67 2.007-.242.569-.788.252-1.206.096.074 1.606.416 2.985 1.666 3.58 3.605.529 3.932 1.045 8.28-1.836.259-.085.529-.095.789-.028 4.486.247 9.014-1.322 13.464.245-.094-.854-.306-1.762.52-2.26a6.8 6.8 0 0 0-.121-.557z"/>
            <path d="M278.392 922.361c.808 2.095 2.701.936 3.965 2.608 1.568 2.133 2.233-1.963 3.637-2.36.176-1.88-1.361-2.182-1.72-3.569-1.83.9-2.766-1.873-4.365-1.909-.79-.018-2.243-1.223-1.609 1.568 1.33 1.107.375 2.414.092 3.662zM170.707 925.064c1.462-2.473 1.289-4.204-1.403-4.705.912-2.257 1.776-3.434 3.247-1.292.788-1.43-.016-2.539.05-3.694-1.548-.387-3.436 1.582-4.666-1.371-.24-.584-1.509-.349-2.302-.488-.926-.034-2.01 1.387-2.736-.493-1.223.524-3.051.227-3.07 2.747-.019 2.521-.922 3.699-2.717 4.142.989.543 1.827.802 2.652 1.163.182.074.076.401-.185.424-.088.01-.177.014-.266.01l-.483 1.507c.877 1.585 2.053 1.541 3.281.978a2.12 2.12 0 0 1 1.738-.004c2.21.701 4.439 2.054 6.86 1.076zm-9.959-6.116a2.274 2.274 0 0 1-.18-.438c-.001-.061.112-.247.126-.24.12.081.236.174.347.277l-.293.401z"/>
            <path d="M159.331 921.311c.088.004.177.001.265-.009.261-.01.367-.35.185-.424-.824-.36-1.672-.611-2.65-1.16 1.793-.415 2.687-1.517 2.715-4.134.028-2.616 1.846-2.219 3.068-2.741l-.689-.815c-2.615 1.212-5.311-.188-7.938.647-.736 1.126-1.665 1.986-2.7 2.5l.536.814c.694.041 1.292.457 1.289 1.438-.004.982-.808.743-1.264.981-.662.347-1.518.325-2.011.908-.88 1.034.079.945.499 1.104 1.158-1.172 2.395-.921 3.521-.169 1.671 1.149 3.394 1.247 5.174 1.06zM174.562 910.732c-.247-.898-.426-1.961-1.41-1.532a.581.581 0 0 0-.233.174.88.88 0 0 0-.157.294 1.11 1.11 0 0 0 .018.703c.436 1.23 1.124.785 1.787.354l-.005.007z"/>
            <path d="M162.863 912.938c.724 1.853 1.805.452 2.728.485-.849-.7-1.805-.432-2.728-.485zM262.336 918.083c.672.867 2.813.247 1.597 3.015.746.189 1.38.625 1.378 1.801.011 1.796.94 2.073 1.898 2.362 1.137-1.947 1.699 1.147 2.691.516-.239-1.91-1.277-3.885.345-5.627l.062-.246c-2.562-1.311-5.177-2.221-7.971-1.821zM278.436 922.296c.307-1.247 1.261-2.552-.117-3.656-1.275 1.202-3.195.226-4.168 2.429l-.127.255.59 2.004.139.116c.876-.262 1.661-1.053 2.634.025.78.89.831-.483 1.049-1.173z"/>
            <path d="M274.164 921.021c.285-1.893-.018-2.858-1.61-2.027-.749.393-1.533.652-2.298.972l-.062.239c.857 1.066-.122 2.653.658 4.094.313-.82.767-1.525 1.323-2.052.556-.527 1.195-.861 1.862-.971l.127-.255zM170.734 925.8c-2.421.949-4.631-.363-6.872-1.06a2.163 2.163 0 0 0-1.731.003c-1.222.547-2.394.589-3.267-.948-2.073.205-4.22-.502-6.167.992.01 1.613 1.454 1.869 1.796 3.281-.977.603-1.769.854-2.685.338-1.152-.665-2.113-.787-1.411 1.599l-1.024.174c.595 1.801 2.346 3.326.684 5.672 1.714.455 3.867-.276 4.989 1.781.947 1.737 1.685 1.299 2.879.923 1.869-.583 3.91-2.055 5.489 1.018.566 1.091 1.681.593 2.45-.205.833-.899.336-1.933.05-2.922-.226-.789-1.115-1.744-.168-2.412.811-.571 1.23.61 1.481 1.483.772 2.507 2.075 3.087 4.062 2.507 1.987-.581 3.752-2.84 6.078-1.884.773.305 1.591.37 2.392.188.802-.181 1.564-.604 2.23-1.236 2.258-1.969 4.27.5 6.418.515.063-.002.123.152.187.235 2.409 3.18 5.499.953 8.063.887 2.73-.098 2.727-1.313 3.936 2.054l.558.673c.796-1.336 2.362-1.771 2.814-.911 1.241 2.359 2.665 1.08 4.067.991.613-.022 1.237.171 1.839.064 1.171-.198 2.413 2.266 3.254.491.9-1.907-1.854-1.678-1.834-3.913 2.004.51 3.926.513 5.479 2.665.886 1.23 1.822 2.581 3.236 2.877l.476-2.18-.005-.712c.282-1.153.89-1.149 1.584-.828.052-1.818.262-3.374 2.094-2.289l1.627.595c4.242-2.112 8.458-4.589 13.114-2.692.983.396 1.143.005.748-1.131-1.968-1.04-1.913-4.642-4.161-5.639-1.067-.478-1.83-.947-2.944-.313-.723.418-1.652.831-2.345.581-2.207-.796-3.798-.445-4.886 2.717-.515 1.534-1.95 1.755-3.11 1.346-3.44-1.184-6.787-.783-10.353-.282-4.826.689-9.714 1.55-14.603 1.49-.981-.011-1.447-.719-1.733-1.813-1.977-2.34-4.858-2.008-7.003-3.898-.92.347-1.828.987-2.803.323l-.98.192c-.299.455-.69.786-1.125.951a1.748 1.748 0 0 1-1.32-.021c-1.966-.668-2.627 1.113-3.032 2.846-.797 3.387-.791 3.596-2.559 1.712-1.091-1.169-1.969-1.184-3.047-.315-.559-2.26-1.268-4.345-3.133-5.213.046-.444.119-.884.217-1.314l.01-.033zm-1.748 2.676c.148.093.393.136.428.272.116.473-.168.555-.413.498-.133-.028-.237-.252-.351-.386l.336-.384z"/>
            <path d="M185.706 926.612c.99.686 1.893.025 2.817-.333.126-.333.181-.706.159-1.076a2.418 2.418 0 0 0-.28-1.017 2.799 2.799 0 0 0-.533-.028c-.575 1.033-1.315 1.873-2.163 2.454zM238.656 921.106c.625.904 1.439.538 2.196.538-.366-2.721-1.472-.309-2.196-.538zM238.175 921.004c.162.059.329.085.497.077.027-.457.049-.913.071-1.364-.744.021-.447.834-.568 1.287zM267.235 925.222c-.956-.287-1.891-.561-1.892-2.341-.008-1.158-.63-1.597-1.373-1.784-1.379 1.838-3.2 1.456-4.863 1.905-1.185 1.442-2.613 1.802-4.126 1.891-1.017.037-2.149-.162-2.783 1.441 2.107.552 3.832 3.662 6.466.486 1.512-1.816 3.592-.801 4.344 2.358.1-1.402.7-2.08 1.691-2.271.963-.122 1.866-.722 2.536-1.685zM255.288 920.102c-.025.79-.487 1.623.054 2.352a.384.384 0 0 0 .467-.017c.572-.77.055-1.533-.014-2.306a1.175 1.175 0 0 0-.507-.029z"/>
            <path d="M243.551 923.114c.812 1.208 1.791 1.537 3.012 1.77 2.046.385 3.754 2.087 5.355 3.943.543-.697.32-1.71.358-2.658-.991-.64-.865-4.304-2.929-1.922a14.802 14.802 0 0 1-.957-1.615c-.691-1.557.347-2.096.969-2.87l-.562-.703c-1.343 2.356-3.553 2.566-5.246 4.055zM191.328 915.683l-1.03 1.544c.993.438 1.14 1.829 1.676 2.779l1.124-.787c-.269-1.432-.895-2.682-1.77-3.536zM395.45 943.716c1.333-1.752 2.595-3.697 4.761-3.2-.569-2.181-2.316-.891-3.279-1.907-1.124-.169-1.806 2.023-2.85 1.329-.699-.432-1.481-.585-2.252-.442-.771.144-1.498.578-2.097 1.251-1.947 2.225-3.657 1.725-5.599.854-.372-.64-.884-.994-1.366-.389-1.405 1.781-2.978 1.191-4.545.816-.891-.569-1.557-1.981-2.83-.878-2.258 1.955-4.562.542-6.864.135-.898-.007-1.78.821-2.696.181a7.628 7.628 0 0 0-1.228-.282c-.682 2.976-2.181.914-3.312 1.111-1.132.197-1.74-.695-2.428-1.643-.455-.637-1.421-1.256-1.469.353-.031 1.96-.693 1.22-1.502 1.255-2.716.097-4.888-3.599-7.818-1.718-2.893.685-5.52-.638-8.171-1.758-1.244-.524-1.662-1.586-1.158-3.224-.881.537-1.856.717-2.803.519-.947-.199-1.824-.767-2.52-1.634-1.205.115-1.967-.948-2.753-1.861l-1.054.038c-.157.796-.166 1.678-.8 2.164-.947-2.421-3.186-.539-4.235-2.055-.861-1.223-1.322-1.259-2.075-.089-.322.513-.757.879-1.241 1.043a1.781 1.781 0 0 1-1.45-.13c-1.239-.505-.501-1.7-.449-2.662.053-.962-.699-1.993-.93-1.273-.779 2.392-2.991 2.282-3.748 4.275-.897 2.37-1.834 2.972-3.196.872-.496-.779-.894-1.777-1.557-.356-1.025 2.205-2.96 2.588-4.323 4.073l-.559.06a38.235 38.235 0 0 0 2.251 2.988c.637.702 1.288 2.037 2.24 1.357.951-.681.85-1.99.47-3.171-.461-1.42.186-2.247 1.079-2.155 2.861.277 5.673 1.456 8.6.567.122-.004.3.218.438.363 2.498 2.601 5.698 2.95 8.499 4.581 1.117.613 1.77-.012 2.065-1.296.754-3.22 1.081-3.415 2.933-1.411.855.923 1.776 3.143 2.164-.548.083-.793 1.091-.417 1.59.153.726.835 1.423 1.712 2.135 2.574 1.101-1.907 2.219-2.554 3.265-.045.31.737.825 1.278 1.437 1.508.611.231 1.27.133 1.837-.273 4.395-2.855 7.179 2.289 10.76 3.33 1.27-.046 2.577-.432 3.774.459l2.161.576 1.074-.078 2.681-.181 3.769.453a99.096 99.096 0 0 1-1.241-2.333c.198.287.144.38-.136.194-.281-.185-.424-.317-.636-.48l.247-.42c.204.195.381.433.525.706 2.342-1.736 4.417.671 6.569.535l1.059-.038c2.733.288 5.624-.756 8.106 1.571l.534-.019c.359-.021.71-.161 1.021-.407.31-.246.572-.59.76-1.002 1.258-3.421 3.301-3.573 5.636-2.677l-.004-.718c.481-1.408 1.035-1.441 1.602-.11.303.499.604.886 1.132.619zm-19.256.69-.366.288a2.984 2.984 0 0 1-.11-.258c.116-.108.237-.209.361-.3.04.123.07.2.115.296v-.026zM149.409 929.428l1.026-.178c-.703-2.447.261-2.322 1.415-1.64.918.529 1.718.272 2.692-.347-.343-1.448-1.785-1.711-1.801-3.365 1.957-1.54 4.105-.821 6.183-1.018l.482-1.498c-1.778.185-3.499.088-5.153-1.005-1.125-.749-2.361-.999-3.519.169.317.257.989.902.753.904-2.817-.031-4.645.84-4.674 5.533.006 1.025-2.088 2.563-3.426 2.384-1.968-.27-3.93.459-5.874.128l-1.608 1.533c3.218 4.326 6.848 2.27 10.428 1.019a.57.57 0 0 0 .24-.141.828.828 0 0 0 .179-.261 1.122 1.122 0 0 0 .066-.688c-.383-4.597 1.242-2.632 2.591-1.529z"/>
            <path d="M305.635 937.846c1.365-1.543 3.302-1.933 4.329-4.156.664-1.45 1.058-.432 1.559.363 1.364 2.142 2.303 1.529 3.202-.89.758-2.026 2.973-1.92 3.753-4.361.231-.735 1.013.256.932 1.299-.082 1.042-.792 2.201.449 2.715.458.255.967.301 1.452.134.485-.168.921-.541 1.243-1.065.754-1.213 1.216-1.157 2.078.091 1.051 1.514 3.293-.373 4.241 2.098.636-.496.645-1.396.801-2.208-.202-.986-.405-1.984-.612-2.956-1.426-.235-2.8-2.33-4.322-.029-.282.43-.83-.004-1.157-.478-1.031-1.502-2.099-2.729-3.859-2.265-.731.187-.635-.876-.462-1.609l-.53-.587c-1.305 2.506-5.106-.713-5.315 4.345.001.133-.322.391-.435.349-2.309-.942-5.163 1.96-7.082-1.674-1.897 1.255.36 1.839.198 3.417-2.364-1.986-3.884-6.188-7.197-4.455-.827.503-.615 1.422-.521 2.284-.077 1.023.012 1.939.926 2.099 1.573.262 1.882 1.744 1.874 3.543l1.124.625 1.099.68c2.703-2.077 2.297.563 2.232 2.691z"/>
            <path d="M305.865 926.778c1.921 3.658 4.779.737 7.091 1.685.113.043.431-.217.435-.351.209-5.09 4.015-1.85 5.322-4.372-.584-.723-1.106-1.542-2.001-1.637-1.147-.119-2.867 2.277-3.258-1.222-.928 1.69-2.643.392-3.477 1.469-1.248 1.648-2.098.204-3.117-.027.001.228.003.449-.03.671 1.404 2.048-.973 2.383-.965 3.784zM306.729 919.095c.401-.561 1.19-1.251.589-1.945-.749-.856-1.596.059-2.326.68.395.883 1.061 1.094 1.737 1.265zM248.385 942.324c.635.412 1.285.791 1.906 1.23 1.26.896 2.288 2.137 3.968.416.784-.8 2.478-.477 3.637-.084 2.241.764 2.317 2.701.812 4.856 1.015.846 1.826.473 2.311-.413 1.279-2.336 2.926-2.414 4.92-2.582 2.41-.216 5.21-.127 6.964-3.355.101-.186.315-.472.394-.436 3.757 1.741 7.191-3.137 11.073-1.043 1.825.986 4.269 2.942 5.667-1.545.24-.768 1.518-.995 2.372-1.505.717 1.602-.088 4.511 1.844 4.572 1.653.052 2.213-1.934 2.425-3.978.018-.243.082-.477.185-.682.103-.204.242-.372.406-.489a.912.912 0 0 1 .529-.178.89.89 0 0 1 .525.174c.724.494 1.961.047 2.109 1.651.111 1.254-.329 2.198-1.231 2.898-.693.537-2.419-.232-1.88 2.013.504 1.98 1.14 4.085 2.787 4.889 1.087.539 1.511-.618 1.386-1.788-.297-2.707.736-2.076 1.795-1.361 1.339.874 2.572 1.16 4.03.032 2.049-1.598 3.635.402 4.549 2.16 2.979 5.732 7.107 5.014 11.36 3.89.483-.113.978-.05 1.432.183.453.233.848.627 1.14 1.139 1.486 2.367 3.225 2.078 5.063 1.28 2.014-.87 3.856-1.033 5.401 1.247.797 1.185 1.501.946 2.145-.355 1.238-2.509 3.097-3.866 5.165-4.842 1.647-.779 3.115-1.188 3.971 1.571.451 1.457 1.143.874 1.893.082a2.62 2.62 0 0 1 1.226-.718 2.168 2.168 0 0 1 1.328.096c.429.171.819.475 1.138.888.319.413.558.922.697 1.485.151.565.155 1.117.637 1.353 2.459 1.209 5.832-.208 6.841-3.403.586-1.87 1.083-1.55 2.129-1.218 4.495 1.416 8.918 2.991 12.567 6.974.803.847 1.788 1.344 2.822 1.423 1.034.079 2.067-.263 2.96-.981 2.415-1.889 5.411-1.814 7.505-4.613.909-1.213 1.989-.24 2.945.459 2.349 1.733 3.559-.665 4.886-2.529 1.326-1.863.632-3.071-.587-4.319-1.348-1.385.053-1.513.629-1.968l-1.641-1.304c-.528.265-.829-.126-1.092-.61l-1.603.109.005.713c.77.764 1.481 1.563 1.356 3.462-2.239-1.996-4.018-.473-5.713 1.274-1.285 1.343-2.239 1.007-3.058-.676l-.535.019c-2.034 1.493-4.261 1.371-6.456 1.527-1.823.13-2.076-1.139-1.648-3.094l-1.058.038c-.07 1.3-.571 2.044-1.53 1.585-1.312-.602-2.54-.123-3.798.2l-3.768-.449c-.844 2.028-1.755 1.444-2.68.18l-1.073.077c-.873.744-1.524.138-2.161-.572-1.338.787-2.567.338-3.773-.456-1.535.665-3.09.564-4.677.653-1.961.109-3.394-1.747-5.374-1.573-2.729.24-5.141-1.302-7.244-3.569-.712-.857-1.409-1.727-2.135-2.558-.494-.566-1.506-.939-1.589-.151-.388 3.666-1.31 1.461-2.164.544-1.876-2.022-2.203-1.828-2.932 1.402-.296 1.276-.968 1.929-2.065 1.287-2.8-1.62-5.999-1.966-8.496-4.55-.139-.144-.317-.397-.439-.361-2.936.883-5.738-.288-8.598-.563-.893-.091-1.539.704-1.079 2.141.39 1.199.433 2.514-.47 3.15-.902.635-1.602-.65-2.239-1.348a37.805 37.805 0 0 1-2.25-2.968 1.63 1.63 0 0 1-.673-.499 2.338 2.338 0 0 1-.434-.844c-.402-.07-.777-.302-1.073-.663-.297-.361-.501-.836-.587-1.36l-1.122-.609c-.853-.021-1.551-.321-1.971-1.448-.354-.999-1.235-1.564-1.715-.691-1.013 1.84-1.326.365-1.963-.319-1.111-1.213-2.566-2.504-3.407.037-.841 2.54-1.444 4.106-3.555 2.112a1.046 1.046 0 0 0-1.021-.12c-2.782 1.105-5.54 1.443-8.333.161-1.578-.722-2.679-2.636-4.431-2.891-.737-.363-1.47.052-2.3-.223-2.408-.803-4.91-1.051-7.353.171l-2.074 2.15c-1.791-3.258-2.272-2.482-5.028-1.196-1.373.645-3.397 5.395-5.485.967-.213-.447-.8-.225-1.214.166-.575.533 1.331 1.938-.395 1.87-.554-.019-1.069-.767-1.62-1.117-.315-.203-.768-.537-.983-.38-2.929 1.979-5.955-.534-8.879.719.395 1.127.221 1.516-.747 1.123-4.655-1.884-8.87.556-13.111 2.672.473 1.93 1.037 2.759 2.956 2.334 2.164-.473 3.863-2.252 5.939-2.715.661-.147 1.273-1.025 1.96-.206 1.946 2.227 4.575 1.043 6.843 2.162 1.672.758 3.578.742 4.977 2.502zm51.567 1.271c.001.103.051.199.071.302-.137.06-.275.111-.416.151a1.764 1.764 0 0 1-.065-.283l.41-.17zM265.2 929.926c2.448-1.255 4.964-1 7.366-.176.812.271 1.565-.143 2.304.23l1.051-.758c-1.251-.62-1.594-1.993-1.668-3.615-.718-.267-1.541.129-2.189-.586-.284 2.387-1.333 1.101-2.16.878-.978.621-1.547-2.428-2.679-.509-.673.949-1.575 1.536-2.534 1.651-.981.189-1.591.863-1.69 2.259.543.433.944.125 1.432-.339 1.186-1.108.705.354.767.965zM213.494 921.12c.3 1.432.3 1.432 1.398 1.765-.008-1.356-1.033-1.081-1.422-1.778l.024.013zM170.717 925.309c-.099.444-.171.898-.218 1.356 1.872.895 2.585 3.047 3.146 5.379 1.093-.897 1.965-.881 3.061.325 1.775 1.958 1.769 1.729 2.57-1.766.407-1.788 1.075-3.625 3.044-2.936.429.185.89.193 1.327.022.437-.17.83-.512 1.13-.982.152-1.711 1.345-2.213 2.048-3.29-1.651-.209-3.388.124-4.116-2.89-.323-1.336-1.597-.291-2.43-.396-.138 3.976-1.749 5.37-4.052 3.439-.99-.833-1.389.691-2.122.839-1.146.258-2.276.603-3.388.9zM187.766 922.642c2.153 1.105 1.545-2.256 2.612-2.904-1.286.304-2.508.714-2.583 2.937l-.029-.033z"/>
            <path d="M186.761 923.492c-.705 1.083-1.902 1.587-2.054 3.306l.986-.199c.85-.583 1.592-1.426 2.169-2.463-.003-.501-.041-.994-.059-1.494l.03-.002-1.072.852zM272.039 925.002c.649.723 1.478.322 2.193.592.42.16.988.482 1.211-.098.397-.949-.751-1.149-.673-2.046l-.138-.116c-.883.496-2.333-.708-2.593 1.668zM160.764 918.891l.293-.405a2.827 2.827 0 0 0-.346-.28s-.142.182-.127.243c.046.157.107.306.18.442z"/>
            <path d="M272.038 924.97c.262-2.391 1.716-1.179 2.602-1.678l-.59-2.008c-.666.109-1.305.442-1.86.969-.555.527-1.009 1.231-1.321 2.05-.779-1.439.198-3.025-.658-4.089-1.623 1.751-.584 3.729-.345 5.641.831.234 1.886 1.541 2.172-.885z"/>
        </g>
    </g>
</svg>
