<svg width="404" height="791" fill="none" xmlns="http://www.w3.org/2000/svg">
    <path d="M357.422 24.905c0-.113.002-.226.006-.34l-.074-.137c-.104-.406-.244-.662-.397-.726-.153-.064-.311.067-.447.373-.256.814-.529 1.55-.816 2.202.122.104.242.242.358.413-.109.314-.226.581-.349.796.356 2.66.413 5.787.159 8.728-.045.303-.095.597-.149.88a20.64 20.64 0 0 0-.643 1.852l.092.871c-.123-.24-.259-.382-.4-.417-.141-.035-.284.038-.421.214l-1.08-.793c-2.404-1.493-2.438-1.399-2.812 6.274l.907.517.595.35.177.098-.002.122-.002.122.051.001a8.515 8.515 0 0 0-.236 1.288c-.055.482-.082.995-.079 1.507l-1.643.353c-.696 3.1-1.317 2.955-1.866-.22-.146.123-.297.105-.436-.055s-.263-.454-.358-.856l-.955.433c-.69 2.245-1.336 2.098-1.943-.032l.096-1.846c.14-2.526.353-4.86 1.149-5.58.027-1.658.08-3.315.118-4.973l-.05-.272c-1.041-.344-1.81 3.014-2.735 4.263l-.269 6.396-.037.91c-.727 4.568-1.229.687-1.818-.288-.483 3.01-1.258 2.698-1.944 3.393-.254-.507-.611-.975-.898-1.469-.287-.494-.452-.904-.46-1.489-.091-4.69-.475-4.587-1.381-2.74-.489.97-1.123.511-1.698.651-.005-1.02-.014-2.052-.033-3.072l-.454-.36c-.258-.243-.537-.101-.779.395a5.27 5.27 0 0 0-.301 1.038c-.081.415-.14.882-.172 1.373l1.466.798.117.002.106.002c-.012.22-.028.438-.047.652-.104 1.389-.314 2.657-.603 3.646-.214.73-.402 1.559-.558 2.464l-4.449-.794c-1.351.372-2.648 3.64-4.022 2.53-.411-.333-1.04.255-1.078-2.07-.026-1.55.309-3.31.482-4.966-3.128 3.564-6.156 4.167-8.915-2.755.042-1.22.119-2.426.231-3.598.064-.79.177-1.525.328-2.145.151-.62.337-1.11.543-1.428l.055-3.356.062-3.736c-.22-.316-.45-.534-.686-.65-.452 2.9-1.108 3.515-1.819 3.557l-.128-.002a15.93 15.93 0 0 0-.013.788c.074 1.945.506 4.086-.037 5.626-.06.128-.122.245-.185.35-.065.15-.135.277-.206.377a26.65 26.65 0 0 0-.05 3.057c-.871-.014-1.971 1.463-2.572-.137-1.666-4.444-3.712-2.154-5.421-5.077.044-.678.092-1.357.139-2.036.048-.678.077-1.127.119-1.697-.124-.41-.253-.792-.374-1.215a38.326 38.326 0 0 0-.888-2.923c-.979-2.571-1.17-2.941-1.471.737a261.26 261.26 0 0 0-.215 3.15c-5.462-.39-10.651-5.612-15.876-9.992-2.229-1.857-4.523-2.248-6.746-5.384-2.099-2.956-4.731-.485-7.12-.402-.642-3.979-1.677-4.24-2.728-3.959-.235.142-.472.054-.688-.255-.216-.308-.404-.827-.544-1.504-.288-1.8-.416-3.918-.367-6.068-1.278 2.344-1.741 3.26-1.746 5.3.054 1.754.177 3.455.366 5.047-1.038-.289-2.151.223-3.104-1.016-5.742-7.473-11.732-6.362-17.761-3.893-1.811.547-3.618.059-5.357-1.446a46.22 46.22 0 0 0 .054-4.838 4.131 4.131 0 0 0-.133-.944c-.072-.247-.164-.395-.264-.421-.226-.004-.373.496-.465 1.215a48.037 48.037 0 0 0-.272 4.807c-3.953 1.199-7.88-.945-11.847 2.21l-4.631-2.331a.756.756 0 0 1-.002.095 80.466 80.466 0 0 0-.211 3.53c-.228.23-.465.139-.666-.256a45.08 45.08 0 0 0 .005-4.077c-.008-.176-.02-.35-.036-.517-.059-.642-.161-1.208-.298-1.645-.137-.437-.304-.731-.485-.854-.051.923-.099 1.833-.15 2.715-.077 1.358-.15 2.716-.227 4.073-1.18.13-2.327-.133-3.221-3.654-1.543 3.386-3.043 3.946-4.773 3.4-2.799-.888-5.686.641-8.541 1.37-.912.229-1.809.73-2.638-.995l-.341.796-.295-.888c-.741.708-1.49 1.96-2.221 2.029-5.433.563-10.862.882-16.297 1.282-1.296 4.137-2.649 2.58-3.994 1.918-1.943 1.11-3.928 3.483-5.816 2.99-1.887-.493-3.768 3.512-5.78.802-1.38-1.857-3.242.98-4.869 2.366-1.338 1.147-2.649 2.838-3.98 1.294l-.893-.232c-1.816 3.395-3.665 3.201-5.509 2.546-.81 3.14-1.787 3.137-2.759 3.298-1.282 4.572-2.477 9.01-4.344 5.718-1.297-2.29-2.941 1.5-4.299-1.267-3.368-.463-6.757.123-10.13 1.75-.241.66-.527 1.03-.819 1.059-.291.03-.572-.284-.802-.895-1.529 2.415-3.173 3.428-4.788 2.952-1.744 5.639-3.791 4.654-5.725 6.13-.529 1.16-1.151 3.474-1.56 3.073-2.616-2.502-5.348 6.069-7.9.754-2.676 1.981-5.344 3.99-8.019 5.93-.439.319-.888.38-1.329.562l-.249.961-.278-.616c-3.164 7.137-6.428 14.637-9.692 13.645-.465 2.086-.882 1.943-1.26-.102l-.244-.004c-1.196 5.118-2.594 2.553-3.843 2.288-2.098-.664-4.233 1.499-6.02 6.098l-.042.095c-1.805 4.251-3.685 2.454-5.512 2.709-.699 2.353-1.387 3.85-2.011.375-.039.176-.088.32-.142.418-.055.098-.115.148-.174.147-.06 0-.117-.053-.169-.153a1.585 1.585 0 0 1-.128-.422c-.094.406-.193.893-.292.933-1.759.772-3.333 3.152-4.526 9.221h.022c-.071.98-.225 1.865-.439 2.52-.213.657-.474 1.048-.743 1.117-1.707 7.84-3.747 7.277-5.831 5.666a1.99 1.99 0 0 1-.156.535c-.064.125-.134.186-.204.175-.07-.011-.137-.093-.193-.236a2.412 2.412 0 0 1-.127-.58c-.568.86-1.156 2.495-1.71 2.445-4.445-.331-8.936 3.428-13.364 1.602-.375.54-.773.778-1.165.696-.393-.081-.771-.48-1.11-1.168-.604 1.988-1.121 1.735-1.576-.515-.286.933-.517.793-.69-.433l-2.66-.044c-1.445 7.067-2.228 15.618-2.22 24.25.015 3.03.448 6.422-.269 8.788-.82 2.705-1.747 5.408-2.711 6.615-.964 1.207-2.085.89-3.117.669-1.115-.25-1.604 2.923-2.162 5.998.544 2.401.423 4.9-.165 7.228-.59 2.327-1.298 4.857-2.206 5.128-.687 4.731-2.158 3.063-2.963 6.828-.395 3.839-1.152 3.596-1.915 3.379-.063.917-.196 1.761-.382 2.431-.185.669-.416 1.136-.664 1.344.004 4.43-.307 8.271-1.324 10.728-.127 3.302-.545 6.414-1.188 8.841-.052 1.888-.109 3.776-.162 5.665 1.602 6.318 2.461 13.739 1.834 23.745-.138 2.172.052 4.594.102 6.919 1.054 4.379 1.283 10.635 1.732 16.187.34 4.327.346 9.994-.983 13.479l-.03.434c.497 7.279 1.192 13.61 3.19 15.776.627.703 1.026 4.094 1.542 6.223.436-.136.867.159 1.25.855.382.697.702 1.769.927 3.108l.224-.54.182.655c.9.219 1.808.9 2.7.561 2.296-.886 3.101 4.685 3.438 12.586.607-.071.914 1.211.96 3.672.593 1.668 1.202 3.227 1.763 5.03.188.586.32 1.388.375 2.293.055.906.031 1.869-.068 2.754-.324 3.066-.964 2.988-1.535 2.244-.714-.922-1.362-2.319-2.042-3.512a1.998 1.998 0 0 1-.186.531c-.071.125-.148.189-.225.187-.077-.001-.152-.067-.22-.194a2.007 2.007 0 0 1-.167-.537c-.456 2.235-1.015 4.264-1.35 6.773-.466 3.444-1.083 3.298-1.783 2.852l-.826.815.062.001-.11.08c-.495 5.428-.968 10.706-.24 16.304.41 3.214.39 7.182-.567 9.952-.088 3.152-.377 5.838-1.062 7.634l.56 7.158c.777 1.059.743 4.687 1.182 6.814.44 2.127.304 3.729-.21 5.949-.357 1.503-.434 4.206-.598 6.432 1.055 4.38 1.66 9.948 2.297 15.558.232.358.425.975.555 1.77.13.795.19 1.731.173 2.686.244.211.455.734.598 1.479.143.746.21 1.668.188 2.611.366.789.696 1.779.98 2.938.376 1.949.565 4.249-.33 5.43-.014 2.229.277 3.824.77 2.84 1.342-2.696 1.965.902 2.634 4.12.18.845.382 2.724.285 3.28-.26 1.473-.626 2.66-1.051 3.421-.404.632-.995 1.084-1.3.318-.853-2.188-2.07-2.032-2.601-6.294-.125.223-.26.338-.396.336-.135-.002-.267-.122-.384-.349-.091.447-.177 1.03-.281 1.137-1.911 1.831-3.376 5.775-3.855 14.315l-.065-.001c.83 6.428.82 13.509-.202 19.621-.784 4.689-.298 6.355.32 9.111.88 3.914 1.063 7.247-.705 8.795-.57.493-.916 3.382-.61 6.065.176 1.264.27 2.677.275 4.132a34.377 34.377 0 0 1-.245 4.267l-6.031-1.458c-.255.527-.54.795-.823.776-.284-.019-.557-.325-.79-.884-.42 1.31-.904 2.298-1.42 2.902-.518.605-1.056.812-1.583.609-.815 3.873-2.102 3.485-3.022 6.447l.102.422c-.145 2.376-.286 4.766-.43 7.142.75 3.98.647 4.944-.821 8.263-.145 2.172-.294 4.33-.439 6.489.908 4.445.422 9.384-.052 14.092-.545 5.427-1.229 10.444-.303 16.017.332 1.963.12 4.908-.328 7.062-1.02 4.93-.872 10.735-.996 16.292 1.3 4.968-.014 13.318 1.097 18.677 1.012 4.95 1.987 10.198 2.917 15.5.236 1.363.258 3.375.375 5.116 1.163 3.145.733 7.799.414 12.347l-.555-.376-.418-.292c-.237.343-.492.433-.734.259a314.59 314.59 0 0 0-.334 3.501c.095.961.103 2.028.023 3.044l.513 3.624.205 1.458c-.144 2.335-.448 3.757-1.069 3.38a15.334 15.334 0 0 1-.679 2.285c-2.812 4.969-2.87 5.389-1.643 15.969.77 1.48.777 4.633.866 7.611.932 4.092.898 5.07-.327 8.855a145.344 145.344 0 0 0-.25 7.199 306.817 306.817 0 0 1-.906 29.883c.2.474.36 1.152.459 1.958.099.807.135 1.713.104 2.618.513 1.848.98 3.861 1.4 6.016.49 2.957.246 5.44-.643 6.703-.295 1.379-.486 3.014-.55 4.724a32.176 32.176 0 0 0 .18 4.96c.226.216.426.681.575 1.337.148.656.238 1.472.258 2.346 1.731.884 2.605 4.758 2.434 12.271 1.098 1.513 1.679 5.219 2.224 9.087.974.614 1.992.808 2.684 4.121 5.946 4.433 12.073 3.351 18.107 5.068 1.909-2.782 3.645.059 5.451 1.054 1.775-.664 3.554-1.3 5.326-2.019.683-.4 1.372-.254 2.022.427.65.681 1.245 1.882 1.745 3.522 1.23-2.984 2.519-2.677 3.812-2.194.226-1.138.457-1.215.693-.26.594-2.192 1.128-2.088 1.604.257l.152-.84.228.303c3.749-2.738 7.35.365 10.993 1.621.084.001.144.573.21 1.049 2.706-1.423 5.405-2.629 8.063-.479.702.569 1.404 1.07 1.91 3.307a1.61 1.61 0 0 1 .178-.486c.069-.107.142-.15.214-.126.072.024.14.115.198.264.059.149.105.352.136.591 1.127-2.074 2.37-3.196 3.492-2.226 3.994 3.436 8.17.868 12.19 3.339 1.476.908 3.033.213 4.552.252 1.653-2.963 3.237-3.725 4.645 1.109l1.64-.259c.414-1.352.911-2.284 1.44-2.699.529-.415 1.07-.296 1.566.343l.265-.77.235.765c2.409-3.276 4.766-1.662 7.144-1.092 1.643.58 3.298.806 4.958.679 4.668-.807 9.324-.622 13.986-.831.527-2.356.985-2.036 1.392.254.221-.515.477-.76.729-.697.253.063.489.43.672 1.046 1.029-2.048 2.048-3.703 2.91.415l1.625.502c.362-.999.734-2.542 1.088-2.577 1.516-.179 3.023.171 4.533.332 1.585-3.072 3.194-2.285 4.805-2.028 1.774.274 3.55.494 5.321.727.535-2.614 1.007-2.253 1.433.2.37-.71.78-1.033 1.184-.933.404.101.786.62 1.103 1.5 1.307-3.417 2.481-2.351 3.597.725 2.683-5.989 5.521-1.662 8.252-4.567 1.514 4.102 3.18-.083 4.767.011 2.043-4.764 4.097-1.034 6.147-1.816 4.035-1.537 8.028.594 12.068-2.356 1.511-1.216 3.053-1.43 4.553-.632 1.036.615 2.247 1.681 3.159.051 2.332-4.133 4.537-1.909 6.754-1.248 4.532 1.284 9.065-.191 13.618-2.195.584-.249 1.176.549 1.765.871.269-.439.551-.75.839-.924 1.894-1.953 3.785-.984 5.677-.994.11-.46.225-1.246.331-1.258 3.939-.588 7.878-4.954 11.814-3.53l.28-.851.256.819c.72-.808 1.449-1.472 2.183-1.989 1.361-.712 2.461 1.78 3.666 3.662 1.016 1.579 1.921-5.976 3.271-5.179.549.322 1.155-.443 1.519 1.819 3.633-5.907 7.326-5.003 11.018-4.97 1.919-1.463 3.834-3.063 5.756-4.254.369-.239 1.103.779 1.138 1.717.032 1.576.173 3.072.41 4.342l1.301.021c.291-.593.584-1.349.845-1.956 2.327-5.398 4.829-5.479 7.285-7.41.966-4.441 1.684-1.739 2.397 1.018.107-.324.238-.974.313-.892.224.3.437.686.637 1.152.164-.499.353-.862.554-1.064 1.172-2.115 2.321-3.088 3.364 1.115.464-2.711 1.205-4.764 1.801-3.531 2.291 4.726 4.997 2.256 7.333 5.815.553-3.022 1.187-4.371 2.176-3.716 1.713 1.116 3.472 1.416 5.213 1.961.538-3.456 1.383-4.299 2.25-4.964.739-.572 1.476-1.063 1.966-4.045l.45-.128 1.249-.347a33.28 33.28 0 0 0 .221-3.258c.248.007.494-.312.694-.9.2-.588.342-1.408.402-2.316a87.35 87.35 0 0 0 .232-3.72l14.437-.511c.237 1.437.353 3.126.332 4.858a80.767 80.767 0 0 1-.292 5.757l1.423.811c.11-.413.239-.743.381-.972.758-1.853 1.638-2.821 2.52-2.771h.019l-.08-.001.585-2.6.763-3.399c1.929 1.296 3.845 2.958 5.793 3.751 1.21.482 2.333.922 3.068 5.201.144-.226.3-.298.451-.209.15.089.288.336.397.712.113-.202.237-.648.33-.565.203.221.397.525.58.906 1.276-.713 1.833 1.784 1.871 6.582 1.776-2.689 2.407-8.971 2.808-15.624.431-7.399.694-14.938 1.024-22.38.056-1.235.233-3.121.103-3.653-2.076-8.528.174-17.91.171-26.825 0-8.018.166-8.355 2.012-9.33 2.096-1.094 4.2-1.617 6.298-2.384.376-3.337 1.106-3.855 1.797-3.749.974.152 1.932.888 2.893 1.407.039-.226.089-.422.148-.577.059-.155.125-.266.194-.324.069-.059.14-.065.209-.018.068.047.132.147.188.292.807-2.705 1.503-2.693 1.989 1.011 2.737 2.899 5.448 6.301 8.437 3.183.612-.642 1.145.902 1.523 2.947l1.685-.299c.542-3.021 1.397-1.58 2.057-2.942l.39 1.365.51 1.803.117.409c.328.428.624 1.109.871 2.003.246.893.437 1.977.56 3.185l-.001.095c.237.046.458.389.628.974.171.584.28 1.376.31 2.249a.356.356 0 0 0 .02.15c.883.6 1.776 1.031 2.676 1.294.448.007 1.062-2.28.815-3.452-1.069-5.074.3-8.965.582-13.269.055-.742.067-1.511.037-2.255l1-4.713.059-6.25c-.351-.876-.433-2.073-.163-2.558.688-1.239 1.548-1.428 2.078-3.322 1.983-7.103 2.349-12.519 1.461-19.75-.36-2.62-.633-5.408-.815-8.304-.06-1.237.337-2.984.556-4.516a7.728 7.728 0 0 1-.103-1.389c.004-.499.048-.99.127-1.41-.628-2.185-.84-5.273-.211-7.818 1.53-6.185 1.201-11.015-.137-15.631-1.532-5.284-1.326-14.713-2.596-20.618l-2.91-3.078c-.716-.76-1.331-1.979-1.581-5.136-.55-.743-.539-2.278-.32-4.313.242-2.266.441-4.614.661-6.934l-1.532-4.361c-.547 1.092-1.073 2.701-1.639 3.194-1.648 1.631-1.706 1.331-2-7.602l-2.634-1.402a2.375 2.375 0 0 1-.129.471c-.051.123-.108.205-.167.241-.059.037-.119.026-.175-.031a.757.757 0 0 1-.152-.297c-1.805 4.047-3.741 4.287-5.657 4.853-.136-.071-.264-.276-.369-.595a5.842 5.842 0 0 1-.228-1.222 14.19 14.19 0 0 1 .061-1.708 9.478 9.478 0 0 1 .254-1.48c.958-1.955 1.947-3.57 2.926-5.293.262-1.749.602-2.899 1.116-2.7.023-.216.057-.414.102-.58a1.24 1.24 0 0 1 .156-.377c.058-.084.119-.12.18-.105s.119.079.171.189c.923-3.818 2.089-2.249 3.135-3.36l2.984-6.569.932 2.733.404 1.202.434 1.285c.46-1.06.81-2.688.983-4.577.102-1.061.161-2.165.174-3.273 2.602-5.977 5.058-13.018 7.795-18.083 1.804-3.327 3.392-9.008 5.076-13.642 1.28-2.901 2-6.165 3.234-14.706l.033.218c.026-4.702.67-10.385-1.066-12.154-.711-.846-1.379-2.079-1.985-3.661a9.616 9.616 0 0 1-.215-1.433 14.603 14.603 0 0 1-.036-1.669c1.532-5.846-1.039-9.762-.145-14.952.544-3.13.607-4.991-.097-7.395-.846-2.908-2.286-3.774-2.179-10.282-.565-9.998-1.252-19.89-1.066-30.555l.129-2.525c.095-1.779.186-3.572.277-5.35a4.844 4.844 0 0 1-.591-.866c-.046-.083-.096-.124-.142-.206-.046-.083-.064-.083-.096-.152l-1.103.594-.934.487c-1.592-1.629-1.592-1.629-1.483-8.694l-.708-4.225c.028-.728.04-1.459.036-2.187.039-5.259-.835-7.095-1.821-8.497l-.745-1.045c-.759-6.155-.642-12.84-.334-19.63-.657-1.967-.122-5.438-.465-7.876.125.052.253-.035.369-.252.034-.09.065-.194.092-.311.173-.774.27-1.735.274-2.714-.43-.689-.827-1.611-1.18-2.737-.374-1.365-.349-2.724.086-5.231.618-3.673 1.181-7.115 1.135-11.601.734-3.195.925-6.603.156-9.51-.519-1.719-.911-3.902-1.143-6.364a58.633 58.633 0 0 1-.192-7.779c-.595.235-1.198.321-1.792.746-1.106.797-1.282-1.38-1.008-5.195a46.2 46.2 0 0 1 .481-3.308c.229.301.474.438.722.406a.13.13 0 0 0 .073.001l.058-.189c.36-3.256 1.011-4.06 1.756-3.926a14.158 14.158 0 0 0-.136-2.194c-.098-.662-.244-1.202-.422-1.566a5.708 5.708 0 0 0-.209-.601l-1.659.448a549.16 549.16 0 0 1-.276 3.257c-.247-.03-.48-.373-.659-.974-.18-.6-.296-1.422-.329-2.331-1.263-.754-2.341-3.3-2.135-8.964.206-5.663-.854-9.934-.533-15.487-.048-7.055-.733-14.663 1.322-19.888.002-.933.017-1.867.046-2.799.133-.116.26-.327.374-.619.198-.513.29-1.246.079-2.35-.222-.821-.502-1.394-.811-1.658-.072-.096-.143-.179-.207-.288-.008.489-.016.964-.053 1.439-.016 1.006-.073 2.01-.111 3.015l-1.275-.741c.601-5.29-.744-10.205.138-15.721.337-2.101.85-2.704.437-.632-.285 1.354.246 1.2.407 1.162.08-.168.17-.256.259-.255.09.002.177.092.251.263.225-4.798.448-9.591.67-14.381l.631.011.346.005c.107-1.154.248-2.268.419-3.322a2.834 2.834 0 0 0-.219-.466 2.973 2.973 0 0 0-.197-.424c.056-.489.086-.991.13-1.48.003-.176.032-.352.049-.542.018-.19.071-.76.099-1.154l.674.283.231.099c.577-.269 1.127-1.212 1.568-2.693.114-.403.213-.859.296-1.354l.033.001c.119.165.247.237.376.211.13-.026.258-.149.377-.362.12-.212.227-.51.317-.875.09-.366.16-.791.207-1.25.515.593 1.042 1.091 1.548 1.806.506.715.768-.137 1.014-1.764.332.425.653.958.958 1.592.655 1.3 1.139 3.502 1.357 6.165.03.354.081.613.104.994.07-.492.185-.882.323-1.095.137-.213.289-.235.425-.061l.384-1.19 1.454-4.665c.123 1.158.354 2.094.653 2.648.175.35.363.609.56.77.316.249.646.391.954.695 1.458-5.779 1.458-5.779.126-10.313l-.653-2.185c-.082-3.47.208-6.997.806-9.826.151-.566.245-1.302.267-2.077.021-.774-.032-1.535-.15-2.148-.108-.526-.254-.927-.422-1.162-.325-2.438-.65-4.835-.934-7.313a8.856 8.856 0 0 1-.109-1.123c-.015-.403-.008-.817.021-1.218s.08-.78.148-1.115c.069-.335.154-.619.251-.834.178.04.358-.012.535-.154.285-.03.568-.313.826-.824.257-.51.482-1.235.655-2.114.03-.502.067-1.005.108-1.507.224-2.945.517-5.957.229-8.354-.185-1.396-.507-2.457-.903-2.978l-1.917 1.083-.85-2.813-.691-2.322a57.525 57.525 0 0 1 .076-3.084l1.102-3.841.002-.122a23.75 23.75 0 0 1 .078-1.861c.029-.414.083-.803.157-1.139.078-.311.175-.551.282-.698.106-.147.219-.198.329-.148.077-3.111.31-5.757 1.197-6.245.256-.133.498-.578.687-1.267.247-.905.398-2.108.42-3.363-.932-1.374-1.679-4.105-2.857-3.621-.81.178-1.615-.11-2.388-.855-.36-.278-.72-.541-1.081-.738-.048-5.083.712-10.507-.114-15.263.079.14.167.213.257.214.09.001.18-.069.264-.206.435-.727.621-3.455 1.092-3.923l1.788.56a52.64 52.64 0 0 0-.051-5.968c-.182-2.068-.634-11.246-1.58-10.514-.402.306-.751 10.354-1.131 11.326l-1.138 2.7-.546 1.254c-.111-.355-.204-.886-.347-1.065-2.187-2.863-3.101-18.843-3.71-27.28-.572-.212-1.211-1.27-1.712-.49-1.456 2.287-2.594 1.467-3.43-3.548-.837-5.015-1.786-7.368-3.374-3.453-.593 1.471-1.438 1.023-2.174 1.432-.239-.201-.461-.598-.648-1.162-.188-.565-.338-1.283-.44-2.104-.028-.259-.092-.355-.113-.668-.042-.002-.083-.026-.122-.07-.103-.003-.202-.12-.284-.333a3.48 3.48 0 0 1-.178-.87c-.075 1.71-.151 3.422-.23 5.133-.013.775-.069 1.548-.1 2.336-.137-.099-.28-.09-.419.028-.14.117-.273.339-.391.652-.53-.319-1.042-.898-1.524-1.724-.966-1.375-1.935-2.75-3.053.561l.068-1.031-.049-1.007a.685.685 0 0 1-.274.254c-.2.175-.406.11-.588-.186-.161-.014-.311-.25-.423-.66a6.248 6.248 0 0 1-.186-1.028c-.041-.392-.06-.816-.054-1.245l-.17.146c.012-.692.004-1.358.006-2.106l.006-1.74a2.386 2.386 0 0 0-.098-.232c-.218-.696-.48-1.184-.764-1.425-.285-.24-.585-.227-.875.04-.321.257-.63.711-.915 1.343-1.452-.377-1.944-3.062-1.774-7.898zm19.52 155.232-.343-.006-.084-.001-.971-.315c.038-.463.086-.917.142-1.357.004-.245.052-.502.078-.746.042-.462.092-.915.15-1.357.358-.064.706.3.992 1.038.286.738.496 1.813.599 3.065l-.563-.321zm1.123-14.931-.094-.002c.029-.12.057-.247.082-.379 0 0 .02.109.027.137l-.001.081c.061.259.201 1.05.201 1.05l-.065-.001-.15-.886z" fill="#9A55FB" fill-opacity=".05"/>
</svg>
