<svg width="76" height="76" viewBox="0 0 76 76" fill="none" xmlns="http://www.w3.org/2000/svg">
<path d="M76 38C76 58.9868 58.9868 76 38 76C17.0132 76 0 58.9868 0 38C0 17.0132 17.0132 0 38 0C58.9868 0 76 17.0132 76 38Z" fill="#F8F3FF"/>
<path d="M15.3075 39.2743C15.3051 30.2886 20.0837 21.9804 27.8514 17.4639C35.619 12.9474 45.2034 12.9041 53.0114 17.3506C45.9859 10.562 35.6712 8.44077 26.5367 11.9067C17.4027 15.3727 11.0911 23.8021 10.3372 33.5427C9.58333 43.2833 14.5226 52.5833 23.0146 57.4137C18.0797 52.671 15.2957 46.1185 15.3075 39.2743V39.2743Z" fill="#D6BBFC"/>
<path d="M45.5636 29.3501L33.58 40.804L27.1468 34.3707C26.656 33.8795 25.8597 33.8795 25.3685 34.3707C24.8772 34.862 24.8772 35.6583 25.3685 36.1495L32.6719 43.453C32.9084 43.6915 33.2317 43.8235 33.5677 43.8191C33.8934 43.8221 34.2068 43.6949 34.4379 43.4658L47.3173 31.1669C47.5582 30.9363 47.6982 30.619 47.7051 30.2854C47.712 29.9518 47.5863 29.629 47.3552 29.3881C46.8699 28.886 46.0701 28.8687 45.5636 29.3501V29.3501Z" fill="#FFB703"/>
<path fill-rule="evenodd" clip-rule="evenodd" d="M47.3181 31.1664L34.4387 43.4653C34.2076 43.6945 33.8942 43.8216 33.5685 43.8186C33.2325 43.8231 32.9092 43.691 32.6727 43.4525L25.3692 36.1491C24.878 35.6578 24.878 34.8615 25.3692 34.3703C25.8605 33.879 26.6568 33.879 27.1475 34.3703L33.5808 40.8035L45.5644 29.3497C46.0709 28.8683 46.8707 28.8855 47.356 29.3876C47.5871 29.6286 47.7128 29.9513 47.7059 30.2849C47.699 30.6185 47.559 30.9358 47.3181 31.1664ZM33.584 40.5239L27.289 34.2289C27.2891 34.2289 27.289 34.2289 27.289 34.2289C26.7201 33.6595 25.7971 33.6595 25.2278 34.2288C24.6584 34.7982 24.6584 35.7211 25.2278 36.2905L32.5307 43.5934C32.5306 43.5933 32.5308 43.5935 32.5307 43.5934C32.8049 43.8697 33.1796 44.0232 33.5689 44.0187C33.9464 44.0215 34.3097 43.8742 34.5781 43.6087L47.4562 31.3111C47.7354 31.0439 47.8978 30.6759 47.9058 30.289C47.9138 29.9025 47.7682 29.5285 47.5004 29.2492C46.9387 28.6682 46.0128 28.6476 45.4266 29.2047L33.584 40.5239Z" fill="#FFB703"/>
<path d="M35.49 9C20.8825 9 9 20.8825 9 35.49C9 50.0974 20.8825 61.98 35.49 61.98C38.512 61.9795 41.5118 61.4591 44.3579 60.4411L58.6751 62.9512C58.7461 62.9615 58.8175 62.9654 58.8895 62.964C59.3112 62.961 59.704 62.7486 59.937 62.3968C60.1701 62.0445 60.2125 61.6 60.0499 61.2103L56.1523 52.0398C59.9341 47.3543 61.9918 41.5113 61.98 35.49C61.98 20.8825 50.0974 9 35.49 9V9ZM57.8172 44.219C56.8421 46.693 55.4609 48.9868 53.7299 51.0055C53.416 51.3677 53.3377 51.8777 53.5284 52.3172L56.8204 60.0627L44.4584 57.9054C44.3875 57.8951 44.316 57.8907 44.2441 57.8931C44.0938 57.8926 43.9445 57.9183 43.8026 57.9685C41.1432 58.9594 38.3282 59.4679 35.49 59.4699C22.2701 59.4699 11.5229 48.7222 11.5229 35.5028C11.5229 22.2829 22.2701 11.5357 35.49 11.5357C48.7098 11.5357 59.4571 22.2829 59.4571 35.5028C59.466 38.4854 58.9097 41.4433 57.8172 44.219V44.219Z" fill="#9A55FB"/>
</svg>
