<svg width="95" height="93" fill="none" xmlns="http://www.w3.org/2000/svg">
    <ellipse cx="49.672" cy="45.143" rx="43.172" ry="45.029" fill="#F1E7FF"/>
    <path fill-rule="evenodd" clip-rule="evenodd" d="M25.817 55.699a.622.622 0 0 1-.983-.758c.799-1.035 1.688-1.544 2.654-1.574.965-.03 1.89.4 2.864 1.27a.62.62 0 1 1-.824.928c-.731-.648-1.399-.979-1.998-.959-.6.02-1.146.371-1.705 1.093h-.008zm14.197-.758a.62.62 0 0 1-.568 1.01.622.622 0 0 1-.415-.252c-.56-.722-1.127-1.075-1.704-1.093-.578-.018-1.278.311-2 .96a.622.622 0 0 1-1.029-.502.616.616 0 0 1 .209-.426c.97-.862 1.928-1.3 2.863-1.27.936.03 1.83.538 2.63 1.573h.014zm-7.606 6.183c.785 0 1.57-.857 1.177-1.286-.394-.429-1.962-.429-2.354 0-.392.429.378 1.277 1.163 1.277l.014.01zm-9.047-16.216c.048 1.69.2 7.522.363 14.216l2.764-.265a.623.623 0 0 1 .658.56.62.62 0 0 1-.542.674l-2.85.274.048 2.148 2.762-.858a.622.622 0 0 1 .59 1.076.621.621 0 0 1-.226.109l-3.118.955c.224 10.255.382 20.745.102 20.755-.481 0 15.439-1.47 19.258-1.825-.14-6.06-.274-12.335-.41-18.615l-4.15-1.27a.621.621 0 1 1 .365-1.185l3.758 1.151-.05-2.364-3.728-.357a.622.622 0 0 1-.503-.913.622.622 0 0 1 .621-.321l3.584.345c-.114-5.32-.23-10.61-.35-15.776-3.318 3.173-6.643 4.691-9.973 4.76-3.032.059-6.028-1.086-8.987-3.28l.014.006z" fill="#FFC32C"/>
    <path fill-rule="evenodd" clip-rule="evenodd" d="M34.519 19.045c-.48 7.502 7.167 11.665 16.672 15.066l.475 51.774 4.863-.637-.18-.12a10.722 10.722 0 0 1-.68-.504l-.161-.132-.152-.131c-.096-.086-.19-.172-.282-.26l-.136-.135c-.048-.048-.094-.094-.138-.142a7.777 7.777 0 0 1-2.178-5.858 9.366 9.366 0 0 1 2.47-5.69c2.622-2.901 7.133-4.62 12.569-3.095H67.755l.01.014a.815.815 0 0 1 .11.687.828.828 0 0 1-1.022.572 12.487 12.487 0 0 0-4.672-.445c-5.039 1.875-6.543 5.864-6.653 7.83-.114 2.032.551 6.879 10.162 8.215 2.59.07 5.18-.111 7.735-.54a.798.798 0 0 1 .317 0c1.4-.998 3.312-2.547 4.375-3.42a1338.94 1338.94 0 0 1-1.463-11.634l-.022-.17-.022-.185-.044-.355v-.024l-.042-.331-.028-.234-.014-.123-.044-.355v-.088l-.034-.27-.036-.295v-.061l-.044-.355-.017-.15-.025-.2-.043-.357-.044-.353-.026-.213-.016-.146-.044-.357v-.066l-.034-.29-.034-.278v-.082l-.042-.357-.016-.13-.054-.23-.04-.34v-.02l-.044-.357-.022-.2-.02-.165-.044-.359v-.044l-.038-.315-.03-.255-.014-.104-.042-.36-.012-.107-.03-.253-.038-.32v-.04l-.042-.358-.02-.172-.022-.19-.044-.358v-.022l-.04-.337-.028-.236-.016-.125-.042-.361v-.086l-.032-.273-.036-.3v-.062l-.042-.36-.018-.15-.024-.212-.042-.36-.042-.362-.024-.213-.018-.146-.093-.357v-.066l-.035-.295-.033-.277v-.086l-.042-.36-.016-.129-.026-.233-.04-.341v-.008l-.044-.361-.022-.2-.02-.167-.042-.363v-.042l-.036-.32-.03-.254-.014-.106-.042-.363-.012-.106-.03-.255-.038-.32v-.041l-.042-.363-.02-.172-.024-.19-.042-.362v-.022l-.04-.34-.028-.235-.014-.127-.042-.361v-.086l-.034-.277-.034-.298v-.064l-.042-.363-.018-.147-.024-.214-.042-.362c-1.367-11.681-2.732-23.362-4.14-34.243l-5.525 6.95a.83.83 0 0 1-.83.29l-25.395-5.732c-.373 1.396-.979 2.527-1.884 3.341l-.024.02-.02.02-.022.02-.02.018-.022.02-.02.016-.022.02-.018.014-.024.018-.016.014-.024.017-.016.012-.024.018-.014.012h-.01l-.024.018h-.024l-.024.018h-.012l-.012.01-.026.018-.016.012-.024.016-.018.012-.024.016-.02.012-.024.016-.02.012-.026.018-.044.026-.024.016-.026.016-.026.014-.024.016-.026.016-.024.012-.026.016-.022.012-.026.015h-.02l-.026.014-.018.01h-.01l-.026.014H35.203l-.029.014h-.027l-.026.014H35.091l-.027.014h-.028l-.028.014h-.028l-.03.014h-.02l-.028.012-.03.012-.028.012-.022.01-.03.012h-.026l-.028.012-.028.012-.03.01h-.03l-.028.01-.104.203z" fill="#B27AFF"/>
    <path d="M67.624 69.153a.83.83 0 1 1-.447 1.596c-4.745-1.333-8.646.127-10.888 2.607a7.697 7.697 0 0 0-2.049 4.675 6.13 6.13 0 0 0 1.731 4.626c2.558 2.707 8.036 4.34 17.453 2.854a.83.83 0 0 1 .935 1.008.824.824 0 0 1-.675.624c-10.053 1.596-16.028-.293-18.92-3.351a7.778 7.778 0 0 1-2.178-5.859 9.366 9.366 0 0 1 2.47-5.69c2.622-2.9 7.133-4.62 12.569-3.094v.004zM25.817 55.699a.622.622 0 0 1-.983-.758c.8-1.035 1.689-1.544 2.654-1.574.965-.03 1.89.399 2.864 1.27a.62.62 0 1 1-.824.928c-.731-.648-1.399-.98-1.998-.96-.6.02-1.153.372-1.713 1.094zm14.19-.758a.62.62 0 0 1-.802.925.622.622 0 0 1-.182-.167c-.56-.722-1.127-1.075-1.704-1.093-.578-.018-1.277.311-1.999.96a.619.619 0 0 1-.821-.928c.971-.862 1.928-1.3 2.864-1.27.935.029 1.836.538 2.638 1.573h.006zM32.4 61.124c.786 0 1.571-.857 1.177-1.286-.393-.429-1.962-.429-2.354 0-.392.429.386 1.276 1.171 1.276l.006.01zm4.06-46.767-3.336-.753a17.867 17.867 0 0 0-.664 4.134c1.135-.016 1.999-.339 2.622-.905.624-.567 1.075-1.428 1.371-2.481l.006.005zm18.883 8.98a.62.62 0 0 1-.69.824.622.622 0 0 1-.509-.522c-.221-.886-.6-1.438-1.12-1.686-.522-.247-1.294-.225-2.225.076a.622.622 0 0 1-.73-.872.621.621 0 0 1 .35-.309c1.237-.399 2.288-.419 3.136-.016.847.403 1.47 1.237 1.788 2.505zM15.974 73.44a.83.83 0 0 1 .768.885.828.828 0 0 1-.887.767 5.665 5.665 0 0 0-5.172 2.707 4.437 4.437 0 0 0-.681 2.308 3.65 3.65 0 0 0 .799 2.258c1.417 1.81 4.75 3.177 10.93 3.021l-.418-20.822-1.778.545a.623.623 0 0 1-.824-.65.62.62 0 0 1 .458-.535l2.118-.648-.054-2.673-2.262.217a.622.622 0 0 1-.662-.56.62.62 0 0 1 .544-.675l2.354-.225-.337-16.889a.823.823 0 0 1 .959-.831c.16.026.309.099.428.209 3.363 3.096 6.713 4.75 10.046 4.683 3.334-.065 6.72-1.859 10.175-5.654a.827.827 0 0 1 1.44.586c.139 5.785.27 11.82.4 17.896l2.379.227a.622.622 0 0 1 .544.675.62.62 0 0 1-.662.56l-2.227-.217.059 2.715 1.976.598a.623.623 0 0 1 .434.782.62.62 0 0 1-.8.403l-1.583-.485c.148 6.911.298 13.815.454 20.497a68.48 68.48 0 0 1 1.833-.054 57.146 57.146 0 0 0 1.838-.058c-.07-8.05-.142-16.441-.211-24.831-.072-8.452-.144-16.903-.216-25.005-6.274-1.941-11.202-4.552-14.178-8.13-.016-.018-.03-.038-.044-.056-3.1-3.764-4.047-8.53-2.16-14.61a.829.829 0 0 1 .999-.558l4.846 1.095h.016l.07.016 25.606 5.785 6.409-8.059a.83.83 0 0 1 1.475.45c1.529 11.668 2.962 23.92 4.397 36.168 1.415 12.114 2.832 24.226 4.295 35.448 2.997-.12 5.41-.74 7.244-1.764a8.234 8.234 0 0 0 3.262-3.17 8.876 8.876 0 0 0 1.047-4.477c-.034-2.593-.945-5.585-2.744-8.795a.824.824 0 0 1 .342-1.089.828.828 0 0 1 1.105.291c1.935 3.45 2.916 6.71 2.952 9.575a10.487 10.487 0 0 1-1.255 5.3 9.865 9.865 0 0 1-3.9 3.802c-2.198 1.232-5.12 1.94-8.733 1.994a.83.83 0 0 1-.86-.728c-1.53-11.68-2.965-23.936-4.396-36.211-1.367-11.68-2.732-23.362-4.141-34.242l-5.524 6.949a.83.83 0 0 1-.83.291l-25.363-5.724c-.374 1.396-.98 2.527-1.885 3.34-.905.814-2.136 1.305-3.69 1.329.196 2.41 1.137 4.7 2.693 6.555l.042.043c2.838 3.417 7.709 5.91 13.958 7.78a.83.83 0 0 1 .6.783c.072 8.288.145 16.955.217 25.614.072 8.659.148 17.278.22 25.546a.827.827 0 0 1-.757.893c-.864.072-1.787.09-2.708.11-.856.018-1.709.036-2.598.11h-.05a.828.828 0 0 1-.846-.798c-.168-7.065-.328-14.484-.487-21.91l-4.151-1.27a.621.621 0 1 1 .365-1.185l3.758 1.15-.05-2.363-3.748-.357a.623.623 0 0 1-.575-.678.62.62 0 0 1 .693-.557l3.584.346c-.114-5.32-.23-10.61-.35-15.776-3.318 3.173-6.643 4.691-9.973 4.759-3.33.068-6.56-1.297-9.777-3.886l.3 14.904 3.614-.347a.622.622 0 0 1 .657.562.62.62 0 0 1-.541.673l-3.704.355.046 2.328 3.638-1.113a.623.623 0 0 1 .828.65.619.619 0 0 1-.465.535l-3.963 1.216.444 22.08v.011a.829.829 0 0 1-.8.862c-7.326.325-11.343-1.368-13.114-3.63a5.273 5.273 0 0 1-1.155-3.27 6.075 6.075 0 0 1 .921-3.169c1.301-2.138 3.86-3.712 6.71-3.503z" fill="#3E240F"/>
</svg>
