<svg width="48" height="48" fill="none" xmlns="http://www.w3.org/2000/svg">
    <path d="M24 48c13.255 0 24-10.745 24-24S37.255 0 24 0 0 10.745 0 24s10.745 24 24 24z" fill="#9A55FB" fill-opacity=".26"/>
    <path d="M12.977 8.402a1.04 1.04 0 0 0-1.04 1.04v29.12a1.04 1.04 0 0 0 1.04 1.04h22.048a1.04 1.04 0 0 0 1.04-1.04V14.816l-6.414-6.414H12.977z" fill="#fff"/>
    <path opacity=".05" d="M24 39.6h11.024a1.04 1.04 0 0 0 1.04-1.04V14.814L29.651 8.4H24v31.2z" fill="#000"/>
    <path opacity=".1" d="m29.454 13.727.192-5.325 6.414 6.414-5.536.02a1.176 1.176 0 0 1-1.07-1.109z" fill="#000"/>
    <path d="M29.822 13.359 29.65 8.4l6.414 6.414-5.168-.346a1.177 1.177 0 0 1-1.074-1.11z" fill="#fff"/>
    <g opacity=".7" fill="#9A55FB">
        <path opacity=".2" d="M31.626 24.896H16.368v2.058h15.258v-2.058z"/>
        <path opacity=".3" d="M31.626 28.664H16.368v2.057h15.258v-2.057zM31.626 32.441H16.368V34.5h15.258V32.44z"/>
    </g>
    <path opacity=".4" d="M31.628 17.348H16.37v2.057h15.258v-2.057z" fill="#9A55FB"/>
    <path opacity=".3" d="M31.626 21.123H16.368v2.057h15.258v-2.057z" fill="#9A55FB"/>
</svg>
