<svg width="32" height="27" fill="none" xmlns="http://www.w3.org/2000/svg">
    <g opacity=".9">
        <mask id="a" maskUnits="userSpaceOnUse" x="-.325" y="-.038" width="32.502" height="28.212" fill="#000">
            <path fill="#fff" d="M-.325-.038h32.502v28.212H-.325z"/>
            <path d="M14.806 8.467c-.007-.134-.01-.269-.023-.403a.695.695 0 0 1 .115-.48c.17-.25.318-.52.518-.745.249-.282.294-.585.23-.94-.068-.367-.13-.733-.229-1.095-.175-.639-.017-1.205.451-1.674.144-.144.278-.3.435-.427.318-.255.655-.466 1.078-.55.503-.101.993-.256 1.505-.334 1.031-.158 2.066-.072 3.098.012.374.03.747.144 1.11.253.266.08.524.17.806.177.3.006.523.178.699.396.193.241.352.507.542.751.617.794.611 1.636.246 2.497a4.529 4.529 0 0 1-.402.7c-.165.25-.157.506-.053.774.137.35.28.697.416 1.046.143.367.153.73-.04 1.08-.177.323-.241.698-.466 1.002-.165.223-.23.49-.215.767.033.635-.188 1.19-.504 1.72-.225.374-.442.754-.662 1.131-.527.415-.588.942-.355 1.539.16 1.037.773 1.813 1.56 2.467.61.507 1.256.964 2.022 1.242.927.335 1.71.922 2.41 1.587.657.624 1.092 1.413 1.41 2.252.218.577.328 1.181.406 1.788.025.196-.012.404-.052.6a.368.368 0 0 1-.182.226c-.214.102-.445.208-.69.136-.345-.102-.681-.048-1.025-.036-.724.027-1.448.026-2.173.019-.76-.008-1.518-.042-2.278-.051-.413-.005-.827.018-1.24.027-.483.01-.965.033-1.448.024-.931-.018-1.863-.05-2.794-.086a9.845 9.845 0 0 1-.925-.092c-.104-.014-.174-.1-.19-.21-.014-.107.12-.271.233-.287.102-.015.204-.033.307-.037.791-.032 1.583-.08 2.375-.085.93-.006 1.863.02 2.795.046.76.021 1.515.007 2.273-.046 1.064-.074 2.132-.133 3.203-.097.241.009.482-.01.723-.018.066-.003.201-.143.204-.205a3.154 3.154 0 0 0-.367-1.67c-.425-.792-1.005-1.474-1.64-2.11a2.642 2.642 0 0 0-.5-.366c-.62-.38-1.254-.734-1.933-.997-1.791-.694-2.838-2.017-3.363-3.784-.116-.39-.215-.784-.323-1.18.062-.267.167-.507.453-.624.3-.122.49-.343.627-.631.115-.243.264-.471.417-.693.297-.432.445-.902.411-1.43-.006-.1-.013-.204 0-.303.051-.37.14-.726.384-1.025.127-.156.25-.318.36-.487.077-.12.063-.257.007-.388a.411.411 0 0 0-.054-.087c-.654-.847-.557-1.789-.396-2.73.034-.194.158-.37.234-.557a3.247 3.247 0 0 0 .202-1.787.774.774 0 0 0-.316-.505c-.527-.415-1.116-.698-1.778-.806-.956-.155-1.915-.304-2.884-.19-.443.053-.884.123-1.326.19a1.248 1.248 0 0 0-.644.295c-.517.454-.926.983-1.103 1.661-.078.3-.07.602-.016.906.036.2.087.398.116.6.06.417-.064.81-.228 1.177-.075.167-.28.282-.44.404a.551.551 0 0 0-.187.634c.076.225.184.44.267.663.07.192.137.386.185.583.16.66.33 1.32.458 1.986.178.935.624 1.723 1.3 2.4.097.097.204.186.304.28.215.205.287.441.258.738-.121 1.229-.7 2.238-1.497 3.14-.294.333-.675.559-1.109.703-.747.248-1.49.505-2.23.771-.077.028-.121.139-.185.216.277.198.571.29.86.4.323.123.64.266.944.43.431.232.81.53 1.062.96.069.118.152.233.248.33.458.461.656 1.034.785 1.641.071.335.12.665.016 1.003-.049.157-.093.346-.047.495.112.366-.101.48-.372.595-.319.134-.626.26-.994.157a1.244 1.244 0 0 0-.514-.021c-.89.139-1.792.02-2.682.088-1.174.089-2.344-.005-3.516-.023-.413-.007-.828.003-1.24.038-1.205.102-2.412.04-3.62 0-.448-.016-.896-.024-1.345-.043-.31-.013-.62-.04-.929-.06-.307-.02-.614-.04-.89-.06C.903 25.422.882 25 .795 24.61A2.594 2.594 0 0 1 .813 23.4c.117-.456.258-.907.417-1.35.067-.185.185-.364.322-.508.349-.369.726-.715 1.201-.927.467-.208.934-.423 1.42-.583.425-.14.824-.322 1.221-.52.647-.321 1.072-.814 1.28-1.493.058-.193.126-.384.167-.58.019-.093-.016-.196-.026-.285-.235-.149-.484-.108-.72-.119-1.664-.077-1.275-.024-2.753-.76-.308-.152-.593-.354-.885-.54-.085-.056-.155-.136-.23-.207-.085-.082-.101-.293-.026-.374.092-.098.178-.206.285-.285.585-.432.85-1.047.938-1.729.132-1.002.265-2.009.26-3.024-.004-.585.182-1.13.264-1.695.052-.357.259-.69.39-1.034A5.17 5.17 0 0 1 5.53 5.529c.857-.847 1.872-1.347 3.129-1.259.62.044 1.236.131 1.853.21 1.016.132 1.796.686 2.476 1.403.31.327.542.709.75 1.105.255.484.518.965.792 1.44.05.086.24.562.295.836.126.63.286 1.271.187 1.908-.136.877-.072 1.75.02 2.621.063.595.13 1.216.614 1.687.087.084.045.285-.059.364-.181.138-.415.217-.502.46a.285.285 0 0 1-.141.14c-.738.338-1.44.768-2.285.835a3.342 3.342 0 0 0-.992.24c-.248.1-.342.355-.208.58.069.117.142.233.222.344.319.445.725.815 1.103 1.206-.04-.087-.025-.104.046-.053l-.077.038c.07-.114.148-.224.206-.344a.68.68 0 0 1 .453-.368 30.12 30.12 0 0 0 1.17-.362c1.473-.495 2.248-1.648 2.865-2.947.028-.06.027-.132.047-.195.121-.383.076-.721-.236-1.023a2.444 2.444 0 0 1-.368-.49c-.39-.64-.79-1.278-.986-2.006-.184-.685-.384-1.368-.532-2.06-.08-.375-.181-.714-.464-.993-.103-.1-.112-.242-.102-.38zM4.263 25.307c.458 0 1.05.041 1.629-.014.791-.076 1.581-.078 2.375-.064.724.014 1.45.046 2.17.004 1.618-.096 3.24-.032 4.858-.074.365-.01.667-.09.95-.305a.7.7 0 0 0 .302-.606c-.018-.694-.222-1.312-.682-1.88-.562-.69-1.216-1.213-2.073-1.477-.4-.124-.762-.328-1.134-.511-.566-.28-1.071-.628-1.434-1.154a1.485 1.485 0 0 0-.278-.305c-.338-.276-.492-.659-.633-1.041a1.876 1.876 0 0 1-.055-1.1c.052-.214.295-.277.473-.115.07.063.138.23.215.163.29-.255.634-.214.97-.192.565.037 1.088-.09 1.613-.268.34-.114.61-.293.835-.554.165-.192.225-.397.142-.654-.284-.88-.471-1.778-.475-2.698-.005-1.052-.188-2.092-.247-3.14a2.016 2.016 0 0 0-.072-.4 3.247 3.247 0 0 0-.157-.481c-.35-.787-.902-1.453-1.397-2.152-.098-.138-.236-.252-.366-.364-.805-.696-1.75-.94-2.791-.89-.734.034-1.414.27-2.086.517-.418.153-.78.431-1.036.797-.231.33-.43.684-.622 1.037-.112.205-.175.435-.279.645a4.488 4.488 0 0 0-.425 1.549c-.083.807-.106 1.617-.128 2.427a6.53 6.53 0 0 1-.849 3.086c-.05.088-.11.173-.138.268-.017.055.005.133.035.188a.518.518 0 0 0 .142.148c.48.374 1.054.525 1.632.629.505.09 1.017.159 1.53-.01.254-.085.54-.082.813-.111.15-.016.33.112.418.257a.798.798 0 0 1 .109.588c-.131.593-.301 1.174-.618 1.702a2.21 2.21 0 0 1-.601.673 9.225 9.225 0 0 1-1.765 1.016c-.694.301-1.315.713-1.954 1.102-.413.251-.759.57-1.057.94-.42.52-.655 1.09-.437 1.782.05.157.028.333.043.5a.317.317 0 0 0 .252.283c.235.056.47.12.709.144.48.049.963.073 1.574.116z"/>
        </mask>
        <path d="M14.806 8.467c-.007-.134-.01-.269-.023-.403a.695.695 0 0 1 .115-.48c.17-.25.318-.52.518-.745.249-.282.294-.585.23-.94-.068-.367-.13-.733-.229-1.095-.175-.639-.017-1.205.451-1.674.144-.144.278-.3.435-.427.318-.255.655-.466 1.078-.55.503-.101.993-.256 1.505-.334 1.031-.158 2.066-.072 3.098.012.374.03.747.144 1.11.253.266.08.524.17.806.177.3.006.523.178.699.396.193.241.352.507.542.751.617.794.611 1.636.246 2.497a4.529 4.529 0 0 1-.402.7c-.165.25-.157.506-.053.774.137.35.28.697.416 1.046.143.367.153.73-.04 1.08-.177.323-.241.698-.466 1.002-.165.223-.23.49-.215.767.033.635-.188 1.19-.504 1.72-.225.374-.442.754-.662 1.131-.527.415-.588.942-.355 1.539.16 1.037.773 1.813 1.56 2.467.61.507 1.256.964 2.022 1.242.927.335 1.71.922 2.41 1.587.657.624 1.092 1.413 1.41 2.252.218.577.328 1.181.406 1.788.025.196-.012.404-.052.6a.368.368 0 0 1-.182.226c-.214.102-.445.208-.69.136-.345-.102-.681-.048-1.025-.036-.724.027-1.448.026-2.173.019-.76-.008-1.518-.042-2.278-.051-.413-.005-.827.018-1.24.027-.483.01-.965.033-1.448.024-.931-.018-1.863-.05-2.794-.086a9.845 9.845 0 0 1-.925-.092c-.104-.014-.174-.1-.19-.21-.014-.107.12-.271.233-.287.102-.015.204-.033.307-.037.791-.032 1.583-.08 2.375-.085.93-.006 1.863.02 2.795.046.76.021 1.515.007 2.273-.046 1.064-.074 2.132-.133 3.203-.097.241.009.482-.01.723-.018.066-.003.201-.143.204-.205a3.154 3.154 0 0 0-.367-1.67c-.425-.792-1.005-1.474-1.64-2.11a2.642 2.642 0 0 0-.5-.366c-.62-.38-1.254-.734-1.933-.997-1.791-.694-2.838-2.017-3.363-3.784-.116-.39-.215-.784-.323-1.18.062-.267.167-.507.453-.624.3-.122.49-.343.627-.631.115-.243.264-.471.417-.693.297-.432.445-.902.411-1.43-.006-.1-.013-.204 0-.303.051-.37.14-.726.384-1.025.127-.156.25-.318.36-.487.077-.12.063-.257.007-.388a.411.411 0 0 0-.054-.087c-.654-.847-.557-1.789-.396-2.73.034-.194.158-.37.234-.557a3.247 3.247 0 0 0 .202-1.787.774.774 0 0 0-.316-.505c-.527-.415-1.116-.698-1.778-.806-.956-.155-1.915-.304-2.884-.19-.443.053-.884.123-1.326.19a1.248 1.248 0 0 0-.644.295c-.517.454-.926.983-1.103 1.661-.078.3-.07.602-.016.906.036.2.087.398.116.6.06.417-.064.81-.228 1.177-.075.167-.28.282-.44.404a.551.551 0 0 0-.187.634c.076.225.184.44.267.663.07.192.137.386.185.583.16.66.33 1.32.458 1.986.178.935.624 1.723 1.3 2.4.097.097.204.186.304.28.215.205.287.441.258.738-.121 1.229-.7 2.238-1.497 3.14-.294.333-.675.559-1.109.703-.747.248-1.49.505-2.23.771-.077.028-.121.139-.185.216.277.198.571.29.86.4.323.123.64.266.944.43.431.232.81.53 1.062.96.069.118.152.233.248.33.458.461.656 1.034.785 1.641.071.335.12.665.016 1.003-.049.157-.093.346-.047.495.112.366-.101.48-.372.595-.319.134-.626.26-.994.157a1.244 1.244 0 0 0-.514-.021c-.89.139-1.792.02-2.682.088-1.174.089-2.344-.005-3.516-.023-.413-.007-.828.003-1.24.038-1.205.102-2.412.04-3.62 0-.448-.016-.896-.024-1.345-.043-.31-.013-.62-.04-.929-.06-.307-.02-.614-.04-.89-.06C.903 25.422.882 25 .795 24.61A2.594 2.594 0 0 1 .813 23.4c.117-.456.258-.907.417-1.35.067-.185.185-.364.322-.508.349-.369.726-.715 1.201-.927.467-.208.934-.423 1.42-.583.425-.14.824-.322 1.221-.52.647-.321 1.072-.814 1.28-1.493.058-.193.126-.384.167-.58.019-.093-.016-.196-.026-.285-.235-.149-.484-.108-.72-.119-1.664-.077-1.275-.024-2.753-.76-.308-.152-.593-.354-.885-.54-.085-.056-.155-.136-.23-.207-.085-.082-.101-.293-.026-.374.092-.098.178-.206.285-.285.585-.432.85-1.047.938-1.729.132-1.002.265-2.009.26-3.024-.004-.585.182-1.13.264-1.695.052-.357.259-.69.39-1.034A5.17 5.17 0 0 1 5.53 5.529c.857-.847 1.872-1.347 3.129-1.259.62.044 1.236.131 1.853.21 1.016.132 1.796.686 2.476 1.403.31.327.542.709.75 1.105.255.484.518.965.792 1.44.05.086.24.562.295.836.126.63.286 1.271.187 1.908-.136.877-.072 1.75.02 2.621.063.595.13 1.216.614 1.687.087.084.045.285-.059.364-.181.138-.415.217-.502.46a.285.285 0 0 1-.141.14c-.738.338-1.44.768-2.285.835a3.342 3.342 0 0 0-.992.24c-.248.1-.342.355-.208.58.069.117.142.233.222.344.319.445.725.815 1.103 1.206-.04-.087-.025-.104.046-.053l-.077.038c.07-.114.148-.224.206-.344a.68.68 0 0 1 .453-.368 30.12 30.12 0 0 0 1.17-.362c1.473-.495 2.248-1.648 2.865-2.947.028-.06.027-.132.047-.195.121-.383.076-.721-.236-1.023a2.444 2.444 0 0 1-.368-.49c-.39-.64-.79-1.278-.986-2.006-.184-.685-.384-1.368-.532-2.06-.08-.375-.181-.714-.464-.993-.103-.1-.112-.242-.102-.38zM4.263 25.307c.458 0 1.05.041 1.629-.014.791-.076 1.581-.078 2.375-.064.724.014 1.45.046 2.17.004 1.618-.096 3.24-.032 4.858-.074.365-.01.667-.09.95-.305a.7.7 0 0 0 .302-.606c-.018-.694-.222-1.312-.682-1.88-.562-.69-1.216-1.213-2.073-1.477-.4-.124-.762-.328-1.134-.511-.566-.28-1.071-.628-1.434-1.154a1.485 1.485 0 0 0-.278-.305c-.338-.276-.492-.659-.633-1.041a1.876 1.876 0 0 1-.055-1.1c.052-.214.295-.277.473-.115.07.063.138.23.215.163.29-.255.634-.214.97-.192.565.037 1.088-.09 1.613-.268.34-.114.61-.293.835-.554.165-.192.225-.397.142-.654-.284-.88-.471-1.778-.475-2.698-.005-1.052-.188-2.092-.247-3.14a2.016 2.016 0 0 0-.072-.4 3.247 3.247 0 0 0-.157-.481c-.35-.787-.902-1.453-1.397-2.152-.098-.138-.236-.252-.366-.364-.805-.696-1.75-.94-2.791-.89-.734.034-1.414.27-2.086.517-.418.153-.78.431-1.036.797-.231.33-.43.684-.622 1.037-.112.205-.175.435-.279.645a4.488 4.488 0 0 0-.425 1.549c-.083.807-.106 1.617-.128 2.427a6.53 6.53 0 0 1-.849 3.086c-.05.088-.11.173-.138.268-.017.055.005.133.035.188a.518.518 0 0 0 .142.148c.48.374 1.054.525 1.632.629.505.09 1.017.159 1.53-.01.254-.085.54-.082.813-.111.15-.016.33.112.418.257a.798.798 0 0 1 .109.588c-.131.593-.301 1.174-.618 1.702a2.21 2.21 0 0 1-.601.673 9.225 9.225 0 0 1-1.765 1.016c-.694.301-1.315.713-1.954 1.102-.413.251-.759.57-1.057.94-.42.52-.655 1.09-.437 1.782.05.157.028.333.043.5a.317.317 0 0 0 .252.283c.235.056.47.12.709.144.48.049.963.073 1.574.116z" fill="#fff"/>
        <path d="M14.806 8.467c-.007-.134-.01-.269-.023-.403a.695.695 0 0 1 .115-.48c.17-.25.318-.52.518-.745.249-.282.294-.585.23-.94-.068-.367-.13-.733-.229-1.095-.175-.639-.017-1.205.451-1.674.144-.144.278-.3.435-.427.318-.255.655-.466 1.078-.55.503-.101.993-.256 1.505-.334 1.031-.158 2.066-.072 3.098.012.374.03.747.144 1.11.253.266.08.524.17.806.177.3.006.523.178.699.396.193.241.352.507.542.751.617.794.611 1.636.246 2.497a4.529 4.529 0 0 1-.402.7c-.165.25-.157.506-.053.774.137.35.28.697.416 1.046.143.367.153.73-.04 1.08-.177.323-.241.698-.466 1.002-.165.223-.23.49-.215.767.033.635-.188 1.19-.504 1.72-.225.374-.442.754-.662 1.131-.527.415-.588.942-.355 1.539.16 1.037.773 1.813 1.56 2.467.61.507 1.256.964 2.022 1.242.927.335 1.71.922 2.41 1.587.657.624 1.092 1.413 1.41 2.252.218.577.328 1.181.406 1.788.025.196-.012.404-.052.6a.368.368 0 0 1-.182.226c-.214.102-.445.208-.69.136-.345-.102-.681-.048-1.025-.036-.724.027-1.448.026-2.173.019-.76-.008-1.518-.042-2.278-.051-.413-.005-.827.018-1.24.027-.483.01-.965.033-1.448.024-.931-.018-1.863-.05-2.794-.086a9.845 9.845 0 0 1-.925-.092c-.104-.014-.174-.1-.19-.21-.014-.107.12-.271.233-.287.102-.015.204-.033.307-.037.791-.032 1.583-.08 2.375-.085.93-.006 1.863.02 2.795.046.76.021 1.515.007 2.273-.046 1.064-.074 2.132-.133 3.203-.097.241.009.482-.01.723-.018.066-.003.201-.143.204-.205a3.154 3.154 0 0 0-.367-1.67c-.425-.792-1.005-1.474-1.64-2.11a2.642 2.642 0 0 0-.5-.366c-.62-.38-1.254-.734-1.933-.997-1.791-.694-2.838-2.017-3.363-3.784-.116-.39-.215-.784-.323-1.18.062-.267.167-.507.453-.624.3-.122.49-.343.627-.631.115-.243.264-.471.417-.693.297-.432.445-.902.411-1.43-.006-.1-.013-.204 0-.303.051-.37.14-.726.384-1.025.127-.156.25-.318.36-.487.077-.12.063-.257.007-.388a.411.411 0 0 0-.054-.087c-.654-.847-.557-1.789-.396-2.73.034-.194.158-.37.234-.557a3.247 3.247 0 0 0 .202-1.787.774.774 0 0 0-.316-.505c-.527-.415-1.116-.698-1.778-.806-.956-.155-1.915-.304-2.884-.19-.443.053-.884.123-1.326.19a1.248 1.248 0 0 0-.644.295c-.517.454-.926.983-1.103 1.661-.078.3-.07.602-.016.906.036.2.087.398.116.6.06.417-.064.81-.228 1.177-.075.167-.28.282-.44.404a.551.551 0 0 0-.187.634c.076.225.184.44.267.663.07.192.137.386.185.583.16.66.33 1.32.458 1.986.178.935.624 1.723 1.3 2.4.097.097.204.186.304.28.215.205.287.441.258.738-.121 1.229-.7 2.238-1.497 3.14-.294.333-.675.559-1.109.703-.747.248-1.49.505-2.23.771-.077.028-.121.139-.185.216.277.198.571.29.86.4.323.123.64.266.944.43.431.232.81.53 1.062.96.069.118.152.233.248.33.458.461.656 1.034.785 1.641.071.335.12.665.016 1.003-.049.157-.093.346-.047.495.112.366-.101.48-.372.595-.319.134-.626.26-.994.157a1.244 1.244 0 0 0-.514-.021c-.89.139-1.792.02-2.682.088-1.174.089-2.344-.005-3.516-.023-.413-.007-.828.003-1.24.038-1.205.102-2.412.04-3.62 0-.448-.016-.896-.024-1.345-.043-.31-.013-.62-.04-.929-.06-.307-.02-.614-.04-.89-.06C.903 25.422.882 25 .795 24.61A2.594 2.594 0 0 1 .813 23.4c.117-.456.258-.907.417-1.35.067-.185.185-.364.322-.508.349-.369.726-.715 1.201-.927.467-.208.934-.423 1.42-.583.425-.14.824-.322 1.221-.52.647-.321 1.072-.814 1.28-1.493.058-.193.126-.384.167-.58.019-.093-.016-.196-.026-.285-.235-.149-.484-.108-.72-.119-1.664-.077-1.275-.024-2.753-.76-.308-.152-.593-.354-.885-.54-.085-.056-.155-.136-.23-.207-.085-.082-.101-.293-.026-.374.092-.098.178-.206.285-.285.585-.432.85-1.047.938-1.729.132-1.002.265-2.009.26-3.024-.004-.585.182-1.13.264-1.695.052-.357.259-.69.39-1.034A5.17 5.17 0 0 1 5.53 5.529c.857-.847 1.872-1.347 3.129-1.259.62.044 1.236.131 1.853.21 1.016.132 1.796.686 2.476 1.403.31.327.542.709.75 1.105.255.484.518.965.792 1.44.05.086.24.562.295.836.126.63.286 1.271.187 1.908-.136.877-.072 1.75.02 2.621.063.595.13 1.216.614 1.687.087.084.045.285-.059.364-.181.138-.415.217-.502.46a.285.285 0 0 1-.141.14c-.738.338-1.44.768-2.285.835a3.342 3.342 0 0 0-.992.24c-.248.1-.342.355-.208.58.069.117.142.233.222.344.319.445.725.815 1.103 1.206-.04-.087-.025-.104.046-.053l-.077.038c.07-.114.148-.224.206-.344a.68.68 0 0 1 .453-.368 30.12 30.12 0 0 0 1.17-.362c1.473-.495 2.248-1.648 2.865-2.947.028-.06.027-.132.047-.195.121-.383.076-.721-.236-1.023a2.444 2.444 0 0 1-.368-.49c-.39-.64-.79-1.278-.986-2.006-.184-.685-.384-1.368-.532-2.06-.08-.375-.181-.714-.464-.993-.103-.1-.112-.242-.102-.38zM4.263 25.307c.458 0 1.05.041 1.629-.014.791-.076 1.581-.078 2.375-.064.724.014 1.45.046 2.17.004 1.618-.096 3.24-.032 4.858-.074.365-.01.667-.09.95-.305a.7.7 0 0 0 .302-.606c-.018-.694-.222-1.312-.682-1.88-.562-.69-1.216-1.213-2.073-1.477-.4-.124-.762-.328-1.134-.511-.566-.28-1.071-.628-1.434-1.154a1.485 1.485 0 0 0-.278-.305c-.338-.276-.492-.659-.633-1.041a1.876 1.876 0 0 1-.055-1.1c.052-.214.295-.277.473-.115.07.063.138.23.215.163.29-.255.634-.214.97-.192.565.037 1.088-.09 1.613-.268.34-.114.61-.293.835-.554.165-.192.225-.397.142-.654-.284-.88-.471-1.778-.475-2.698-.005-1.052-.188-2.092-.247-3.14a2.016 2.016 0 0 0-.072-.4 3.247 3.247 0 0 0-.157-.481c-.35-.787-.902-1.453-1.397-2.152-.098-.138-.236-.252-.366-.364-.805-.696-1.75-.94-2.791-.89-.734.034-1.414.27-2.086.517-.418.153-.78.431-1.036.797-.231.33-.43.684-.622 1.037-.112.205-.175.435-.279.645a4.488 4.488 0 0 0-.425 1.549c-.083.807-.106 1.617-.128 2.427a6.53 6.53 0 0 1-.849 3.086c-.05.088-.11.173-.138.268-.017.055.005.133.035.188a.518.518 0 0 0 .142.148c.48.374 1.054.525 1.632.629.505.09 1.017.159 1.53-.01.254-.085.54-.082.813-.111.15-.016.33.112.418.257a.798.798 0 0 1 .109.588c-.131.593-.301 1.174-.618 1.702a2.21 2.21 0 0 1-.601.673 9.225 9.225 0 0 1-1.765 1.016c-.694.301-1.315.713-1.954 1.102-.413.251-.759.57-1.057.94-.42.52-.655 1.09-.437 1.782.05.157.028.333.043.5a.317.317 0 0 0 .252.283c.235.056.47.12.709.144.48.049.963.073 1.574.116z" stroke="#fff" stroke-width=".8" mask="url(#a)"/>
    </g>
</svg>
