<svg width="158" height="158" viewBox="0 0 158 158" fill="none" xmlns="http://www.w3.org/2000/svg">
<g clip-path="url(#clip0)">
<path d="M131.367 73.794C131.184 83.8298 129.419 94.292 125.948 103.224C122.476 112.156 117.332 119.507 110.414 123.446C103.496 127.385 94.8044 128.004 85.4388 126.172C76.0733 124.341 66.2916 120.101 57.1342 114.38C47.9768 108.66 39.7684 101.543 33.9826 93.9658C28.1968 86.3889 24.9584 78.4105 25.8492 70.984C26.7399 63.5576 31.7682 56.4824 38.9942 50.1515C46.2202 43.8206 55.5191 38.2843 64.8014 33.8936C74.0837 29.503 83.2993 26.325 91.6825 25.1374C100.066 23.9499 107.583 24.7611 113.569 28.2736C119.554 31.7861 124.108 38.1421 127.063 46.0954C130.019 54.0487 131.476 63.7165 131.342 73.794H131.367Z" stroke="#FFB703" stroke-width="1.5"/>
<path d="M131.883 80.0078C131.525 100.238 124.774 122.116 110.63 130.186C96.4859 138.257 75.0992 132.562 56.7262 121.096C38.3531 109.63 23.3183 92.4103 25.1498 77.0891C26.9813 61.7679 45.8122 48.3451 64.4683 39.5387C83.1244 30.7324 101.506 26.7181 113.81 33.9605C126.114 41.203 132.125 59.7607 131.883 80.0329V80.0078Z" fill="#FB8500"/>
<path d="M74.6165 63.2899C78.5545 62.8482 82.5187 62.6861 86.4795 62.8049H94.9875C95.8211 62.7616 96.649 62.9652 97.3684 63.3903C97.8982 63.7537 98.2934 64.283 98.4923 64.8956C98.7266 65.5916 98.8556 66.3189 98.8752 67.0533C98.9169 67.6889 98.8752 68.3412 98.8752 69.0019V69.5037C98.9252 72.573 98.8752 75.6757 98.8752 78.7784C98.8752 80.3172 98.8752 81.8644 98.8752 83.4032C98.8711 85.9206 99.038 88.4354 99.3747 90.93V90.93C99.3747 91.1809 99.483 91.5238 99.5662 91.9169C99.6495 92.3099 99.6828 92.4939 99.741 92.8033C99.9109 93.6104 100.017 94.4298 100.057 95.2537C100.124 95.9763 100.018 96.7044 99.7494 97.378C99.6238 97.6521 99.4267 97.8871 99.179 98.0579C98.9313 98.2287 98.6423 98.3289 98.3424 98.3481C93.5329 98.8493 88.7008 99.1005 83.8654 99.1008C81.6926 99.1008 79.5365 99.1008 77.4553 99.0171C77.2098 99.0298 76.9651 98.9787 76.745 98.8689C76.5248 98.759 76.3365 98.5941 76.1982 98.3899C75.9255 97.9146 75.7847 97.3745 75.7903 96.826C75.7634 96.1451 75.7856 95.4631 75.8569 94.7854C75.8569 94.7269 75.8569 94.66 75.8569 94.6014C75.9149 94.0459 75.9399 93.4873 75.9318 92.9288V92.9288C75.7653 89.9432 75.4989 86.991 75.2408 84.0555C74.6331 77.1643 74.0337 70.3651 74.5748 63.3485L74.6165 63.2899ZM73.5009 62.2613C73.3909 62.3241 73.2996 62.4154 73.2366 62.5257C73.1737 62.6361 73.1413 62.7613 73.143 62.8885C72.6301 69.7923 72.7416 76.7287 73.476 83.6123V83.6123C73.5925 84.6493 73.7091 85.6863 73.8339 86.7234C74.0753 88.7807 74.3084 90.838 74.4749 92.9037C74.5187 93.3822 74.5187 93.8637 74.4749 94.3421C74.4749 94.6349 74.4167 94.9527 74.3834 95.2705C74.3834 95.5883 74.3168 95.9061 74.2918 96.2322C74.2268 96.8516 74.2017 97.4746 74.2169 98.0972C74.2076 98.5943 74.3221 99.0859 74.5499 99.5273V99.5273C74.6824 99.7541 74.8511 99.9576 75.0494 100.129C75.2933 100.299 75.5855 100.384 75.8819 100.372C79.6364 100.539 83.3743 100.539 87.1455 100.456C90.2923 100.372 93.3558 100.138 96.4777 99.8953H96.8356C96.9855 99.8953 97.2519 99.8953 97.5932 99.8953H97.6931C98.1177 99.8953 98.5256 99.8953 98.9668 99.8534C99.3996 99.8286 99.829 99.7614 100.249 99.6527C100.621 99.5702 100.952 99.3566 101.181 99.0506C101.594 98.2144 101.765 97.2782 101.672 96.3493C101.638 95.7135 101.571 95.0798 101.473 94.4509C101.473 94.1833 101.406 93.9324 101.381 93.7066C101.281 92.6612 101.173 91.6158 101.048 90.5787C100.782 88.1618 100.524 85.7951 100.465 83.3363C100.465 81.371 100.465 79.3805 100.465 77.3901C100.604 72.7162 100.459 68.0382 100.032 63.3819C100.009 62.9884 99.8861 62.6073 99.6766 62.274C99.467 61.9407 99.1771 61.6659 98.8336 61.4751C98.1145 61.1172 97.3218 60.9339 96.5193 60.9399C95.6572 60.9224 94.795 60.9643 93.9386 61.0653H93.489C92.848 61.1322 92.2902 61.1908 91.824 61.1908H88.286C83.5011 61.0488 78.7122 61.2248 73.9505 61.7177V61.7177C73.8275 61.75 73.7161 61.8167 73.6292 61.9099C73.5423 62.0031 73.4834 62.1191 73.4593 62.2445L73.5009 62.2613Z" fill="white" stroke="white" stroke-width="0.6"/>
<path d="M79.2783 77.7999C81.6748 77.9757 84.0798 78.0009 86.4794 77.8752C87.6615 77.8752 88.8353 77.8083 89.9758 77.8083H90.8083C91.6415 77.8444 92.4763 77.8193 93.3058 77.733C94.4775 77.6386 95.5656 77.0861 96.3361 76.1942C96.4096 76.0927 96.4658 75.9797 96.5026 75.8597C96.5474 75.7142 96.5835 75.5662 96.6108 75.4164C96.6754 75.0149 96.7171 74.6101 96.7357 74.2038C96.7811 73.122 96.7617 72.0384 96.6774 70.9589C96.611 69.8931 96.4663 68.8337 96.2445 67.7893C96.1588 67.402 96.0361 67.0239 95.8782 66.6603C95.7772 66.3795 95.5752 66.1468 95.3121 66.0079C94.0374 65.5418 92.7031 65.2602 91.3494 65.1716C90.4504 65.0796 89.5263 65.0295 88.6688 64.9876L87.3202 64.904C83.9348 64.7128 80.5441 65.1727 77.3303 66.2588L77.1805 66.3341C77.0839 66.3666 76.9977 66.4244 76.9307 66.5014C76.8592 66.5826 76.8065 66.6787 76.7763 66.7828C76.746 66.8869 76.7391 66.9964 76.7559 67.1035C76.8308 68.0318 76.8641 69.027 76.8891 70.039C76.8891 70.6244 76.8891 71.2098 76.9557 71.8036C76.9796 73.374 77.1949 74.9356 77.5967 76.4535C77.6708 76.8542 77.8794 77.2173 78.1878 77.4821C78.5262 77.6899 78.9151 77.7998 79.3116 77.7999H79.2783ZM79.2783 77.7999V77.549V77.7999ZM79.2783 77.7999V77.549V77.7999ZM79.2783 77.549C81.6553 77.7249 84.041 77.75 86.4211 77.6243C87.6116 77.6243 88.7937 77.549 89.9509 77.549H90.7834C92.6898 77.549 94.8126 77.6327 96.1113 76.0269C96.8605 75.107 96.4443 66.7355 95.1956 66.2254L79.2783 77.549ZM79.3033 77.549C78.3876 77.4738 78.0546 77.2981 77.8048 76.3782L95.2289 66.2421L79.3033 77.549ZM95.2289 66.2421C93.3807 65.4894 90.8583 65.3556 88.6772 65.2385L87.3119 65.1549C84.0671 64.9693 80.816 65.386 77.7216 66.3843C77.6247 66.3304 77.516 66.3017 77.4052 66.3006L95.2289 66.2421ZM78.4292 70.3233C78.3376 69.4117 78.2544 68.4918 78.1794 67.5802C81.9007 66.3341 85.6719 66.3425 89.6095 66.7439L91.3994 66.9948L93.1976 67.2457H93.2808C93.8386 67.1202 94.1133 67.2457 94.2965 67.3544C94.4796 67.4631 94.5212 67.806 94.4047 68.3663V68.4416C94.4879 69.4452 94.5712 70.4738 94.6544 71.5025C94.7377 72.5312 94.8209 73.5515 94.9042 74.555C94.9157 74.6981 94.8903 74.8417 94.8305 74.9721C94.7707 75.1024 94.6785 75.2151 94.5629 75.2994C94.1979 75.5745 93.7818 75.7736 93.3391 75.8848C91.9769 76.2242 90.5801 76.4038 89.1766 76.42C86.8873 76.512 84.5064 76.42 83.0329 76.3447C82.4668 76.3447 82.0422 76.2946 81.8008 76.2946C81.273 76.3078 80.7449 76.291 80.2191 76.2444C79.9197 76.2272 79.6312 76.1258 79.3866 75.9517C79.1713 75.7541 79.0228 75.4939 78.962 75.2074C78.8324 74.6779 78.7516 74.1376 78.7206 73.5933C78.6373 72.5061 78.5291 71.4105 78.4292 70.3233V70.3233ZM78.2211 83.5872H80.3856C80.4942 83.5905 80.6021 83.5679 80.7005 83.5214C80.7988 83.4749 80.8849 83.4058 80.9516 83.3196C81.0755 83.1728 81.1407 82.985 81.1348 82.7927C81.1375 82.5983 81.0728 82.4091 80.9516 82.2575C80.884 82.1728 80.7976 82.1052 80.6993 82.0602C80.601 82.0152 80.4935 81.9939 80.3856 81.9982H78.2211C78.1134 81.9959 78.0065 82.0179 77.9085 82.0628C77.8105 82.1077 77.7238 82.1742 77.655 82.2575C77.5325 82.4071 77.4656 82.5948 77.4656 82.7885C77.4656 82.9822 77.5325 83.1699 77.655 83.3196C77.7234 83.4039 77.8098 83.4716 77.9078 83.518C78.0057 83.5643 78.1128 83.5879 78.2211 83.5872V83.5872ZM88.7604 82.2491C87.7363 82.1752 86.707 82.2314 85.6968 82.4164H85.6552C85.5097 82.4649 85.3804 82.5528 85.2815 82.6705C85.1826 82.7882 85.1179 82.931 85.0947 83.0833C85.0714 83.2355 85.0905 83.3912 85.1497 83.5333C85.209 83.6753 85.3061 83.7982 85.4304 83.8883C85.5204 83.9475 85.6217 83.9871 85.7278 84.0043C85.834 84.0216 85.9425 84.0163 86.0465 83.9886C86.9256 83.8114 87.825 83.7579 88.7188 83.8297C88.8255 83.8448 88.9343 83.8337 89.0358 83.7973C89.1373 83.7609 89.2285 83.7003 89.3015 83.6206C89.4238 83.4724 89.4914 83.2863 89.493 83.0938C89.4968 82.8882 89.425 82.6883 89.2914 82.5325C89.1578 82.3767 88.9717 82.2758 88.7687 82.2491H88.7604ZM92.9229 83.5872C93.9067 83.4761 94.898 83.4482 95.8865 83.5036C95.9925 83.5052 96.0977 83.4844 96.1952 83.4426C96.2927 83.4009 96.3804 83.339 96.4526 83.261C96.5772 83.1146 96.6425 82.9266 96.6358 82.7342C96.6378 82.5312 96.5662 82.3345 96.4345 82.1806C96.3028 82.0268 96.1198 81.9263 95.9198 81.8978C94.9064 81.8418 93.8901 81.8698 92.8812 81.9815V81.9815C92.6873 82.0171 92.5122 82.1207 92.3872 82.2739C92.2622 82.427 92.1954 82.6198 92.1986 82.8178C92.193 83.0073 92.2517 83.1931 92.3651 83.3447C92.434 83.4268 92.5211 83.4915 92.6194 83.5337C92.7177 83.5758 92.8245 83.5941 92.9312 83.5872H92.9229ZM95.9198 89.1988C96.1198 89.1704 96.3028 89.0699 96.4345 88.9161C96.5662 88.7622 96.6378 88.5655 96.6358 88.3625C96.6404 88.2621 96.6243 88.1617 96.5884 88.0678C96.5525 87.9739 96.4976 87.8885 96.4272 87.817C96.3568 87.7455 96.2724 87.6894 96.1794 87.6523C96.0863 87.6152 95.9866 87.5979 95.8865 87.6015C95.5952 87.6015 95.3038 87.6015 95.054 87.6015C94.746 87.6015 94.4463 87.6015 94.1216 87.6015C93.9216 87.6299 93.7387 87.7304 93.607 87.8843C93.4752 88.0381 93.4037 88.2349 93.4057 88.4378C93.3978 88.6319 93.4666 88.8213 93.5972 88.9647C93.6681 89.0424 93.7565 89.1019 93.855 89.1382C93.9534 89.1746 94.0592 89.1868 94.1633 89.1738C94.4546 89.1738 94.7377 89.1738 94.9958 89.1319C95.2705 89.2156 95.5702 89.1988 95.8948 89.1988H95.9198ZM85.8717 88.1116C85.7031 88.1049 85.5353 88.1363 85.3805 88.2036C85.2868 88.2379 85.2018 88.2923 85.1313 88.3631C85.0609 88.4339 85.0067 88.5193 84.9726 88.6134V88.6134C84.9151 88.8254 84.9358 89.0511 85.0308 89.249C85.0752 89.3471 85.145 89.4314 85.2328 89.4932C85.3207 89.555 85.4234 89.592 85.5303 89.6003C86.2842 89.6982 87.043 89.754 87.803 89.7675C87.9105 89.7681 88.0167 89.7453 88.1145 89.7005C88.2122 89.6557 88.2991 89.5901 88.3691 89.5083C88.4902 89.3567 88.555 89.1674 88.5523 88.973C88.555 88.7787 88.4902 88.5894 88.3691 88.4378C88.3003 88.3546 88.2136 88.2881 88.1156 88.2432C88.0176 88.1983 87.9107 88.1762 87.803 88.1785C87.172 88.1949 86.5405 88.1669 85.9133 88.0949L85.8717 88.1116ZM78.6623 89.7843H79.9943C80.1032 89.7867 80.2113 89.7646 80.3106 89.7198C80.41 89.6749 80.4982 89.6084 80.5687 89.525C80.6868 89.3723 80.7486 89.1831 80.7435 88.9898C80.7486 88.7964 80.6868 88.6073 80.5687 88.4545C80.499 88.3702 80.4109 88.303 80.3114 88.258C80.2118 88.2131 80.1034 88.1916 79.9943 88.1953H78.6623C78.5546 88.1929 78.4478 88.215 78.3497 88.2599C78.2517 88.3048 78.1651 88.3713 78.0962 88.4545C77.9751 88.6061 77.9103 88.7954 77.9131 88.9898C77.9103 89.1841 77.9751 89.3734 78.0962 89.525C78.1662 89.6069 78.2531 89.6724 78.3508 89.7172C78.4486 89.762 78.5549 89.7849 78.6623 89.7843ZM78.3792 94.2251C78.2745 94.2588 78.1785 94.3152 78.0979 94.3903C78.0174 94.4655 77.9542 94.5575 77.9131 94.66C77.8449 94.8462 77.8449 95.0507 77.9131 95.237C77.9646 95.4238 78.0791 95.5868 78.237 95.6982C78.3949 95.8095 78.5865 95.8623 78.7788 95.8475C79.1976 95.755 79.624 95.7018 80.0526 95.6886C80.1615 95.691 80.2695 95.669 80.3689 95.6242C80.4683 95.5793 80.5564 95.5128 80.627 95.4294C80.7481 95.2778 80.8129 95.0885 80.8101 94.8941C80.8129 94.6997 80.7481 94.5105 80.627 94.3589C80.5572 94.2745 80.4692 94.2073 80.3697 94.1624C80.2701 94.1175 80.1616 94.096 80.0526 94.0996C79.5474 94.1081 79.0436 94.1556 78.5457 94.2418H78.3543L78.3792 94.2251ZM86.2463 94.3087C86.0447 94.3352 85.8598 94.4349 85.7264 94.589C85.593 94.7431 85.5203 94.9408 85.522 95.145C85.5212 95.3354 85.5893 95.5197 85.7135 95.6635C85.7834 95.7421 85.8695 95.8045 85.9658 95.8464C86.0621 95.8883 86.1663 95.9086 86.2713 95.9061H88.1943C88.3017 95.9067 88.408 95.8838 88.5058 95.839C88.6035 95.7942 88.6904 95.7287 88.7604 95.6468C88.8815 95.4952 88.9463 95.3059 88.9436 95.1116C88.9463 94.9172 88.8815 94.7279 88.7604 94.5763C88.6915 94.4931 88.6049 94.4266 88.5069 94.3817C88.4088 94.3368 88.302 94.3147 88.1943 94.3171L86.2463 94.3087ZM93.6388 93.6397C93.4414 93.6883 93.2661 93.8022 93.1408 93.9629C93.0155 94.1237 92.9476 94.322 92.9478 94.5261C92.9443 94.7145 93.0128 94.8971 93.1393 95.0363C93.2161 95.1121 93.3098 95.1684 93.4126 95.2004C93.5154 95.2324 93.6244 95.2392 93.7304 95.2203C94.3805 95.1572 95.0337 95.132 95.6867 95.145C95.7921 95.1574 95.8988 95.1449 95.9985 95.1086C96.0982 95.0723 96.1881 95.0132 96.2611 94.9359C96.3871 94.7904 96.4527 94.6018 96.4443 94.4091C96.4463 94.2061 96.3747 94.0094 96.243 93.8555C96.1113 93.7017 95.9284 93.6011 95.7284 93.5727C95.0452 93.5134 94.3574 93.5387 93.6804 93.648L93.6388 93.6397Z" fill="white" stroke="white" stroke-width="0.6"/>
</g>
<defs>
<clipPath id="clip0">
<rect width="107" height="110" fill="white" transform="translate(25 24)"/>
</clipPath>
</defs>
</svg>
