<svg width="158" height="158" viewBox="0 0 158 158" fill="none" xmlns="http://www.w3.org/2000/svg">
<g clip-path="url(#clip0)">
<path d="M98.269 40.5886C106.117 46.366 112.903 53.4555 118.326 61.543C123.369 69.35 126.196 77.5638 125.363 85.2294C124.53 92.895 120.045 100.092 113.274 106.405C106.503 112.718 97.5511 118.076 87.8017 122.045C78.0524 126.015 67.7802 128.447 58.5538 128.712C49.3275 128.977 41.1824 126.997 35.8645 122.098C30.5467 117.2 27.8878 109.234 27.0015 99.9947C26.1152 90.7553 27.1168 80.2428 28.9691 70.4198C30.8215 60.5969 33.5868 51.552 37.4333 44.2755C41.2798 36.9989 46.1456 31.4906 52.3497 28.7675C58.5538 26.0443 66.0519 26.115 74.0375 28.2546C82.0231 30.3943 90.4163 34.762 98.2601 40.6328L98.269 40.5886Z" stroke="#FFB703" stroke-width="1.5"/>
<path d="M103.489 43.6653C119.203 55.4157 132.56 73.1606 130.849 88.9073C129.139 104.654 112.414 118.279 92.8979 126.263C73.3816 134.247 51.2418 136.333 40.2162 126.192C29.1906 116.051 29.3856 93.5668 33.1258 73.8591C36.866 54.1513 44.1957 37.3701 56.9141 31.7646C69.6325 26.1591 87.6953 31.9326 103.489 43.6653Z" fill="#FFB703"/>
<path d="M89.7604 89.3848C89.2907 87.2363 87.6422 85.9543 86.0646 84.7165C84.6789 83.6885 83.1944 82.8 81.6331 82.0641C80.7101 81.6438 79.7356 81.3465 78.7349 81.1799C75.8633 80.5787 73.098 81.5336 70.2884 81.7988C70.1894 81.8209 70.094 81.8567 70.0048 81.9049C66.0962 83.6732 63.2601 86.3257 62.1345 90.5873C61.6647 92.3556 61.2482 94.1239 60.7075 96.0071C60.8209 96.3126 61.0385 96.5686 61.322 96.7303C61.6056 96.8919 61.9371 96.9489 62.2585 96.8913C65.6885 96.7321 69.1185 97.1742 72.5574 96.9709C74.9681 96.8294 77.3966 97.183 79.8162 97.2449C82.8562 97.3157 85.905 97.3687 88.9451 97.3422C89.6102 97.4144 90.2826 97.3073 90.8921 97.032C91.5016 96.7568 92.026 96.3235 92.4105 95.7772C91.7635 93.558 91.2317 91.2504 89.7604 89.3848ZM63.6146 94.3714C63.6146 94.1946 63.4373 93.9736 63.4994 93.8498C64.3623 91.9052 65.3389 90.0128 66.4242 88.1824C67.5773 86.4847 69.2993 85.2527 71.2811 84.7077C72.256 84.4247 73.2398 84.1683 74.2325 83.9473C76.5277 83.4509 78.9182 83.6331 81.1112 84.4718C83.3041 85.3104 85.2042 86.7689 86.5786 88.6687C87.1729 89.5122 87.7032 90.3988 88.1651 91.3211C88.5881 92.3127 88.9608 93.3248 89.2818 94.3538C86.7825 94.6632 65.9544 94.6721 63.6146 94.3714ZM69.411 74.3896C71.2961 75.7879 73.5458 76.6138 75.8898 76.768C78.726 76.9625 80.8974 75.4506 83.2461 73.8768C83.5445 72.6312 83.6992 71.3556 83.707 70.075C83.5231 68.6683 83.1036 67.3025 82.4662 66.0344C82.0463 65.2277 81.3994 64.5609 80.605 64.1158C79.0922 63.2599 77.3308 62.9478 75.6151 63.2316C73.1157 63.6472 70.5986 64.1158 68.8792 66.3173C68.7551 66.4765 68.6133 66.6179 68.3386 66.9185C68.0585 67.4896 67.8215 68.0807 67.6295 68.6868C67.0623 70.9149 67.4877 72.975 69.411 74.3896ZM76.2178 65.6807C76.8997 65.6073 77.5894 65.6858 78.2372 65.9104C78.8851 66.1351 79.4749 66.5004 79.9641 66.98C80.4533 67.4595 80.8297 68.0414 81.0662 68.6836C81.3027 69.3259 81.3934 70.0124 81.3317 70.6939C81.3113 71.2944 81.1379 71.8799 80.8277 72.395C80.5176 72.9102 80.081 73.338 79.5591 73.6381C78.6728 73.8415 77.7865 74.0271 76.9002 74.257C75.6073 74.561 74.253 74.4749 73.0094 74.0094C70.8379 73.2668 70.1821 72.3296 70.0225 69.7213C71.157 66.9362 73.4348 65.8929 76.2266 65.6807H76.2178Z" fill="white"/>
</g>
<defs>
<clipPath id="clip0">
<rect width="105" height="107" fill="white" transform="translate(26 26)"/>
</clipPath>
</defs>
</svg>
