<svg width="158" height="158" viewBox="0 0 158 158" fill="none" xmlns="http://www.w3.org/2000/svg">
<g clip-path="url(#clip0)">
<path d="M126.556 63.7222C129.228 73.3072 130.218 83.2816 129.483 93.2039C128.636 102.623 125.733 111.065 120.223 116.732C114.713 122.398 106.546 125.371 97.113 126.209C87.6798 127.046 77.0788 125.716 66.7657 122.817C56.4526 119.918 46.6165 115.426 38.9926 109.801C31.3688 104.175 26.0807 97.4824 24.8882 90.19C23.6957 82.8976 26.533 74.7676 31.7225 66.7443C36.9119 58.721 44.2643 50.8866 51.9457 44.1609C59.6271 37.4351 67.5717 31.8426 75.2449 28.4099C82.918 24.9773 90.3691 23.6551 97.0472 25.3468C103.725 27.0385 109.803 31.7934 114.853 38.5684C119.902 45.3434 123.932 54.1058 126.556 63.7222Z" stroke="#9A55FB" stroke-width="1.5"/>
<path d="M128.776 69.4872C134.007 88.8186 133.563 111.484 122.271 123.088C110.979 134.692 88.9381 135.16 68.205 129.337C47.4718 123.515 28.3506 111.271 25.8833 96.2178C23.416 81.1649 37.7344 63.1556 53.1465 49.6302C68.5586 36.1047 85.0481 27.2028 98.8071 30.6765C112.566 34.1503 123.463 50.1393 128.776 69.4872Z" fill="#9A55FB"/>
<path d="M70.9683 102.245C79.1267 103.789 87.3426 102.763 95.5504 102.295C95.915 102.289 96.2634 102.143 96.5236 101.888C96.7838 101.632 96.9359 101.287 96.9485 100.923C97.7709 93.3927 96.9485 85.7226 98.1328 78.2331C98.8236 73.741 98.8976 69.5035 95.3694 66.2022C89.152 60.3634 78.5016 63.2294 70.9107 62.0962C70.7606 62.0754 70.6084 62.0754 70.4584 62.0962C70.1158 62.1068 69.7907 62.2496 69.5514 62.4947C69.3122 62.7397 69.1774 63.0679 69.1754 63.4101C68.8218 75.9172 69.5702 88.4079 69.9978 100.899C69.9914 101.198 70.0826 101.491 70.2576 101.734C70.4327 101.977 70.6821 102.156 70.9683 102.245V102.245ZM89.1602 66.1119C90.3504 66.4519 91.494 66.9373 92.565 67.5573C95.0322 69.0026 95.7477 71.302 95.7806 73.7985C95.5854 73.7575 95.3837 73.7575 95.1885 73.7985C92.7895 74.5078 90.2696 74.7147 87.7867 74.4062C88.1979 71.6223 88.7407 68.8548 89.1437 66.0708L89.1602 66.1119ZM71.8894 64.9704C76.643 65.3728 81.7584 64.7569 86.5284 65.5124C86.0843 68.8712 85.3688 72.1971 84.8836 75.5559C84.8776 75.8568 84.9734 76.151 85.1554 76.3909C85.3375 76.6308 85.5952 76.8024 85.8869 76.8781C89.1011 77.5503 92.4303 77.4376 95.5915 76.5496C95.4106 78.0195 95.1474 79.4731 95.0076 80.787C94.3332 87.0529 94.8266 93.3845 94.2756 99.675C87.0795 100.135 79.8011 100.981 72.6378 99.8064C72.2759 88.1616 71.6098 76.5578 71.8647 64.9376L71.8894 64.9704Z" fill="white"/>
<path d="M75.6314 82.3967C77.0797 81.6052 78.6596 81.0822 80.2945 80.8528C82.1779 80.705 83.4033 82.331 85.007 82.9223C87.3262 83.7435 89.1191 82.9962 91.3643 82.2489C92.4746 81.8875 91.9976 80.1219 90.8791 80.4915C88.6585 81.2223 87.0055 82.0107 84.7603 80.705C83.7087 79.9909 82.5475 79.4528 81.3226 79.1118C79.0856 78.6027 76.7006 79.933 74.7432 80.8281C73.6741 81.3209 74.6034 82.8894 75.6643 82.3967H75.6314ZM75.6314 89.2867C77.0797 88.4952 78.6596 87.9722 80.2945 87.7428C82.1779 87.595 83.4033 89.221 85.007 89.8123C87.3262 90.6335 89.1191 89.8862 91.3643 89.1389C92.4746 88.7693 91.9976 87.0119 90.8791 87.3815C88.6585 88.1123 87.0055 88.9007 84.7603 87.595C83.7087 86.8809 82.5475 86.3428 81.3226 86.0018C79.0856 85.4927 76.7006 86.823 74.7432 87.7182C73.6741 88.2109 74.6034 89.7794 75.6643 89.2867H75.6314ZM75.6314 96.1767C77.0793 95.3827 78.6591 94.8569 80.2945 94.6246C82.1779 94.485 83.4033 96.1028 85.007 96.7023C87.3262 97.5235 89.1191 96.768 91.3643 96.0206C92.4746 95.6593 91.9976 93.8937 90.8791 94.2632C88.6585 94.9941 87.0055 95.7907 84.7603 94.4768C83.7083 93.7654 82.5471 93.23 81.3226 92.8918C79.0856 92.3827 76.7006 93.713 74.7432 94.5999C73.6741 95.0927 74.6034 96.6694 75.6643 96.1767H75.6314Z" fill="white"/>
</g>
<defs>
<clipPath id="clip0">
<rect width="108" height="109" fill="white" transform="translate(24 24)"/>
</clipPath>
</defs>
</svg>
